<svg width="100" height="74" viewBox="0 0 100 74" fill="none" xmlns="http://www.w3.org/2000/svg">
<g clip-path="url(#clip0_28_2)">
<path d="M15.82 25H-15.12C-16.0067 25 -16.66 24.8133 -17.08 24.44C-17.4533 24.02 -17.64 23.3667 -17.64 22.48V14.01C-17.64 13.1233 -17.4533 12.4933 -17.08 12.12C-16.66 11.7 -16.0067 11.49 -15.12 11.49H-7.28V-11.89H-13.72C-14.6067 -11.89 -15.26 -12.0767 -15.68 -12.45C-16.0533 -12.87 -16.24 -13.5233 -16.24 -14.41V-22.88C-16.24 -23.7667 -16.0533 -24.3967 -15.68 -24.77C-15.26 -25.19 -14.6067 -25.4 -13.72 -25.4H6.58C7.46667 -25.4 8.09667 -25.19 8.47 -24.77C8.89 -24.3967 9.1 -23.7667 9.1 -22.88V11.49H15.82C16.7067 11.49 17.3367 11.7 17.71 12.12C18.13 12.4933 18.34 13.1233 18.34 14.01V22.48C18.34 23.3667 18.13 24.02 17.71 24.44C17.3367 24.8133 16.7067 25 15.82 25ZM-11.34 19.05H12.04V18.35H1.26V-19.1H-9.94V-18.4H0.560002V18.35H-11.34V19.05Z" fill="white" fill-opacity="0.02"/>
<path d="M115.82 25H84.88C83.9933 25 83.34 24.8133 82.92 24.44C82.5467 24.02 82.36 23.3667 82.36 22.48V14.01C82.36 13.1233 82.5467 12.4933 82.92 12.12C83.34 11.7 83.9933 11.49 84.88 11.49H92.72V-11.89H86.28C85.3933 -11.89 84.74 -12.0767 84.32 -12.45C83.9467 -12.87 83.76 -13.5233 83.76 -14.41V-22.88C83.76 -23.7667 83.9467 -24.3967 84.32 -24.77C84.74 -25.19 85.3933 -25.4 86.28 -25.4H106.58C107.467 -25.4 108.097 -25.19 108.47 -24.77C108.89 -24.3967 109.1 -23.7667 109.1 -22.88V11.49H115.82C116.707 11.49 117.337 11.7 117.71 12.12C118.13 12.4933 118.34 13.1233 118.34 14.01V22.48C118.34 23.3667 118.13 24.02 117.71 24.44C117.337 24.8133 116.707 25 115.82 25ZM88.66 19.05H112.04V18.35H101.26V-19.1H90.06V-18.4H100.56V18.35H88.66V19.05Z" fill="white" fill-opacity="0.02"/>
<path d="M115.82 99H84.88C83.9933 99 83.34 98.8133 82.92 98.44C82.5467 98.02 82.36 97.3667 82.36 96.48V88.01C82.36 87.1233 82.5467 86.4933 82.92 86.12C83.34 85.7 83.9933 85.49 84.88 85.49H92.72V62.11H86.28C85.3933 62.11 84.74 61.9233 84.32 61.55C83.9467 61.13 83.76 60.4767 83.76 59.59V51.12C83.76 50.2333 83.9467 49.6033 84.32 49.23C84.74 48.81 85.3933 48.6 86.28 48.6H106.58C107.467 48.6 108.097 48.81 108.47 49.23C108.89 49.6033 109.1 50.2333 109.1 51.12V85.49H115.82C116.707 85.49 117.337 85.7 117.71 86.12C118.13 86.4933 118.34 87.1233 118.34 88.01V96.48C118.34 97.3667 118.13 98.02 117.71 98.44C117.337 98.8133 116.707 99 115.82 99ZM88.66 93.05H112.04V92.35H101.26V54.9H90.06V55.6H100.56V92.35H88.66V93.05Z" fill="white" fill-opacity="0.02"/>
<path d="M15.82 99H-15.12C-16.0067 99 -16.66 98.8133 -17.08 98.44C-17.4533 98.02 -17.64 97.3667 -17.64 96.48V88.01C-17.64 87.1233 -17.4533 86.4933 -17.08 86.12C-16.66 85.7 -16.0067 85.49 -15.12 85.49H-7.28V62.11H-13.72C-14.6067 62.11 -15.26 61.9233 -15.68 61.55C-16.0533 61.13 -16.24 60.4767 -16.24 59.59V51.12C-16.24 50.2333 -16.0533 49.6033 -15.68 49.23C-15.26 48.81 -14.6067 48.6 -13.72 48.6H6.58C7.46667 48.6 8.09667 48.81 8.47 49.23C8.89 49.6033 9.1 50.2333 9.1 51.12V85.49H15.82C16.7067 85.49 17.3367 85.7 17.71 86.12C18.13 86.4933 18.34 87.1233 18.34 88.01V96.48C18.34 97.3667 18.13 98.02 17.71 98.44C17.3367 98.8133 16.7067 99 15.82 99ZM-11.34 93.05H12.04V92.35H1.26V54.9H-9.94V55.6H0.560002V92.35H-11.34V93.05Z" fill="white" fill-opacity="0.02"/>
<path d="M65.82 62H34.88C33.9933 62 33.34 61.8133 32.92 61.44C32.5467 61.02 32.36 60.3667 32.36 59.48V51.01C32.36 50.1233 32.5467 49.4933 32.92 49.12C33.34 48.7 33.9933 48.49 34.88 48.49H42.72V25.11H36.28C35.3933 25.11 34.74 24.9233 34.32 24.55C33.9467 24.13 33.76 23.4767 33.76 22.59V14.12C33.76 13.2333 33.9467 12.6033 34.32 12.23C34.74 11.81 35.3933 11.6 36.28 11.6H56.58C57.4667 11.6 58.0967 11.81 58.47 12.23C58.89 12.6033 59.1 13.2333 59.1 14.12V48.49H65.82C66.7067 48.49 67.3367 48.7 67.71 49.12C68.13 49.4933 68.34 50.1233 68.34 51.01V59.48C68.34 60.3667 68.13 61.02 67.71 61.44C67.3367 61.8133 66.7067 62 65.82 62ZM38.66 56.05H62.04V55.35H51.26V17.9H40.06V18.6H50.56V55.35H38.66V56.05Z" fill="white" fill-opacity="0.02"/>
</g>
<defs>
<clipPath id="clip0_28_2">
<rect width="100" height="74" fill="white"/>
</clipPath>
</defs>
</svg>
