<svg width="100" height="100" viewBox="0 0 100 100" fill="none" xmlns="http://www.w3.org/2000/svg">
<g clip-path="url(#clip0_28_2)">
<path d="M-14.8896 25.2998H-8.87402V-14.5195H-14.8896V-17.2197C-11.9502 -17.2197 -9.31836 -17.5387 -6.99414 -18.1768C-4.66992 -18.8148 -2.77865 -19.5667 -1.32031 -20.4326H13.0693V25.2998H19.0166V28H-14.8896V25.2998Z" fill="white" fill-opacity="0.02"/>
<path d="M85.1104 25.2998H91.126V-14.5195H85.1104V-17.2197C88.0498 -17.2197 90.6816 -17.5387 93.0059 -18.1768C95.3301 -18.8148 97.2214 -19.5667 98.6797 -20.4326H113.069V25.2998H119.017V28H85.1104V25.2998Z" fill="white" fill-opacity="0.02"/>
<path d="M85.1104 125.3H91.126V85.4805H85.1104V82.7803C88.0498 82.7803 90.6816 82.4613 93.0059 81.8232C95.3301 81.1852 97.2214 80.4333 98.6797 79.5674H113.069V125.3H119.017V128H85.1104V125.3Z" fill="white" fill-opacity="0.02"/>
<path d="M-14.8896 125.3H-8.87402V85.4805H-14.8896V82.7803C-11.9502 82.7803 -9.31836 82.4613 -6.99414 81.8232C-4.66992 81.1852 -2.77865 80.4333 -1.32031 79.5674H13.0693V125.3H19.0166V128H-14.8896V125.3Z" fill="white" fill-opacity="0.02"/>
<path d="M35.1104 75.2998H41.126V35.4805H35.1104V32.7803C38.0498 32.7803 40.6816 32.4613 43.0059 31.8232C45.3301 31.1852 47.2214 30.4333 48.6797 29.5674H63.0693V75.2998H69.0166V78H35.1104V75.2998Z" fill="white" fill-opacity="0.02"/>
</g>
<defs>
<clipPath id="clip0_28_2">
<rect width="100" height="100" fill="white"/>
</clipPath>
</defs>
</svg>
