<svg width="100" height="82" viewBox="0 0 100 82" fill="none" xmlns="http://www.w3.org/2000/svg">
<g clip-path="url(#clip0_28_2)">
<path d="M15.82 25H-15.12C-16.0067 25 -16.66 24.8133 -17.08 24.44C-17.4533 24.02 -17.64 23.3667 -17.64 22.48V14.01C-17.64 13.1233 -17.4533 12.4933 -17.08 12.12C-16.66 11.7 -16.0067 11.49 -15.12 11.49H-7.28V-11.89H-13.72C-14.6067 -11.89 -15.26 -12.0767 -15.68 -12.45C-16.0533 -12.87 -16.24 -13.5233 -16.24 -14.41V-22.88C-16.24 -23.7667 -16.0533 -24.3967 -15.68 -24.77C-15.26 -25.19 -14.6067 -25.4 -13.72 -25.4H6.58C7.46667 -25.4 8.09667 -25.19 8.47 -24.77C8.89 -24.3967 9.1 -23.7667 9.1 -22.88V11.49H15.82C16.7067 11.49 17.3367 11.7 17.71 12.12C18.13 12.4933 18.34 13.1233 18.34 14.01V22.48C18.34 23.3667 18.13 24.02 17.71 24.44C17.3367 24.8133 16.7067 25 15.82 25ZM-11.34 19.05H12.04V18.35H1.26V-19.1H-9.94V-18.4H0.560002V18.35H-11.34V19.05Z" fill="white" fill-opacity="0.02"/>
<path d="M115.82 25H84.88C83.9933 25 83.34 24.8133 82.92 24.44C82.5467 24.02 82.36 23.3667 82.36 22.48V14.01C82.36 13.1233 82.5467 12.4933 82.92 12.12C83.34 11.7 83.9933 11.49 84.88 11.49H92.72V-11.89H86.28C85.3933 -11.89 84.74 -12.0767 84.32 -12.45C83.9467 -12.87 83.76 -13.5233 83.76 -14.41V-22.88C83.76 -23.7667 83.9467 -24.3967 84.32 -24.77C84.74 -25.19 85.3933 -25.4 86.28 -25.4H106.58C107.467 -25.4 108.097 -25.19 108.47 -24.77C108.89 -24.3967 109.1 -23.7667 109.1 -22.88V11.49H115.82C116.707 11.49 117.337 11.7 117.71 12.12C118.13 12.4933 118.34 13.1233 118.34 14.01V22.48C118.34 23.3667 118.13 24.02 117.71 24.44C117.337 24.8133 116.707 25 115.82 25ZM88.66 19.05H112.04V18.35H101.26V-19.1H90.06V-18.4H100.56V18.35H88.66V19.05Z" fill="white" fill-opacity="0.02"/>
<path d="M115.82 107H84.88C83.9933 107 83.34 106.813 82.92 106.44C82.5467 106.02 82.36 105.367 82.36 104.48V96.01C82.36 95.1233 82.5467 94.4933 82.92 94.12C83.34 93.7 83.9933 93.49 84.88 93.49H92.72V70.11H86.28C85.3933 70.11 84.74 69.9233 84.32 69.55C83.9467 69.13 83.76 68.4767 83.76 67.59V59.12C83.76 58.2333 83.9467 57.6033 84.32 57.23C84.74 56.81 85.3933 56.6 86.28 56.6H106.58C107.467 56.6 108.097 56.81 108.47 57.23C108.89 57.6033 109.1 58.2333 109.1 59.12V93.49H115.82C116.707 93.49 117.337 93.7 117.71 94.12C118.13 94.4933 118.34 95.1233 118.34 96.01V104.48C118.34 105.367 118.13 106.02 117.71 106.44C117.337 106.813 116.707 107 115.82 107ZM88.66 101.05H112.04V100.35H101.26V62.9H90.06V63.6H100.56V100.35H88.66V101.05Z" fill="white" fill-opacity="0.02"/>
<path d="M15.82 107H-15.12C-16.0067 107 -16.66 106.813 -17.08 106.44C-17.4533 106.02 -17.64 105.367 -17.64 104.48V96.01C-17.64 95.1233 -17.4533 94.4933 -17.08 94.12C-16.66 93.7 -16.0067 93.49 -15.12 93.49H-7.28V70.11H-13.72C-14.6067 70.11 -15.26 69.9233 -15.68 69.55C-16.0533 69.13 -16.24 68.4767 -16.24 67.59V59.12C-16.24 58.2333 -16.0533 57.6033 -15.68 57.23C-15.26 56.81 -14.6067 56.6 -13.72 56.6H6.58C7.46667 56.6 8.09667 56.81 8.47 57.23C8.89 57.6033 9.1 58.2333 9.1 59.12V93.49H15.82C16.7067 93.49 17.3367 93.7 17.71 94.12C18.13 94.4933 18.34 95.1233 18.34 96.01V104.48C18.34 105.367 18.13 106.02 17.71 106.44C17.3367 106.813 16.7067 107 15.82 107ZM-11.34 101.05H12.04V100.35H1.26V62.9H-9.94V63.6H0.560002V100.35H-11.34V101.05Z" fill="white" fill-opacity="0.02"/>
<path d="M65.82 66H34.88C33.9933 66 33.34 65.8133 32.92 65.44C32.5467 65.02 32.36 64.3667 32.36 63.48V55.01C32.36 54.1233 32.5467 53.4933 32.92 53.12C33.34 52.7 33.9933 52.49 34.88 52.49H42.72V29.11H36.28C35.3933 29.11 34.74 28.9233 34.32 28.55C33.9467 28.13 33.76 27.4767 33.76 26.59V18.12C33.76 17.2333 33.9467 16.6033 34.32 16.23C34.74 15.81 35.3933 15.6 36.28 15.6H56.58C57.4667 15.6 58.0967 15.81 58.47 16.23C58.89 16.6033 59.1 17.2333 59.1 18.12V52.49H65.82C66.7067 52.49 67.3367 52.7 67.71 53.12C68.13 53.4933 68.34 54.1233 68.34 55.01V63.48C68.34 64.3667 68.13 65.02 67.71 65.44C67.3367 65.8133 66.7067 66 65.82 66ZM38.66 60.05H62.04V59.35H51.26V21.9H40.06V22.6H50.56V59.35H38.66V60.05Z" fill="white" fill-opacity="0.02"/>
</g>
<defs>
<clipPath id="clip0_28_2">
<rect width="100" height="82" fill="white"/>
</clipPath>
</defs>
</svg>
