<svg width="100" height="100" viewBox="0 0 100 100" fill="none" xmlns="http://www.w3.org/2000/svg">
<g clip-path="url(#clip0_28_2)">
<path d="M-15.334 16.6855H-10.1777V-17.4453H-15.334V-19.7598C-12.8145 -19.7598 -10.5586 -20.0332 -8.56641 -20.5801C-6.57422 -21.127 -4.95312 -21.7715 -3.70312 -22.5137H8.63086V16.6855H13.7285V19H-15.334V16.6855Z" fill="white" fill-opacity="0.05"/>
<path d="M84.666 16.6855H89.8223V-17.4453H84.666V-19.7598C87.1855 -19.7598 89.4414 -20.0332 91.4336 -20.5801C93.4258 -21.127 95.0469 -21.7715 96.2969 -22.5137H108.631V16.6855H113.729V19H84.666V16.6855Z" fill="white" fill-opacity="0.05"/>
<path d="M84.666 116.686H89.8223V82.5547H84.666V80.2402C87.1855 80.2402 89.4414 79.9668 91.4336 79.4199C93.4258 78.873 95.0469 78.2285 96.2969 77.4863H108.631V116.686H113.729V119H84.666V116.686Z" fill="white" fill-opacity="0.05"/>
<path d="M-15.334 116.686H-10.1777V82.5547H-15.334V80.2402C-12.8145 80.2402 -10.5586 79.9668 -8.56641 79.4199C-6.57422 78.873 -4.95312 78.2285 -3.70312 77.4863H8.63086V116.686H13.7285V119H-15.334V116.686Z" fill="white" fill-opacity="0.05"/>
<path d="M34.666 66.6855H39.8223V32.5547H34.666V30.2402C37.1855 30.2402 39.4414 29.9668 41.4336 29.4199C43.4258 28.873 45.0469 28.2285 46.2969 27.4863H58.6309V66.6855H63.7285V69H34.666V66.6855Z" fill="white" fill-opacity="0.05"/>
</g>
<defs>
<clipPath id="clip0_28_2">
<rect width="100" height="100" fill="white"/>
</clipPath>
</defs>
</svg>
