<svg width="100" height="100" viewBox="0 0 100 100" fill="none" xmlns="http://www.w3.org/2000/svg">
<g clip-path="url(#clip0_28_2)">
<path d="M17.84 37.33H-13.1C-14.22 37.33 -15.0367 37.0733 -15.55 36.56C-16.0633 36.0467 -16.32 35.23 -16.32 34.11V25.64C-16.32 25.0333 -16.25 24.52 -16.11 24.1C-15.9233 23.68 -15.6667 23.33 -15.34 23.05L-6.31 15.42C-6.26333 15.3733 -6.21667 15.35 -6.17 15.35C-6.07667 15.3033 -6.00667 15.2567 -5.96 15.21V0.439998H-11.7C-12.82 0.439998 -13.6367 0.183332 -14.15 -0.330002C-14.6633 -0.843334 -14.92 -1.66 -14.92 -2.78V-11.25C-14.92 -11.8567 -14.85 -12.37 -14.71 -12.79C-14.5233 -13.21 -14.2667 -13.56 -13.94 -13.84L-4.91 -21.47C-4.67667 -21.6567 -4.37333 -21.7967 -4 -21.89C-3.58 -22.03 -3.13667 -22.1 -2.67 -22.1H17.63C18.75 -22.1 19.5667 -21.8433 20.08 -21.33C20.5933 -20.8167 20.85 -20 20.85 -18.88V14.79H26.87C27.99 14.79 28.8067 15.0467 29.32 15.56C29.8333 16.0733 30.09 16.89 30.09 18.01V26.48C30.09 27.0867 29.9967 27.6 29.81 28.02C29.67 28.44 29.4367 28.79 29.11 29.07L20.01 36.63C19.8233 36.8167 19.52 36.98 19.1 37.12C18.7267 37.26 18.3067 37.33 17.84 37.33ZM26.87 29C27.7567 29 28.3867 28.8133 28.76 28.44C29.18 28.02 29.39 27.3667 29.39 26.48V18.01C29.39 17.1233 29.18 16.4933 28.76 16.12C28.3867 15.7 27.7567 15.49 26.87 15.49H20.15V-18.88C20.15 -19.7667 19.94 -20.3967 19.52 -20.77C19.1467 -21.19 18.5167 -21.4 17.63 -21.4H-2.67C-3.55667 -21.4 -4.21 -21.19 -4.63 -20.77C-5.00333 -20.3967 -5.19 -19.7667 -5.19 -18.88V-10.41C-5.19 -9.52334 -5.00333 -8.87 -4.63 -8.45C-4.21 -8.07667 -3.55667 -7.89 -2.67 -7.89H3.77V15.49H-4.07C-4.95667 15.49 -5.61 15.7 -6.03 16.12C-6.40333 16.4933 -6.59 17.1233 -6.59 18.01V26.48C-6.59 27.3667 -6.40333 28.02 -6.03 28.44C-5.61 28.8133 -4.95667 29 -4.07 29H26.87ZM-0.289999 23.05V22.35H11.61V-14.4H1.11V-15.1H12.31V22.35H23.09V23.05H-0.289999Z" fill="white" fill-opacity="0.02"/>
<path d="M117.84 37.33H86.9C85.78 37.33 84.9633 37.0733 84.45 36.56C83.9367 36.0467 83.68 35.23 83.68 34.11V25.64C83.68 25.0333 83.75 24.52 83.89 24.1C84.0767 23.68 84.3333 23.33 84.66 23.05L93.69 15.42C93.7367 15.3733 93.7833 15.35 93.83 15.35C93.9233 15.3033 93.9933 15.2567 94.04 15.21V0.439998H88.3C87.18 0.439998 86.3633 0.183332 85.85 -0.330002C85.3367 -0.843334 85.08 -1.66 85.08 -2.78V-11.25C85.08 -11.8567 85.15 -12.37 85.29 -12.79C85.4767 -13.21 85.7333 -13.56 86.06 -13.84L95.09 -21.47C95.3233 -21.6567 95.6267 -21.7967 96 -21.89C96.42 -22.03 96.8633 -22.1 97.33 -22.1H117.63C118.75 -22.1 119.567 -21.8433 120.08 -21.33C120.593 -20.8167 120.85 -20 120.85 -18.88V14.79H126.87C127.99 14.79 128.807 15.0467 129.32 15.56C129.833 16.0733 130.09 16.89 130.09 18.01V26.48C130.09 27.0867 129.997 27.6 129.81 28.02C129.67 28.44 129.437 28.79 129.11 29.07L120.01 36.63C119.823 36.8167 119.52 36.98 119.1 37.12C118.727 37.26 118.307 37.33 117.84 37.33ZM126.87 29C127.757 29 128.387 28.8133 128.76 28.44C129.18 28.02 129.39 27.3667 129.39 26.48V18.01C129.39 17.1233 129.18 16.4933 128.76 16.12C128.387 15.7 127.757 15.49 126.87 15.49H120.15V-18.88C120.15 -19.7667 119.94 -20.3967 119.52 -20.77C119.147 -21.19 118.517 -21.4 117.63 -21.4H97.33C96.4433 -21.4 95.79 -21.19 95.37 -20.77C94.9967 -20.3967 94.81 -19.7667 94.81 -18.88V-10.41C94.81 -9.52334 94.9967 -8.87 95.37 -8.45C95.79 -8.07667 96.4433 -7.89 97.33 -7.89H103.77V15.49H95.93C95.0433 15.49 94.39 15.7 93.97 16.12C93.5967 16.4933 93.41 17.1233 93.41 18.01V26.48C93.41 27.3667 93.5967 28.02 93.97 28.44C94.39 28.8133 95.0433 29 95.93 29H126.87ZM99.71 23.05V22.35H111.61V-14.4H101.11V-15.1H112.31V22.35H123.09V23.05H99.71Z" fill="white" fill-opacity="0.02"/>
<path d="M117.84 137.33H86.9C85.78 137.33 84.9633 137.073 84.45 136.56C83.9367 136.047 83.68 135.23 83.68 134.11V125.64C83.68 125.033 83.75 124.52 83.89 124.1C84.0767 123.68 84.3333 123.33 84.66 123.05L93.69 115.42C93.7367 115.373 93.7833 115.35 93.83 115.35C93.9233 115.303 93.9933 115.257 94.04 115.21V100.44H88.3C87.18 100.44 86.3633 100.183 85.85 99.67C85.3367 99.1567 85.08 98.34 85.08 97.22V88.75C85.08 88.1433 85.15 87.63 85.29 87.21C85.4767 86.79 85.7333 86.44 86.06 86.16L95.09 78.53C95.3233 78.3433 95.6267 78.2033 96 78.11C96.42 77.97 96.8633 77.9 97.33 77.9H117.63C118.75 77.9 119.567 78.1567 120.08 78.67C120.593 79.1833 120.85 80 120.85 81.12V114.79H126.87C127.99 114.79 128.807 115.047 129.32 115.56C129.833 116.073 130.09 116.89 130.09 118.01V126.48C130.09 127.087 129.997 127.6 129.81 128.02C129.67 128.44 129.437 128.79 129.11 129.07L120.01 136.63C119.823 136.817 119.52 136.98 119.1 137.12C118.727 137.26 118.307 137.33 117.84 137.33ZM126.87 129C127.757 129 128.387 128.813 128.76 128.44C129.18 128.02 129.39 127.367 129.39 126.48V118.01C129.39 117.123 129.18 116.493 128.76 116.12C128.387 115.7 127.757 115.49 126.87 115.49H120.15V81.12C120.15 80.2333 119.94 79.6033 119.52 79.23C119.147 78.81 118.517 78.6 117.63 78.6H97.33C96.4433 78.6 95.79 78.81 95.37 79.23C94.9967 79.6033 94.81 80.2333 94.81 81.12V89.59C94.81 90.4767 94.9967 91.13 95.37 91.55C95.79 91.9233 96.4433 92.11 97.33 92.11H103.77V115.49H95.93C95.0433 115.49 94.39 115.7 93.97 116.12C93.5967 116.493 93.41 117.123 93.41 118.01V126.48C93.41 127.367 93.5967 128.02 93.97 128.44C94.39 128.813 95.0433 129 95.93 129H126.87ZM99.71 123.05V122.35H111.61V85.6H101.11V84.9H112.31V122.35H123.09V123.05H99.71Z" fill="white" fill-opacity="0.02"/>
<path d="M17.84 137.33H-13.1C-14.22 137.33 -15.0367 137.073 -15.55 136.56C-16.0633 136.047 -16.32 135.23 -16.32 134.11V125.64C-16.32 125.033 -16.25 124.52 -16.11 124.1C-15.9233 123.68 -15.6667 123.33 -15.34 123.05L-6.31 115.42C-6.26333 115.373 -6.21667 115.35 -6.17 115.35C-6.07667 115.303 -6.00667 115.257 -5.96 115.21V100.44H-11.7C-12.82 100.44 -13.6367 100.183 -14.15 99.67C-14.6633 99.1567 -14.92 98.34 -14.92 97.22V88.75C-14.92 88.1433 -14.85 87.63 -14.71 87.21C-14.5233 86.79 -14.2667 86.44 -13.94 86.16L-4.91 78.53C-4.67667 78.3433 -4.37333 78.2033 -4 78.11C-3.58 77.97 -3.13667 77.9 -2.67 77.9H17.63C18.75 77.9 19.5667 78.1567 20.08 78.67C20.5933 79.1833 20.85 80 20.85 81.12V114.79H26.87C27.99 114.79 28.8067 115.047 29.32 115.56C29.8333 116.073 30.09 116.89 30.09 118.01V126.48C30.09 127.087 29.9967 127.6 29.81 128.02C29.67 128.44 29.4367 128.79 29.11 129.07L20.01 136.63C19.8233 136.817 19.52 136.98 19.1 137.12C18.7267 137.26 18.3067 137.33 17.84 137.33ZM26.87 129C27.7567 129 28.3867 128.813 28.76 128.44C29.18 128.02 29.39 127.367 29.39 126.48V118.01C29.39 117.123 29.18 116.493 28.76 116.12C28.3867 115.7 27.7567 115.49 26.87 115.49H20.15V81.12C20.15 80.2333 19.94 79.6033 19.52 79.23C19.1467 78.81 18.5167 78.6 17.63 78.6H-2.67C-3.55667 78.6 -4.21 78.81 -4.63 79.23C-5.00333 79.6033 -5.19 80.2333 -5.19 81.12V89.59C-5.19 90.4767 -5.00333 91.13 -4.63 91.55C-4.21 91.9233 -3.55667 92.11 -2.67 92.11H3.77V115.49H-4.07C-4.95667 115.49 -5.61 115.7 -6.03 116.12C-6.40333 116.493 -6.59 117.123 -6.59 118.01V126.48C-6.59 127.367 -6.40333 128.02 -6.03 128.44C-5.61 128.813 -4.95667 129 -4.07 129H26.87ZM-0.289999 123.05V122.35H11.61V85.6H1.11V84.9H12.31V122.35H23.09V123.05H-0.289999Z" fill="white" fill-opacity="0.02"/>
<path d="M67.84 87.33H36.9C35.78 87.33 34.9633 87.0733 34.45 86.56C33.9367 86.0467 33.68 85.23 33.68 84.11V75.64C33.68 75.0333 33.75 74.52 33.89 74.1C34.0767 73.68 34.3333 73.33 34.66 73.05L43.69 65.42C43.7367 65.3733 43.7833 65.35 43.83 65.35C43.9233 65.3033 43.9933 65.2567 44.04 65.21V50.44H38.3C37.18 50.44 36.3633 50.1833 35.85 49.67C35.3367 49.1567 35.08 48.34 35.08 47.22V38.75C35.08 38.1433 35.15 37.63 35.29 37.21C35.4767 36.79 35.7333 36.44 36.06 36.16L45.09 28.53C45.3233 28.3433 45.6267 28.2033 46 28.11C46.42 27.97 46.8633 27.9 47.33 27.9H67.63C68.75 27.9 69.5667 28.1567 70.08 28.67C70.5933 29.1833 70.85 30 70.85 31.12V64.79H76.87C77.99 64.79 78.8067 65.0467 79.32 65.56C79.8333 66.0733 80.09 66.89 80.09 68.01V76.48C80.09 77.0867 79.9967 77.6 79.81 78.02C79.67 78.44 79.4367 78.79 79.11 79.07L70.01 86.63C69.8233 86.8167 69.52 86.98 69.1 87.12C68.7267 87.26 68.3067 87.33 67.84 87.33ZM76.87 79C77.7567 79 78.3867 78.8133 78.76 78.44C79.18 78.02 79.39 77.3667 79.39 76.48V68.01C79.39 67.1233 79.18 66.4933 78.76 66.12C78.3867 65.7 77.7567 65.49 76.87 65.49H70.15V31.12C70.15 30.2333 69.94 29.6033 69.52 29.23C69.1467 28.81 68.5167 28.6 67.63 28.6H47.33C46.4433 28.6 45.79 28.81 45.37 29.23C44.9967 29.6033 44.81 30.2333 44.81 31.12V39.59C44.81 40.4767 44.9967 41.13 45.37 41.55C45.79 41.9233 46.4433 42.11 47.33 42.11H53.77V65.49H45.93C45.0433 65.49 44.39 65.7 43.97 66.12C43.5967 66.4933 43.41 67.1233 43.41 68.01V76.48C43.41 77.3667 43.5967 78.02 43.97 78.44C44.39 78.8133 45.0433 79 45.93 79H76.87ZM49.71 73.05V72.35H61.61V35.6H51.11V34.9H62.31V72.35H73.09V73.05H49.71Z" fill="white" fill-opacity="0.02"/>
</g>
<defs>
<clipPath id="clip0_28_2">
<rect width="100" height="100" fill="white"/>
</clipPath>
</defs>
</svg>
