<svg width="100" height="100" viewBox="0 0 100 100" fill="none" xmlns="http://www.w3.org/2000/svg">
<g clip-path="url(#clip0_28_8)">
<path d="M-14.2207 16.0996C-12.6777 14.791 -11.0664 13.3457 -9.38672 11.7637C-7.70703 10.1816 -6.05664 8.52148 -4.43555 6.7832C-2.81445 5.04492 -1.27148 3.25781 0.193359 1.42188C1.67773 -0.414062 2.97656 -2.24023 4.08984 -4.05664C5.20312 -5.89258 6.08203 -7.68945 6.72656 -9.44727C7.39062 -11.2246 7.72266 -12.9141 7.72266 -14.5156C7.72266 -15.8828 7.53711 -17.0156 7.16602 -17.9141C6.79492 -18.832 6.29688 -19.5547 5.67188 -20.082C5.06641 -20.6289 4.35352 -21.0098 3.5332 -21.2246C2.73242 -21.4395 1.89258 -21.5469 1.01367 -21.5469C-0.0605469 -21.5469 -1.125 -21.459 -2.17969 -21.2832C-1.30078 -21.0098 -0.5 -20.6484 0.222656 -20.1992C0.964844 -19.7695 1.59961 -19.2617 2.12695 -18.6758C2.6543 -18.1094 3.06445 -17.4746 3.35742 -16.7715C3.65039 -16.0879 3.79688 -15.375 3.79688 -14.6328C3.79688 -13.6367 3.54297 -12.6992 3.03516 -11.8203C2.54688 -10.9609 1.87305 -10.1992 1.01367 -9.53516C0.173828 -8.89062 -0.822266 -8.38281 -1.97461 -8.01172C-3.12695 -7.64062 -4.35742 -7.45508 -5.66602 -7.45508C-6.97461 -7.45508 -8.20508 -7.64062 -9.35742 -8.01172C-10.4902 -8.38281 -11.4863 -8.89062 -12.3457 -9.53516C-13.1855 -10.1992 -13.8594 -10.9609 -14.3672 -11.8203C-14.8555 -12.6992 -15.0996 -13.6367 -15.0996 -14.6328C-15.0996 -16.0977 -14.6113 -17.3867 -13.6348 -18.5C-12.6582 -19.6328 -11.2812 -20.5703 -9.50391 -21.3125C-7.70703 -22.0742 -5.55859 -22.6504 -3.05859 -23.041C-0.558594 -23.4316 2.21484 -23.627 5.26172 -23.627C7 -23.627 8.70898 -23.5195 10.3887 -23.3047C12.0684 -23.1094 13.6602 -22.7969 15.1641 -22.3672C16.668 -21.9375 18.0547 -21.3906 19.3242 -20.7266C20.6133 -20.0625 21.7168 -19.2617 22.6348 -18.3242C23.5723 -17.3867 24.3047 -16.3125 24.832 -15.1016C25.3594 -13.8906 25.623 -12.5332 25.623 -11.0293C25.623 -9.42773 25.3301 -7.97266 24.7441 -6.66406C24.1582 -5.375 23.3281 -4.21289 22.2539 -3.17773C21.1992 -2.14258 19.9199 -1.22461 18.416 -0.423828C16.9316 0.376953 15.291 1.08008 13.4941 1.68555C11.7168 2.29102 9.80273 2.81836 7.75195 3.26758C5.70117 3.7168 3.58203 4.09766 1.39453 4.41016C1.35547 4.44922 1.31641 4.54688 1.27734 4.70312C1.23828 4.85938 1.19922 5.01562 1.16016 5.17188C1.10156 5.36719 1.05273 5.58203 1.01367 5.81641H22.7227C22.957 5.52344 23.1816 5.19141 23.3965 4.82031C23.6309 4.42969 23.8457 4.03906 24.041 3.64844C24.2363 3.25781 24.4121 2.87695 24.5684 2.50586C24.7246 2.13477 24.8516 1.79297 24.9492 1.48047L26.707 1.56836L24.5684 19H-14.2207V16.0996Z" fill="white" fill-opacity="0.1"/>
<path d="M85.7793 16.0996C87.3223 14.791 88.9336 13.3457 90.6133 11.7637C92.293 10.1816 93.9434 8.52148 95.5645 6.7832C97.1855 5.04492 98.7285 3.25781 100.193 1.42188C101.678 -0.414062 102.977 -2.24023 104.09 -4.05664C105.203 -5.89258 106.082 -7.68945 106.727 -9.44727C107.391 -11.2246 107.723 -12.9141 107.723 -14.5156C107.723 -15.8828 107.537 -17.0156 107.166 -17.9141C106.795 -18.832 106.297 -19.5547 105.672 -20.082C105.066 -20.6289 104.354 -21.0098 103.533 -21.2246C102.732 -21.4395 101.893 -21.5469 101.014 -21.5469C99.9395 -21.5469 98.875 -21.459 97.8203 -21.2832C98.6992 -21.0098 99.5 -20.6484 100.223 -20.1992C100.965 -19.7695 101.6 -19.2617 102.127 -18.6758C102.654 -18.1094 103.064 -17.4746 103.357 -16.7715C103.65 -16.0879 103.797 -15.375 103.797 -14.6328C103.797 -13.6367 103.543 -12.6992 103.035 -11.8203C102.547 -10.9609 101.873 -10.1992 101.014 -9.53516C100.174 -8.89062 99.1777 -8.38281 98.0254 -8.01172C96.873 -7.64062 95.6426 -7.45508 94.334 -7.45508C93.0254 -7.45508 91.7949 -7.64062 90.6426 -8.01172C89.5098 -8.38281 88.5137 -8.89062 87.6543 -9.53516C86.8145 -10.1992 86.1406 -10.9609 85.6328 -11.8203C85.1445 -12.6992 84.9004 -13.6367 84.9004 -14.6328C84.9004 -16.0977 85.3887 -17.3867 86.3652 -18.5C87.3418 -19.6328 88.7188 -20.5703 90.4961 -21.3125C92.293 -22.0742 94.4414 -22.6504 96.9414 -23.041C99.4414 -23.4316 102.215 -23.627 105.262 -23.627C107 -23.627 108.709 -23.5195 110.389 -23.3047C112.068 -23.1094 113.66 -22.7969 115.164 -22.3672C116.668 -21.9375 118.055 -21.3906 119.324 -20.7266C120.613 -20.0625 121.717 -19.2617 122.635 -18.3242C123.572 -17.3867 124.305 -16.3125 124.832 -15.1016C125.359 -13.8906 125.623 -12.5332 125.623 -11.0293C125.623 -9.42773 125.33 -7.97266 124.744 -6.66406C124.158 -5.375 123.328 -4.21289 122.254 -3.17773C121.199 -2.14258 119.92 -1.22461 118.416 -0.423828C116.932 0.376953 115.291 1.08008 113.494 1.68555C111.717 2.29102 109.803 2.81836 107.752 3.26758C105.701 3.7168 103.582 4.09766 101.395 4.41016C101.355 4.44922 101.316 4.54688 101.277 4.70312C101.238 4.85938 101.199 5.01562 101.16 5.17188C101.102 5.36719 101.053 5.58203 101.014 5.81641H122.723C122.957 5.52344 123.182 5.19141 123.396 4.82031C123.631 4.42969 123.846 4.03906 124.041 3.64844C124.236 3.25781 124.412 2.87695 124.568 2.50586C124.725 2.13477 124.852 1.79297 124.949 1.48047L126.707 1.56836L124.568 19H85.7793V16.0996Z" fill="white" fill-opacity="0.1"/>
<path d="M85.7793 116.1C87.3223 114.791 88.9336 113.346 90.6133 111.764C92.293 110.182 93.9434 108.521 95.5645 106.783C97.1855 105.045 98.7285 103.258 100.193 101.422C101.678 99.5859 102.977 97.7598 104.09 95.9434C105.203 94.1074 106.082 92.3105 106.727 90.5527C107.391 88.7754 107.723 87.0859 107.723 85.4844C107.723 84.1172 107.537 82.9844 107.166 82.0859C106.795 81.168 106.297 80.4453 105.672 79.918C105.066 79.3711 104.354 78.9902 103.533 78.7754C102.732 78.5605 101.893 78.4531 101.014 78.4531C99.9395 78.4531 98.875 78.541 97.8203 78.7168C98.6992 78.9902 99.5 79.3516 100.223 79.8008C100.965 80.2305 101.6 80.7383 102.127 81.3242C102.654 81.8906 103.064 82.5254 103.357 83.2285C103.65 83.9121 103.797 84.625 103.797 85.3672C103.797 86.3633 103.543 87.3008 103.035 88.1797C102.547 89.0391 101.873 89.8008 101.014 90.4648C100.174 91.1094 99.1777 91.6172 98.0254 91.9883C96.873 92.3594 95.6426 92.5449 94.334 92.5449C93.0254 92.5449 91.7949 92.3594 90.6426 91.9883C89.5098 91.6172 88.5137 91.1094 87.6543 90.4648C86.8145 89.8008 86.1406 89.0391 85.6328 88.1797C85.1445 87.3008 84.9004 86.3633 84.9004 85.3672C84.9004 83.9023 85.3887 82.6133 86.3652 81.5C87.3418 80.3672 88.7188 79.4297 90.4961 78.6875C92.293 77.9258 94.4414 77.3496 96.9414 76.959C99.4414 76.5684 102.215 76.373 105.262 76.373C107 76.373 108.709 76.4805 110.389 76.6953C112.068 76.8906 113.66 77.2031 115.164 77.6328C116.668 78.0625 118.055 78.6094 119.324 79.2734C120.613 79.9375 121.717 80.7383 122.635 81.6758C123.572 82.6133 124.305 83.6875 124.832 84.8984C125.359 86.1094 125.623 87.4668 125.623 88.9707C125.623 90.5723 125.33 92.0273 124.744 93.3359C124.158 94.625 123.328 95.7871 122.254 96.8223C121.199 97.8574 119.92 98.7754 118.416 99.5762C116.932 100.377 115.291 101.08 113.494 101.686C111.717 102.291 109.803 102.818 107.752 103.268C105.701 103.717 103.582 104.098 101.395 104.41C101.355 104.449 101.316 104.547 101.277 104.703C101.238 104.859 101.199 105.016 101.16 105.172C101.102 105.367 101.053 105.582 101.014 105.816H122.723C122.957 105.523 123.182 105.191 123.396 104.82C123.631 104.43 123.846 104.039 124.041 103.648C124.236 103.258 124.412 102.877 124.568 102.506C124.725 102.135 124.852 101.793 124.949 101.48L126.707 101.568L124.568 119H85.7793V116.1Z" fill="white" fill-opacity="0.1"/>
<path d="M-14.2207 116.1C-12.6777 114.791 -11.0664 113.346 -9.38672 111.764C-7.70703 110.182 -6.05664 108.521 -4.43555 106.783C-2.81445 105.045 -1.27148 103.258 0.193359 101.422C1.67773 99.5859 2.97656 97.7598 4.08984 95.9434C5.20312 94.1074 6.08203 92.3105 6.72656 90.5527C7.39062 88.7754 7.72266 87.0859 7.72266 85.4844C7.72266 84.1172 7.53711 82.9844 7.16602 82.0859C6.79492 81.168 6.29688 80.4453 5.67188 79.918C5.06641 79.3711 4.35352 78.9902 3.5332 78.7754C2.73242 78.5605 1.89258 78.4531 1.01367 78.4531C-0.0605469 78.4531 -1.125 78.541 -2.17969 78.7168C-1.30078 78.9902 -0.5 79.3516 0.222656 79.8008C0.964844 80.2305 1.59961 80.7383 2.12695 81.3242C2.6543 81.8906 3.06445 82.5254 3.35742 83.2285C3.65039 83.9121 3.79688 84.625 3.79688 85.3672C3.79688 86.3633 3.54297 87.3008 3.03516 88.1797C2.54688 89.0391 1.87305 89.8008 1.01367 90.4648C0.173828 91.1094 -0.822266 91.6172 -1.97461 91.9883C-3.12695 92.3594 -4.35742 92.5449 -5.66602 92.5449C-6.97461 92.5449 -8.20508 92.3594 -9.35742 91.9883C-10.4902 91.6172 -11.4863 91.1094 -12.3457 90.4648C-13.1855 89.8008 -13.8594 89.0391 -14.3672 88.1797C-14.8555 87.3008 -15.0996 86.3633 -15.0996 85.3672C-15.0996 83.9023 -14.6113 82.6133 -13.6348 81.5C-12.6582 80.3672 -11.2812 79.4297 -9.50391 78.6875C-7.70703 77.9258 -5.55859 77.3496 -3.05859 76.959C-0.558594 76.5684 2.21484 76.373 5.26172 76.373C7 76.373 8.70898 76.4805 10.3887 76.6953C12.0684 76.8906 13.6602 77.2031 15.1641 77.6328C16.668 78.0625 18.0547 78.6094 19.3242 79.2734C20.6133 79.9375 21.7168 80.7383 22.6348 81.6758C23.5723 82.6133 24.3047 83.6875 24.832 84.8984C25.3594 86.1094 25.623 87.4668 25.623 88.9707C25.623 90.5723 25.3301 92.0273 24.7441 93.3359C24.1582 94.625 23.3281 95.7871 22.2539 96.8223C21.1992 97.8574 19.9199 98.7754 18.416 99.5762C16.9316 100.377 15.291 101.08 13.4941 101.686C11.7168 102.291 9.80273 102.818 7.75195 103.268C5.70117 103.717 3.58203 104.098 1.39453 104.41C1.35547 104.449 1.31641 104.547 1.27734 104.703C1.23828 104.859 1.19922 105.016 1.16016 105.172C1.10156 105.367 1.05273 105.582 1.01367 105.816H22.7227C22.957 105.523 23.1816 105.191 23.3965 104.82C23.6309 104.43 23.8457 104.039 24.041 103.648C24.2363 103.258 24.4121 102.877 24.5684 102.506C24.7246 102.135 24.8516 101.793 24.9492 101.48L26.707 101.568L24.5684 119H-14.2207V116.1Z" fill="white" fill-opacity="0.1"/>
<path d="M35.7793 66.0996C37.3223 64.791 38.9336 63.3457 40.6133 61.7637C42.293 60.1816 43.9434 58.5215 45.5645 56.7832C47.1855 55.0449 48.7285 53.2578 50.1934 51.4219C51.6777 49.5859 52.9766 47.7598 54.0898 45.9434C55.2031 44.1074 56.082 42.3105 56.7266 40.5527C57.3906 38.7754 57.7227 37.0859 57.7227 35.4844C57.7227 34.1172 57.5371 32.9844 57.166 32.0859C56.7949 31.168 56.2969 30.4453 55.6719 29.918C55.0664 29.3711 54.3535 28.9902 53.5332 28.7754C52.7324 28.5605 51.8926 28.4531 51.0137 28.4531C49.9395 28.4531 48.875 28.541 47.8203 28.7168C48.6992 28.9902 49.5 29.3516 50.2227 29.8008C50.9648 30.2305 51.5996 30.7383 52.127 31.3242C52.6543 31.8906 53.0645 32.5254 53.3574 33.2285C53.6504 33.9121 53.7969 34.625 53.7969 35.3672C53.7969 36.3633 53.543 37.3008 53.0352 38.1797C52.5469 39.0391 51.873 39.8008 51.0137 40.4648C50.1738 41.1094 49.1777 41.6172 48.0254 41.9883C46.873 42.3594 45.6426 42.5449 44.334 42.5449C43.0254 42.5449 41.7949 42.3594 40.6426 41.9883C39.5098 41.6172 38.5137 41.1094 37.6543 40.4648C36.8145 39.8008 36.1406 39.0391 35.6328 38.1797C35.1445 37.3008 34.9004 36.3633 34.9004 35.3672C34.9004 33.9023 35.3887 32.6133 36.3652 31.5C37.3418 30.3672 38.7188 29.4297 40.4961 28.6875C42.293 27.9258 44.4414 27.3496 46.9414 26.959C49.4414 26.5684 52.2148 26.373 55.2617 26.373C57 26.373 58.709 26.4805 60.3887 26.6953C62.0684 26.8906 63.6602 27.2031 65.1641 27.6328C66.668 28.0625 68.0547 28.6094 69.3242 29.2734C70.6133 29.9375 71.7168 30.7383 72.6348 31.6758C73.5723 32.6133 74.3047 33.6875 74.832 34.8984C75.3594 36.1094 75.623 37.4668 75.623 38.9707C75.623 40.5723 75.3301 42.0273 74.7441 43.3359C74.1582 44.625 73.3281 45.7871 72.2539 46.8223C71.1992 47.8574 69.9199 48.7754 68.416 49.5762C66.9316 50.377 65.291 51.0801 63.4941 51.6855C61.7168 52.291 59.8027 52.8184 57.752 53.2676C55.7012 53.7168 53.582 54.0977 51.3945 54.4102C51.3555 54.4492 51.3164 54.5469 51.2773 54.7031C51.2383 54.8594 51.1992 55.0156 51.1602 55.1719C51.1016 55.3672 51.0527 55.582 51.0137 55.8164H72.7227C72.957 55.5234 73.1816 55.1914 73.3965 54.8203C73.6309 54.4297 73.8457 54.0391 74.041 53.6484C74.2363 53.2578 74.4121 52.877 74.5684 52.5059C74.7246 52.1348 74.8516 51.793 74.9492 51.4805L76.707 51.5684L74.5684 69H35.7793V66.0996Z" fill="white" fill-opacity="0.1"/>
</g>
<defs>
<clipPath id="clip0_28_8">
<rect width="100" height="100" fill="white"/>
</clipPath>
</defs>
</svg>
