<svg width="100" height="100" viewBox="0 0 100 100" fill="none" xmlns="http://www.w3.org/2000/svg">
<g clip-path="url(#clip0_28_8)">
<path d="M30.6377 29H-14.8555V14.9863C-14.8555 13.0723 -14.4909 11.2721 -13.7617 9.58594C-13.0098 7.87695 -12.0072 6.39583 -10.7539 5.14258C-9.47786 3.86654 -7.99674 2.86393 -6.31055 2.13477C-4.60156 1.38281 -2.77865 1.00684 -0.841797 1.00684H16.6582C17.6152 1.00684 18.5153 0.824544 19.3584 0.459961C20.2243 0.0953776 20.9648 -0.405924 21.5801 -1.04395C22.2181 -1.68197 22.7194 -2.42253 23.084 -3.26562C23.4714 -4.13151 23.665 -5.04297 23.665 -6C23.665 -6.95703 23.4714 -7.8571 23.084 -8.7002C22.7194 -9.56608 22.2181 -10.318 21.5801 -10.9561C20.9648 -11.5941 20.2243 -12.0954 19.3584 -12.46C18.5153 -12.8245 17.6152 -13.0068 16.6582 -13.0068H-11.335V-20.0137H16.6582C18.5723 -20.0137 20.3724 -19.6377 22.0586 -18.8857C23.7676 -18.1566 25.2487 -17.154 26.502 -15.8779C27.778 -14.6247 28.7806 -13.1436 29.5098 -11.4346C30.2617 -9.72559 30.6377 -7.91406 30.6377 -6C30.6377 -4.08594 30.2617 -2.27441 29.5098 -0.56543C28.7806 1.14355 27.778 2.63607 26.502 3.91211C25.2487 5.16536 23.7676 6.16797 22.0586 6.91992C20.3724 7.64909 18.5723 8.01367 16.6582 8.01367H-0.841797C-1.79883 8.01367 -2.71029 8.19596 -3.57617 8.56055C-4.44206 8.92513 -5.19401 9.42643 -5.83203 10.0645C-6.47005 10.7025 -6.98275 11.443 -7.37012 12.2861C-7.7347 13.1292 -7.91699 14.0293 -7.91699 14.9863V21.9932H30.6377V29Z" fill="white" fill-opacity="0.02"/>
<path d="M130.638 29H85.1445V14.9863C85.1445 13.0723 85.5091 11.2721 86.2383 9.58594C86.9902 7.87695 87.9928 6.39583 89.2461 5.14258C90.5221 3.86654 92.0033 2.86393 93.6895 2.13477C95.3984 1.38281 97.2214 1.00684 99.1582 1.00684H116.658C117.615 1.00684 118.515 0.824544 119.358 0.459961C120.224 0.0953776 120.965 -0.405924 121.58 -1.04395C122.218 -1.68197 122.719 -2.42253 123.084 -3.26562C123.471 -4.13151 123.665 -5.04297 123.665 -6C123.665 -6.95703 123.471 -7.8571 123.084 -8.7002C122.719 -9.56608 122.218 -10.318 121.58 -10.9561C120.965 -11.5941 120.224 -12.0954 119.358 -12.46C118.515 -12.8245 117.615 -13.0068 116.658 -13.0068H88.665V-20.0137H116.658C118.572 -20.0137 120.372 -19.6377 122.059 -18.8857C123.768 -18.1566 125.249 -17.154 126.502 -15.8779C127.778 -14.6247 128.781 -13.1436 129.51 -11.4346C130.262 -9.72559 130.638 -7.91406 130.638 -6C130.638 -4.08594 130.262 -2.27441 129.51 -0.56543C128.781 1.14355 127.778 2.63607 126.502 3.91211C125.249 5.16536 123.768 6.16797 122.059 6.91992C120.372 7.64909 118.572 8.01367 116.658 8.01367H99.1582C98.2012 8.01367 97.2897 8.19596 96.4238 8.56055C95.5579 8.92513 94.806 9.42643 94.168 10.0645C93.5299 10.7025 93.0173 11.443 92.6299 12.2861C92.2653 13.1292 92.083 14.0293 92.083 14.9863V21.9932H130.638V29Z" fill="white" fill-opacity="0.02"/>
<path d="M130.638 129H85.1445V114.986C85.1445 113.072 85.5091 111.272 86.2383 109.586C86.9902 107.877 87.9928 106.396 89.2461 105.143C90.5221 103.867 92.0033 102.864 93.6895 102.135C95.3984 101.383 97.2214 101.007 99.1582 101.007H116.658C117.615 101.007 118.515 100.825 119.358 100.46C120.224 100.095 120.965 99.5941 121.58 98.9561C122.218 98.318 122.719 97.5775 123.084 96.7344C123.471 95.8685 123.665 94.957 123.665 94C123.665 93.043 123.471 92.1429 123.084 91.2998C122.719 90.4339 122.218 89.682 121.58 89.0439C120.965 88.4059 120.224 87.9046 119.358 87.54C118.515 87.1755 117.615 86.9932 116.658 86.9932H88.665V79.9863H116.658C118.572 79.9863 120.372 80.3623 122.059 81.1143C123.768 81.8434 125.249 82.846 126.502 84.1221C127.778 85.3753 128.781 86.8564 129.51 88.5654C130.262 90.2744 130.638 92.0859 130.638 94C130.638 95.9141 130.262 97.7256 129.51 99.4346C128.781 101.144 127.778 102.636 126.502 103.912C125.249 105.165 123.768 106.168 122.059 106.92C120.372 107.649 118.572 108.014 116.658 108.014H99.1582C98.2012 108.014 97.2897 108.196 96.4238 108.561C95.5579 108.925 94.806 109.426 94.168 110.064C93.5299 110.702 93.0173 111.443 92.6299 112.286C92.2653 113.129 92.083 114.029 92.083 114.986V121.993H130.638V129Z" fill="white" fill-opacity="0.02"/>
<path d="M30.6377 129H-14.8555V114.986C-14.8555 113.072 -14.4909 111.272 -13.7617 109.586C-13.0098 107.877 -12.0072 106.396 -10.7539 105.143C-9.47786 103.867 -7.99674 102.864 -6.31055 102.135C-4.60156 101.383 -2.77865 101.007 -0.841797 101.007H16.6582C17.6152 101.007 18.5153 100.825 19.3584 100.46C20.2243 100.095 20.9648 99.5941 21.5801 98.9561C22.2181 98.318 22.7194 97.5775 23.084 96.7344C23.4714 95.8685 23.665 94.957 23.665 94C23.665 93.043 23.4714 92.1429 23.084 91.2998C22.7194 90.4339 22.2181 89.682 21.5801 89.0439C20.9648 88.4059 20.2243 87.9046 19.3584 87.54C18.5153 87.1755 17.6152 86.9932 16.6582 86.9932H-11.335V79.9863H16.6582C18.5723 79.9863 20.3724 80.3623 22.0586 81.1143C23.7676 81.8434 25.2487 82.846 26.502 84.1221C27.778 85.3753 28.7806 86.8564 29.5098 88.5654C30.2617 90.2744 30.6377 92.0859 30.6377 94C30.6377 95.9141 30.2617 97.7256 29.5098 99.4346C28.7806 101.144 27.778 102.636 26.502 103.912C25.2487 105.165 23.7676 106.168 22.0586 106.92C20.3724 107.649 18.5723 108.014 16.6582 108.014H-0.841797C-1.79883 108.014 -2.71029 108.196 -3.57617 108.561C-4.44206 108.925 -5.19401 109.426 -5.83203 110.064C-6.47005 110.702 -6.98275 111.443 -7.37012 112.286C-7.7347 113.129 -7.91699 114.029 -7.91699 114.986V121.993H30.6377V129Z" fill="white" fill-opacity="0.02"/>
<path d="M80.6377 79H35.1445V64.9863C35.1445 63.0723 35.5091 61.2721 36.2383 59.5859C36.9902 57.877 37.9928 56.3958 39.2461 55.1426C40.5221 53.8665 42.0033 52.8639 43.6895 52.1348C45.3984 51.3828 47.2214 51.0068 49.1582 51.0068H66.6582C67.6152 51.0068 68.5153 50.8245 69.3584 50.46C70.2243 50.0954 70.9648 49.5941 71.5801 48.9561C72.2181 48.318 72.7194 47.5775 73.084 46.7344C73.4714 45.8685 73.665 44.957 73.665 44C73.665 43.043 73.4714 42.1429 73.084 41.2998C72.7194 40.4339 72.2181 39.682 71.5801 39.0439C70.9648 38.4059 70.2243 37.9046 69.3584 37.54C68.5153 37.1755 67.6152 36.9932 66.6582 36.9932H38.665V29.9863H66.6582C68.5723 29.9863 70.3724 30.3623 72.0586 31.1143C73.7676 31.8434 75.2487 32.846 76.502 34.1221C77.778 35.3753 78.7806 36.8564 79.5098 38.5654C80.2617 40.2744 80.6377 42.0859 80.6377 44C80.6377 45.9141 80.2617 47.7256 79.5098 49.4346C78.7806 51.1436 77.778 52.6361 76.502 53.9121C75.2487 55.1654 73.7676 56.168 72.0586 56.9199C70.3724 57.6491 68.5723 58.0137 66.6582 58.0137H49.1582C48.2012 58.0137 47.2897 58.196 46.4238 58.5605C45.5579 58.9251 44.806 59.4264 44.168 60.0645C43.5299 60.7025 43.0173 61.443 42.6299 62.2861C42.2653 63.1292 42.083 64.0293 42.083 64.9863V71.9932H80.6377V79Z" fill="white" fill-opacity="0.02"/>
</g>
<defs>
<clipPath id="clip0_28_8">
<rect width="100" height="100" fill="white"/>
</clipPath>
</defs>
</svg>
