<svg width="100" height="100" viewBox="0 0 100 100" fill="none" xmlns="http://www.w3.org/2000/svg">
<g clip-path="url(#clip0_28_8)">
<path d="M-13.5908 24.6162C-11.7907 23.0895 -9.91081 21.4033 -7.95117 19.5576C-5.99154 17.7119 -4.06608 15.7751 -2.1748 13.7471C-0.283529 11.7191 1.5166 9.63411 3.22559 7.49219C4.95736 5.35026 6.47266 3.21973 7.77148 1.10059C9.07031 -1.04134 10.0957 -3.1377 10.8477 -5.18848C11.6224 -7.26204 12.0098 -9.23307 12.0098 -11.1016C12.0098 -12.6966 11.7933 -14.0182 11.3604 -15.0664C10.9274 -16.1374 10.3464 -16.9805 9.61719 -17.5957C8.91081 -18.2337 8.0791 -18.6781 7.12207 -18.9287C6.18783 -19.1794 5.20801 -19.3047 4.18262 -19.3047C2.92936 -19.3047 1.6875 -19.2021 0.457031 -18.9971C1.48242 -18.6781 2.41667 -18.2565 3.25977 -17.7324C4.12565 -17.2311 4.86621 -16.6387 5.48145 -15.9551C6.09668 -15.2943 6.5752 -14.5537 6.91699 -13.7334C7.25879 -12.9359 7.42969 -12.1042 7.42969 -11.2383C7.42969 -10.0762 7.13346 -8.98242 6.54102 -7.95703C5.97135 -6.95443 5.18522 -6.06576 4.18262 -5.29102C3.2028 -4.53906 2.04069 -3.94661 0.696289 -3.51367C-0.648112 -3.08073 -2.08366 -2.86426 -3.61035 -2.86426C-5.13704 -2.86426 -6.57259 -3.08073 -7.91699 -3.51367C-9.23861 -3.94661 -10.4007 -4.53906 -11.4033 -5.29102C-12.3831 -6.06576 -13.1693 -6.95443 -13.7617 -7.95703C-14.3314 -8.98242 -14.6162 -10.0762 -14.6162 -11.2383C-14.6162 -12.9473 -14.0465 -14.4512 -12.9072 -15.75C-11.7679 -17.0716 -10.1615 -18.1654 -8.08789 -19.0312C-5.99154 -19.9199 -3.48503 -20.5921 -0.568359 -21.0479C2.34831 -21.5036 5.58398 -21.7314 9.13867 -21.7314C11.1667 -21.7314 13.1605 -21.6061 15.1201 -21.3555C17.0798 -21.1276 18.9368 -20.763 20.6914 -20.2617C22.446 -19.7604 24.0638 -19.1224 25.5449 -18.3477C27.0488 -17.5729 28.3363 -16.6387 29.4072 -15.5449C30.501 -14.4512 31.3555 -13.1979 31.9707 -11.7852C32.5859 -10.3724 32.8936 -8.78874 32.8936 -7.03418C32.8936 -5.16569 32.5518 -3.4681 31.8682 -1.94141C31.1846 -0.4375 30.2161 0.918294 28.9629 2.12598C27.7324 3.33366 26.2399 4.40462 24.4854 5.33887C22.7536 6.27311 20.8395 7.09342 18.7432 7.7998C16.6696 8.50618 14.4365 9.12142 12.0439 9.64551C9.65137 10.1696 7.17904 10.6139 4.62695 10.9785C4.58138 11.0241 4.53581 11.138 4.49023 11.3203C4.44466 11.5026 4.39909 11.6849 4.35352 11.8672C4.28516 12.0951 4.22819 12.3457 4.18262 12.6191H29.5098C29.7832 12.2773 30.0452 11.89 30.2959 11.457C30.5693 11.0013 30.82 10.5456 31.0479 10.0898C31.2757 9.63411 31.4808 9.18978 31.6631 8.75684C31.8454 8.32389 31.9935 7.92513 32.1074 7.56055L34.1582 7.66309L31.6631 28H-13.5908V24.6162Z" fill="white" fill-opacity="0.02"/>
<path d="M86.4092 24.6162C88.2093 23.0895 90.0892 21.4033 92.0488 19.5576C94.0085 17.7119 95.9339 15.7751 97.8252 13.7471C99.7165 11.7191 101.517 9.63411 103.226 7.49219C104.957 5.35026 106.473 3.21973 107.771 1.10059C109.07 -1.04134 110.096 -3.1377 110.848 -5.18848C111.622 -7.26204 112.01 -9.23307 112.01 -11.1016C112.01 -12.6966 111.793 -14.0182 111.36 -15.0664C110.927 -16.1374 110.346 -16.9805 109.617 -17.5957C108.911 -18.2337 108.079 -18.6781 107.122 -18.9287C106.188 -19.1794 105.208 -19.3047 104.183 -19.3047C102.929 -19.3047 101.688 -19.2021 100.457 -18.9971C101.482 -18.6781 102.417 -18.2565 103.26 -17.7324C104.126 -17.2311 104.866 -16.6387 105.481 -15.9551C106.097 -15.2943 106.575 -14.5537 106.917 -13.7334C107.259 -12.9359 107.43 -12.1042 107.43 -11.2383C107.43 -10.0762 107.133 -8.98242 106.541 -7.95703C105.971 -6.95443 105.185 -6.06576 104.183 -5.29102C103.203 -4.53906 102.041 -3.94661 100.696 -3.51367C99.3519 -3.08073 97.9163 -2.86426 96.3896 -2.86426C94.863 -2.86426 93.4274 -3.08073 92.083 -3.51367C90.7614 -3.94661 89.5993 -4.53906 88.5967 -5.29102C87.6169 -6.06576 86.8307 -6.95443 86.2383 -7.95703C85.6686 -8.98242 85.3838 -10.0762 85.3838 -11.2383C85.3838 -12.9473 85.9535 -14.4512 87.0928 -15.75C88.2321 -17.0716 89.8385 -18.1654 91.9121 -19.0312C94.0085 -19.9199 96.515 -20.5921 99.4316 -21.0479C102.348 -21.5036 105.584 -21.7314 109.139 -21.7314C111.167 -21.7314 113.16 -21.6061 115.12 -21.3555C117.08 -21.1276 118.937 -20.763 120.691 -20.2617C122.446 -19.7604 124.064 -19.1224 125.545 -18.3477C127.049 -17.5729 128.336 -16.6387 129.407 -15.5449C130.501 -14.4512 131.355 -13.1979 131.971 -11.7852C132.586 -10.3724 132.894 -8.78874 132.894 -7.03418C132.894 -5.16569 132.552 -3.4681 131.868 -1.94141C131.185 -0.4375 130.216 0.918294 128.963 2.12598C127.732 3.33366 126.24 4.40462 124.485 5.33887C122.754 6.27311 120.84 7.09342 118.743 7.7998C116.67 8.50618 114.437 9.12142 112.044 9.64551C109.651 10.1696 107.179 10.6139 104.627 10.9785C104.581 11.0241 104.536 11.138 104.49 11.3203C104.445 11.5026 104.399 11.6849 104.354 11.8672C104.285 12.0951 104.228 12.3457 104.183 12.6191H129.51C129.783 12.2773 130.045 11.89 130.296 11.457C130.569 11.0013 130.82 10.5456 131.048 10.0898C131.276 9.63411 131.481 9.18978 131.663 8.75684C131.845 8.32389 131.993 7.92513 132.107 7.56055L134.158 7.66309L131.663 28H86.4092V24.6162Z" fill="white" fill-opacity="0.02"/>
<path d="M86.4092 124.616C88.2093 123.09 90.0892 121.403 92.0488 119.558C94.0085 117.712 95.9339 115.775 97.8252 113.747C99.7165 111.719 101.517 109.634 103.226 107.492C104.957 105.35 106.473 103.22 107.771 101.101C109.07 98.9587 110.096 96.8623 110.848 94.8115C111.622 92.738 112.01 90.7669 112.01 88.8984C112.01 87.3034 111.793 85.9818 111.36 84.9336C110.927 83.8626 110.346 83.0195 109.617 82.4043C108.911 81.7663 108.079 81.3219 107.122 81.0713C106.188 80.8206 105.208 80.6953 104.183 80.6953C102.929 80.6953 101.688 80.7979 100.457 81.0029C101.482 81.3219 102.417 81.7435 103.26 82.2676C104.126 82.7689 104.866 83.3613 105.481 84.0449C106.097 84.7057 106.575 85.4463 106.917 86.2666C107.259 87.0641 107.43 87.8958 107.43 88.7617C107.43 89.9238 107.133 91.0176 106.541 92.043C105.971 93.0456 105.185 93.9342 104.183 94.709C103.203 95.4609 102.041 96.0534 100.696 96.4863C99.3519 96.9193 97.9163 97.1357 96.3896 97.1357C94.863 97.1357 93.4274 96.9193 92.083 96.4863C90.7614 96.0534 89.5993 95.4609 88.5967 94.709C87.6169 93.9342 86.8307 93.0456 86.2383 92.043C85.6686 91.0176 85.3838 89.9238 85.3838 88.7617C85.3838 87.0527 85.9535 85.5488 87.0928 84.25C88.2321 82.9284 89.8385 81.8346 91.9121 80.9688C94.0085 80.0801 96.515 79.4079 99.4316 78.9521C102.348 78.4964 105.584 78.2686 109.139 78.2686C111.167 78.2686 113.16 78.3939 115.12 78.6445C117.08 78.8724 118.937 79.237 120.691 79.7383C122.446 80.2396 124.064 80.8776 125.545 81.6523C127.049 82.4271 128.336 83.3613 129.407 84.4551C130.501 85.5488 131.355 86.8021 131.971 88.2148C132.586 89.6276 132.894 91.2113 132.894 92.9658C132.894 94.8343 132.552 96.5319 131.868 98.0586C131.185 99.5625 130.216 100.918 128.963 102.126C127.732 103.334 126.24 104.405 124.485 105.339C122.754 106.273 120.84 107.093 118.743 107.8C116.67 108.506 114.437 109.121 112.044 109.646C109.651 110.17 107.179 110.614 104.627 110.979C104.581 111.024 104.536 111.138 104.49 111.32C104.445 111.503 104.399 111.685 104.354 111.867C104.285 112.095 104.228 112.346 104.183 112.619H129.51C129.783 112.277 130.045 111.89 130.296 111.457C130.569 111.001 130.82 110.546 131.048 110.09C131.276 109.634 131.481 109.19 131.663 108.757C131.845 108.324 131.993 107.925 132.107 107.561L134.158 107.663L131.663 128H86.4092V124.616Z" fill="white" fill-opacity="0.02"/>
<path d="M-13.5908 124.616C-11.7907 123.09 -9.91081 121.403 -7.95117 119.558C-5.99154 117.712 -4.06608 115.775 -2.1748 113.747C-0.283529 111.719 1.5166 109.634 3.22559 107.492C4.95736 105.35 6.47266 103.22 7.77148 101.101C9.07031 98.9587 10.0957 96.8623 10.8477 94.8115C11.6224 92.738 12.0098 90.7669 12.0098 88.8984C12.0098 87.3034 11.7933 85.9818 11.3604 84.9336C10.9274 83.8626 10.3464 83.0195 9.61719 82.4043C8.91081 81.7663 8.0791 81.3219 7.12207 81.0713C6.18783 80.8206 5.20801 80.6953 4.18262 80.6953C2.92936 80.6953 1.6875 80.7979 0.457031 81.0029C1.48242 81.3219 2.41667 81.7435 3.25977 82.2676C4.12565 82.7689 4.86621 83.3613 5.48145 84.0449C6.09668 84.7057 6.5752 85.4463 6.91699 86.2666C7.25879 87.0641 7.42969 87.8958 7.42969 88.7617C7.42969 89.9238 7.13346 91.0176 6.54102 92.043C5.97135 93.0456 5.18522 93.9342 4.18262 94.709C3.2028 95.4609 2.04069 96.0534 0.696289 96.4863C-0.648112 96.9193 -2.08366 97.1357 -3.61035 97.1357C-5.13704 97.1357 -6.57259 96.9193 -7.91699 96.4863C-9.23861 96.0534 -10.4007 95.4609 -11.4033 94.709C-12.3831 93.9342 -13.1693 93.0456 -13.7617 92.043C-14.3314 91.0176 -14.6162 89.9238 -14.6162 88.7617C-14.6162 87.0527 -14.0465 85.5488 -12.9072 84.25C-11.7679 82.9284 -10.1615 81.8346 -8.08789 80.9688C-5.99154 80.0801 -3.48503 79.4079 -0.568359 78.9521C2.34831 78.4964 5.58398 78.2686 9.13867 78.2686C11.1667 78.2686 13.1605 78.3939 15.1201 78.6445C17.0798 78.8724 18.9368 79.237 20.6914 79.7383C22.446 80.2396 24.0638 80.8776 25.5449 81.6523C27.0488 82.4271 28.3363 83.3613 29.4072 84.4551C30.501 85.5488 31.3555 86.8021 31.9707 88.2148C32.5859 89.6276 32.8936 91.2113 32.8936 92.9658C32.8936 94.8343 32.5518 96.5319 31.8682 98.0586C31.1846 99.5625 30.2161 100.918 28.9629 102.126C27.7324 103.334 26.2399 104.405 24.4854 105.339C22.7536 106.273 20.8395 107.093 18.7432 107.8C16.6696 108.506 14.4365 109.121 12.0439 109.646C9.65137 110.17 7.17904 110.614 4.62695 110.979C4.58138 111.024 4.53581 111.138 4.49023 111.32C4.44466 111.503 4.39909 111.685 4.35352 111.867C4.28516 112.095 4.22819 112.346 4.18262 112.619H29.5098C29.7832 112.277 30.0452 111.89 30.2959 111.457C30.5693 111.001 30.82 110.546 31.0479 110.09C31.2757 109.634 31.4808 109.19 31.6631 108.757C31.8454 108.324 31.9935 107.925 32.1074 107.561L34.1582 107.663L31.6631 128H-13.5908V124.616Z" fill="white" fill-opacity="0.02"/>
<path d="M36.4092 74.6162C38.2093 73.0895 40.0892 71.4033 42.0488 69.5576C44.0085 67.7119 45.9339 65.7751 47.8252 63.7471C49.7165 61.7191 51.5166 59.6341 53.2256 57.4922C54.9574 55.3503 56.4727 53.2197 57.7715 51.1006C59.0703 48.9587 60.0957 46.8623 60.8477 44.8115C61.6224 42.738 62.0098 40.7669 62.0098 38.8984C62.0098 37.3034 61.7933 35.9818 61.3604 34.9336C60.9274 33.8626 60.3464 33.0195 59.6172 32.4043C58.9108 31.7663 58.0791 31.3219 57.1221 31.0713C56.1878 30.8206 55.208 30.6953 54.1826 30.6953C52.9294 30.6953 51.6875 30.7979 50.457 31.0029C51.4824 31.3219 52.4167 31.7435 53.2598 32.2676C54.1257 32.7689 54.8662 33.3613 55.4814 34.0449C56.0967 34.7057 56.5752 35.4463 56.917 36.2666C57.2588 37.0641 57.4297 37.8958 57.4297 38.7617C57.4297 39.9238 57.1335 41.0176 56.541 42.043C55.9714 43.0456 55.1852 43.9342 54.1826 44.709C53.2028 45.4609 52.0407 46.0534 50.6963 46.4863C49.3519 46.9193 47.9163 47.1357 46.3896 47.1357C44.863 47.1357 43.4274 46.9193 42.083 46.4863C40.7614 46.0534 39.5993 45.4609 38.5967 44.709C37.6169 43.9342 36.8307 43.0456 36.2383 42.043C35.6686 41.0176 35.3838 39.9238 35.3838 38.7617C35.3838 37.0527 35.9535 35.5488 37.0928 34.25C38.2321 32.9284 39.8385 31.8346 41.9121 30.9688C44.0085 30.0801 46.515 29.4079 49.4316 28.9521C52.3483 28.4964 55.584 28.2686 59.1387 28.2686C61.1667 28.2686 63.1605 28.3939 65.1201 28.6445C67.0798 28.8724 68.9368 29.237 70.6914 29.7383C72.446 30.2396 74.0638 30.8776 75.5449 31.6523C77.0488 32.4271 78.3363 33.3613 79.4072 34.4551C80.501 35.5488 81.3555 36.8021 81.9707 38.2148C82.5859 39.6276 82.8936 41.2113 82.8936 42.9658C82.8936 44.8343 82.5518 46.5319 81.8682 48.0586C81.1846 49.5625 80.2161 50.9183 78.9629 52.126C77.7324 53.3337 76.2399 54.4046 74.4854 55.3389C72.7536 56.2731 70.8395 57.0934 68.7432 57.7998C66.6696 58.5062 64.4365 59.1214 62.0439 59.6455C59.6514 60.1696 57.179 60.6139 54.627 60.9785C54.5814 61.0241 54.5358 61.138 54.4902 61.3203C54.4447 61.5026 54.3991 61.6849 54.3535 61.8672C54.2852 62.0951 54.2282 62.3457 54.1826 62.6191H79.5098C79.7832 62.2773 80.0452 61.89 80.2959 61.457C80.5693 61.0013 80.82 60.5456 81.0479 60.0898C81.2757 59.6341 81.4808 59.1898 81.6631 58.7568C81.8454 58.3239 81.9935 57.9251 82.1074 57.5605L84.1582 57.6631L81.6631 78H36.4092V74.6162Z" fill="white" fill-opacity="0.02"/>
</g>
<defs>
<clipPath id="clip0_28_8">
<rect width="100" height="100" fill="white"/>
</clipPath>
</defs>
</svg>
