<svg width="61" height="124" viewBox="0 0 61 124" fill="none" xmlns="http://www.w3.org/2000/svg">
<g clip-path="url(#clip0_28_8)">
<path d="M22.6377 25H-22.8555V10.9863C-22.8555 9.07227 -22.4909 7.27214 -21.7617 5.58594C-21.0098 3.87695 -20.0072 2.39583 -18.7539 1.14258C-17.4779 -0.133464 -15.9967 -1.13607 -14.3105 -1.86523C-12.6016 -2.61719 -10.7786 -2.99316 -8.8418 -2.99316H8.6582C9.61523 -2.99316 10.5153 -3.17546 11.3584 -3.54004C12.2243 -3.90462 12.9648 -4.40592 13.5801 -5.04395C14.2181 -5.68197 14.7194 -6.42253 15.084 -7.26562C15.4714 -8.13151 15.665 -9.04297 15.665 -10C15.665 -10.957 15.4714 -11.8571 15.084 -12.7002C14.7194 -13.5661 14.2181 -14.318 13.5801 -14.9561C12.9648 -15.5941 12.2243 -16.0954 11.3584 -16.46C10.5153 -16.8245 9.61523 -17.0068 8.6582 -17.0068H-19.335V-24.0137H8.6582C10.5723 -24.0137 12.3724 -23.6377 14.0586 -22.8857C15.7676 -22.1566 17.2487 -21.154 18.502 -19.8779C19.778 -18.6247 20.7806 -17.1436 21.5098 -15.4346C22.2617 -13.7256 22.6377 -11.9141 22.6377 -10C22.6377 -8.08594 22.2617 -6.27441 21.5098 -4.56543C20.7806 -2.85645 19.778 -1.36393 18.502 -0.0878906C17.2487 1.16536 15.7676 2.16797 14.0586 2.91992C12.3724 3.64909 10.5723 4.01367 8.6582 4.01367H-8.8418C-9.79883 4.01367 -10.7103 4.19596 -11.5762 4.56055C-12.4421 4.92513 -13.194 5.42643 -13.832 6.06445C-14.4701 6.70247 -14.9827 7.44303 -15.3701 8.28613C-15.7347 9.12923 -15.917 10.0293 -15.917 10.9863V17.9932H22.6377V25Z" fill="white" fill-opacity="0.02"/>
<path d="M82.6377 25H37.1445V10.9863C37.1445 9.07227 37.5091 7.27214 38.2383 5.58594C38.9902 3.87695 39.9928 2.39583 41.2461 1.14258C42.5221 -0.133464 44.0033 -1.13607 45.6895 -1.86523C47.3984 -2.61719 49.2214 -2.99316 51.1582 -2.99316H68.6582C69.6152 -2.99316 70.5153 -3.17546 71.3584 -3.54004C72.2243 -3.90462 72.9648 -4.40592 73.5801 -5.04395C74.2181 -5.68197 74.7194 -6.42253 75.084 -7.26562C75.4714 -8.13151 75.665 -9.04297 75.665 -10C75.665 -10.957 75.4714 -11.8571 75.084 -12.7002C74.7194 -13.5661 74.2181 -14.318 73.5801 -14.9561C72.9648 -15.5941 72.2243 -16.0954 71.3584 -16.46C70.5153 -16.8245 69.6152 -17.0068 68.6582 -17.0068H40.665V-24.0137H68.6582C70.5723 -24.0137 72.3724 -23.6377 74.0586 -22.8857C75.7676 -22.1566 77.2487 -21.154 78.502 -19.8779C79.778 -18.6247 80.7806 -17.1436 81.5098 -15.4346C82.2617 -13.7256 82.6377 -11.9141 82.6377 -10C82.6377 -8.08594 82.2617 -6.27441 81.5098 -4.56543C80.7806 -2.85645 79.778 -1.36393 78.502 -0.0878906C77.2487 1.16536 75.7676 2.16797 74.0586 2.91992C72.3724 3.64909 70.5723 4.01367 68.6582 4.01367H51.1582C50.2012 4.01367 49.2897 4.19596 48.4238 4.56055C47.5579 4.92513 46.806 5.42643 46.168 6.06445C45.5299 6.70247 45.0173 7.44303 44.6299 8.28613C44.2653 9.12923 44.083 10.0293 44.083 10.9863V17.9932H82.6377V25Z" fill="white" fill-opacity="0.02"/>
<path d="M82.6377 149H37.1445V134.986C37.1445 133.072 37.5091 131.272 38.2383 129.586C38.9902 127.877 39.9928 126.396 41.2461 125.143C42.5221 123.867 44.0033 122.864 45.6895 122.135C47.3984 121.383 49.2214 121.007 51.1582 121.007H68.6582C69.6152 121.007 70.5153 120.825 71.3584 120.46C72.2243 120.095 72.9648 119.594 73.5801 118.956C74.2181 118.318 74.7194 117.577 75.084 116.734C75.4714 115.868 75.665 114.957 75.665 114C75.665 113.043 75.4714 112.143 75.084 111.3C74.7194 110.434 74.2181 109.682 73.5801 109.044C72.9648 108.406 72.2243 107.905 71.3584 107.54C70.5153 107.175 69.6152 106.993 68.6582 106.993H40.665V99.9863H68.6582C70.5723 99.9863 72.3724 100.362 74.0586 101.114C75.7676 101.843 77.2487 102.846 78.502 104.122C79.778 105.375 80.7806 106.856 81.5098 108.565C82.2617 110.274 82.6377 112.086 82.6377 114C82.6377 115.914 82.2617 117.726 81.5098 119.435C80.7806 121.144 79.778 122.636 78.502 123.912C77.2487 125.165 75.7676 126.168 74.0586 126.92C72.3724 127.649 70.5723 128.014 68.6582 128.014H51.1582C50.2012 128.014 49.2897 128.196 48.4238 128.561C47.5579 128.925 46.806 129.426 46.168 130.064C45.5299 130.702 45.0173 131.443 44.6299 132.286C44.2653 133.129 44.083 134.029 44.083 134.986V141.993H82.6377V149Z" fill="white" fill-opacity="0.02"/>
<path d="M22.6377 149H-22.8555V134.986C-22.8555 133.072 -22.4909 131.272 -21.7617 129.586C-21.0098 127.877 -20.0072 126.396 -18.7539 125.143C-17.4779 123.867 -15.9967 122.864 -14.3105 122.135C-12.6016 121.383 -10.7786 121.007 -8.8418 121.007H8.6582C9.61523 121.007 10.5153 120.825 11.3584 120.46C12.2243 120.095 12.9648 119.594 13.5801 118.956C14.2181 118.318 14.7194 117.577 15.084 116.734C15.4714 115.868 15.665 114.957 15.665 114C15.665 113.043 15.4714 112.143 15.084 111.3C14.7194 110.434 14.2181 109.682 13.5801 109.044C12.9648 108.406 12.2243 107.905 11.3584 107.54C10.5153 107.175 9.61523 106.993 8.6582 106.993H-19.335V99.9863H8.6582C10.5723 99.9863 12.3724 100.362 14.0586 101.114C15.7676 101.843 17.2487 102.846 18.502 104.122C19.778 105.375 20.7806 106.856 21.5098 108.565C22.2617 110.274 22.6377 112.086 22.6377 114C22.6377 115.914 22.2617 117.726 21.5098 119.435C20.7806 121.144 19.778 122.636 18.502 123.912C17.2487 125.165 15.7676 126.168 14.0586 126.92C12.3724 127.649 10.5723 128.014 8.6582 128.014H-8.8418C-9.79883 128.014 -10.7103 128.196 -11.5762 128.561C-12.4421 128.925 -13.194 129.426 -13.832 130.064C-14.4701 130.702 -14.9827 131.443 -15.3701 132.286C-15.7347 133.129 -15.917 134.029 -15.917 134.986V141.993H22.6377V149Z" fill="white" fill-opacity="0.02"/>
<path d="M53.6377 87H8.14453V72.9863C8.14453 71.0723 8.50911 69.2721 9.23828 67.5859C9.99023 65.877 10.9928 64.3958 12.2461 63.1426C13.5221 61.8665 15.0033 60.8639 16.6895 60.1348C18.3984 59.3828 20.2214 59.0068 22.1582 59.0068H39.6582C40.6152 59.0068 41.5153 58.8245 42.3584 58.46C43.2243 58.0954 43.9648 57.5941 44.5801 56.9561C45.2181 56.318 45.7194 55.5775 46.084 54.7344C46.4714 53.8685 46.665 52.957 46.665 52C46.665 51.043 46.4714 50.1429 46.084 49.2998C45.7194 48.4339 45.2181 47.682 44.5801 47.0439C43.9648 46.4059 43.2243 45.9046 42.3584 45.54C41.5153 45.1755 40.6152 44.9932 39.6582 44.9932H11.665V37.9863H39.6582C41.5723 37.9863 43.3724 38.3623 45.0586 39.1143C46.7676 39.8434 48.2487 40.846 49.502 42.1221C50.778 43.3753 51.7806 44.8564 52.5098 46.5654C53.2617 48.2744 53.6377 50.0859 53.6377 52C53.6377 53.9141 53.2617 55.7256 52.5098 57.4346C51.7806 59.1436 50.778 60.6361 49.502 61.9121C48.2487 63.1654 46.7676 64.168 45.0586 64.9199C43.3724 65.6491 41.5723 66.0137 39.6582 66.0137H22.1582C21.2012 66.0137 20.2897 66.196 19.4238 66.5605C18.5579 66.9251 17.806 67.4264 17.168 68.0645C16.5299 68.7025 16.0173 69.443 15.6299 70.2861C15.2653 71.1292 15.083 72.0293 15.083 72.9863V79.9932H53.6377V87Z" fill="white" fill-opacity="0.02"/>
</g>
<defs>
<clipPath id="clip0_28_8">
<rect width="61" height="124" fill="white"/>
</clipPath>
</defs>
</svg>
