<svg width="100" height="100" viewBox="0 0 100 100" fill="none" xmlns="http://www.w3.org/2000/svg">
<g clip-path="url(#clip0_28_14)">
<path d="M-15.3633 11.0898C-15.3633 10.0938 -15.1191 9.16602 -14.6309 8.30664C-14.123 7.42773 -13.4492 6.66602 -12.6094 6.02148C-11.75 5.37695 -10.7441 4.86914 -9.5918 4.49805C-8.43945 4.12695 -7.20898 3.94141 -5.90039 3.94141C-4.5918 3.94141 -3.37109 4.12695 -2.23828 4.49805C-1.08594 4.86914 -0.0898438 5.37695 0.75 6.02148C1.60938 6.66602 2.2832 7.42773 2.77148 8.30664C3.2793 9.16602 3.5332 10.0938 3.5332 11.0898C3.5332 11.832 3.39648 12.5352 3.12305 13.1992C2.84961 13.8633 2.45898 14.4785 1.95117 15.0449C1.46289 15.6113 0.876953 16.1191 0.193359 16.5684C-0.490234 17.0176 -1.24219 17.3789 -2.0625 17.6523C-1.4375 17.7695 -0.822266 17.8574 -0.216797 17.916C0.408203 17.9746 0.994141 18.0039 1.54102 18.0039C2.63477 18.0039 3.62109 17.8672 4.5 17.5938C5.37891 17.3203 6.13086 16.8516 6.75586 16.1875C7.38086 15.5039 7.85938 14.5957 8.19141 13.4629C8.54297 12.3301 8.71875 10.8945 8.71875 9.15625C8.71875 7.65234 8.47461 6.32422 7.98633 5.17188C7.49805 4.01953 6.80469 3.04297 5.90625 2.24219C5.00781 1.44141 3.93359 0.816406 2.68359 0.367188C1.43359 -0.0820312 0.0371094 -0.355469 -1.50586 -0.453125V-3.61719C-0.0605469 -3.73438 1.28711 -4.05664 2.53711 -4.58398C3.78711 -5.13086 4.87109 -5.84375 5.78906 -6.72266C6.72656 -7.60156 7.45898 -8.63672 7.98633 -9.82812C8.51367 -11.0195 8.77734 -12.3379 8.77734 -13.7832C8.77734 -15.1895 8.5918 -16.3809 8.2207 -17.3574C7.86914 -18.334 7.37109 -19.125 6.72656 -19.7305C6.08203 -20.3359 5.33008 -20.7754 4.4707 -21.0488C3.61133 -21.3223 2.68359 -21.459 1.6875 -21.459C0.925781 -21.459 0.125 -21.4199 -0.714844 -21.3418C-1.55469 -21.2832 -2.47266 -21.1074 -3.46875 -20.8145C-2.39453 -20.6387 -1.39844 -20.3359 -0.480469 -19.9062C0.457031 -19.4766 1.25781 -18.9492 1.92188 -18.3242C2.60547 -17.7187 3.13281 -17.0254 3.50391 -16.2441C3.89453 -15.4629 4.08984 -14.6426 4.08984 -13.7832C4.08984 -12.7871 3.83594 -11.8496 3.32812 -10.9707C2.83984 -10.1113 2.16602 -9.35938 1.30664 -8.71484C0.466797 -8.07031 -0.529297 -7.5625 -1.68164 -7.19141C-2.81445 -6.82031 -4.03516 -6.63477 -5.34375 -6.63477C-6.65234 -6.63477 -7.88281 -6.82031 -9.03516 -7.19141C-10.1875 -7.5625 -11.1934 -8.07031 -12.0527 -8.71484C-12.8926 -9.35938 -13.5664 -10.1113 -14.0742 -10.9707C-14.5625 -11.8496 -14.8066 -12.7871 -14.8066 -13.7832C-14.8066 -15.248 -14.3477 -16.5762 -13.4297 -17.7676C-12.4922 -18.9785 -11.1641 -20.0137 -9.44531 -20.873C-7.72656 -21.752 -5.64648 -22.4258 -3.20508 -22.8945C-0.763672 -23.3828 1.9707 -23.627 4.99805 -23.627C6.63867 -23.627 8.2793 -23.5293 9.91992 -23.334C11.5801 -23.1582 13.1719 -22.875 14.6953 -22.4844C16.2188 -22.1133 17.6445 -21.625 18.9727 -21.0195C20.3008 -20.4336 21.4531 -19.7207 22.4297 -18.8809C23.4062 -18.0605 24.168 -17.1133 24.7148 -16.0391C25.2812 -14.9844 25.5645 -13.793 25.5645 -12.4648C25.5645 -9.24219 23.8555 -6.81055 20.4375 -5.16992C17.0391 -3.5293 11.7852 -2.66992 4.67578 -2.5918C8.01562 -2.55273 11.043 -2.33789 13.7578 -1.94727C16.4922 -1.57617 18.8262 -0.970703 20.7598 -0.130859C22.7129 0.708984 24.2168 1.80273 25.2715 3.15039C26.3262 4.49805 26.8535 6.14844 26.8535 8.10156C26.8535 10.1719 26.375 11.9688 25.418 13.4922C24.4609 14.9961 23.084 16.2363 21.2871 17.2129C19.4902 18.1895 17.3027 18.9121 14.7246 19.3809C12.1465 19.8691 9.22656 20.1133 5.96484 20.1133C2.78125 20.1133 -0.119141 19.918 -2.73633 19.5273C-5.35352 19.1562 -7.59961 18.5996 -9.47461 17.8574C-11.3496 17.0957 -12.8047 16.1582 -13.8398 15.0449C-14.8555 13.9121 -15.3633 12.5938 -15.3633 11.0898Z" fill="white" fill-opacity="0.1"/>
<path d="M84.6367 11.0898C84.6367 10.0938 84.8809 9.16602 85.3691 8.30664C85.877 7.42773 86.5508 6.66602 87.3906 6.02148C88.25 5.37695 89.2559 4.86914 90.4082 4.49805C91.5605 4.12695 92.791 3.94141 94.0996 3.94141C95.4082 3.94141 96.6289 4.12695 97.7617 4.49805C98.9141 4.86914 99.9102 5.37695 100.75 6.02148C101.609 6.66602 102.283 7.42773 102.771 8.30664C103.279 9.16602 103.533 10.0938 103.533 11.0898C103.533 11.832 103.396 12.5352 103.123 13.1992C102.85 13.8633 102.459 14.4785 101.951 15.0449C101.463 15.6113 100.877 16.1191 100.193 16.5684C99.5098 17.0176 98.7578 17.3789 97.9375 17.6523C98.5625 17.7695 99.1777 17.8574 99.7832 17.916C100.408 17.9746 100.994 18.0039 101.541 18.0039C102.635 18.0039 103.621 17.8672 104.5 17.5938C105.379 17.3203 106.131 16.8516 106.756 16.1875C107.381 15.5039 107.859 14.5957 108.191 13.4629C108.543 12.3301 108.719 10.8945 108.719 9.15625C108.719 7.65234 108.475 6.32422 107.986 5.17188C107.498 4.01953 106.805 3.04297 105.906 2.24219C105.008 1.44141 103.934 0.816406 102.684 0.367188C101.434 -0.0820312 100.037 -0.355469 98.4941 -0.453125V-3.61719C99.9395 -3.73438 101.287 -4.05664 102.537 -4.58398C103.787 -5.13086 104.871 -5.84375 105.789 -6.72266C106.727 -7.60156 107.459 -8.63672 107.986 -9.82812C108.514 -11.0195 108.777 -12.3379 108.777 -13.7832C108.777 -15.1895 108.592 -16.3809 108.221 -17.3574C107.869 -18.334 107.371 -19.125 106.727 -19.7305C106.082 -20.3359 105.33 -20.7754 104.471 -21.0488C103.611 -21.3223 102.684 -21.459 101.688 -21.459C100.926 -21.459 100.125 -21.4199 99.2852 -21.3418C98.4453 -21.2832 97.5273 -21.1074 96.5312 -20.8145C97.6055 -20.6387 98.6016 -20.3359 99.5195 -19.9062C100.457 -19.4766 101.258 -18.9492 101.922 -18.3242C102.605 -17.7187 103.133 -17.0254 103.504 -16.2441C103.895 -15.4629 104.09 -14.6426 104.09 -13.7832C104.09 -12.7871 103.836 -11.8496 103.328 -10.9707C102.84 -10.1113 102.166 -9.35938 101.307 -8.71484C100.467 -8.07031 99.4707 -7.5625 98.3184 -7.19141C97.1855 -6.82031 95.9648 -6.63477 94.6562 -6.63477C93.3477 -6.63477 92.1172 -6.82031 90.9648 -7.19141C89.8125 -7.5625 88.8066 -8.07031 87.9473 -8.71484C87.1074 -9.35938 86.4336 -10.1113 85.9258 -10.9707C85.4375 -11.8496 85.1934 -12.7871 85.1934 -13.7832C85.1934 -15.248 85.6523 -16.5762 86.5703 -17.7676C87.5078 -18.9785 88.8359 -20.0137 90.5547 -20.873C92.2734 -21.752 94.3535 -22.4258 96.7949 -22.8945C99.2363 -23.3828 101.971 -23.627 104.998 -23.627C106.639 -23.627 108.279 -23.5293 109.92 -23.334C111.58 -23.1582 113.172 -22.875 114.695 -22.4844C116.219 -22.1133 117.645 -21.625 118.973 -21.0195C120.301 -20.4336 121.453 -19.7207 122.43 -18.8809C123.406 -18.0605 124.168 -17.1133 124.715 -16.0391C125.281 -14.9844 125.564 -13.793 125.564 -12.4648C125.564 -9.24219 123.855 -6.81055 120.438 -5.16992C117.039 -3.5293 111.785 -2.66992 104.676 -2.5918C108.016 -2.55273 111.043 -2.33789 113.758 -1.94727C116.492 -1.57617 118.826 -0.970703 120.76 -0.130859C122.713 0.708984 124.217 1.80273 125.271 3.15039C126.326 4.49805 126.854 6.14844 126.854 8.10156C126.854 10.1719 126.375 11.9688 125.418 13.4922C124.461 14.9961 123.084 16.2363 121.287 17.2129C119.49 18.1895 117.303 18.9121 114.725 19.3809C112.146 19.8691 109.227 20.1133 105.965 20.1133C102.781 20.1133 99.8809 19.918 97.2637 19.5273C94.6465 19.1562 92.4004 18.5996 90.5254 17.8574C88.6504 17.0957 87.1953 16.1582 86.1602 15.0449C85.1445 13.9121 84.6367 12.5938 84.6367 11.0898Z" fill="white" fill-opacity="0.1"/>
<path d="M84.6367 111.09C84.6367 110.094 84.8809 109.166 85.3691 108.307C85.877 107.428 86.5508 106.666 87.3906 106.021C88.25 105.377 89.2559 104.869 90.4082 104.498C91.5605 104.127 92.791 103.941 94.0996 103.941C95.4082 103.941 96.6289 104.127 97.7617 104.498C98.9141 104.869 99.9102 105.377 100.75 106.021C101.609 106.666 102.283 107.428 102.771 108.307C103.279 109.166 103.533 110.094 103.533 111.09C103.533 111.832 103.396 112.535 103.123 113.199C102.85 113.863 102.459 114.479 101.951 115.045C101.463 115.611 100.877 116.119 100.193 116.568C99.5098 117.018 98.7578 117.379 97.9375 117.652C98.5625 117.77 99.1777 117.857 99.7832 117.916C100.408 117.975 100.994 118.004 101.541 118.004C102.635 118.004 103.621 117.867 104.5 117.594C105.379 117.32 106.131 116.852 106.756 116.188C107.381 115.504 107.859 114.596 108.191 113.463C108.543 112.33 108.719 110.895 108.719 109.156C108.719 107.652 108.475 106.324 107.986 105.172C107.498 104.02 106.805 103.043 105.906 102.242C105.008 101.441 103.934 100.816 102.684 100.367C101.434 99.918 100.037 99.6445 98.4941 99.5469V96.3828C99.9395 96.2656 101.287 95.9434 102.537 95.416C103.787 94.8691 104.871 94.1562 105.789 93.2773C106.727 92.3984 107.459 91.3633 107.986 90.1719C108.514 88.9805 108.777 87.6621 108.777 86.2168C108.777 84.8105 108.592 83.6191 108.221 82.6426C107.869 81.666 107.371 80.875 106.727 80.2695C106.082 79.6641 105.33 79.2246 104.471 78.9512C103.611 78.6777 102.684 78.541 101.688 78.541C100.926 78.541 100.125 78.5801 99.2852 78.6582C98.4453 78.7168 97.5273 78.8926 96.5312 79.1855C97.6055 79.3613 98.6016 79.6641 99.5195 80.0938C100.457 80.5234 101.258 81.0508 101.922 81.6758C102.605 82.2812 103.133 82.9746 103.504 83.7559C103.895 84.5371 104.09 85.3574 104.09 86.2168C104.09 87.2129 103.836 88.1504 103.328 89.0293C102.84 89.8887 102.166 90.6406 101.307 91.2852C100.467 91.9297 99.4707 92.4375 98.3184 92.8086C97.1855 93.1797 95.9648 93.3652 94.6562 93.3652C93.3477 93.3652 92.1172 93.1797 90.9648 92.8086C89.8125 92.4375 88.8066 91.9297 87.9473 91.2852C87.1074 90.6406 86.4336 89.8887 85.9258 89.0293C85.4375 88.1504 85.1934 87.2129 85.1934 86.2168C85.1934 84.752 85.6523 83.4238 86.5703 82.2324C87.5078 81.0215 88.8359 79.9863 90.5547 79.127C92.2734 78.248 94.3535 77.5742 96.7949 77.1055C99.2363 76.6172 101.971 76.373 104.998 76.373C106.639 76.373 108.279 76.4707 109.92 76.666C111.58 76.8418 113.172 77.125 114.695 77.5156C116.219 77.8867 117.645 78.375 118.973 78.9805C120.301 79.5664 121.453 80.2793 122.43 81.1191C123.406 81.9395 124.168 82.8867 124.715 83.9609C125.281 85.0156 125.564 86.207 125.564 87.5352C125.564 90.7578 123.855 93.1895 120.438 94.8301C117.039 96.4707 111.785 97.3301 104.676 97.4082C108.016 97.4473 111.043 97.6621 113.758 98.0527C116.492 98.4238 118.826 99.0293 120.76 99.8691C122.713 100.709 124.217 101.803 125.271 103.15C126.326 104.498 126.854 106.148 126.854 108.102C126.854 110.172 126.375 111.969 125.418 113.492C124.461 114.996 123.084 116.236 121.287 117.213C119.49 118.189 117.303 118.912 114.725 119.381C112.146 119.869 109.227 120.113 105.965 120.113C102.781 120.113 99.8809 119.918 97.2637 119.527C94.6465 119.156 92.4004 118.6 90.5254 117.857C88.6504 117.096 87.1953 116.158 86.1602 115.045C85.1445 113.912 84.6367 112.594 84.6367 111.09Z" fill="white" fill-opacity="0.1"/>
<path d="M-15.3633 111.09C-15.3633 110.094 -15.1191 109.166 -14.6309 108.307C-14.123 107.428 -13.4492 106.666 -12.6094 106.021C-11.75 105.377 -10.7441 104.869 -9.5918 104.498C-8.43945 104.127 -7.20898 103.941 -5.90039 103.941C-4.5918 103.941 -3.37109 104.127 -2.23828 104.498C-1.08594 104.869 -0.0898438 105.377 0.75 106.021C1.60938 106.666 2.2832 107.428 2.77148 108.307C3.2793 109.166 3.5332 110.094 3.5332 111.09C3.5332 111.832 3.39648 112.535 3.12305 113.199C2.84961 113.863 2.45898 114.479 1.95117 115.045C1.46289 115.611 0.876953 116.119 0.193359 116.568C-0.490234 117.018 -1.24219 117.379 -2.0625 117.652C-1.4375 117.77 -0.822266 117.857 -0.216797 117.916C0.408203 117.975 0.994141 118.004 1.54102 118.004C2.63477 118.004 3.62109 117.867 4.5 117.594C5.37891 117.32 6.13086 116.852 6.75586 116.188C7.38086 115.504 7.85938 114.596 8.19141 113.463C8.54297 112.33 8.71875 110.895 8.71875 109.156C8.71875 107.652 8.47461 106.324 7.98633 105.172C7.49805 104.02 6.80469 103.043 5.90625 102.242C5.00781 101.441 3.93359 100.816 2.68359 100.367C1.43359 99.918 0.0371094 99.6445 -1.50586 99.5469V96.3828C-0.0605469 96.2656 1.28711 95.9434 2.53711 95.416C3.78711 94.8691 4.87109 94.1562 5.78906 93.2773C6.72656 92.3984 7.45898 91.3633 7.98633 90.1719C8.51367 88.9805 8.77734 87.6621 8.77734 86.2168C8.77734 84.8105 8.5918 83.6191 8.2207 82.6426C7.86914 81.666 7.37109 80.875 6.72656 80.2695C6.08203 79.6641 5.33008 79.2246 4.4707 78.9512C3.61133 78.6777 2.68359 78.541 1.6875 78.541C0.925781 78.541 0.125 78.5801 -0.714844 78.6582C-1.55469 78.7168 -2.47266 78.8926 -3.46875 79.1855C-2.39453 79.3613 -1.39844 79.6641 -0.480469 80.0938C0.457031 80.5234 1.25781 81.0508 1.92188 81.6758C2.60547 82.2812 3.13281 82.9746 3.50391 83.7559C3.89453 84.5371 4.08984 85.3574 4.08984 86.2168C4.08984 87.2129 3.83594 88.1504 3.32812 89.0293C2.83984 89.8887 2.16602 90.6406 1.30664 91.2852C0.466797 91.9297 -0.529297 92.4375 -1.68164 92.8086C-2.81445 93.1797 -4.03516 93.3652 -5.34375 93.3652C-6.65234 93.3652 -7.88281 93.1797 -9.03516 92.8086C-10.1875 92.4375 -11.1934 91.9297 -12.0527 91.2852C-12.8926 90.6406 -13.5664 89.8887 -14.0742 89.0293C-14.5625 88.1504 -14.8066 87.2129 -14.8066 86.2168C-14.8066 84.752 -14.3477 83.4238 -13.4297 82.2324C-12.4922 81.0215 -11.1641 79.9863 -9.44531 79.127C-7.72656 78.248 -5.64648 77.5742 -3.20508 77.1055C-0.763672 76.6172 1.9707 76.373 4.99805 76.373C6.63867 76.373 8.2793 76.4707 9.91992 76.666C11.5801 76.8418 13.1719 77.125 14.6953 77.5156C16.2188 77.8867 17.6445 78.375 18.9727 78.9805C20.3008 79.5664 21.4531 80.2793 22.4297 81.1191C23.4062 81.9395 24.168 82.8867 24.7148 83.9609C25.2812 85.0156 25.5645 86.207 25.5645 87.5352C25.5645 90.7578 23.8555 93.1895 20.4375 94.8301C17.0391 96.4707 11.7852 97.3301 4.67578 97.4082C8.01562 97.4473 11.043 97.6621 13.7578 98.0527C16.4922 98.4238 18.8262 99.0293 20.7598 99.8691C22.7129 100.709 24.2168 101.803 25.2715 103.15C26.3262 104.498 26.8535 106.148 26.8535 108.102C26.8535 110.172 26.375 111.969 25.418 113.492C24.4609 114.996 23.084 116.236 21.2871 117.213C19.4902 118.189 17.3027 118.912 14.7246 119.381C12.1465 119.869 9.22656 120.113 5.96484 120.113C2.78125 120.113 -0.119141 119.918 -2.73633 119.527C-5.35352 119.156 -7.59961 118.6 -9.47461 117.857C-11.3496 117.096 -12.8047 116.158 -13.8398 115.045C-14.8555 113.912 -15.3633 112.594 -15.3633 111.09Z" fill="white" fill-opacity="0.1"/>
<path d="M34.6367 61.0898C34.6367 60.0938 34.8809 59.166 35.3691 58.3066C35.877 57.4277 36.5508 56.666 37.3906 56.0215C38.25 55.377 39.2559 54.8691 40.4082 54.498C41.5605 54.127 42.791 53.9414 44.0996 53.9414C45.4082 53.9414 46.6289 54.127 47.7617 54.498C48.9141 54.8691 49.9102 55.377 50.75 56.0215C51.6094 56.666 52.2832 57.4277 52.7715 58.3066C53.2793 59.166 53.5332 60.0938 53.5332 61.0898C53.5332 61.832 53.3965 62.5352 53.123 63.1992C52.8496 63.8633 52.459 64.4785 51.9512 65.0449C51.4629 65.6113 50.877 66.1191 50.1934 66.5684C49.5098 67.0176 48.7578 67.3789 47.9375 67.6523C48.5625 67.7695 49.1777 67.8574 49.7832 67.916C50.4082 67.9746 50.9941 68.0039 51.541 68.0039C52.6348 68.0039 53.6211 67.8672 54.5 67.5938C55.3789 67.3203 56.1309 66.8516 56.7559 66.1875C57.3809 65.5039 57.8594 64.5957 58.1914 63.4629C58.543 62.3301 58.7188 60.8945 58.7188 59.1562C58.7188 57.6523 58.4746 56.3242 57.9863 55.1719C57.498 54.0195 56.8047 53.043 55.9062 52.2422C55.0078 51.4414 53.9336 50.8164 52.6836 50.3672C51.4336 49.918 50.0371 49.6445 48.4941 49.5469V46.3828C49.9395 46.2656 51.2871 45.9434 52.5371 45.416C53.7871 44.8691 54.8711 44.1562 55.7891 43.2773C56.7266 42.3984 57.459 41.3633 57.9863 40.1719C58.5137 38.9805 58.7773 37.6621 58.7773 36.2168C58.7773 34.8105 58.5918 33.6191 58.2207 32.6426C57.8691 31.666 57.3711 30.875 56.7266 30.2695C56.082 29.6641 55.3301 29.2246 54.4707 28.9512C53.6113 28.6777 52.6836 28.541 51.6875 28.541C50.9258 28.541 50.125 28.5801 49.2852 28.6582C48.4453 28.7168 47.5273 28.8926 46.5312 29.1855C47.6055 29.3613 48.6016 29.6641 49.5195 30.0938C50.457 30.5234 51.2578 31.0508 51.9219 31.6758C52.6055 32.2812 53.1328 32.9746 53.5039 33.7559C53.8945 34.5371 54.0898 35.3574 54.0898 36.2168C54.0898 37.2129 53.8359 38.1504 53.3281 39.0293C52.8398 39.8887 52.166 40.6406 51.3066 41.2852C50.4668 41.9297 49.4707 42.4375 48.3184 42.8086C47.1855 43.1797 45.9648 43.3652 44.6562 43.3652C43.3477 43.3652 42.1172 43.1797 40.9648 42.8086C39.8125 42.4375 38.8066 41.9297 37.9473 41.2852C37.1074 40.6406 36.4336 39.8887 35.9258 39.0293C35.4375 38.1504 35.1934 37.2129 35.1934 36.2168C35.1934 34.752 35.6523 33.4238 36.5703 32.2324C37.5078 31.0215 38.8359 29.9863 40.5547 29.127C42.2734 28.248 44.3535 27.5742 46.7949 27.1055C49.2363 26.6172 51.9707 26.373 54.998 26.373C56.6387 26.373 58.2793 26.4707 59.9199 26.666C61.5801 26.8418 63.1719 27.125 64.6953 27.5156C66.2188 27.8867 67.6445 28.375 68.9727 28.9805C70.3008 29.5664 71.4531 30.2793 72.4297 31.1191C73.4062 31.9395 74.168 32.8867 74.7148 33.9609C75.2812 35.0156 75.5645 36.207 75.5645 37.5352C75.5645 40.7578 73.8555 43.1895 70.4375 44.8301C67.0391 46.4707 61.7852 47.3301 54.6758 47.4082C58.0156 47.4473 61.043 47.6621 63.7578 48.0527C66.4922 48.4238 68.8262 49.0293 70.7598 49.8691C72.7129 50.709 74.2168 51.8027 75.2715 53.1504C76.3262 54.498 76.8535 56.1484 76.8535 58.1016C76.8535 60.1719 76.375 61.9688 75.418 63.4922C74.4609 64.9961 73.084 66.2363 71.2871 67.2129C69.4902 68.1895 67.3027 68.9121 64.7246 69.3809C62.1465 69.8691 59.2266 70.1133 55.9648 70.1133C52.7812 70.1133 49.8809 69.918 47.2637 69.5273C44.6465 69.1562 42.4004 68.5996 40.5254 67.8574C38.6504 67.0957 37.1953 66.1582 36.1602 65.0449C35.1445 63.9121 34.6367 62.5938 34.6367 61.0898Z" fill="white" fill-opacity="0.1"/>
</g>
<defs>
<clipPath id="clip0_28_14">
<rect width="100" height="100" fill="white"/>
</clipPath>
</defs>
</svg>
