<svg width="100" height="100" viewBox="0 0 100 100" fill="none" xmlns="http://www.w3.org/2000/svg">
<g clip-path="url(#clip0_28_14)">
<path d="M20.3154 -19.3564L29.4072 -10.2988V-1.37793L24.041 3.16797L29.4072 7.78223V16.9766L20.3154 26H14.2656V6.85938H3.73828V-1.03613H14.2656V-19.3564H20.3154ZM0.662109 -9.71777V-3.08691H-14.4453V-10.2988L-5.3877 -19.3564H11.873V-9.71777H0.662109ZM-14.4453 16.9424V9.93555H0.662109V16.3271H11.873V26H-5.3877L-14.4453 16.9424Z" fill="white" fill-opacity="0.02"/>
<path d="M120.315 -19.3564L129.407 -10.2988V-1.37793L124.041 3.16797L129.407 7.78223V16.9766L120.315 26H114.266V6.85938H103.738V-1.03613H114.266V-19.3564H120.315ZM100.662 -9.71777V-3.08691H85.5547V-10.2988L94.6123 -19.3564H111.873V-9.71777H100.662ZM85.5547 16.9424V9.93555H100.662V16.3271H111.873V26H94.6123L85.5547 16.9424Z" fill="white" fill-opacity="0.02"/>
<path d="M120.315 80.6436L129.407 89.7012V98.6221L124.041 103.168L129.407 107.782V116.977L120.315 126H114.266V106.859H103.738V98.9639H114.266V80.6436H120.315ZM100.662 90.2822V96.9131H85.5547V89.7012L94.6123 80.6436H111.873V90.2822H100.662ZM85.5547 116.942V109.936H100.662V116.327H111.873V126H94.6123L85.5547 116.942Z" fill="white" fill-opacity="0.02"/>
<path d="M20.3154 80.6436L29.4072 89.7012V98.6221L24.041 103.168L29.4072 107.782V116.977L20.3154 126H14.2656V106.859H3.73828V98.9639H14.2656V80.6436H20.3154ZM0.662109 90.2822V96.9131H-14.4453V89.7012L-5.3877 80.6436H11.873V90.2822H0.662109ZM-14.4453 116.942V109.936H0.662109V116.327H11.873V126H-5.3877L-14.4453 116.942Z" fill="white" fill-opacity="0.02"/>
<path d="M70.3154 30.6436L79.4072 39.7012V48.6221L74.041 53.168L79.4072 57.7822V66.9766L70.3154 76H64.2656V56.8594H53.7383V48.9639H64.2656V30.6436H70.3154ZM50.6621 40.2822V46.9131H35.5547V39.7012L44.6123 30.6436H61.873V40.2822H50.6621ZM35.5547 66.9424V59.9355H50.6621V66.3271H61.873V76H44.6123L35.5547 66.9424Z" fill="white" fill-opacity="0.02"/>
</g>
<defs>
<clipPath id="clip0_28_14">
<rect width="100" height="100" fill="white"/>
</clipPath>
</defs>
</svg>
