<svg width="100" height="100" viewBox="0 0 100 100" fill="none" xmlns="http://www.w3.org/2000/svg">
<g clip-path="url(#clip0_28_14)">
<path d="M-14.9238 18.7715C-14.9238 17.6094 -14.639 16.527 -14.0693 15.5244C-13.4769 14.499 -12.6908 13.6104 -11.7109 12.8584C-10.7083 12.1064 -9.53483 11.514 -8.19043 11.0811C-6.84603 10.6481 -5.41048 10.4316 -3.88379 10.4316C-2.3571 10.4316 -0.932943 10.6481 0.388672 11.0811C1.73307 11.514 2.89518 12.1064 3.875 12.8584C4.8776 13.6104 5.66374 14.499 6.2334 15.5244C6.82585 16.527 7.12207 17.6094 7.12207 18.7715C7.12207 19.6374 6.96257 20.4577 6.64355 21.2324C6.32454 22.0072 5.86882 22.7249 5.27637 23.3857C4.70671 24.0465 4.02311 24.639 3.22559 25.1631C2.42806 25.6872 1.55078 26.1087 0.59375 26.4277C1.32292 26.5645 2.04069 26.667 2.74707 26.7354C3.47624 26.8037 4.15983 26.8379 4.79785 26.8379C6.07389 26.8379 7.22461 26.6784 8.25 26.3594C9.27539 26.0404 10.1527 25.4935 10.8818 24.7188C11.611 23.9212 12.1693 22.8617 12.5566 21.54C12.9668 20.2184 13.1719 18.5436 13.1719 16.5156C13.1719 14.7611 12.887 13.2116 12.3174 11.8672C11.7477 10.5228 10.9388 9.38346 9.89062 8.44922C8.84245 7.51497 7.58919 6.78581 6.13086 6.26172C4.67253 5.73763 3.04329 5.41862 1.24316 5.30469V1.61328C2.92936 1.47656 4.50163 1.10059 5.95996 0.485352C7.41829 -0.152669 8.68294 -0.984375 9.75391 -2.00977C10.8477 -3.03516 11.7021 -4.24284 12.3174 -5.63281C12.9326 -7.02279 13.2402 -8.56087 13.2402 -10.2471C13.2402 -11.8877 13.0238 -13.2777 12.5908 -14.417C12.1807 -15.5563 11.5996 -16.4792 10.8477 -17.1855C10.0957 -17.8919 9.21842 -18.4046 8.21582 -18.7236C7.21322 -19.0426 6.13086 -19.2021 4.96875 -19.2021C4.08008 -19.2021 3.14583 -19.1566 2.16602 -19.0654C1.1862 -18.9971 0.115234 -18.792 -1.04688 -18.4502C0.20638 -18.2451 1.36849 -17.8919 2.43945 -17.3906C3.5332 -16.8893 4.46745 -16.2741 5.24219 -15.5449C6.03971 -14.8385 6.65495 -14.0296 7.08789 -13.1182C7.54362 -12.2067 7.77148 -11.2497 7.77148 -10.2471C7.77148 -9.08496 7.47526 -7.99121 6.88281 -6.96582C6.31315 -5.96322 5.52702 -5.08594 4.52441 -4.33398C3.5446 -3.58203 2.38249 -2.98958 1.03809 -2.55664C-0.283529 -2.1237 -1.70768 -1.90723 -3.23438 -1.90723C-4.76107 -1.90723 -6.19661 -2.1237 -7.54102 -2.55664C-8.88542 -2.98958 -10.0589 -3.58203 -11.0615 -4.33398C-12.0413 -5.08594 -12.8275 -5.96322 -13.4199 -6.96582C-13.9896 -7.99121 -14.2744 -9.08496 -14.2744 -10.2471C-14.2744 -11.9561 -13.7389 -13.5055 -12.668 -14.8955C-11.5742 -16.3083 -10.0247 -17.516 -8.01953 -18.5186C-6.01432 -19.5439 -3.58757 -20.3301 -0.739258 -20.877C2.10905 -21.4466 5.29915 -21.7314 8.83105 -21.7314C10.7451 -21.7314 12.6592 -21.6175 14.5732 -21.3896C16.5101 -21.1846 18.3672 -20.8542 20.1445 -20.3984C21.9219 -19.9655 23.5853 -19.3958 25.1348 -18.6895C26.6842 -18.0059 28.0286 -17.1742 29.168 -16.1943C30.3073 -15.2373 31.196 -14.1322 31.834 -12.8789C32.4948 -11.6484 32.8252 -10.2585 32.8252 -8.70898C32.8252 -4.94922 30.8314 -2.1123 26.8438 -0.198242C22.8789 1.71582 16.7493 2.71842 8.45508 2.80957C12.3516 2.85514 15.8835 3.10579 19.0508 3.56152C22.2409 3.99447 24.9639 4.70085 27.2197 5.68066C29.4984 6.66048 31.2529 7.93652 32.4834 9.50879C33.7139 11.0811 34.3291 13.0065 34.3291 15.2852C34.3291 17.7005 33.7708 19.7969 32.6543 21.5742C31.5378 23.3288 29.9313 24.7757 27.835 25.915C25.7386 27.0544 23.1865 27.8975 20.1787 28.4443C17.1709 29.014 13.7643 29.2988 9.95898 29.2988C6.24479 29.2988 2.861 29.071 -0.192383 28.6152C-3.24577 28.1823 -5.86621 27.5329 -8.05371 26.667C-10.2412 25.7783 -11.9388 24.6846 -13.1465 23.3857C-14.3314 22.0641 -14.9238 20.526 -14.9238 18.7715Z" fill="white" fill-opacity="0.02"/>
<path d="M85.0762 18.7715C85.0762 17.6094 85.361 16.527 85.9307 15.5244C86.5231 14.499 87.3092 13.6104 88.2891 12.8584C89.2917 12.1064 90.4652 11.514 91.8096 11.0811C93.154 10.6481 94.5895 10.4316 96.1162 10.4316C97.6429 10.4316 99.0671 10.6481 100.389 11.0811C101.733 11.514 102.895 12.1064 103.875 12.8584C104.878 13.6104 105.664 14.499 106.233 15.5244C106.826 16.527 107.122 17.6094 107.122 18.7715C107.122 19.6374 106.963 20.4577 106.644 21.2324C106.325 22.0072 105.869 22.7249 105.276 23.3857C104.707 24.0465 104.023 24.639 103.226 25.1631C102.428 25.6872 101.551 26.1087 100.594 26.4277C101.323 26.5645 102.041 26.667 102.747 26.7354C103.476 26.8037 104.16 26.8379 104.798 26.8379C106.074 26.8379 107.225 26.6784 108.25 26.3594C109.275 26.0404 110.153 25.4935 110.882 24.7188C111.611 23.9212 112.169 22.8617 112.557 21.54C112.967 20.2184 113.172 18.5436 113.172 16.5156C113.172 14.7611 112.887 13.2116 112.317 11.8672C111.748 10.5228 110.939 9.38346 109.891 8.44922C108.842 7.51497 107.589 6.78581 106.131 6.26172C104.673 5.73763 103.043 5.41862 101.243 5.30469V1.61328C102.929 1.47656 104.502 1.10059 105.96 0.485352C107.418 -0.152669 108.683 -0.984375 109.754 -2.00977C110.848 -3.03516 111.702 -4.24284 112.317 -5.63281C112.933 -7.02279 113.24 -8.56087 113.24 -10.2471C113.24 -11.8877 113.024 -13.2777 112.591 -14.417C112.181 -15.5563 111.6 -16.4792 110.848 -17.1855C110.096 -17.8919 109.218 -18.4046 108.216 -18.7236C107.213 -19.0426 106.131 -19.2021 104.969 -19.2021C104.08 -19.2021 103.146 -19.1566 102.166 -19.0654C101.186 -18.9971 100.115 -18.792 98.9531 -18.4502C100.206 -18.2451 101.368 -17.8919 102.439 -17.3906C103.533 -16.8893 104.467 -16.2741 105.242 -15.5449C106.04 -14.8385 106.655 -14.0296 107.088 -13.1182C107.544 -12.2067 107.771 -11.2497 107.771 -10.2471C107.771 -9.08496 107.475 -7.99121 106.883 -6.96582C106.313 -5.96322 105.527 -5.08594 104.524 -4.33398C103.545 -3.58203 102.382 -2.98958 101.038 -2.55664C99.7165 -2.1237 98.2923 -1.90723 96.7656 -1.90723C95.2389 -1.90723 93.8034 -2.1237 92.459 -2.55664C91.1146 -2.98958 89.9411 -3.58203 88.9385 -4.33398C87.9587 -5.08594 87.1725 -5.96322 86.5801 -6.96582C86.0104 -7.99121 85.7256 -9.08496 85.7256 -10.2471C85.7256 -11.9561 86.2611 -13.5055 87.332 -14.8955C88.4258 -16.3083 89.9753 -17.516 91.9805 -18.5186C93.9857 -19.5439 96.4124 -20.3301 99.2607 -20.877C102.109 -21.4466 105.299 -21.7314 108.831 -21.7314C110.745 -21.7314 112.659 -21.6175 114.573 -21.3896C116.51 -21.1846 118.367 -20.8542 120.145 -20.3984C121.922 -19.9655 123.585 -19.3958 125.135 -18.6895C126.684 -18.0059 128.029 -17.1742 129.168 -16.1943C130.307 -15.2373 131.196 -14.1322 131.834 -12.8789C132.495 -11.6484 132.825 -10.2585 132.825 -8.70898C132.825 -4.94922 130.831 -2.1123 126.844 -0.198242C122.879 1.71582 116.749 2.71842 108.455 2.80957C112.352 2.85514 115.883 3.10579 119.051 3.56152C122.241 3.99447 124.964 4.70085 127.22 5.68066C129.498 6.66048 131.253 7.93652 132.483 9.50879C133.714 11.0811 134.329 13.0065 134.329 15.2852C134.329 17.7005 133.771 19.7969 132.654 21.5742C131.538 23.3288 129.931 24.7757 127.835 25.915C125.739 27.0544 123.187 27.8975 120.179 28.4443C117.171 29.014 113.764 29.2988 109.959 29.2988C106.245 29.2988 102.861 29.071 99.8076 28.6152C96.7542 28.1823 94.1338 27.5329 91.9463 26.667C89.7588 25.7783 88.0612 24.6846 86.8535 23.3857C85.6686 22.0641 85.0762 20.526 85.0762 18.7715Z" fill="white" fill-opacity="0.02"/>
<path d="M85.0762 118.771C85.0762 117.609 85.361 116.527 85.9307 115.524C86.5231 114.499 87.3092 113.61 88.2891 112.858C89.2917 112.106 90.4652 111.514 91.8096 111.081C93.154 110.648 94.5895 110.432 96.1162 110.432C97.6429 110.432 99.0671 110.648 100.389 111.081C101.733 111.514 102.895 112.106 103.875 112.858C104.878 113.61 105.664 114.499 106.233 115.524C106.826 116.527 107.122 117.609 107.122 118.771C107.122 119.637 106.963 120.458 106.644 121.232C106.325 122.007 105.869 122.725 105.276 123.386C104.707 124.047 104.023 124.639 103.226 125.163C102.428 125.687 101.551 126.109 100.594 126.428C101.323 126.564 102.041 126.667 102.747 126.735C103.476 126.804 104.16 126.838 104.798 126.838C106.074 126.838 107.225 126.678 108.25 126.359C109.275 126.04 110.153 125.493 110.882 124.719C111.611 123.921 112.169 122.862 112.557 121.54C112.967 120.218 113.172 118.544 113.172 116.516C113.172 114.761 112.887 113.212 112.317 111.867C111.748 110.523 110.939 109.383 109.891 108.449C108.842 107.515 107.589 106.786 106.131 106.262C104.673 105.738 103.043 105.419 101.243 105.305V101.613C102.929 101.477 104.502 101.101 105.96 100.485C107.418 99.8473 108.683 99.0156 109.754 97.9902C110.848 96.9648 111.702 95.7572 112.317 94.3672C112.933 92.9772 113.24 91.4391 113.24 89.7529C113.24 88.1123 113.024 86.7223 112.591 85.583C112.181 84.4437 111.6 83.5208 110.848 82.8145C110.096 82.1081 109.218 81.5954 108.216 81.2764C107.213 80.9574 106.131 80.7979 104.969 80.7979C104.08 80.7979 103.146 80.8434 102.166 80.9346C101.186 81.0029 100.115 81.208 98.9531 81.5498C100.206 81.7549 101.368 82.1081 102.439 82.6094C103.533 83.1107 104.467 83.7259 105.242 84.4551C106.04 85.1615 106.655 85.9704 107.088 86.8818C107.544 87.7933 107.771 88.7503 107.771 89.7529C107.771 90.915 107.475 92.0088 106.883 93.0342C106.313 94.0368 105.527 94.9141 104.524 95.666C103.545 96.418 102.382 97.0104 101.038 97.4434C99.7165 97.8763 98.2923 98.0928 96.7656 98.0928C95.2389 98.0928 93.8034 97.8763 92.459 97.4434C91.1146 97.0104 89.9411 96.418 88.9385 95.666C87.9587 94.9141 87.1725 94.0368 86.5801 93.0342C86.0104 92.0088 85.7256 90.915 85.7256 89.7529C85.7256 88.0439 86.2611 86.4945 87.332 85.1045C88.4258 83.6917 89.9753 82.484 91.9805 81.4814C93.9857 80.4561 96.4124 79.6699 99.2607 79.123C102.109 78.5534 105.299 78.2686 108.831 78.2686C110.745 78.2686 112.659 78.3825 114.573 78.6104C116.51 78.8154 118.367 79.1458 120.145 79.6016C121.922 80.0345 123.585 80.6042 125.135 81.3105C126.684 81.9941 128.029 82.8258 129.168 83.8057C130.307 84.7627 131.196 85.8678 131.834 87.1211C132.495 88.3516 132.825 89.7415 132.825 91.291C132.825 95.0508 130.831 97.8877 126.844 99.8018C122.879 101.716 116.749 102.718 108.455 102.81C112.352 102.855 115.883 103.106 119.051 103.562C122.241 103.994 124.964 104.701 127.22 105.681C129.498 106.66 131.253 107.937 132.483 109.509C133.714 111.081 134.329 113.007 134.329 115.285C134.329 117.701 133.771 119.797 132.654 121.574C131.538 123.329 129.931 124.776 127.835 125.915C125.739 127.054 123.187 127.897 120.179 128.444C117.171 129.014 113.764 129.299 109.959 129.299C106.245 129.299 102.861 129.071 99.8076 128.615C96.7542 128.182 94.1338 127.533 91.9463 126.667C89.7588 125.778 88.0612 124.685 86.8535 123.386C85.6686 122.064 85.0762 120.526 85.0762 118.771Z" fill="white" fill-opacity="0.02"/>
<path d="M-14.9238 118.771C-14.9238 117.609 -14.639 116.527 -14.0693 115.524C-13.4769 114.499 -12.6908 113.61 -11.7109 112.858C-10.7083 112.106 -9.53483 111.514 -8.19043 111.081C-6.84603 110.648 -5.41048 110.432 -3.88379 110.432C-2.3571 110.432 -0.932943 110.648 0.388672 111.081C1.73307 111.514 2.89518 112.106 3.875 112.858C4.8776 113.61 5.66374 114.499 6.2334 115.524C6.82585 116.527 7.12207 117.609 7.12207 118.771C7.12207 119.637 6.96257 120.458 6.64355 121.232C6.32454 122.007 5.86882 122.725 5.27637 123.386C4.70671 124.047 4.02311 124.639 3.22559 125.163C2.42806 125.687 1.55078 126.109 0.59375 126.428C1.32292 126.564 2.04069 126.667 2.74707 126.735C3.47624 126.804 4.15983 126.838 4.79785 126.838C6.07389 126.838 7.22461 126.678 8.25 126.359C9.27539 126.04 10.1527 125.493 10.8818 124.719C11.611 123.921 12.1693 122.862 12.5566 121.54C12.9668 120.218 13.1719 118.544 13.1719 116.516C13.1719 114.761 12.887 113.212 12.3174 111.867C11.7477 110.523 10.9388 109.383 9.89062 108.449C8.84245 107.515 7.58919 106.786 6.13086 106.262C4.67253 105.738 3.04329 105.419 1.24316 105.305V101.613C2.92936 101.477 4.50163 101.101 5.95996 100.485C7.41829 99.8473 8.68294 99.0156 9.75391 97.9902C10.8477 96.9648 11.7021 95.7572 12.3174 94.3672C12.9326 92.9772 13.2402 91.4391 13.2402 89.7529C13.2402 88.1123 13.0238 86.7223 12.5908 85.583C12.1807 84.4437 11.5996 83.5208 10.8477 82.8145C10.0957 82.1081 9.21842 81.5954 8.21582 81.2764C7.21322 80.9574 6.13086 80.7979 4.96875 80.7979C4.08008 80.7979 3.14583 80.8434 2.16602 80.9346C1.1862 81.0029 0.115234 81.208 -1.04688 81.5498C0.20638 81.7549 1.36849 82.1081 2.43945 82.6094C3.5332 83.1107 4.46745 83.7259 5.24219 84.4551C6.03971 85.1615 6.65495 85.9704 7.08789 86.8818C7.54362 87.7933 7.77148 88.7503 7.77148 89.7529C7.77148 90.915 7.47526 92.0088 6.88281 93.0342C6.31315 94.0368 5.52702 94.9141 4.52441 95.666C3.5446 96.418 2.38249 97.0104 1.03809 97.4434C-0.283529 97.8763 -1.70768 98.0928 -3.23438 98.0928C-4.76107 98.0928 -6.19661 97.8763 -7.54102 97.4434C-8.88542 97.0104 -10.0589 96.418 -11.0615 95.666C-12.0413 94.9141 -12.8275 94.0368 -13.4199 93.0342C-13.9896 92.0088 -14.2744 90.915 -14.2744 89.7529C-14.2744 88.0439 -13.7389 86.4945 -12.668 85.1045C-11.5742 83.6917 -10.0247 82.484 -8.01953 81.4814C-6.01432 80.4561 -3.58757 79.6699 -0.739258 79.123C2.10905 78.5534 5.29915 78.2686 8.83105 78.2686C10.7451 78.2686 12.6592 78.3825 14.5732 78.6104C16.5101 78.8154 18.3672 79.1458 20.1445 79.6016C21.9219 80.0345 23.5853 80.6042 25.1348 81.3105C26.6842 81.9941 28.0286 82.8258 29.168 83.8057C30.3073 84.7627 31.196 85.8678 31.834 87.1211C32.4948 88.3516 32.8252 89.7415 32.8252 91.291C32.8252 95.0508 30.8314 97.8877 26.8438 99.8018C22.8789 101.716 16.7493 102.718 8.45508 102.81C12.3516 102.855 15.8835 103.106 19.0508 103.562C22.2409 103.994 24.9639 104.701 27.2197 105.681C29.4984 106.66 31.2529 107.937 32.4834 109.509C33.7139 111.081 34.3291 113.007 34.3291 115.285C34.3291 117.701 33.7708 119.797 32.6543 121.574C31.5378 123.329 29.9313 124.776 27.835 125.915C25.7386 127.054 23.1865 127.897 20.1787 128.444C17.1709 129.014 13.7643 129.299 9.95898 129.299C6.24479 129.299 2.861 129.071 -0.192383 128.615C-3.24577 128.182 -5.86621 127.533 -8.05371 126.667C-10.2412 125.778 -11.9388 124.685 -13.1465 123.386C-14.3314 122.064 -14.9238 120.526 -14.9238 118.771Z" fill="white" fill-opacity="0.02"/>
<path d="M35.0762 68.7715C35.0762 67.6094 35.361 66.527 35.9307 65.5244C36.5231 64.499 37.3092 63.6104 38.2891 62.8584C39.2917 62.1064 40.4652 61.514 41.8096 61.0811C43.154 60.6481 44.5895 60.4316 46.1162 60.4316C47.6429 60.4316 49.0671 60.6481 50.3887 61.0811C51.7331 61.514 52.8952 62.1064 53.875 62.8584C54.8776 63.6104 55.6637 64.499 56.2334 65.5244C56.8258 66.527 57.1221 67.6094 57.1221 68.7715C57.1221 69.6374 56.9626 70.4577 56.6436 71.2324C56.3245 72.0072 55.8688 72.7249 55.2764 73.3857C54.7067 74.0465 54.0231 74.639 53.2256 75.1631C52.4281 75.6872 51.5508 76.1087 50.5938 76.4277C51.3229 76.5645 52.0407 76.667 52.7471 76.7354C53.4762 76.8037 54.1598 76.8379 54.7979 76.8379C56.0739 76.8379 57.2246 76.6784 58.25 76.3594C59.2754 76.0404 60.1527 75.4935 60.8818 74.7188C61.611 73.9212 62.1693 72.8617 62.5566 71.54C62.9668 70.2184 63.1719 68.5436 63.1719 66.5156C63.1719 64.7611 62.887 63.2116 62.3174 61.8672C61.7477 60.5228 60.9388 59.3835 59.8906 58.4492C58.8424 57.515 57.5892 56.7858 56.1309 56.2617C54.6725 55.7376 53.0433 55.4186 51.2432 55.3047V51.6133C52.9294 51.4766 54.5016 51.1006 55.96 50.4854C57.4183 49.8473 58.6829 49.0156 59.7539 47.9902C60.8477 46.9648 61.7021 45.7572 62.3174 44.3672C62.9326 42.9772 63.2402 41.4391 63.2402 39.7529C63.2402 38.1123 63.0238 36.7223 62.5908 35.583C62.1807 34.4437 61.5996 33.5208 60.8477 32.8145C60.0957 32.1081 59.2184 31.5954 58.2158 31.2764C57.2132 30.9574 56.1309 30.7979 54.9688 30.7979C54.0801 30.7979 53.1458 30.8434 52.166 30.9346C51.1862 31.0029 50.1152 31.208 48.9531 31.5498C50.2064 31.7549 51.3685 32.1081 52.4395 32.6094C53.5332 33.1107 54.4674 33.7259 55.2422 34.4551C56.0397 35.1615 56.6549 35.9704 57.0879 36.8818C57.5436 37.7933 57.7715 38.7503 57.7715 39.7529C57.7715 40.915 57.4753 42.0088 56.8828 43.0342C56.3132 44.0368 55.527 44.9141 54.5244 45.666C53.5446 46.418 52.3825 47.0104 51.0381 47.4434C49.7165 47.8763 48.2923 48.0928 46.7656 48.0928C45.2389 48.0928 43.8034 47.8763 42.459 47.4434C41.1146 47.0104 39.9411 46.418 38.9385 45.666C37.9587 44.9141 37.1725 44.0368 36.5801 43.0342C36.0104 42.0088 35.7256 40.915 35.7256 39.7529C35.7256 38.0439 36.2611 36.4945 37.332 35.1045C38.4258 33.6917 39.9753 32.484 41.9805 31.4814C43.9857 30.4561 46.4124 29.6699 49.2607 29.123C52.109 28.5534 55.2992 28.2686 58.8311 28.2686C60.7451 28.2686 62.6592 28.3825 64.5732 28.6104C66.5101 28.8154 68.3672 29.1458 70.1445 29.6016C71.9219 30.0345 73.5853 30.6042 75.1348 31.3105C76.6842 31.9941 78.0286 32.8258 79.168 33.8057C80.3073 34.7627 81.196 35.8678 81.834 37.1211C82.4948 38.3516 82.8252 39.7415 82.8252 41.291C82.8252 45.0508 80.8314 47.8877 76.8438 49.8018C72.8789 51.7158 66.7493 52.7184 58.4551 52.8096C62.3516 52.8551 65.8835 53.1058 69.0508 53.5615C72.2409 53.9945 74.9639 54.7008 77.2197 55.6807C79.4984 56.6605 81.2529 57.9365 82.4834 59.5088C83.7139 61.0811 84.3291 63.0065 84.3291 65.2852C84.3291 67.7005 83.7708 69.7969 82.6543 71.5742C81.5378 73.3288 79.9313 74.7757 77.835 75.915C75.7386 77.0544 73.1865 77.8975 70.1787 78.4443C67.1709 79.014 63.7643 79.2988 59.959 79.2988C56.2448 79.2988 52.861 79.071 49.8076 78.6152C46.7542 78.1823 44.1338 77.5329 41.9463 76.667C39.7588 75.7783 38.0612 74.6846 36.8535 73.3857C35.6686 72.0641 35.0762 70.526 35.0762 68.7715Z" fill="white" fill-opacity="0.02"/>
</g>
<defs>
<clipPath id="clip0_28_14">
<rect width="100" height="100" fill="white"/>
</clipPath>
</defs>
</svg>
