<svg width="95" height="95" viewBox="0 0 95 95" fill="none" xmlns="http://www.w3.org/2000/svg">
<g clip-path="url(#clip0_28_14)">
<path d="M12.3154 -25.3564L21.4072 -16.2988V-7.37793L16.041 -2.83203L21.4072 1.78223V10.9766L12.3154 20H6.26562V0.859375H-4.26172V-7.03613H6.26562V-25.3564H12.3154ZM-7.33789 -15.7178V-9.08691H-22.4453V-16.2988L-13.3877 -25.3564H3.87305V-15.7178H-7.33789ZM-22.4453 10.9424V3.93555H-7.33789V10.3271H3.87305V20H-13.3877L-22.4453 10.9424Z" fill="white" fill-opacity="0.02"/>
<path d="M107.315 -25.3564L116.407 -16.2988V-7.37793L111.041 -2.83203L116.407 1.78223V10.9766L107.315 20H101.266V0.859375H90.7383V-7.03613H101.266V-25.3564H107.315ZM87.6621 -15.7178V-9.08691H72.5547V-16.2988L81.6123 -25.3564H98.873V-15.7178H87.6621ZM72.5547 10.9424V3.93555H87.6621V10.3271H98.873V20H81.6123L72.5547 10.9424Z" fill="white" fill-opacity="0.02"/>
<path d="M107.315 69.6436L116.407 78.7012V87.6221L111.041 92.168L116.407 96.7822V105.977L107.315 115H101.266V95.8594H90.7383V87.9639H101.266V69.6436H107.315ZM87.6621 79.2822V85.9131H72.5547V78.7012L81.6123 69.6436H98.873V79.2822H87.6621ZM72.5547 105.942V98.9355H87.6621V105.327H98.873V115H81.6123L72.5547 105.942Z" fill="white" fill-opacity="0.02"/>
<path d="M12.3154 69.6436L21.4072 78.7012V87.6221L16.041 92.168L21.4072 96.7822V105.977L12.3154 115H6.26562V95.8594H-4.26172V87.9639H6.26562V69.6436H12.3154ZM-7.33789 79.2822V85.9131H-22.4453V78.7012L-13.3877 69.6436H3.87305V79.2822H-7.33789ZM-22.4453 105.942V98.9355H-7.33789V105.327H3.87305V115H-13.3877L-22.4453 105.942Z" fill="white" fill-opacity="0.02"/>
<path d="M60.3154 22.6436L69.4072 31.7012V40.6221L64.041 45.168L69.4072 49.7822V58.9766L60.3154 68H54.2656V48.8594H43.7383V40.9639H54.2656V22.6436H60.3154ZM40.6621 32.2822V38.9131H25.5547V31.7012L34.6123 22.6436H51.873V32.2822H40.6621ZM25.5547 58.9424V51.9355H40.6621V58.3271H51.873V68H34.6123L25.5547 58.9424Z" fill="white" fill-opacity="0.02"/>
</g>
<defs>
<clipPath id="clip0_28_14">
<rect width="95" height="95" fill="white"/>
</clipPath>
</defs>
</svg>
