<svg width="100" height="100" viewBox="0 0 100 100" fill="none" xmlns="http://www.w3.org/2000/svg">
<g clip-path="url(#clip0_28_20)">
<path d="M-17.8975 12.6875L7.46387 -20.9795H23.9727V12.6875H31.2529V15.6953H23.9727V25.2998H29.9541V28H-3.95215V25.2998H2.0293V15.6953H-17.8975V12.6875ZM2.0293 12.6875V-6.58984L-12.3604 12.6875H2.0293Z" fill="white" fill-opacity="0.02"/>
<path d="M82.1025 12.6875L107.464 -20.9795H123.973V12.6875H131.253V15.6953H123.973V25.2998H129.954V28H96.0479V25.2998H102.029V15.6953H82.1025V12.6875ZM102.029 12.6875V-6.58984L87.6396 12.6875H102.029Z" fill="white" fill-opacity="0.02"/>
<path d="M82.1025 112.688L107.464 79.0205H123.973V112.688H131.253V115.695H123.973V125.3H129.954V128H96.0479V125.3H102.029V115.695H82.1025V112.688ZM102.029 112.688V93.4102L87.6396 112.688H102.029Z" fill="white" fill-opacity="0.02"/>
<path d="M-17.8975 112.688L7.46387 79.0205H23.9727V112.688H31.2529V115.695H23.9727V125.3H29.9541V128H-3.95215V125.3H2.0293V115.695H-17.8975V112.688ZM2.0293 112.688V93.4102L-12.3604 112.688H2.0293Z" fill="white" fill-opacity="0.02"/>
<path d="M32.1025 62.6875L57.4639 29.0205H73.9727V62.6875H81.2529V65.6953H73.9727V75.2998H79.9541V78H46.0479V75.2998H52.0293V65.6953H32.1025V62.6875ZM52.0293 62.6875V43.4102L37.6396 62.6875H52.0293Z" fill="white" fill-opacity="0.02"/>
</g>
<defs>
<clipPath id="clip0_28_20">
<rect width="100" height="100" fill="white"/>
</clipPath>
</defs>
</svg>
