<svg width="100" height="100" viewBox="0 0 100 100" fill="none" xmlns="http://www.w3.org/2000/svg">
<g clip-path="url(#clip0_28_20)">
<path d="M-17.9121 5.875L3.82617 -22.9824H17.9766V5.875H24.2168V8.45312H17.9766V16.6855H23.1035V19H-5.95898V16.6855H-0.832031V8.45312H-17.9121V5.875ZM-0.832031 5.875V-10.6484L-13.166 5.875H-0.832031Z" fill="white" fill-opacity="0.1"/>
<path d="M82.0879 5.875L103.826 -22.9824H117.977V5.875H124.217V8.45312H117.977V16.6855H123.104V19H94.041V16.6855H99.168V8.45312H82.0879V5.875ZM99.168 5.875V-10.6484L86.834 5.875H99.168Z" fill="white" fill-opacity="0.1"/>
<path d="M82.0879 105.875L103.826 77.0176H117.977V105.875H124.217V108.453H117.977V116.686H123.104V119H94.041V116.686H99.168V108.453H82.0879V105.875ZM99.168 105.875V89.3516L86.834 105.875H99.168Z" fill="white" fill-opacity="0.1"/>
<path d="M-17.9121 105.875L3.82617 77.0176H17.9766V105.875H24.2168V108.453H17.9766V116.686H23.1035V119H-5.95898V116.686H-0.832031V108.453H-17.9121V105.875ZM-0.832031 105.875V89.3516L-13.166 105.875H-0.832031Z" fill="white" fill-opacity="0.1"/>
<path d="M32.0879 55.875L53.8262 27.0176H67.9766V55.875H74.2168V58.4531H67.9766V66.6855H73.1035V69H44.041V66.6855H49.168V58.4531H32.0879V55.875ZM49.168 55.875V39.3516L36.834 55.875H49.168Z" fill="white" fill-opacity="0.1"/>
</g>
<defs>
<clipPath id="clip0_28_20">
<rect width="100" height="100" fill="white"/>
</clipPath>
</defs>
</svg>
