<svg width="100" height="100" viewBox="0 0 100 100" fill="none" xmlns="http://www.w3.org/2000/svg">
<g clip-path="url(#clip0_28_20)">
<path d="M-2.74 24.14L-1.34 12.94L-13.38 13.85L-16.46 7.55C-14.92 2.93 -13.45 -1.48 -12.05 -5.68C-11.4433 -7.45333 -10.8367 -9.27333 -10.23 -11.14C-9.62333 -13.0533 -9.04 -14.8967 -8.48 -16.67C-7.87333 -18.4433 -7.31333 -20.1233 -6.8 -21.71C-6.28667 -23.2967 -5.82 -24.6733 -5.4 -25.84C-3.44 -25.84 -1.59667 -25.8867 0.13 -25.98C1.90333 -26.12 3.79333 -26.33 5.8 -26.61C4.07333 -22.27 2.46333 -17.9067 0.970002 -13.52C-0.476666 -9.13334 -1.9 -4.67667 -3.3 -0.150002C-3.34667 0.176665 -3.39333 0.456665 -3.44 0.69C-3.48667 0.923333 -3.55667 1.20333 -3.65 1.53H1.32C1.36667 1.20333 1.46 0.689999 1.6 -0.0100017C1.74 -0.756669 1.90333 -1.62 2.09 -2.6C2.27667 -3.58 2.46333 -4.65334 2.65 -5.82C2.88333 -6.98667 3.11667 -8.17667 3.35 -9.39C3.81667 -12.0967 4.37667 -15.06 5.03 -18.28C6.52334 -18.5133 8.04 -18.7233 9.58 -18.91C10.84 -19.0967 12.1467 -19.26 13.5 -19.4C14.8533 -19.54 16.02 -19.6567 17 -19.75C16.9533 -19.2833 16.8133 -18.49 16.58 -17.37C16.3933 -16.25 16.16 -14.99 15.88 -13.59C15.6467 -12.19 15.39 -10.6967 15.11 -9.11C14.8767 -7.52333 14.62 -6.03 14.34 -4.63C14.06 -3.23 13.8267 -1.97 13.64 -0.850001C13.4533 0.269998 13.3133 1.06333 13.22 1.53H17.21L14.34 12.73H10.77L10.14 21.9L-2.74 24.14Z" fill="white" fill-opacity="0.02"/>
<path d="M97.26 24.14L98.66 12.94L86.62 13.85L83.54 7.55C85.08 2.93 86.55 -1.48 87.95 -5.68C88.5567 -7.45333 89.1633 -9.27333 89.77 -11.14C90.3767 -13.0533 90.96 -14.8967 91.52 -16.67C92.1267 -18.4433 92.6867 -20.1233 93.2 -21.71C93.7133 -23.2967 94.18 -24.6733 94.6 -25.84C96.56 -25.84 98.4033 -25.8867 100.13 -25.98C101.903 -26.12 103.793 -26.33 105.8 -26.61C104.073 -22.27 102.463 -17.9067 100.97 -13.52C99.5233 -9.13334 98.1 -4.67667 96.7 -0.150002C96.6533 0.176665 96.6067 0.456665 96.56 0.69C96.5133 0.923333 96.4433 1.20333 96.35 1.53H101.32C101.367 1.20333 101.46 0.689999 101.6 -0.0100017C101.74 -0.756669 101.903 -1.62 102.09 -2.6C102.277 -3.58 102.463 -4.65334 102.65 -5.82C102.883 -6.98667 103.117 -8.17667 103.35 -9.39C103.817 -12.0967 104.377 -15.06 105.03 -18.28C106.523 -18.5133 108.04 -18.7233 109.58 -18.91C110.84 -19.0967 112.147 -19.26 113.5 -19.4C114.853 -19.54 116.02 -19.6567 117 -19.75C116.953 -19.2833 116.813 -18.49 116.58 -17.37C116.393 -16.25 116.16 -14.99 115.88 -13.59C115.647 -12.19 115.39 -10.6967 115.11 -9.11C114.877 -7.52333 114.62 -6.03 114.34 -4.63C114.06 -3.23 113.827 -1.97 113.64 -0.850001C113.453 0.269998 113.313 1.06333 113.22 1.53H117.21L114.34 12.73H110.77L110.14 21.9L97.26 24.14Z" fill="white" fill-opacity="0.02"/>
<path d="M97.26 124.14L98.66 112.94L86.62 113.85L83.54 107.55C85.08 102.93 86.55 98.52 87.95 94.32C88.5567 92.5467 89.1633 90.7267 89.77 88.86C90.3767 86.9467 90.96 85.1033 91.52 83.33C92.1267 81.5567 92.6867 79.8767 93.2 78.29C93.7133 76.7033 94.18 75.3267 94.6 74.16C96.56 74.16 98.4033 74.1133 100.13 74.02C101.903 73.88 103.793 73.67 105.8 73.39C104.073 77.73 102.463 82.0933 100.97 86.48C99.5233 90.8667 98.1 95.3233 96.7 99.85C96.6533 100.177 96.6067 100.457 96.56 100.69C96.5133 100.923 96.4433 101.203 96.35 101.53H101.32C101.367 101.203 101.46 100.69 101.6 99.99C101.74 99.2433 101.903 98.38 102.09 97.4C102.277 96.42 102.463 95.3467 102.65 94.18C102.883 93.0133 103.117 91.8233 103.35 90.61C103.817 87.9033 104.377 84.94 105.03 81.72C106.523 81.4867 108.04 81.2767 109.58 81.09C110.84 80.9033 112.147 80.74 113.5 80.6C114.853 80.46 116.02 80.3433 117 80.25C116.953 80.7167 116.813 81.51 116.58 82.63C116.393 83.75 116.16 85.01 115.88 86.41C115.647 87.81 115.39 89.3033 115.11 90.89C114.877 92.4767 114.62 93.97 114.34 95.37C114.06 96.77 113.827 98.03 113.64 99.15C113.453 100.27 113.313 101.063 113.22 101.53H117.21L114.34 112.73H110.77L110.14 121.9L97.26 124.14Z" fill="white" fill-opacity="0.02"/>
<path d="M-2.74 124.14L-1.34 112.94L-13.38 113.85L-16.46 107.55C-14.92 102.93 -13.45 98.52 -12.05 94.32C-11.4433 92.5467 -10.8367 90.7267 -10.23 88.86C-9.62333 86.9467 -9.04 85.1033 -8.48 83.33C-7.87333 81.5567 -7.31333 79.8767 -6.8 78.29C-6.28667 76.7033 -5.82 75.3267 -5.4 74.16C-3.44 74.16 -1.59667 74.1133 0.13 74.02C1.90333 73.88 3.79333 73.67 5.8 73.39C4.07333 77.73 2.46333 82.0933 0.970002 86.48C-0.476666 90.8667 -1.9 95.3233 -3.3 99.85C-3.34667 100.177 -3.39333 100.457 -3.44 100.69C-3.48667 100.923 -3.55667 101.203 -3.65 101.53H1.32C1.36667 101.203 1.46 100.69 1.6 99.99C1.74 99.2433 1.90333 98.38 2.09 97.4C2.27667 96.42 2.46333 95.3467 2.65 94.18C2.88333 93.0133 3.11667 91.8233 3.35 90.61C3.81667 87.9033 4.37667 84.94 5.03 81.72C6.52334 81.4867 8.04 81.2767 9.58 81.09C10.84 80.9033 12.1467 80.74 13.5 80.6C14.8533 80.46 16.02 80.3433 17 80.25C16.9533 80.7167 16.8133 81.51 16.58 82.63C16.3933 83.75 16.16 85.01 15.88 86.41C15.6467 87.81 15.39 89.3033 15.11 90.89C14.8767 92.4767 14.62 93.97 14.34 95.37C14.06 96.77 13.8267 98.03 13.64 99.15C13.4533 100.27 13.3133 101.063 13.22 101.53H17.21L14.34 112.73H10.77L10.14 121.9L-2.74 124.14Z" fill="white" fill-opacity="0.02"/>
<path d="M47.26 74.14L48.66 62.94L36.62 63.85L33.54 57.55C35.08 52.93 36.55 48.52 37.95 44.32C38.5567 42.5467 39.1633 40.7267 39.77 38.86C40.3767 36.9467 40.96 35.1033 41.52 33.33C42.1267 31.5567 42.6867 29.8767 43.2 28.29C43.7133 26.7033 44.18 25.3267 44.6 24.16C46.56 24.16 48.4033 24.1133 50.13 24.02C51.9033 23.88 53.7933 23.67 55.8 23.39C54.0733 27.73 52.4633 32.0933 50.97 36.48C49.5233 40.8667 48.1 45.3233 46.7 49.85C46.6533 50.1767 46.6067 50.4567 46.56 50.69C46.5133 50.9233 46.4433 51.2033 46.35 51.53H51.32C51.3667 51.2033 51.46 50.69 51.6 49.99C51.74 49.2433 51.9033 48.38 52.09 47.4C52.2767 46.42 52.4633 45.3467 52.65 44.18C52.8833 43.0133 53.1167 41.8233 53.35 40.61C53.8167 37.9033 54.3767 34.94 55.03 31.72C56.5233 31.4867 58.04 31.2767 59.58 31.09C60.84 30.9033 62.1467 30.74 63.5 30.6C64.8533 30.46 66.02 30.3433 67 30.25C66.9533 30.7167 66.8133 31.51 66.58 32.63C66.3933 33.75 66.16 35.01 65.88 36.41C65.6467 37.81 65.39 39.3033 65.11 40.89C64.8767 42.4767 64.62 43.97 64.34 45.37C64.06 46.77 63.8267 48.03 63.64 49.15C63.4533 50.27 63.3133 51.0633 63.22 51.53H67.21L64.34 62.73H60.77L60.14 71.9L47.26 74.14Z" fill="white" fill-opacity="0.02"/>
</g>
<defs>
<clipPath id="clip0_28_20">
<rect width="100" height="100" fill="white"/>
</clipPath>
</defs>
</svg>
