<svg width="99" height="108" viewBox="0 0 99 108" fill="none" xmlns="http://www.w3.org/2000/svg">
<g clip-path="url(#clip0_28_20)">
<path d="M-1.29 33.19L0.610001 17.99L-15.73 19.225L-19.91 10.675C-17.82 4.405 -15.825 -1.58 -13.925 -7.28C-13.1017 -9.68667 -12.2783 -12.1567 -11.455 -14.69C-10.6317 -17.2867 -9.84 -19.7883 -9.08 -22.195C-8.25667 -24.6017 -7.49667 -26.8817 -6.8 -29.035C-6.10333 -31.1883 -5.47 -33.0567 -4.9 -34.64C-2.24 -34.64 0.261668 -34.7033 2.605 -34.83C5.01167 -35.02 7.57667 -35.305 10.3 -35.685C7.95667 -29.795 5.77167 -23.8733 3.745 -17.92C1.78167 -11.9667 -0.149999 -5.91834 -2.05 0.224997C-2.11333 0.668331 -2.17667 1.04833 -2.24 1.365C-2.30333 1.68167 -2.39833 2.06167 -2.525 2.505H4.22C4.28333 2.06167 4.41 1.365 4.6 0.414998C4.79 -0.598336 5.01167 -1.77 5.265 -3.1C5.51833 -4.43 5.77167 -5.88667 6.025 -7.47C6.34167 -9.05334 6.65833 -10.6683 6.975 -12.315C7.60834 -15.9883 8.36834 -20.01 9.255 -24.38C11.2817 -24.6967 13.34 -24.9817 15.43 -25.235C17.14 -25.4883 18.9133 -25.71 20.75 -25.9C22.5867 -26.09 24.17 -26.2483 25.5 -26.375C25.4367 -25.7417 25.2467 -24.665 24.93 -23.145C24.6767 -21.625 24.36 -19.915 23.98 -18.015C23.6633 -16.115 23.315 -14.0883 22.935 -11.935C22.6183 -9.78167 22.27 -7.755 21.89 -5.855C21.51 -3.955 21.1933 -2.245 20.94 -0.725002C20.6867 0.794997 20.4967 1.87166 20.37 2.505H25.785L21.89 17.705H17.045L16.19 30.15L-1.29 33.19Z" fill="white" fill-opacity="0.02"/>
<path d="M97.71 33.19L99.61 17.99L83.27 19.225L79.09 10.675C81.18 4.405 83.175 -1.58 85.075 -7.28C85.8983 -9.68667 86.7217 -12.1567 87.545 -14.69C88.3683 -17.2867 89.16 -19.7883 89.92 -22.195C90.7433 -24.6017 91.5033 -26.8817 92.2 -29.035C92.8967 -31.1883 93.53 -33.0567 94.1 -34.64C96.76 -34.64 99.2617 -34.7033 101.605 -34.83C104.012 -35.02 106.577 -35.305 109.3 -35.685C106.957 -29.795 104.772 -23.8733 102.745 -17.92C100.782 -11.9667 98.85 -5.91834 96.95 0.224997C96.8867 0.668331 96.8233 1.04833 96.76 1.365C96.6967 1.68167 96.6017 2.06167 96.475 2.505H103.22C103.283 2.06167 103.41 1.365 103.6 0.414998C103.79 -0.598336 104.012 -1.77 104.265 -3.1C104.518 -4.43 104.772 -5.88667 105.025 -7.47C105.342 -9.05334 105.658 -10.6683 105.975 -12.315C106.608 -15.9883 107.368 -20.01 108.255 -24.38C110.282 -24.6967 112.34 -24.9817 114.43 -25.235C116.14 -25.4883 117.913 -25.71 119.75 -25.9C121.587 -26.09 123.17 -26.2483 124.5 -26.375C124.437 -25.7417 124.247 -24.665 123.93 -23.145C123.677 -21.625 123.36 -19.915 122.98 -18.015C122.663 -16.115 122.315 -14.0883 121.935 -11.935C121.618 -9.78167 121.27 -7.755 120.89 -5.855C120.51 -3.955 120.193 -2.245 119.94 -0.725002C119.687 0.794997 119.497 1.87166 119.37 2.505H124.785L120.89 17.705H116.045L115.19 30.15L97.71 33.19Z" fill="white" fill-opacity="0.02"/>
<path d="M97.71 141.19L99.61 125.99L83.27 127.225L79.09 118.675C81.18 112.405 83.175 106.42 85.075 100.72C85.8983 98.3133 86.7217 95.8433 87.545 93.31C88.3683 90.7133 89.16 88.2117 89.92 85.805C90.7433 83.3983 91.5033 81.1183 92.2 78.965C92.8967 76.8117 93.53 74.9433 94.1 73.36C96.76 73.36 99.2617 73.2967 101.605 73.17C104.012 72.98 106.577 72.695 109.3 72.315C106.957 78.205 104.772 84.1267 102.745 90.08C100.782 96.0333 98.85 102.082 96.95 108.225C96.8867 108.668 96.8233 109.048 96.76 109.365C96.6967 109.682 96.6017 110.062 96.475 110.505H103.22C103.283 110.062 103.41 109.365 103.6 108.415C103.79 107.402 104.012 106.23 104.265 104.9C104.518 103.57 104.772 102.113 105.025 100.53C105.342 98.9467 105.658 97.3317 105.975 95.685C106.608 92.0117 107.368 87.99 108.255 83.62C110.282 83.3033 112.34 83.0183 114.43 82.765C116.14 82.5117 117.913 82.29 119.75 82.1C121.587 81.91 123.17 81.7517 124.5 81.625C124.437 82.2583 124.247 83.335 123.93 84.855C123.677 86.375 123.36 88.085 122.98 89.985C122.663 91.885 122.315 93.9117 121.935 96.065C121.618 98.2183 121.27 100.245 120.89 102.145C120.51 104.045 120.193 105.755 119.94 107.275C119.687 108.795 119.497 109.872 119.37 110.505H124.785L120.89 125.705H116.045L115.19 138.15L97.71 141.19Z" fill="white" fill-opacity="0.02"/>
<path d="M-1.29 141.19L0.610001 125.99L-15.73 127.225L-19.91 118.675C-17.82 112.405 -15.825 106.42 -13.925 100.72C-13.1017 98.3133 -12.2783 95.8433 -11.455 93.31C-10.6317 90.7133 -9.84 88.2117 -9.08 85.805C-8.25667 83.3983 -7.49667 81.1183 -6.8 78.965C-6.10333 76.8117 -5.47 74.9433 -4.9 73.36C-2.24 73.36 0.261668 73.2967 2.605 73.17C5.01167 72.98 7.57667 72.695 10.3 72.315C7.95667 78.205 5.77167 84.1267 3.745 90.08C1.78167 96.0333 -0.149999 102.082 -2.05 108.225C-2.11333 108.668 -2.17667 109.048 -2.24 109.365C-2.30333 109.682 -2.39833 110.062 -2.525 110.505H4.22C4.28333 110.062 4.41 109.365 4.6 108.415C4.79 107.402 5.01167 106.23 5.265 104.9C5.51833 103.57 5.77167 102.113 6.025 100.53C6.34167 98.9467 6.65833 97.3317 6.975 95.685C7.60834 92.0117 8.36834 87.99 9.255 83.62C11.2817 83.3033 13.34 83.0183 15.43 82.765C17.14 82.5117 18.9133 82.29 20.75 82.1C22.5867 81.91 24.17 81.7517 25.5 81.625C25.4367 82.2583 25.2467 83.335 24.93 84.855C24.6767 86.375 24.36 88.085 23.98 89.985C23.6633 91.885 23.315 93.9117 22.935 96.065C22.6183 98.2183 22.27 100.245 21.89 102.145C21.51 104.045 21.1933 105.755 20.94 107.275C20.6867 108.795 20.4967 109.872 20.37 110.505H25.785L21.89 125.705H17.045L16.19 138.15L-1.29 141.19Z" fill="white" fill-opacity="0.02"/>
<path d="M48.71 87.19L50.61 71.99L34.27 73.225L30.09 64.675C32.18 58.405 34.175 52.42 36.075 46.72C36.8983 44.3133 37.7217 41.8433 38.545 39.31C39.3683 36.7133 40.16 34.2117 40.92 31.805C41.7433 29.3983 42.5033 27.1183 43.2 24.965C43.8967 22.8117 44.53 20.9433 45.1 19.36C47.76 19.36 50.2617 19.2967 52.605 19.17C55.0117 18.98 57.5767 18.695 60.3 18.315C57.9567 24.205 55.7717 30.1267 53.745 36.08C51.7817 42.0333 49.85 48.0817 47.95 54.225C47.8867 54.6683 47.8233 55.0483 47.76 55.365C47.6967 55.6817 47.6017 56.0617 47.475 56.505H54.22C54.2833 56.0617 54.41 55.365 54.6 54.415C54.79 53.4017 55.0117 52.23 55.265 50.9C55.5183 49.57 55.7717 48.1133 56.025 46.53C56.3417 44.9467 56.6583 43.3317 56.975 41.685C57.6083 38.0117 58.3683 33.99 59.255 29.62C61.2817 29.3033 63.34 29.0183 65.43 28.765C67.14 28.5117 68.9133 28.29 70.75 28.1C72.5867 27.91 74.17 27.7517 75.5 27.625C75.4367 28.2583 75.2467 29.335 74.93 30.855C74.6767 32.375 74.36 34.085 73.98 35.985C73.6633 37.885 73.315 39.9117 72.935 42.065C72.6183 44.2183 72.27 46.245 71.89 48.145C71.51 50.045 71.1933 51.755 70.94 53.275C70.6867 54.795 70.4967 55.8717 70.37 56.505H75.785L71.89 71.705H67.045L66.19 84.15L48.71 87.19Z" fill="white" fill-opacity="0.02"/>
</g>
<defs>
<clipPath id="clip0_28_20">
<rect width="99" height="108" fill="white"/>
</clipPath>
</defs>
</svg>
