<svg width="100" height="100" viewBox="0 0 100 100" fill="none" xmlns="http://www.w3.org/2000/svg">
<g clip-path="url(#clip0_28_26)">
<path d="M-15.3926 11.0898C-15.3926 10.0938 -15.1484 9.19531 -14.6602 8.39453C-14.1523 7.57422 -13.4785 6.88086 -12.6387 6.31445C-11.7793 5.72852 -10.7832 5.2793 -9.65039 4.9668C-8.49805 4.63477 -7.26758 4.46875 -5.95898 4.46875C-4.65039 4.46875 -3.41992 4.63477 -2.26758 4.9668C-1.11523 5.2793 -0.119141 5.72852 0.720703 6.31445C1.58008 6.88086 2.25391 7.57422 2.74219 8.39453C3.23047 9.19531 3.47461 10.0938 3.47461 11.0898C3.47461 11.8906 3.30859 12.6523 2.97656 13.375C2.66406 14.0781 2.22461 14.7324 1.6582 15.3379C1.0918 15.9238 0.408203 16.4414 -0.392578 16.8906C-1.19336 17.3398 -2.0625 17.6816 -3 17.916C-2.29688 18.0137 -1.59375 18.0918 -0.890625 18.1504C-0.1875 18.1895 0.457031 18.209 1.04297 18.209C2.11719 18.209 3.13281 18.0332 4.08984 17.6816C5.04688 17.3105 5.87695 16.7637 6.58008 16.041C7.2832 15.2988 7.83984 14.3711 8.25 13.2578C8.66016 12.125 8.86523 10.7871 8.86523 9.24414C8.86523 7.58398 8.62109 6.17773 8.13281 5.02539C7.64453 3.87305 6.96094 2.93555 6.08203 2.21289C5.20312 1.49023 4.14844 0.972656 2.91797 0.660156C1.70703 0.328125 0.369141 0.162109 -1.0957 0.162109C-2.67773 0.162109 -4.24023 0.328125 -5.7832 0.660156C-7.32617 0.992188 -8.75195 1.43164 -10.0605 1.97852L-11.4668 0.279297L-8.50781 -22.5137C-7.04297 -22.4551 -5.56836 -22.3574 -4.08398 -22.2207C-2.59961 -22.084 -1.0957 -21.9277 0.427734 -21.752C2.38086 -21.5371 4.32422 -21.3418 6.25781 -21.166C8.19141 -20.9902 10.1055 -20.9023 12 -20.9023C14.0117 -20.9023 15.9453 -21.0391 17.8008 -21.3125C19.6562 -21.5859 21.4141 -22.084 23.0742 -22.8066H24.832C24.8711 -22.416 24.9102 -21.9863 24.9492 -21.5176C24.9883 -21.0488 25.0176 -20.5801 25.0371 -20.1113C25.0762 -19.6426 25.0957 -19.1934 25.0957 -18.7637C25.1152 -18.334 25.125 -17.9727 25.125 -17.6797C25.125 -15.6484 24.7734 -13.9785 24.0703 -12.6699C23.3672 -11.3613 22.4102 -10.3262 21.1992 -9.56445C20.0078 -8.80273 18.6113 -8.27539 17.0098 -7.98242C15.4277 -7.68945 13.7578 -7.54297 12 -7.54297C9.96875 -7.54297 7.89844 -7.66992 5.78906 -7.92383C3.69922 -8.19727 1.70703 -8.4707 -0.1875 -8.74414C-1.65234 -8.95898 -3 -9.14453 -4.23047 -9.30078C-5.46094 -9.47656 -6.51562 -9.56445 -7.39453 -9.56445L-8.44922 -1.09766C-5.79297 -2.11328 -3.04883 -2.93359 -0.216797 -3.55859C2.61523 -4.20312 5.67188 -4.52539 8.95312 -4.52539C11.5312 -4.52539 13.9043 -4.30078 16.0723 -3.85156C18.2598 -3.40234 20.1445 -2.69922 21.7266 -1.74219C23.3281 -0.804688 24.5684 0.416016 25.4473 1.91992C26.3457 3.4043 26.7949 5.18164 26.7949 7.25195C26.7949 9.69336 26.2676 11.7344 25.2129 13.375C24.1777 15.0156 22.6836 16.334 20.7305 17.3301C18.7773 18.3262 16.3945 19.0391 13.582 19.4688C10.7891 19.8984 7.63477 20.1133 4.11914 20.1133C1.24805 20.1133 -1.38867 19.9766 -3.79102 19.7031C-6.17383 19.4297 -8.22461 18.9512 -9.94336 18.2676C-11.6621 17.584 -13 16.666 -13.957 15.5137C-14.9141 14.3418 -15.3926 12.8672 -15.3926 11.0898Z" fill="white" fill-opacity="0.1"/>
<path d="M84.6074 11.0898C84.6074 10.0938 84.8516 9.19531 85.3398 8.39453C85.8477 7.57422 86.5215 6.88086 87.3613 6.31445C88.2207 5.72852 89.2168 5.2793 90.3496 4.9668C91.502 4.63477 92.7324 4.46875 94.041 4.46875C95.3496 4.46875 96.5801 4.63477 97.7324 4.9668C98.8848 5.2793 99.8809 5.72852 100.721 6.31445C101.58 6.88086 102.254 7.57422 102.742 8.39453C103.23 9.19531 103.475 10.0938 103.475 11.0898C103.475 11.8906 103.309 12.6523 102.977 13.375C102.664 14.0781 102.225 14.7324 101.658 15.3379C101.092 15.9238 100.408 16.4414 99.6074 16.8906C98.8066 17.3398 97.9375 17.6816 97 17.916C97.7031 18.0137 98.4062 18.0918 99.1094 18.1504C99.8125 18.1895 100.457 18.209 101.043 18.209C102.117 18.209 103.133 18.0332 104.09 17.6816C105.047 17.3105 105.877 16.7637 106.58 16.041C107.283 15.2988 107.84 14.3711 108.25 13.2578C108.66 12.125 108.865 10.7871 108.865 9.24414C108.865 7.58398 108.621 6.17773 108.133 5.02539C107.645 3.87305 106.961 2.93555 106.082 2.21289C105.203 1.49023 104.148 0.972656 102.918 0.660156C101.707 0.328125 100.369 0.162109 98.9043 0.162109C97.3223 0.162109 95.7598 0.328125 94.2168 0.660156C92.6738 0.992188 91.248 1.43164 89.9395 1.97852L88.5332 0.279297L91.4922 -22.5137C92.957 -22.4551 94.4316 -22.3574 95.916 -22.2207C97.4004 -22.084 98.9043 -21.9277 100.428 -21.752C102.381 -21.5371 104.324 -21.3418 106.258 -21.166C108.191 -20.9902 110.105 -20.9023 112 -20.9023C114.012 -20.9023 115.945 -21.0391 117.801 -21.3125C119.656 -21.5859 121.414 -22.084 123.074 -22.8066H124.832C124.871 -22.416 124.91 -21.9863 124.949 -21.5176C124.988 -21.0488 125.018 -20.5801 125.037 -20.1113C125.076 -19.6426 125.096 -19.1934 125.096 -18.7637C125.115 -18.334 125.125 -17.9727 125.125 -17.6797C125.125 -15.6484 124.773 -13.9785 124.07 -12.6699C123.367 -11.3613 122.41 -10.3262 121.199 -9.56445C120.008 -8.80273 118.611 -8.27539 117.01 -7.98242C115.428 -7.68945 113.758 -7.54297 112 -7.54297C109.969 -7.54297 107.898 -7.66992 105.789 -7.92383C103.699 -8.19727 101.707 -8.4707 99.8125 -8.74414C98.3477 -8.95898 97 -9.14453 95.7695 -9.30078C94.5391 -9.47656 93.4844 -9.56445 92.6055 -9.56445L91.5508 -1.09766C94.207 -2.11328 96.9512 -2.93359 99.7832 -3.55859C102.615 -4.20312 105.672 -4.52539 108.953 -4.52539C111.531 -4.52539 113.904 -4.30078 116.072 -3.85156C118.26 -3.40234 120.145 -2.69922 121.727 -1.74219C123.328 -0.804688 124.568 0.416016 125.447 1.91992C126.346 3.4043 126.795 5.18164 126.795 7.25195C126.795 9.69336 126.268 11.7344 125.213 13.375C124.178 15.0156 122.684 16.334 120.73 17.3301C118.777 18.3262 116.395 19.0391 113.582 19.4688C110.789 19.8984 107.635 20.1133 104.119 20.1133C101.248 20.1133 98.6113 19.9766 96.209 19.7031C93.8262 19.4297 91.7754 18.9512 90.0566 18.2676C88.3379 17.584 87 16.666 86.043 15.5137C85.0859 14.3418 84.6074 12.8672 84.6074 11.0898Z" fill="white" fill-opacity="0.1"/>
<path d="M84.6074 111.09C84.6074 110.094 84.8516 109.195 85.3398 108.395C85.8477 107.574 86.5215 106.881 87.3613 106.314C88.2207 105.729 89.2168 105.279 90.3496 104.967C91.502 104.635 92.7324 104.469 94.041 104.469C95.3496 104.469 96.5801 104.635 97.7324 104.967C98.8848 105.279 99.8809 105.729 100.721 106.314C101.58 106.881 102.254 107.574 102.742 108.395C103.23 109.195 103.475 110.094 103.475 111.09C103.475 111.891 103.309 112.652 102.977 113.375C102.664 114.078 102.225 114.732 101.658 115.338C101.092 115.924 100.408 116.441 99.6074 116.891C98.8066 117.34 97.9375 117.682 97 117.916C97.7031 118.014 98.4062 118.092 99.1094 118.15C99.8125 118.189 100.457 118.209 101.043 118.209C102.117 118.209 103.133 118.033 104.09 117.682C105.047 117.311 105.877 116.764 106.58 116.041C107.283 115.299 107.84 114.371 108.25 113.258C108.66 112.125 108.865 110.787 108.865 109.244C108.865 107.584 108.621 106.178 108.133 105.025C107.645 103.873 106.961 102.936 106.082 102.213C105.203 101.49 104.148 100.973 102.918 100.66C101.707 100.328 100.369 100.162 98.9043 100.162C97.3223 100.162 95.7598 100.328 94.2168 100.66C92.6738 100.992 91.248 101.432 89.9395 101.979L88.5332 100.279L91.4922 77.4863C92.957 77.5449 94.4316 77.6426 95.916 77.7793C97.4004 77.916 98.9043 78.0723 100.428 78.248C102.381 78.4629 104.324 78.6582 106.258 78.834C108.191 79.0098 110.105 79.0977 112 79.0977C114.012 79.0977 115.945 78.9609 117.801 78.6875C119.656 78.4141 121.414 77.916 123.074 77.1934H124.832C124.871 77.584 124.91 78.0137 124.949 78.4824C124.988 78.9512 125.018 79.4199 125.037 79.8887C125.076 80.3574 125.096 80.8066 125.096 81.2363C125.115 81.666 125.125 82.0273 125.125 82.3203C125.125 84.3516 124.773 86.0215 124.07 87.3301C123.367 88.6387 122.41 89.6738 121.199 90.4355C120.008 91.1973 118.611 91.7246 117.01 92.0176C115.428 92.3105 113.758 92.457 112 92.457C109.969 92.457 107.898 92.3301 105.789 92.0762C103.699 91.8027 101.707 91.5293 99.8125 91.2559C98.3477 91.041 97 90.8555 95.7695 90.6992C94.5391 90.5234 93.4844 90.4355 92.6055 90.4355L91.5508 98.9023C94.207 97.8867 96.9512 97.0664 99.7832 96.4414C102.615 95.7969 105.672 95.4746 108.953 95.4746C111.531 95.4746 113.904 95.6992 116.072 96.1484C118.26 96.5977 120.145 97.3008 121.727 98.2578C123.328 99.1953 124.568 100.416 125.447 101.92C126.346 103.404 126.795 105.182 126.795 107.252C126.795 109.693 126.268 111.734 125.213 113.375C124.178 115.016 122.684 116.334 120.73 117.33C118.777 118.326 116.395 119.039 113.582 119.469C110.789 119.898 107.635 120.113 104.119 120.113C101.248 120.113 98.6113 119.977 96.209 119.703C93.8262 119.43 91.7754 118.951 90.0566 118.268C88.3379 117.584 87 116.666 86.043 115.514C85.0859 114.342 84.6074 112.867 84.6074 111.09Z" fill="white" fill-opacity="0.1"/>
<path d="M-15.3926 111.09C-15.3926 110.094 -15.1484 109.195 -14.6602 108.395C-14.1523 107.574 -13.4785 106.881 -12.6387 106.314C-11.7793 105.729 -10.7832 105.279 -9.65039 104.967C-8.49805 104.635 -7.26758 104.469 -5.95898 104.469C-4.65039 104.469 -3.41992 104.635 -2.26758 104.967C-1.11523 105.279 -0.119141 105.729 0.720703 106.314C1.58008 106.881 2.25391 107.574 2.74219 108.395C3.23047 109.195 3.47461 110.094 3.47461 111.09C3.47461 111.891 3.30859 112.652 2.97656 113.375C2.66406 114.078 2.22461 114.732 1.6582 115.338C1.0918 115.924 0.408203 116.441 -0.392578 116.891C-1.19336 117.34 -2.0625 117.682 -3 117.916C-2.29688 118.014 -1.59375 118.092 -0.890625 118.15C-0.1875 118.189 0.457031 118.209 1.04297 118.209C2.11719 118.209 3.13281 118.033 4.08984 117.682C5.04688 117.311 5.87695 116.764 6.58008 116.041C7.2832 115.299 7.83984 114.371 8.25 113.258C8.66016 112.125 8.86523 110.787 8.86523 109.244C8.86523 107.584 8.62109 106.178 8.13281 105.025C7.64453 103.873 6.96094 102.936 6.08203 102.213C5.20312 101.49 4.14844 100.973 2.91797 100.66C1.70703 100.328 0.369141 100.162 -1.0957 100.162C-2.67773 100.162 -4.24023 100.328 -5.7832 100.66C-7.32617 100.992 -8.75195 101.432 -10.0605 101.979L-11.4668 100.279L-8.50781 77.4863C-7.04297 77.5449 -5.56836 77.6426 -4.08398 77.7793C-2.59961 77.916 -1.0957 78.0723 0.427734 78.248C2.38086 78.4629 4.32422 78.6582 6.25781 78.834C8.19141 79.0098 10.1055 79.0977 12 79.0977C14.0117 79.0977 15.9453 78.9609 17.8008 78.6875C19.6562 78.4141 21.4141 77.916 23.0742 77.1934H24.832C24.8711 77.584 24.9102 78.0137 24.9492 78.4824C24.9883 78.9512 25.0176 79.4199 25.0371 79.8887C25.0762 80.3574 25.0957 80.8066 25.0957 81.2363C25.1152 81.666 25.125 82.0273 25.125 82.3203C25.125 84.3516 24.7734 86.0215 24.0703 87.3301C23.3672 88.6387 22.4102 89.6738 21.1992 90.4355C20.0078 91.1973 18.6113 91.7246 17.0098 92.0176C15.4277 92.3105 13.7578 92.457 12 92.457C9.96875 92.457 7.89844 92.3301 5.78906 92.0762C3.69922 91.8027 1.70703 91.5293 -0.1875 91.2559C-1.65234 91.041 -3 90.8555 -4.23047 90.6992C-5.46094 90.5234 -6.51562 90.4355 -7.39453 90.4355L-8.44922 98.9023C-5.79297 97.8867 -3.04883 97.0664 -0.216797 96.4414C2.61523 95.7969 5.67188 95.4746 8.95312 95.4746C11.5312 95.4746 13.9043 95.6992 16.0723 96.1484C18.2598 96.5977 20.1445 97.3008 21.7266 98.2578C23.3281 99.1953 24.5684 100.416 25.4473 101.92C26.3457 103.404 26.7949 105.182 26.7949 107.252C26.7949 109.693 26.2676 111.734 25.2129 113.375C24.1777 115.016 22.6836 116.334 20.7305 117.33C18.7773 118.326 16.3945 119.039 13.582 119.469C10.7891 119.898 7.63477 120.113 4.11914 120.113C1.24805 120.113 -1.38867 119.977 -3.79102 119.703C-6.17383 119.43 -8.22461 118.951 -9.94336 118.268C-11.6621 117.584 -13 116.666 -13.957 115.514C-14.9141 114.342 -15.3926 112.867 -15.3926 111.09Z" fill="white" fill-opacity="0.1"/>
<path d="M34.6074 61.0898C34.6074 60.0938 34.8516 59.1953 35.3398 58.3945C35.8477 57.5742 36.5215 56.8809 37.3613 56.3145C38.2207 55.7285 39.2168 55.2793 40.3496 54.9668C41.502 54.6348 42.7324 54.4688 44.041 54.4688C45.3496 54.4688 46.5801 54.6348 47.7324 54.9668C48.8848 55.2793 49.8809 55.7285 50.7207 56.3145C51.5801 56.8809 52.2539 57.5742 52.7422 58.3945C53.2305 59.1953 53.4746 60.0938 53.4746 61.0898C53.4746 61.8906 53.3086 62.6523 52.9766 63.375C52.6641 64.0781 52.2246 64.7324 51.6582 65.3379C51.0918 65.9238 50.4082 66.4414 49.6074 66.8906C48.8066 67.3398 47.9375 67.6816 47 67.916C47.7031 68.0137 48.4062 68.0918 49.1094 68.1504C49.8125 68.1895 50.457 68.209 51.043 68.209C52.1172 68.209 53.1328 68.0332 54.0898 67.6816C55.0469 67.3105 55.877 66.7637 56.5801 66.041C57.2832 65.2988 57.8398 64.3711 58.25 63.2578C58.6602 62.125 58.8652 60.7871 58.8652 59.2441C58.8652 57.584 58.6211 56.1777 58.1328 55.0254C57.6445 53.873 56.9609 52.9355 56.082 52.2129C55.2031 51.4902 54.1484 50.9727 52.918 50.6602C51.707 50.3281 50.3691 50.1621 48.9043 50.1621C47.3223 50.1621 45.7598 50.3281 44.2168 50.6602C42.6738 50.9922 41.248 51.4316 39.9395 51.9785L38.5332 50.2793L41.4922 27.4863C42.957 27.5449 44.4316 27.6426 45.916 27.7793C47.4004 27.916 48.9043 28.0723 50.4277 28.248C52.3809 28.4629 54.3242 28.6582 56.2578 28.834C58.1914 29.0098 60.1055 29.0977 62 29.0977C64.0117 29.0977 65.9453 28.9609 67.8008 28.6875C69.6562 28.4141 71.4141 27.916 73.0742 27.1934H74.832C74.8711 27.584 74.9102 28.0137 74.9492 28.4824C74.9883 28.9512 75.0176 29.4199 75.0371 29.8887C75.0762 30.3574 75.0957 30.8066 75.0957 31.2363C75.1152 31.666 75.125 32.0273 75.125 32.3203C75.125 34.3516 74.7734 36.0215 74.0703 37.3301C73.3672 38.6387 72.4102 39.6738 71.1992 40.4355C70.0078 41.1973 68.6113 41.7246 67.0098 42.0176C65.4277 42.3105 63.7578 42.457 62 42.457C59.9688 42.457 57.8984 42.3301 55.7891 42.0762C53.6992 41.8027 51.707 41.5293 49.8125 41.2559C48.3477 41.041 47 40.8555 45.7695 40.6992C44.5391 40.5234 43.4844 40.4355 42.6055 40.4355L41.5508 48.9023C44.207 47.8867 46.9512 47.0664 49.7832 46.4414C52.6152 45.7969 55.6719 45.4746 58.9531 45.4746C61.5312 45.4746 63.9043 45.6992 66.0723 46.1484C68.2598 46.5977 70.1445 47.3008 71.7266 48.2578C73.3281 49.1953 74.5684 50.416 75.4473 51.9199C76.3457 53.4043 76.7949 55.1816 76.7949 57.252C76.7949 59.6934 76.2676 61.7344 75.2129 63.375C74.1777 65.0156 72.6836 66.334 70.7305 67.3301C68.7773 68.3262 66.3945 69.0391 63.582 69.4688C60.7891 69.8984 57.6348 70.1133 54.1191 70.1133C51.248 70.1133 48.6113 69.9766 46.209 69.7031C43.8262 69.4297 41.7754 68.9512 40.0566 68.2676C38.3379 67.584 37 66.666 36.043 65.5137C35.0859 64.3418 34.6074 62.8672 34.6074 61.0898Z" fill="white" fill-opacity="0.1"/>
</g>
<defs>
<clipPath id="clip0_28_26">
<rect width="100" height="100" fill="white"/>
</clipPath>
</defs>
</svg>
