<svg width="100" height="100" viewBox="0 0 100 100" fill="none" xmlns="http://www.w3.org/2000/svg">
<g clip-path="url(#clip0_28_26)">
<path d="M-14.958 18.7715C-14.958 17.6094 -14.6732 16.5612 -14.1035 15.627C-13.5111 14.6699 -12.7249 13.861 -11.7451 13.2002C-10.7425 12.5166 -9.5804 11.9925 -8.25879 11.6279C-6.91439 11.2406 -5.47884 11.0469 -3.95215 11.0469C-2.42546 11.0469 -0.989909 11.2406 0.354492 11.6279C1.69889 11.9925 2.861 12.5166 3.84082 13.2002C4.84342 13.861 5.62956 14.6699 6.19922 15.627C6.76888 16.5612 7.05371 17.6094 7.05371 18.7715C7.05371 19.7057 6.86003 20.5944 6.47266 21.4375C6.10807 22.2578 5.59538 23.0212 4.93457 23.7275C4.27376 24.4111 3.47624 25.015 2.54199 25.5391C1.60775 26.0632 0.59375 26.4619 -0.5 26.7354C0.320312 26.8493 1.14062 26.9404 1.96094 27.0088C2.78125 27.0544 3.5332 27.0771 4.2168 27.0771C5.47005 27.0771 6.65495 26.8721 7.77148 26.4619C8.88802 26.029 9.85645 25.391 10.6768 24.5479C11.4971 23.682 12.1465 22.5996 12.625 21.3008C13.1035 19.9792 13.3428 18.4183 13.3428 16.6182C13.3428 14.6813 13.0579 13.0407 12.4883 11.6963C11.9186 10.3519 11.1211 9.25814 10.0957 8.41504C9.07031 7.57194 7.83984 6.9681 6.4043 6.60352C4.99154 6.21615 3.43066 6.02246 1.72168 6.02246C-0.124023 6.02246 -1.94694 6.21615 -3.74707 6.60352C-5.5472 6.99089 -7.21061 7.50358 -8.7373 8.1416L-10.3779 6.15918L-6.92578 -20.4326C-5.2168 -20.3643 -3.49642 -20.2503 -1.76465 -20.0908C-0.0328776 -19.9313 1.72168 -19.749 3.49902 -19.5439C5.77767 -19.2933 8.04492 -19.0654 10.3008 -18.8604C12.5566 -18.6553 14.7897 -18.5527 17 -18.5527C19.347 -18.5527 21.6029 -18.7122 23.7676 -19.0312C25.9323 -19.3503 27.9831 -19.9313 29.9199 -20.7744H31.9707C32.0163 -20.3187 32.0618 -19.8174 32.1074 -19.2705C32.153 -18.7236 32.1872 -18.1768 32.21 -17.6299C32.2555 -17.083 32.2783 -16.5589 32.2783 -16.0576C32.3011 -15.5563 32.3125 -15.1348 32.3125 -14.793C32.3125 -12.4232 31.9023 -10.4749 31.082 -8.94824C30.2617 -7.42155 29.1452 -6.21387 27.7324 -5.3252C26.3424 -4.43652 24.7132 -3.82129 22.8447 -3.47949C20.999 -3.1377 19.0508 -2.9668 17 -2.9668C14.6302 -2.9668 12.2148 -3.11491 9.75391 -3.41113C7.31576 -3.73014 4.99154 -4.04915 2.78125 -4.36816C1.07227 -4.61882 -0.5 -4.83529 -1.93555 -5.01758C-3.37109 -5.22266 -4.60156 -5.3252 -5.62695 -5.3252L-6.85742 4.55273C-3.75846 3.36784 -0.556966 2.41081 2.74707 1.68164C6.05111 0.929688 9.61719 0.553711 13.4453 0.553711C16.4531 0.553711 19.2217 0.815755 21.751 1.33984C24.3031 1.86393 26.502 2.68424 28.3477 3.80078C30.2161 4.89453 31.6631 6.31868 32.6885 8.07324C33.7367 9.80501 34.2607 11.8786 34.2607 14.2939C34.2607 17.1423 33.6455 19.5234 32.415 21.4375C31.2074 23.3516 29.4642 24.8896 27.1855 26.0518C24.9069 27.2139 22.127 28.0456 18.8457 28.5469C15.5872 29.0482 11.9072 29.2988 7.80566 29.2988C4.45605 29.2988 1.37988 29.1393 -1.42285 28.8203C-4.2028 28.5013 -6.59538 27.943 -8.60059 27.1455C-10.6058 26.348 -12.1667 25.277 -13.2832 23.9326C-14.3997 22.5654 -14.958 20.8451 -14.958 18.7715Z" fill="white" fill-opacity="0.02"/>
<path d="M85.042 18.7715C85.042 17.6094 85.3268 16.5612 85.8965 15.627C86.4889 14.6699 87.2751 13.861 88.2549 13.2002C89.2575 12.5166 90.4196 11.9925 91.7412 11.6279C93.0856 11.2406 94.5212 11.0469 96.0479 11.0469C97.5745 11.0469 99.0101 11.2406 100.354 11.6279C101.699 11.9925 102.861 12.5166 103.841 13.2002C104.843 13.861 105.63 14.6699 106.199 15.627C106.769 16.5612 107.054 17.6094 107.054 18.7715C107.054 19.7057 106.86 20.5944 106.473 21.4375C106.108 22.2578 105.595 23.0212 104.935 23.7275C104.274 24.4111 103.476 25.015 102.542 25.5391C101.608 26.0632 100.594 26.4619 99.5 26.7354C100.32 26.8493 101.141 26.9404 101.961 27.0088C102.781 27.0544 103.533 27.0771 104.217 27.0771C105.47 27.0771 106.655 26.8721 107.771 26.4619C108.888 26.029 109.856 25.391 110.677 24.5479C111.497 23.682 112.146 22.5996 112.625 21.3008C113.104 19.9792 113.343 18.4183 113.343 16.6182C113.343 14.6813 113.058 13.0407 112.488 11.6963C111.919 10.3519 111.121 9.25814 110.096 8.41504C109.07 7.57194 107.84 6.9681 106.404 6.60352C104.992 6.21615 103.431 6.02246 101.722 6.02246C99.876 6.02246 98.0531 6.21615 96.2529 6.60352C94.4528 6.99089 92.7894 7.50358 91.2627 8.1416L89.6221 6.15918L93.0742 -20.4326C94.7832 -20.3643 96.5036 -20.2503 98.2354 -20.0908C99.9671 -19.9313 101.722 -19.749 103.499 -19.5439C105.778 -19.2933 108.045 -19.0654 110.301 -18.8604C112.557 -18.6553 114.79 -18.5527 117 -18.5527C119.347 -18.5527 121.603 -18.7122 123.768 -19.0312C125.932 -19.3503 127.983 -19.9313 129.92 -20.7744H131.971C132.016 -20.3187 132.062 -19.8174 132.107 -19.2705C132.153 -18.7236 132.187 -18.1768 132.21 -17.6299C132.256 -17.083 132.278 -16.5589 132.278 -16.0576C132.301 -15.5563 132.312 -15.1348 132.312 -14.793C132.312 -12.4232 131.902 -10.4749 131.082 -8.94824C130.262 -7.42155 129.145 -6.21387 127.732 -5.3252C126.342 -4.43652 124.713 -3.82129 122.845 -3.47949C120.999 -3.1377 119.051 -2.9668 117 -2.9668C114.63 -2.9668 112.215 -3.11491 109.754 -3.41113C107.316 -3.73014 104.992 -4.04915 102.781 -4.36816C101.072 -4.61882 99.5 -4.83529 98.0645 -5.01758C96.6289 -5.22266 95.3984 -5.3252 94.373 -5.3252L93.1426 4.55273C96.2415 3.36784 99.443 2.41081 102.747 1.68164C106.051 0.929688 109.617 0.553711 113.445 0.553711C116.453 0.553711 119.222 0.815755 121.751 1.33984C124.303 1.86393 126.502 2.68424 128.348 3.80078C130.216 4.89453 131.663 6.31868 132.688 8.07324C133.737 9.80501 134.261 11.8786 134.261 14.2939C134.261 17.1423 133.646 19.5234 132.415 21.4375C131.207 23.3516 129.464 24.8896 127.186 26.0518C124.907 27.2139 122.127 28.0456 118.846 28.5469C115.587 29.0482 111.907 29.2988 107.806 29.2988C104.456 29.2988 101.38 29.1393 98.5771 28.8203C95.7972 28.5013 93.4046 27.943 91.3994 27.1455C89.3942 26.348 87.8333 25.277 86.7168 23.9326C85.6003 22.5654 85.042 20.8451 85.042 18.7715Z" fill="white" fill-opacity="0.02"/>
<path d="M85.042 118.771C85.042 117.609 85.3268 116.561 85.8965 115.627C86.4889 114.67 87.2751 113.861 88.2549 113.2C89.2575 112.517 90.4196 111.993 91.7412 111.628C93.0856 111.241 94.5212 111.047 96.0479 111.047C97.5745 111.047 99.0101 111.241 100.354 111.628C101.699 111.993 102.861 112.517 103.841 113.2C104.843 113.861 105.63 114.67 106.199 115.627C106.769 116.561 107.054 117.609 107.054 118.771C107.054 119.706 106.86 120.594 106.473 121.438C106.108 122.258 105.595 123.021 104.935 123.728C104.274 124.411 103.476 125.015 102.542 125.539C101.608 126.063 100.594 126.462 99.5 126.735C100.32 126.849 101.141 126.94 101.961 127.009C102.781 127.054 103.533 127.077 104.217 127.077C105.47 127.077 106.655 126.872 107.771 126.462C108.888 126.029 109.856 125.391 110.677 124.548C111.497 123.682 112.146 122.6 112.625 121.301C113.104 119.979 113.343 118.418 113.343 116.618C113.343 114.681 113.058 113.041 112.488 111.696C111.919 110.352 111.121 109.258 110.096 108.415C109.07 107.572 107.84 106.968 106.404 106.604C104.992 106.216 103.431 106.022 101.722 106.022C99.876 106.022 98.0531 106.216 96.2529 106.604C94.4528 106.991 92.7894 107.504 91.2627 108.142L89.6221 106.159L93.0742 79.5674C94.7832 79.6357 96.5036 79.7497 98.2354 79.9092C99.9671 80.0687 101.722 80.251 103.499 80.4561C105.778 80.7067 108.045 80.9346 110.301 81.1396C112.557 81.3447 114.79 81.4473 117 81.4473C119.347 81.4473 121.603 81.2878 123.768 80.9688C125.932 80.6497 127.983 80.0687 129.92 79.2256H131.971C132.016 79.6813 132.062 80.1826 132.107 80.7295C132.153 81.2764 132.187 81.8232 132.21 82.3701C132.256 82.917 132.278 83.4411 132.278 83.9424C132.301 84.4437 132.312 84.8652 132.312 85.207C132.312 87.5768 131.902 89.5251 131.082 91.0518C130.262 92.5785 129.145 93.7861 127.732 94.6748C126.342 95.5635 124.713 96.1787 122.845 96.5205C120.999 96.8623 119.051 97.0332 117 97.0332C114.63 97.0332 112.215 96.8851 109.754 96.5889C107.316 96.2699 104.992 95.9508 102.781 95.6318C101.072 95.3812 99.5 95.1647 98.0645 94.9824C96.6289 94.7773 95.3984 94.6748 94.373 94.6748L93.1426 104.553C96.2415 103.368 99.443 102.411 102.747 101.682C106.051 100.93 109.617 100.554 113.445 100.554C116.453 100.554 119.222 100.816 121.751 101.34C124.303 101.864 126.502 102.684 128.348 103.801C130.216 104.895 131.663 106.319 132.688 108.073C133.737 109.805 134.261 111.879 134.261 114.294C134.261 117.142 133.646 119.523 132.415 121.438C131.207 123.352 129.464 124.89 127.186 126.052C124.907 127.214 122.127 128.046 118.846 128.547C115.587 129.048 111.907 129.299 107.806 129.299C104.456 129.299 101.38 129.139 98.5771 128.82C95.7972 128.501 93.4046 127.943 91.3994 127.146C89.3942 126.348 87.8333 125.277 86.7168 123.933C85.6003 122.565 85.042 120.845 85.042 118.771Z" fill="white" fill-opacity="0.02"/>
<path d="M-14.958 118.771C-14.958 117.609 -14.6732 116.561 -14.1035 115.627C-13.5111 114.67 -12.7249 113.861 -11.7451 113.2C-10.7425 112.517 -9.5804 111.993 -8.25879 111.628C-6.91439 111.241 -5.47884 111.047 -3.95215 111.047C-2.42546 111.047 -0.989909 111.241 0.354492 111.628C1.69889 111.993 2.861 112.517 3.84082 113.2C4.84342 113.861 5.62956 114.67 6.19922 115.627C6.76888 116.561 7.05371 117.609 7.05371 118.771C7.05371 119.706 6.86003 120.594 6.47266 121.438C6.10807 122.258 5.59538 123.021 4.93457 123.728C4.27376 124.411 3.47624 125.015 2.54199 125.539C1.60775 126.063 0.59375 126.462 -0.5 126.735C0.320312 126.849 1.14062 126.94 1.96094 127.009C2.78125 127.054 3.5332 127.077 4.2168 127.077C5.47005 127.077 6.65495 126.872 7.77148 126.462C8.88802 126.029 9.85645 125.391 10.6768 124.548C11.4971 123.682 12.1465 122.6 12.625 121.301C13.1035 119.979 13.3428 118.418 13.3428 116.618C13.3428 114.681 13.0579 113.041 12.4883 111.696C11.9186 110.352 11.1211 109.258 10.0957 108.415C9.07031 107.572 7.83984 106.968 6.4043 106.604C4.99154 106.216 3.43066 106.022 1.72168 106.022C-0.124023 106.022 -1.94694 106.216 -3.74707 106.604C-5.5472 106.991 -7.21061 107.504 -8.7373 108.142L-10.3779 106.159L-6.92578 79.5674C-5.2168 79.6357 -3.49642 79.7497 -1.76465 79.9092C-0.0328776 80.0687 1.72168 80.251 3.49902 80.4561C5.77767 80.7067 8.04492 80.9346 10.3008 81.1396C12.5566 81.3447 14.7897 81.4473 17 81.4473C19.347 81.4473 21.6029 81.2878 23.7676 80.9688C25.9323 80.6497 27.9831 80.0687 29.9199 79.2256H31.9707C32.0163 79.6813 32.0618 80.1826 32.1074 80.7295C32.153 81.2764 32.1872 81.8232 32.21 82.3701C32.2555 82.917 32.2783 83.4411 32.2783 83.9424C32.3011 84.4437 32.3125 84.8652 32.3125 85.207C32.3125 87.5768 31.9023 89.5251 31.082 91.0518C30.2617 92.5785 29.1452 93.7861 27.7324 94.6748C26.3424 95.5635 24.7132 96.1787 22.8447 96.5205C20.999 96.8623 19.0508 97.0332 17 97.0332C14.6302 97.0332 12.2148 96.8851 9.75391 96.5889C7.31576 96.2699 4.99154 95.9508 2.78125 95.6318C1.07227 95.3812 -0.5 95.1647 -1.93555 94.9824C-3.37109 94.7773 -4.60156 94.6748 -5.62695 94.6748L-6.85742 104.553C-3.75846 103.368 -0.556966 102.411 2.74707 101.682C6.05111 100.93 9.61719 100.554 13.4453 100.554C16.4531 100.554 19.2217 100.816 21.751 101.34C24.3031 101.864 26.502 102.684 28.3477 103.801C30.2161 104.895 31.6631 106.319 32.6885 108.073C33.7367 109.805 34.2607 111.879 34.2607 114.294C34.2607 117.142 33.6455 119.523 32.415 121.438C31.2074 123.352 29.4642 124.89 27.1855 126.052C24.9069 127.214 22.127 128.046 18.8457 128.547C15.5872 129.048 11.9072 129.299 7.80566 129.299C4.45605 129.299 1.37988 129.139 -1.42285 128.82C-4.2028 128.501 -6.59538 127.943 -8.60059 127.146C-10.6058 126.348 -12.1667 125.277 -13.2832 123.933C-14.3997 122.565 -14.958 120.845 -14.958 118.771Z" fill="white" fill-opacity="0.02"/>
<path d="M35.042 68.7715C35.042 67.6094 35.3268 66.5612 35.8965 65.627C36.4889 64.6699 37.2751 63.861 38.2549 63.2002C39.2575 62.5166 40.4196 61.9925 41.7412 61.6279C43.0856 61.2406 44.5212 61.0469 46.0479 61.0469C47.5745 61.0469 49.0101 61.2406 50.3545 61.6279C51.6989 61.9925 52.861 62.5166 53.8408 63.2002C54.8434 63.861 55.6296 64.6699 56.1992 65.627C56.7689 66.5612 57.0537 67.6094 57.0537 68.7715C57.0537 69.7057 56.86 70.5944 56.4727 71.4375C56.1081 72.2578 55.5954 73.0212 54.9346 73.7275C54.2738 74.4111 53.4762 75.015 52.542 75.5391C51.6077 76.0632 50.5938 76.4619 49.5 76.7354C50.3203 76.8493 51.1406 76.9404 51.9609 77.0088C52.7812 77.0544 53.5332 77.0771 54.2168 77.0771C55.4701 77.0771 56.6549 76.8721 57.7715 76.4619C58.888 76.029 59.8564 75.391 60.6768 74.5479C61.4971 73.682 62.1465 72.5996 62.625 71.3008C63.1035 69.9792 63.3428 68.4183 63.3428 66.6182C63.3428 64.6813 63.0579 63.0407 62.4883 61.6963C61.9186 60.3519 61.1211 59.2581 60.0957 58.415C59.0703 57.5719 57.8398 56.9681 56.4043 56.6035C54.9915 56.2161 53.4307 56.0225 51.7217 56.0225C49.876 56.0225 48.0531 56.2161 46.2529 56.6035C44.4528 56.9909 42.7894 57.5036 41.2627 58.1416L39.6221 56.1592L43.0742 29.5674C44.7832 29.6357 46.5036 29.7497 48.2354 29.9092C49.9671 30.0687 51.7217 30.251 53.499 30.4561C55.7777 30.7067 58.0449 30.9346 60.3008 31.1396C62.5566 31.3447 64.7897 31.4473 67 31.4473C69.347 31.4473 71.6029 31.2878 73.7676 30.9688C75.9323 30.6497 77.9831 30.0687 79.9199 29.2256H81.9707C82.0163 29.6813 82.0618 30.1826 82.1074 30.7295C82.153 31.2764 82.1872 31.8232 82.21 32.3701C82.2555 32.917 82.2783 33.4411 82.2783 33.9424C82.3011 34.4437 82.3125 34.8652 82.3125 35.207C82.3125 37.5768 81.9023 39.5251 81.082 41.0518C80.2617 42.5785 79.1452 43.7861 77.7324 44.6748C76.3424 45.5635 74.7132 46.1787 72.8447 46.5205C70.999 46.8623 69.0508 47.0332 67 47.0332C64.6302 47.0332 62.2148 46.8851 59.7539 46.5889C57.3158 46.2699 54.9915 45.9508 52.7812 45.6318C51.0723 45.3812 49.5 45.1647 48.0645 44.9824C46.6289 44.7773 45.3984 44.6748 44.373 44.6748L43.1426 54.5527C46.2415 53.3678 49.443 52.4108 52.7471 51.6816C56.0511 50.9297 59.6172 50.5537 63.4453 50.5537C66.4531 50.5537 69.2217 50.8158 71.751 51.3398C74.3031 51.8639 76.502 52.6842 78.3477 53.8008C80.2161 54.8945 81.6631 56.3187 82.6885 58.0732C83.7367 59.805 84.2607 61.8786 84.2607 64.2939C84.2607 67.1423 83.6455 69.5234 82.415 71.4375C81.2074 73.3516 79.4642 74.8896 77.1855 76.0518C74.9069 77.2139 72.127 78.0456 68.8457 78.5469C65.5872 79.0482 61.9072 79.2988 57.8057 79.2988C54.4561 79.2988 51.3799 79.1393 48.5771 78.8203C45.7972 78.5013 43.4046 77.943 41.3994 77.1455C39.3942 76.348 37.8333 75.277 36.7168 73.9326C35.6003 72.5654 35.042 70.8451 35.042 68.7715Z" fill="white" fill-opacity="0.02"/>
</g>
<defs>
<clipPath id="clip0_28_26">
<rect width="100" height="100" fill="white"/>
</clipPath>
</defs>
</svg>
