<svg width="87" height="112" viewBox="0 0 87 112" fill="none" xmlns="http://www.w3.org/2000/svg">
<g clip-path="url(#clip0_28_26)">
<path d="M-25.958 11.7715C-25.958 10.6094 -25.6732 9.5612 -25.1035 8.62695C-24.5111 7.66992 -23.7249 6.861 -22.7451 6.2002C-21.7425 5.5166 -20.5804 4.99251 -19.2588 4.62793C-17.9144 4.24056 -16.4788 4.04688 -14.9521 4.04688C-13.4255 4.04688 -11.9899 4.24056 -10.6455 4.62793C-9.30111 4.99251 -8.139 5.5166 -7.15918 6.2002C-6.15658 6.861 -5.37044 7.66992 -4.80078 8.62695C-4.23112 9.5612 -3.94629 10.6094 -3.94629 11.7715C-3.94629 12.7057 -4.13997 13.5944 -4.52734 14.4375C-4.89193 15.2578 -5.40462 16.0212 -6.06543 16.7275C-6.72624 17.4111 -7.52376 18.015 -8.45801 18.5391C-9.39225 19.0632 -10.4062 19.4619 -11.5 19.7354C-10.6797 19.8493 -9.85938 19.9404 -9.03906 20.0088C-8.21875 20.0544 -7.4668 20.0771 -6.7832 20.0771C-5.52995 20.0771 -4.34505 19.8721 -3.22852 19.4619C-2.11198 19.029 -1.14355 18.391 -0.323242 17.5479C0.49707 16.682 1.14648 15.5996 1.625 14.3008C2.10352 12.9792 2.34277 11.4183 2.34277 9.61816C2.34277 7.68132 2.05794 6.04069 1.48828 4.69629C0.91862 3.35189 0.121094 2.25814 -0.904297 1.41504C-1.92969 0.57194 -3.16016 -0.031901 -4.5957 -0.396484C-6.00846 -0.783854 -7.56934 -0.977539 -9.27832 -0.977539C-11.124 -0.977539 -12.9469 -0.783854 -14.7471 -0.396484C-16.5472 -0.00911458 -18.2106 0.503581 -19.7373 1.1416L-21.3779 -0.84082L-17.9258 -27.4326C-16.2168 -27.3643 -14.4964 -27.2503 -12.7646 -27.0908C-11.0329 -26.9313 -9.27832 -26.749 -7.50098 -26.5439C-5.22233 -26.2933 -2.95508 -26.0654 -0.699219 -25.8604C1.55664 -25.6553 3.78971 -25.5527 6 -25.5527C8.34701 -25.5527 10.6029 -25.7122 12.7676 -26.0312C14.9323 -26.3503 16.9831 -26.9313 18.9199 -27.7744H20.9707C21.0163 -27.3187 21.0618 -26.8174 21.1074 -26.2705C21.153 -25.7236 21.1872 -25.1768 21.21 -24.6299C21.2555 -24.083 21.2783 -23.5589 21.2783 -23.0576C21.3011 -22.5563 21.3125 -22.1348 21.3125 -21.793C21.3125 -19.4232 20.9023 -17.4749 20.082 -15.9482C19.2617 -14.4215 18.1452 -13.2139 16.7324 -12.3252C15.3424 -11.4365 13.7132 -10.8213 11.8447 -10.4795C9.99902 -10.1377 8.05078 -9.9668 6 -9.9668C3.63021 -9.9668 1.21484 -10.1149 -1.24609 -10.4111C-3.68424 -10.7301 -6.00846 -11.0492 -8.21875 -11.3682C-9.92773 -11.6188 -11.5 -11.8353 -12.9355 -12.0176C-14.3711 -12.2227 -15.6016 -12.3252 -16.627 -12.3252L-17.8574 -2.44727C-14.7585 -3.63216 -11.557 -4.58919 -8.25293 -5.31836C-4.94889 -6.07031 -1.38281 -6.44629 2.44531 -6.44629C5.45312 -6.44629 8.22168 -6.18424 10.751 -5.66016C13.3031 -5.13607 15.502 -4.31576 17.3477 -3.19922C19.2161 -2.10547 20.6631 -0.681315 21.6885 1.07324C22.7367 2.80501 23.2607 4.87858 23.2607 7.29395C23.2607 10.1423 22.6455 12.5234 21.415 14.4375C20.2074 16.3516 18.4642 17.8896 16.1855 19.0518C13.9069 20.2139 11.127 21.0456 7.8457 21.5469C4.58724 22.0482 0.907227 22.2988 -3.19434 22.2988C-6.54395 22.2988 -9.62012 22.1393 -12.4229 21.8203C-15.2028 21.5013 -17.5954 20.943 -19.6006 20.1455C-21.6058 19.348 -23.1667 18.277 -24.2832 16.9326C-25.3997 15.5654 -25.958 13.8451 -25.958 11.7715Z" fill="white" fill-opacity="0.02"/>
<path d="M61.042 11.7715C61.042 10.6094 61.3268 9.5612 61.8965 8.62695C62.4889 7.66992 63.2751 6.861 64.2549 6.2002C65.2575 5.5166 66.4196 4.99251 67.7412 4.62793C69.0856 4.24056 70.5212 4.04688 72.0479 4.04688C73.5745 4.04688 75.0101 4.24056 76.3545 4.62793C77.6989 4.99251 78.861 5.5166 79.8408 6.2002C80.8434 6.861 81.6296 7.66992 82.1992 8.62695C82.7689 9.5612 83.0537 10.6094 83.0537 11.7715C83.0537 12.7057 82.86 13.5944 82.4727 14.4375C82.1081 15.2578 81.5954 16.0212 80.9346 16.7275C80.2738 17.4111 79.4762 18.015 78.542 18.5391C77.6077 19.0632 76.5938 19.4619 75.5 19.7354C76.3203 19.8493 77.1406 19.9404 77.9609 20.0088C78.7812 20.0544 79.5332 20.0771 80.2168 20.0771C81.4701 20.0771 82.6549 19.8721 83.7715 19.4619C84.888 19.029 85.8564 18.391 86.6768 17.5479C87.4971 16.682 88.1465 15.5996 88.625 14.3008C89.1035 12.9792 89.3428 11.4183 89.3428 9.61816C89.3428 7.68132 89.0579 6.04069 88.4883 4.69629C87.9186 3.35189 87.1211 2.25814 86.0957 1.41504C85.0703 0.57194 83.8398 -0.031901 82.4043 -0.396484C80.9915 -0.783854 79.4307 -0.977539 77.7217 -0.977539C75.876 -0.977539 74.0531 -0.783854 72.2529 -0.396484C70.4528 -0.00911458 68.7894 0.503581 67.2627 1.1416L65.6221 -0.84082L69.0742 -27.4326C70.7832 -27.3643 72.5036 -27.2503 74.2354 -27.0908C75.9671 -26.9313 77.7217 -26.749 79.499 -26.5439C81.7777 -26.2933 84.0449 -26.0654 86.3008 -25.8604C88.5566 -25.6553 90.7897 -25.5527 93 -25.5527C95.347 -25.5527 97.6029 -25.7122 99.7676 -26.0312C101.932 -26.3503 103.983 -26.9313 105.92 -27.7744H107.971C108.016 -27.3187 108.062 -26.8174 108.107 -26.2705C108.153 -25.7236 108.187 -25.1768 108.21 -24.6299C108.256 -24.083 108.278 -23.5589 108.278 -23.0576C108.301 -22.5563 108.312 -22.1348 108.312 -21.793C108.312 -19.4232 107.902 -17.4749 107.082 -15.9482C106.262 -14.4215 105.145 -13.2139 103.732 -12.3252C102.342 -11.4365 100.713 -10.8213 98.8447 -10.4795C96.999 -10.1377 95.0508 -9.9668 93 -9.9668C90.6302 -9.9668 88.2148 -10.1149 85.7539 -10.4111C83.3158 -10.7301 80.9915 -11.0492 78.7812 -11.3682C77.0723 -11.6188 75.5 -11.8353 74.0645 -12.0176C72.6289 -12.2227 71.3984 -12.3252 70.373 -12.3252L69.1426 -2.44727C72.2415 -3.63216 75.443 -4.58919 78.7471 -5.31836C82.0511 -6.07031 85.6172 -6.44629 89.4453 -6.44629C92.4531 -6.44629 95.2217 -6.18424 97.751 -5.66016C100.303 -5.13607 102.502 -4.31576 104.348 -3.19922C106.216 -2.10547 107.663 -0.681315 108.688 1.07324C109.737 2.80501 110.261 4.87858 110.261 7.29395C110.261 10.1423 109.646 12.5234 108.415 14.4375C107.207 16.3516 105.464 17.8896 103.186 19.0518C100.907 20.2139 98.127 21.0456 94.8457 21.5469C91.5872 22.0482 87.9072 22.2988 83.8057 22.2988C80.4561 22.2988 77.3799 22.1393 74.5771 21.8203C71.7972 21.5013 69.4046 20.943 67.3994 20.1455C65.3942 19.348 63.8333 18.277 62.7168 16.9326C61.6003 15.5654 61.042 13.8451 61.042 11.7715Z" fill="white" fill-opacity="0.02"/>
<path d="M61.042 123.771C61.042 122.609 61.3268 121.561 61.8965 120.627C62.4889 119.67 63.2751 118.861 64.2549 118.2C65.2575 117.517 66.4196 116.993 67.7412 116.628C69.0856 116.241 70.5212 116.047 72.0479 116.047C73.5745 116.047 75.0101 116.241 76.3545 116.628C77.6989 116.993 78.861 117.517 79.8408 118.2C80.8434 118.861 81.6296 119.67 82.1992 120.627C82.7689 121.561 83.0537 122.609 83.0537 123.771C83.0537 124.706 82.86 125.594 82.4727 126.438C82.1081 127.258 81.5954 128.021 80.9346 128.728C80.2738 129.411 79.4762 130.015 78.542 130.539C77.6077 131.063 76.5938 131.462 75.5 131.735C76.3203 131.849 77.1406 131.94 77.9609 132.009C78.7812 132.054 79.5332 132.077 80.2168 132.077C81.4701 132.077 82.6549 131.872 83.7715 131.462C84.888 131.029 85.8564 130.391 86.6768 129.548C87.4971 128.682 88.1465 127.6 88.625 126.301C89.1035 124.979 89.3428 123.418 89.3428 121.618C89.3428 119.681 89.0579 118.041 88.4883 116.696C87.9186 115.352 87.1211 114.258 86.0957 113.415C85.0703 112.572 83.8398 111.968 82.4043 111.604C80.9915 111.216 79.4307 111.022 77.7217 111.022C75.876 111.022 74.0531 111.216 72.2529 111.604C70.4528 111.991 68.7894 112.504 67.2627 113.142L65.6221 111.159L69.0742 84.5674C70.7832 84.6357 72.5036 84.7497 74.2354 84.9092C75.9671 85.0687 77.7217 85.251 79.499 85.4561C81.7777 85.7067 84.0449 85.9346 86.3008 86.1396C88.5566 86.3447 90.7897 86.4473 93 86.4473C95.347 86.4473 97.6029 86.2878 99.7676 85.9688C101.932 85.6497 103.983 85.0687 105.92 84.2256H107.971C108.016 84.6813 108.062 85.1826 108.107 85.7295C108.153 86.2764 108.187 86.8232 108.21 87.3701C108.256 87.917 108.278 88.4411 108.278 88.9424C108.301 89.4437 108.312 89.8652 108.312 90.207C108.312 92.5768 107.902 94.5251 107.082 96.0518C106.262 97.5785 105.145 98.7861 103.732 99.6748C102.342 100.563 100.713 101.179 98.8447 101.521C96.999 101.862 95.0508 102.033 93 102.033C90.6302 102.033 88.2148 101.885 85.7539 101.589C83.3158 101.27 80.9915 100.951 78.7812 100.632C77.0723 100.381 75.5 100.165 74.0645 99.9824C72.6289 99.7773 71.3984 99.6748 70.373 99.6748L69.1426 109.553C72.2415 108.368 75.443 107.411 78.7471 106.682C82.0511 105.93 85.6172 105.554 89.4453 105.554C92.4531 105.554 95.2217 105.816 97.751 106.34C100.303 106.864 102.502 107.684 104.348 108.801C106.216 109.895 107.663 111.319 108.688 113.073C109.737 114.805 110.261 116.879 110.261 119.294C110.261 122.142 109.646 124.523 108.415 126.438C107.207 128.352 105.464 129.89 103.186 131.052C100.907 132.214 98.127 133.046 94.8457 133.547C91.5872 134.048 87.9072 134.299 83.8057 134.299C80.4561 134.299 77.3799 134.139 74.5771 133.82C71.7972 133.501 69.4046 132.943 67.3994 132.146C65.3942 131.348 63.8333 130.277 62.7168 128.933C61.6003 127.565 61.042 125.845 61.042 123.771Z" fill="white" fill-opacity="0.02"/>
<path d="M-25.958 123.771C-25.958 122.609 -25.6732 121.561 -25.1035 120.627C-24.5111 119.67 -23.7249 118.861 -22.7451 118.2C-21.7425 117.517 -20.5804 116.993 -19.2588 116.628C-17.9144 116.241 -16.4788 116.047 -14.9521 116.047C-13.4255 116.047 -11.9899 116.241 -10.6455 116.628C-9.30111 116.993 -8.139 117.517 -7.15918 118.2C-6.15658 118.861 -5.37044 119.67 -4.80078 120.627C-4.23112 121.561 -3.94629 122.609 -3.94629 123.771C-3.94629 124.706 -4.13997 125.594 -4.52734 126.438C-4.89193 127.258 -5.40462 128.021 -6.06543 128.728C-6.72624 129.411 -7.52376 130.015 -8.45801 130.539C-9.39225 131.063 -10.4062 131.462 -11.5 131.735C-10.6797 131.849 -9.85938 131.94 -9.03906 132.009C-8.21875 132.054 -7.4668 132.077 -6.7832 132.077C-5.52995 132.077 -4.34505 131.872 -3.22852 131.462C-2.11198 131.029 -1.14355 130.391 -0.323242 129.548C0.49707 128.682 1.14648 127.6 1.625 126.301C2.10352 124.979 2.34277 123.418 2.34277 121.618C2.34277 119.681 2.05794 118.041 1.48828 116.696C0.91862 115.352 0.121094 114.258 -0.904297 113.415C-1.92969 112.572 -3.16016 111.968 -4.5957 111.604C-6.00846 111.216 -7.56934 111.022 -9.27832 111.022C-11.124 111.022 -12.9469 111.216 -14.7471 111.604C-16.5472 111.991 -18.2106 112.504 -19.7373 113.142L-21.3779 111.159L-17.9258 84.5674C-16.2168 84.6357 -14.4964 84.7497 -12.7646 84.9092C-11.0329 85.0687 -9.27832 85.251 -7.50098 85.4561C-5.22233 85.7067 -2.95508 85.9346 -0.699219 86.1396C1.55664 86.3447 3.78971 86.4473 6 86.4473C8.34701 86.4473 10.6029 86.2878 12.7676 85.9688C14.9323 85.6497 16.9831 85.0687 18.9199 84.2256H20.9707C21.0163 84.6813 21.0618 85.1826 21.1074 85.7295C21.153 86.2764 21.1872 86.8232 21.21 87.3701C21.2555 87.917 21.2783 88.4411 21.2783 88.9424C21.3011 89.4437 21.3125 89.8652 21.3125 90.207C21.3125 92.5768 20.9023 94.5251 20.082 96.0518C19.2617 97.5785 18.1452 98.7861 16.7324 99.6748C15.3424 100.563 13.7132 101.179 11.8447 101.521C9.99902 101.862 8.05078 102.033 6 102.033C3.63021 102.033 1.21484 101.885 -1.24609 101.589C-3.68424 101.27 -6.00846 100.951 -8.21875 100.632C-9.92773 100.381 -11.5 100.165 -12.9355 99.9824C-14.3711 99.7773 -15.6016 99.6748 -16.627 99.6748L-17.8574 109.553C-14.7585 108.368 -11.557 107.411 -8.25293 106.682C-4.94889 105.93 -1.38281 105.554 2.44531 105.554C5.45312 105.554 8.22168 105.816 10.751 106.34C13.3031 106.864 15.502 107.684 17.3477 108.801C19.2161 109.895 20.6631 111.319 21.6885 113.073C22.7367 114.805 23.2607 116.879 23.2607 119.294C23.2607 122.142 22.6455 124.523 21.415 126.438C20.2074 128.352 18.4642 129.89 16.1855 131.052C13.9069 132.214 11.127 133.046 7.8457 133.547C4.58724 134.048 0.907227 134.299 -3.19434 134.299C-6.54395 134.299 -9.62012 134.139 -12.4229 133.82C-15.2028 133.501 -17.5954 132.943 -19.6006 132.146C-21.6058 131.348 -23.1667 130.277 -24.2832 128.933C-25.3997 127.565 -25.958 125.845 -25.958 123.771Z" fill="white" fill-opacity="0.02"/>
<path d="M18.042 67.7715C18.042 66.6094 18.3268 65.5612 18.8965 64.627C19.4889 63.6699 20.2751 62.861 21.2549 62.2002C22.2575 61.5166 23.4196 60.9925 24.7412 60.6279C26.0856 60.2406 27.5212 60.0469 29.0479 60.0469C30.5745 60.0469 32.0101 60.2406 33.3545 60.6279C34.6989 60.9925 35.861 61.5166 36.8408 62.2002C37.8434 62.861 38.6296 63.6699 39.1992 64.627C39.7689 65.5612 40.0537 66.6094 40.0537 67.7715C40.0537 68.7057 39.86 69.5944 39.4727 70.4375C39.1081 71.2578 38.5954 72.0212 37.9346 72.7275C37.2738 73.4111 36.4762 74.015 35.542 74.5391C34.6077 75.0632 33.5938 75.4619 32.5 75.7354C33.3203 75.8493 34.1406 75.9404 34.9609 76.0088C35.7812 76.0544 36.5332 76.0771 37.2168 76.0771C38.4701 76.0771 39.6549 75.8721 40.7715 75.4619C41.888 75.029 42.8564 74.391 43.6768 73.5479C44.4971 72.682 45.1465 71.5996 45.625 70.3008C46.1035 68.9792 46.3428 67.4183 46.3428 65.6182C46.3428 63.6813 46.0579 62.0407 45.4883 60.6963C44.9186 59.3519 44.1211 58.2581 43.0957 57.415C42.0703 56.5719 40.8398 55.9681 39.4043 55.6035C37.9915 55.2161 36.4307 55.0225 34.7217 55.0225C32.876 55.0225 31.0531 55.2161 29.2529 55.6035C27.4528 55.9909 25.7894 56.5036 24.2627 57.1416L22.6221 55.1592L26.0742 28.5674C27.7832 28.6357 29.5036 28.7497 31.2354 28.9092C32.9671 29.0687 34.7217 29.251 36.499 29.4561C38.7777 29.7067 41.0449 29.9346 43.3008 30.1396C45.5566 30.3447 47.7897 30.4473 50 30.4473C52.347 30.4473 54.6029 30.2878 56.7676 29.9688C58.9323 29.6497 60.9831 29.0687 62.9199 28.2256H64.9707C65.0163 28.6813 65.0618 29.1826 65.1074 29.7295C65.153 30.2764 65.1872 30.8232 65.21 31.3701C65.2555 31.917 65.2783 32.4411 65.2783 32.9424C65.3011 33.4437 65.3125 33.8652 65.3125 34.207C65.3125 36.5768 64.9023 38.5251 64.082 40.0518C63.2617 41.5785 62.1452 42.7861 60.7324 43.6748C59.3424 44.5635 57.7132 45.1787 55.8447 45.5205C53.999 45.8623 52.0508 46.0332 50 46.0332C47.6302 46.0332 45.2148 45.8851 42.7539 45.5889C40.3158 45.2699 37.9915 44.9508 35.7812 44.6318C34.0723 44.3812 32.5 44.1647 31.0645 43.9824C29.6289 43.7773 28.3984 43.6748 27.373 43.6748L26.1426 53.5527C29.2415 52.3678 32.443 51.4108 35.7471 50.6816C39.0511 49.9297 42.6172 49.5537 46.4453 49.5537C49.4531 49.5537 52.2217 49.8158 54.751 50.3398C57.3031 50.8639 59.502 51.6842 61.3477 52.8008C63.2161 53.8945 64.6631 55.3187 65.6885 57.0732C66.7367 58.805 67.2607 60.8786 67.2607 63.2939C67.2607 66.1423 66.6455 68.5234 65.415 70.4375C64.2074 72.3516 62.4642 73.8896 60.1855 75.0518C57.9069 76.2139 55.127 77.0456 51.8457 77.5469C48.5872 78.0482 44.9072 78.2988 40.8057 78.2988C37.4561 78.2988 34.3799 78.1393 31.5771 77.8203C28.7972 77.5013 26.4046 76.943 24.3994 76.1455C22.3942 75.348 20.8333 74.277 19.7168 72.9326C18.6003 71.5654 18.042 69.8451 18.042 67.7715Z" fill="white" fill-opacity="0.02"/>
</g>
<defs>
<clipPath id="clip0_28_26">
<rect width="87" height="112" fill="white"/>
</clipPath>
</defs>
</svg>
