<svg width="67" height="100" viewBox="0 0 67 100" fill="none" xmlns="http://www.w3.org/2000/svg">
<g clip-path="url(#clip0_28_32)">
<path d="M-15.06 11.39C-15.06 7.05 -13.7533 3.03667 -11.14 -0.650001L3.14 -20.67L10.98 -15L3.07 -4.36L4.19 -4.43C8.76333 -4.43 12.4967 -2.93667 15.39 0.0499986C18.2833 3.03667 19.73 6.65333 19.73 10.9C19.73 15.7533 18.19 19.7667 15.11 22.94C12.0767 26.1133 7.80667 27.7 2.3 27.7C-3.25333 27.7 -7.54667 26.1833 -10.58 23.15C-13.5667 20.07 -15.06 16.15 -15.06 11.39ZM-4.84 11.25C-4.84 13.63 -4.25667 15.5433 -3.09 16.99C-1.87667 18.4367 -0.0799991 19.16 2.3 19.16C4.58667 19.16 6.36 18.4367 7.62 16.99C8.88 15.5433 9.51 13.63 9.51 11.25C9.51 9.10333 8.83333 7.33 7.48 5.93C6.17334 4.53 4.44667 3.83 2.3 3.83C0.106668 3.83 -1.64333 4.53 -2.95 5.93C-4.21 7.33 -4.84 9.10333 -4.84 11.25Z" fill="white" fill-opacity="0.02"/>
<path d="M52.94 11.39C52.94 7.05 54.2467 3.03667 56.86 -0.650001L71.14 -20.67L78.98 -15L71.07 -4.36L72.19 -4.43C76.7633 -4.43 80.4967 -2.93667 83.39 0.0499986C86.2833 3.03667 87.73 6.65333 87.73 10.9C87.73 15.7533 86.19 19.7667 83.11 22.94C80.0767 26.1133 75.8067 27.7 70.3 27.7C64.7467 27.7 60.4533 26.1833 57.42 23.15C54.4333 20.07 52.94 16.15 52.94 11.39ZM63.16 11.25C63.16 13.63 63.7433 15.5433 64.91 16.99C66.1233 18.4367 67.92 19.16 70.3 19.16C72.5867 19.16 74.36 18.4367 75.62 16.99C76.88 15.5433 77.51 13.63 77.51 11.25C77.51 9.10333 76.8333 7.33 75.48 5.93C74.1733 4.53 72.4467 3.83 70.3 3.83C68.1067 3.83 66.3567 4.53 65.05 5.93C63.79 7.33 63.16 9.10333 63.16 11.25Z" fill="white" fill-opacity="0.02"/>
<path d="M52.94 111.39C52.94 107.05 54.2467 103.037 56.86 99.35L71.14 79.33L78.98 85L71.07 95.64L72.19 95.57C76.7633 95.57 80.4967 97.0633 83.39 100.05C86.2833 103.037 87.73 106.653 87.73 110.9C87.73 115.753 86.19 119.767 83.11 122.94C80.0767 126.113 75.8067 127.7 70.3 127.7C64.7467 127.7 60.4533 126.183 57.42 123.15C54.4333 120.07 52.94 116.15 52.94 111.39ZM63.16 111.25C63.16 113.63 63.7433 115.543 64.91 116.99C66.1233 118.437 67.92 119.16 70.3 119.16C72.5867 119.16 74.36 118.437 75.62 116.99C76.88 115.543 77.51 113.63 77.51 111.25C77.51 109.103 76.8333 107.33 75.48 105.93C74.1733 104.53 72.4467 103.83 70.3 103.83C68.1067 103.83 66.3567 104.53 65.05 105.93C63.79 107.33 63.16 109.103 63.16 111.25Z" fill="white" fill-opacity="0.02"/>
<path d="M-15.06 111.39C-15.06 107.05 -13.7533 103.037 -11.14 99.35L3.14 79.33L10.98 85L3.07 95.64L4.19 95.57C8.76333 95.57 12.4967 97.0633 15.39 100.05C18.2833 103.037 19.73 106.653 19.73 110.9C19.73 115.753 18.19 119.767 15.11 122.94C12.0767 126.113 7.80667 127.7 2.3 127.7C-3.25333 127.7 -7.54667 126.183 -10.58 123.15C-13.5667 120.07 -15.06 116.15 -15.06 111.39ZM-4.84 111.25C-4.84 113.63 -4.25667 115.543 -3.09 116.99C-1.87667 118.437 -0.0799991 119.16 2.3 119.16C4.58667 119.16 6.36 118.437 7.62 116.99C8.88 115.543 9.51 113.63 9.51 111.25C9.51 109.103 8.83333 107.33 7.48 105.93C6.17334 104.53 4.44667 103.83 2.3 103.83C0.106668 103.83 -1.64333 104.53 -2.95 105.93C-4.21 107.33 -4.84 109.103 -4.84 111.25Z" fill="white" fill-opacity="0.02"/>
<path d="M15.94 41.39C15.94 37.05 17.2467 33.0367 19.86 29.35L34.14 9.33L41.98 15L34.07 25.64L35.19 25.57C39.7633 25.57 43.4967 27.0633 46.39 30.05C49.2833 33.0367 50.73 36.6533 50.73 40.9C50.73 45.7533 49.19 49.7667 46.11 52.94C43.0767 56.1133 38.8067 57.7 33.3 57.7C27.7467 57.7 23.4533 56.1833 20.42 53.15C17.4333 50.07 15.94 46.15 15.94 41.39ZM26.16 41.25C26.16 43.63 26.7433 45.5433 27.91 46.99C29.1233 48.4367 30.92 49.16 33.3 49.16C35.5867 49.16 37.36 48.4367 38.62 46.99C39.88 45.5433 40.51 43.63 40.51 41.25C40.51 39.1033 39.8333 37.33 38.48 35.93C37.1733 34.53 35.4467 33.83 33.3 33.83C31.1067 33.83 29.3567 34.53 28.05 35.93C26.79 37.33 26.16 39.1033 26.16 41.25Z" fill="white" fill-opacity="0.02"/>
<path d="M49.94 58.39C49.94 54.05 51.2467 50.0367 53.86 46.35L68.14 26.33L75.98 32L68.07 42.64L69.19 42.57C73.7633 42.57 77.4967 44.0633 80.39 47.05C83.2833 50.0367 84.73 53.6533 84.73 57.9C84.73 62.7533 83.19 66.7667 80.11 69.94C77.0767 73.1133 72.8067 74.7 67.3 74.7C61.7467 74.7 57.4533 73.1833 54.42 70.15C51.4333 67.07 49.94 63.15 49.94 58.39ZM60.16 58.25C60.16 60.63 60.7433 62.5433 61.91 63.99C63.1233 65.4367 64.92 66.16 67.3 66.16C69.5867 66.16 71.36 65.4367 72.62 63.99C73.88 62.5433 74.51 60.63 74.51 58.25C74.51 56.1033 73.8333 54.33 72.48 52.93C71.1733 51.53 69.4467 50.83 67.3 50.83C65.1067 50.83 63.3567 51.53 62.05 52.93C60.79 54.33 60.16 56.1033 60.16 58.25Z" fill="white" fill-opacity="0.012"/>
<path d="M15.94 -5.61C15.94 -9.95 17.2467 -13.9633 19.86 -17.65L34.14 -37.67L41.98 -32L34.07 -21.36L35.19 -21.43C39.7633 -21.43 43.4967 -19.9367 46.39 -16.95C49.2833 -13.9633 50.73 -10.3467 50.73 -6.1C50.73 -1.24667 49.19 2.76667 46.11 5.94C43.0767 9.11333 38.8067 10.7 33.3 10.7C27.7467 10.7 23.4533 9.18333 20.42 6.15C17.4333 3.07 15.94 -0.85 15.94 -5.61ZM26.16 -5.75C26.16 -3.37 26.7433 -1.45667 27.91 -0.0100005C29.1233 1.43667 30.92 2.16 33.3 2.16C35.5867 2.16 37.36 1.43667 38.62 -0.0100005C39.88 -1.45667 40.51 -3.37 40.51 -5.75C40.51 -7.89667 39.8333 -9.67 38.48 -11.07C37.1733 -12.47 35.4467 -13.17 33.3 -13.17C31.1067 -13.17 29.3567 -12.47 28.05 -11.07C26.79 -9.67 26.16 -7.89667 26.16 -5.75Z" fill="white" fill-opacity="0.012"/>
<path d="M-18.06 58.39C-18.06 54.05 -16.7533 50.0367 -14.14 46.35L0.140001 26.33L7.98 32L0.070002 42.64L1.19 42.57C5.76333 42.57 9.49667 44.0633 12.39 47.05C15.2833 50.0367 16.73 53.6533 16.73 57.9C16.73 62.7533 15.19 66.7667 12.11 69.94C9.07667 73.1133 4.80667 74.7 -0.699998 74.7C-6.25333 74.7 -10.5467 73.1833 -13.58 70.15C-16.5667 67.07 -18.06 63.15 -18.06 58.39ZM-7.84 58.25C-7.84 60.63 -7.25667 62.5433 -6.09 63.99C-4.87667 65.4367 -3.08 66.16 -0.699998 66.16C1.58667 66.16 3.36 65.4367 4.62 63.99C5.88 62.5433 6.51 60.63 6.51 58.25C6.51 56.1033 5.83333 54.33 4.48 52.93C3.17334 51.53 1.44667 50.83 -0.699998 50.83C-2.89333 50.83 -4.64333 51.53 -5.95 52.93C-7.21 54.33 -7.84 56.1033 -7.84 58.25Z" fill="white" fill-opacity="0.012"/>
<path d="M15.94 88.39C15.94 84.05 17.2467 80.0367 19.86 76.35L34.14 56.33L41.98 62L34.07 72.64L35.19 72.57C39.7633 72.57 43.4967 74.0633 46.39 77.05C49.2833 80.0367 50.73 83.6533 50.73 87.9C50.73 92.7533 49.19 96.7667 46.11 99.94C43.0767 103.113 38.8067 104.7 33.3 104.7C27.7467 104.7 23.4533 103.183 20.42 100.15C17.4333 97.07 15.94 93.15 15.94 88.39ZM26.16 88.25C26.16 90.63 26.7433 92.5433 27.91 93.99C29.1233 95.4367 30.92 96.16 33.3 96.16C35.5867 96.16 37.36 95.4367 38.62 93.99C39.88 92.5433 40.51 90.63 40.51 88.25C40.51 86.1033 39.8333 84.33 38.48 82.93C37.1733 81.53 35.4467 80.83 33.3 80.83C31.1067 80.83 29.3567 81.53 28.05 82.93C26.79 84.33 26.16 86.1033 26.16 88.25Z" fill="white" fill-opacity="0.012"/>
</g>
<defs>
<clipPath id="clip0_28_32">
<rect width="67" height="100" fill="white"/>
</clipPath>
</defs>
</svg>
