<svg width="100" height="100" viewBox="0 0 100 100" fill="none" xmlns="http://www.w3.org/2000/svg">
<g clip-path="url(#clip0_28_32)">
<path d="M-14.2744 5.13379C-14.2744 2.69564 -14.1149 0.33724 -13.7959 -1.94141C-13.4541 -4.22005 -12.8958 -6.35059 -12.1211 -8.33301C-11.3236 -10.3382 -10.264 -12.1611 -8.94238 -13.8018C-7.62077 -15.4424 -5.96875 -16.8438 -3.98633 -18.0059C-2.00391 -19.1908 0.354492 -20.1022 3.08887 -20.7402C5.82324 -21.401 8.99056 -21.7314 12.5908 -21.7314C16.0088 -21.7314 19.028 -21.4922 21.6484 -21.0137C24.2689 -20.5579 26.4678 -19.9085 28.2451 -19.0654C30.0225 -18.2223 31.3669 -17.2083 32.2783 -16.0234C33.1898 -14.8613 33.6455 -13.5739 33.6455 -12.1611C33.6455 -11.0446 33.4062 -10.0534 32.9277 -9.1875C32.4492 -8.32161 31.777 -7.58105 30.9111 -6.96582C30.0452 -6.37337 29.0085 -5.91764 27.8008 -5.59863C26.5931 -5.30241 25.2601 -5.1543 23.8018 -5.1543C22.3434 -5.1543 20.9876 -5.30241 19.7344 -5.59863C18.5039 -5.91764 17.4329 -6.37337 16.5215 -6.96582C15.61 -7.58105 14.8923 -8.32161 14.3682 -9.1875C13.8669 -10.0534 13.6162 -11.0446 13.6162 -12.1611C13.6162 -13.984 14.2542 -15.431 15.5303 -16.502C16.8291 -17.5957 18.652 -18.3135 20.999 -18.6553C20.4294 -18.7692 19.8027 -18.849 19.1191 -18.8945C18.4355 -18.9629 17.7975 -18.9971 17.2051 -18.9971C15.1087 -18.9971 13.4225 -18.7008 12.1465 -18.1084C10.8704 -17.516 9.87923 -16.502 9.17285 -15.0664C8.46647 -13.6309 7.98796 -11.7168 7.7373 -9.32422C7.50944 -6.95443 7.37272 -3.98079 7.32715 -0.40332C8.14746 -0.745117 9.03613 -1.07552 9.99316 -1.39453C10.973 -1.73633 11.9984 -2.03255 13.0693 -2.2832C14.1403 -2.55664 15.2227 -2.76172 16.3164 -2.89844C17.4329 -3.05794 18.5381 -3.1377 19.6318 -3.1377C22.1156 -3.1377 24.3714 -2.77311 26.3994 -2.04395C28.4274 -1.33757 30.1592 -0.346354 31.5947 0.929688C33.0303 2.20573 34.1354 3.74382 34.9102 5.54395C35.7077 7.32129 36.1064 9.26953 36.1064 11.3887C36.1064 12.7786 35.9469 14.1914 35.6279 15.627C35.3089 17.0625 34.7848 18.4411 34.0557 19.7627C33.3493 21.0843 32.4036 22.3262 31.2188 23.4883C30.0339 24.6504 28.5755 25.6644 26.8438 26.5303C25.1348 27.3734 23.1182 28.0456 20.7939 28.5469C18.4697 29.0482 15.8037 29.2988 12.7959 29.2988C9.35514 29.2988 6.29036 29.0368 3.60156 28.5127C0.935547 27.9886 -1.40007 27.2367 -3.40527 26.2568C-5.41048 25.277 -7.10807 24.0807 -8.49805 22.668C-9.86523 21.2552 -10.9818 19.6602 -11.8477 17.8828C-12.7135 16.0827 -13.3402 14.1117 -13.7275 11.9697C-14.0921 9.8278 -14.2744 7.54915 -14.2744 5.13379ZM12.1123 26.6328C12.7731 26.6328 13.4339 26.4847 14.0947 26.1885C14.7555 25.8923 15.3366 25.3454 15.8379 24.5479C16.362 23.7275 16.7835 22.6224 17.1025 21.2324C17.4215 19.8197 17.5811 17.9967 17.5811 15.7637C17.5811 13.599 17.4557 11.7191 17.2051 10.124C16.9772 8.52897 16.5898 7.20736 16.043 6.15918C15.4961 5.08822 14.7783 4.29069 13.8896 3.7666C13.001 3.24251 11.9072 2.98047 10.6084 2.98047C9.58301 2.98047 8.47786 3.12858 7.29297 3.4248V4.1084C7.29297 7.7998 7.32715 11.0469 7.39551 13.8496C7.46387 16.6523 7.65755 18.9993 7.97656 20.8906C8.29557 22.7819 8.77409 24.2174 9.41211 25.1973C10.0729 26.1543 10.973 26.6328 12.1123 26.6328Z" fill="white" fill-opacity="0.02"/>
<path d="M85.7256 5.13379C85.7256 2.69564 85.8851 0.33724 86.2041 -1.94141C86.5459 -4.22005 87.1042 -6.35059 87.8789 -8.33301C88.6764 -10.3382 89.736 -12.1611 91.0576 -13.8018C92.3792 -15.4424 94.0312 -16.8438 96.0137 -18.0059C97.9961 -19.1908 100.354 -20.1022 103.089 -20.7402C105.823 -21.401 108.991 -21.7314 112.591 -21.7314C116.009 -21.7314 119.028 -21.4922 121.648 -21.0137C124.269 -20.5579 126.468 -19.9085 128.245 -19.0654C130.022 -18.2223 131.367 -17.2083 132.278 -16.0234C133.19 -14.8613 133.646 -13.5739 133.646 -12.1611C133.646 -11.0446 133.406 -10.0534 132.928 -9.1875C132.449 -8.32161 131.777 -7.58105 130.911 -6.96582C130.045 -6.37337 129.008 -5.91764 127.801 -5.59863C126.593 -5.30241 125.26 -5.1543 123.802 -5.1543C122.343 -5.1543 120.988 -5.30241 119.734 -5.59863C118.504 -5.91764 117.433 -6.37337 116.521 -6.96582C115.61 -7.58105 114.892 -8.32161 114.368 -9.1875C113.867 -10.0534 113.616 -11.0446 113.616 -12.1611C113.616 -13.984 114.254 -15.431 115.53 -16.502C116.829 -17.5957 118.652 -18.3135 120.999 -18.6553C120.429 -18.7692 119.803 -18.849 119.119 -18.8945C118.436 -18.9629 117.798 -18.9971 117.205 -18.9971C115.109 -18.9971 113.423 -18.7008 112.146 -18.1084C110.87 -17.516 109.879 -16.502 109.173 -15.0664C108.466 -13.6309 107.988 -11.7168 107.737 -9.32422C107.509 -6.95443 107.373 -3.98079 107.327 -0.40332C108.147 -0.745117 109.036 -1.07552 109.993 -1.39453C110.973 -1.73633 111.998 -2.03255 113.069 -2.2832C114.14 -2.55664 115.223 -2.76172 116.316 -2.89844C117.433 -3.05794 118.538 -3.1377 119.632 -3.1377C122.116 -3.1377 124.371 -2.77311 126.399 -2.04395C128.427 -1.33757 130.159 -0.346354 131.595 0.929688C133.03 2.20573 134.135 3.74382 134.91 5.54395C135.708 7.32129 136.106 9.26953 136.106 11.3887C136.106 12.7786 135.947 14.1914 135.628 15.627C135.309 17.0625 134.785 18.4411 134.056 19.7627C133.349 21.0843 132.404 22.3262 131.219 23.4883C130.034 24.6504 128.576 25.6644 126.844 26.5303C125.135 27.3734 123.118 28.0456 120.794 28.5469C118.47 29.0482 115.804 29.2988 112.796 29.2988C109.355 29.2988 106.29 29.0368 103.602 28.5127C100.936 27.9886 98.5999 27.2367 96.5947 26.2568C94.5895 25.277 92.8919 24.0807 91.502 22.668C90.1348 21.2552 89.0182 19.6602 88.1523 17.8828C87.2865 16.0827 86.6598 14.1117 86.2725 11.9697C85.9079 9.8278 85.7256 7.54915 85.7256 5.13379ZM112.112 26.6328C112.773 26.6328 113.434 26.4847 114.095 26.1885C114.756 25.8923 115.337 25.3454 115.838 24.5479C116.362 23.7275 116.784 22.6224 117.103 21.2324C117.422 19.8197 117.581 17.9967 117.581 15.7637C117.581 13.599 117.456 11.7191 117.205 10.124C116.977 8.52897 116.59 7.20736 116.043 6.15918C115.496 5.08822 114.778 4.29069 113.89 3.7666C113.001 3.24251 111.907 2.98047 110.608 2.98047C109.583 2.98047 108.478 3.12858 107.293 3.4248V4.1084C107.293 7.7998 107.327 11.0469 107.396 13.8496C107.464 16.6523 107.658 18.9993 107.977 20.8906C108.296 22.7819 108.774 24.2174 109.412 25.1973C110.073 26.1543 110.973 26.6328 112.112 26.6328Z" fill="white" fill-opacity="0.02"/>
<path d="M85.7256 105.134C85.7256 102.696 85.8851 100.337 86.2041 98.0586C86.5459 95.7799 87.1042 93.6494 87.8789 91.667C88.6764 89.6618 89.736 87.8389 91.0576 86.1982C92.3792 84.5576 94.0312 83.1562 96.0137 81.9941C97.9961 80.8092 100.354 79.8978 103.089 79.2598C105.823 78.599 108.991 78.2686 112.591 78.2686C116.009 78.2686 119.028 78.5078 121.648 78.9863C124.269 79.4421 126.468 80.0915 128.245 80.9346C130.022 81.7777 131.367 82.7917 132.278 83.9766C133.19 85.1387 133.646 86.4261 133.646 87.8389C133.646 88.9554 133.406 89.9466 132.928 90.8125C132.449 91.6784 131.777 92.4189 130.911 93.0342C130.045 93.6266 129.008 94.0824 127.801 94.4014C126.593 94.6976 125.26 94.8457 123.802 94.8457C122.343 94.8457 120.988 94.6976 119.734 94.4014C118.504 94.0824 117.433 93.6266 116.521 93.0342C115.61 92.4189 114.892 91.6784 114.368 90.8125C113.867 89.9466 113.616 88.9554 113.616 87.8389C113.616 86.016 114.254 84.569 115.53 83.498C116.829 82.4043 118.652 81.6865 120.999 81.3447C120.429 81.2308 119.803 81.151 119.119 81.1055C118.436 81.0371 117.798 81.0029 117.205 81.0029C115.109 81.0029 113.423 81.2992 112.146 81.8916C110.87 82.484 109.879 83.498 109.173 84.9336C108.466 86.3691 107.988 88.2832 107.737 90.6758C107.509 93.0456 107.373 96.0192 107.327 99.5967C108.147 99.2549 109.036 98.9245 109.993 98.6055C110.973 98.2637 111.998 97.9674 113.069 97.7168C114.14 97.4434 115.223 97.2383 116.316 97.1016C117.433 96.9421 118.538 96.8623 119.632 96.8623C122.116 96.8623 124.371 97.2269 126.399 97.9561C128.427 98.6624 130.159 99.6536 131.595 100.93C133.03 102.206 134.135 103.744 134.91 105.544C135.708 107.321 136.106 109.27 136.106 111.389C136.106 112.779 135.947 114.191 135.628 115.627C135.309 117.062 134.785 118.441 134.056 119.763C133.349 121.084 132.404 122.326 131.219 123.488C130.034 124.65 128.576 125.664 126.844 126.53C125.135 127.373 123.118 128.046 120.794 128.547C118.47 129.048 115.804 129.299 112.796 129.299C109.355 129.299 106.29 129.037 103.602 128.513C100.936 127.989 98.5999 127.237 96.5947 126.257C94.5895 125.277 92.8919 124.081 91.502 122.668C90.1348 121.255 89.0182 119.66 88.1523 117.883C87.2865 116.083 86.6598 114.112 86.2725 111.97C85.9079 109.828 85.7256 107.549 85.7256 105.134ZM112.112 126.633C112.773 126.633 113.434 126.485 114.095 126.188C114.756 125.892 115.337 125.345 115.838 124.548C116.362 123.728 116.784 122.622 117.103 121.232C117.422 119.82 117.581 117.997 117.581 115.764C117.581 113.599 117.456 111.719 117.205 110.124C116.977 108.529 116.59 107.207 116.043 106.159C115.496 105.088 114.778 104.291 113.89 103.767C113.001 103.243 111.907 102.98 110.608 102.98C109.583 102.98 108.478 103.129 107.293 103.425V104.108C107.293 107.8 107.327 111.047 107.396 113.85C107.464 116.652 107.658 118.999 107.977 120.891C108.296 122.782 108.774 124.217 109.412 125.197C110.073 126.154 110.973 126.633 112.112 126.633Z" fill="white" fill-opacity="0.02"/>
<path d="M-14.2744 105.134C-14.2744 102.696 -14.1149 100.337 -13.7959 98.0586C-13.4541 95.7799 -12.8958 93.6494 -12.1211 91.667C-11.3236 89.6618 -10.264 87.8389 -8.94238 86.1982C-7.62077 84.5576 -5.96875 83.1562 -3.98633 81.9941C-2.00391 80.8092 0.354492 79.8978 3.08887 79.2598C5.82324 78.599 8.99056 78.2686 12.5908 78.2686C16.0088 78.2686 19.028 78.5078 21.6484 78.9863C24.2689 79.4421 26.4678 80.0915 28.2451 80.9346C30.0225 81.7777 31.3669 82.7917 32.2783 83.9766C33.1898 85.1387 33.6455 86.4261 33.6455 87.8389C33.6455 88.9554 33.4062 89.9466 32.9277 90.8125C32.4492 91.6784 31.777 92.4189 30.9111 93.0342C30.0452 93.6266 29.0085 94.0824 27.8008 94.4014C26.5931 94.6976 25.2601 94.8457 23.8018 94.8457C22.3434 94.8457 20.9876 94.6976 19.7344 94.4014C18.5039 94.0824 17.4329 93.6266 16.5215 93.0342C15.61 92.4189 14.8923 91.6784 14.3682 90.8125C13.8669 89.9466 13.6162 88.9554 13.6162 87.8389C13.6162 86.016 14.2542 84.569 15.5303 83.498C16.8291 82.4043 18.652 81.6865 20.999 81.3447C20.4294 81.2308 19.8027 81.151 19.1191 81.1055C18.4355 81.0371 17.7975 81.0029 17.2051 81.0029C15.1087 81.0029 13.4225 81.2992 12.1465 81.8916C10.8704 82.484 9.87923 83.498 9.17285 84.9336C8.46647 86.3691 7.98796 88.2832 7.7373 90.6758C7.50944 93.0456 7.37272 96.0192 7.32715 99.5967C8.14746 99.2549 9.03613 98.9245 9.99316 98.6055C10.973 98.2637 11.9984 97.9674 13.0693 97.7168C14.1403 97.4434 15.2227 97.2383 16.3164 97.1016C17.4329 96.9421 18.5381 96.8623 19.6318 96.8623C22.1156 96.8623 24.3714 97.2269 26.3994 97.9561C28.4274 98.6624 30.1592 99.6536 31.5947 100.93C33.0303 102.206 34.1354 103.744 34.9102 105.544C35.7077 107.321 36.1064 109.27 36.1064 111.389C36.1064 112.779 35.9469 114.191 35.6279 115.627C35.3089 117.062 34.7848 118.441 34.0557 119.763C33.3493 121.084 32.4036 122.326 31.2188 123.488C30.0339 124.65 28.5755 125.664 26.8438 126.53C25.1348 127.373 23.1182 128.046 20.7939 128.547C18.4697 129.048 15.8037 129.299 12.7959 129.299C9.35514 129.299 6.29036 129.037 3.60156 128.513C0.935547 127.989 -1.40007 127.237 -3.40527 126.257C-5.41048 125.277 -7.10807 124.081 -8.49805 122.668C-9.86523 121.255 -10.9818 119.66 -11.8477 117.883C-12.7135 116.083 -13.3402 114.112 -13.7275 111.97C-14.0921 109.828 -14.2744 107.549 -14.2744 105.134ZM12.1123 126.633C12.7731 126.633 13.4339 126.485 14.0947 126.188C14.7555 125.892 15.3366 125.345 15.8379 124.548C16.362 123.728 16.7835 122.622 17.1025 121.232C17.4215 119.82 17.5811 117.997 17.5811 115.764C17.5811 113.599 17.4557 111.719 17.2051 110.124C16.9772 108.529 16.5898 107.207 16.043 106.159C15.4961 105.088 14.7783 104.291 13.8896 103.767C13.001 103.243 11.9072 102.98 10.6084 102.98C9.58301 102.98 8.47786 103.129 7.29297 103.425V104.108C7.29297 107.8 7.32715 111.047 7.39551 113.85C7.46387 116.652 7.65755 118.999 7.97656 120.891C8.29557 122.782 8.77409 124.217 9.41211 125.197C10.0729 126.154 10.973 126.633 12.1123 126.633Z" fill="white" fill-opacity="0.02"/>
<path d="M35.7256 55.1338C35.7256 52.6956 35.8851 50.3372 36.2041 48.0586C36.5459 45.7799 37.1042 43.6494 37.8789 41.667C38.6764 39.6618 39.736 37.8389 41.0576 36.1982C42.3792 34.5576 44.0312 33.1562 46.0137 31.9941C47.9961 30.8092 50.3545 29.8978 53.0889 29.2598C55.8232 28.599 58.9906 28.2686 62.5908 28.2686C66.0088 28.2686 69.028 28.5078 71.6484 28.9863C74.2689 29.4421 76.4678 30.0915 78.2451 30.9346C80.0225 31.7777 81.3669 32.7917 82.2783 33.9766C83.1898 35.1387 83.6455 36.4261 83.6455 37.8389C83.6455 38.9554 83.4062 39.9466 82.9277 40.8125C82.4492 41.6784 81.777 42.4189 80.9111 43.0342C80.0452 43.6266 79.0085 44.0824 77.8008 44.4014C76.5931 44.6976 75.2601 44.8457 73.8018 44.8457C72.3434 44.8457 70.9876 44.6976 69.7344 44.4014C68.5039 44.0824 67.4329 43.6266 66.5215 43.0342C65.61 42.4189 64.8923 41.6784 64.3682 40.8125C63.8669 39.9466 63.6162 38.9554 63.6162 37.8389C63.6162 36.016 64.2542 34.569 65.5303 33.498C66.8291 32.4043 68.652 31.6865 70.999 31.3447C70.4294 31.2308 69.8027 31.151 69.1191 31.1055C68.4355 31.0371 67.7975 31.0029 67.2051 31.0029C65.1087 31.0029 63.4225 31.2992 62.1465 31.8916C60.8704 32.484 59.8792 33.498 59.1729 34.9336C58.4665 36.3691 57.988 38.2832 57.7373 40.6758C57.5094 43.0456 57.3727 46.0192 57.3271 49.5967C58.1475 49.2549 59.0361 48.9245 59.9932 48.6055C60.973 48.2637 61.9984 47.9674 63.0693 47.7168C64.1403 47.4434 65.2227 47.2383 66.3164 47.1016C67.4329 46.9421 68.5381 46.8623 69.6318 46.8623C72.1156 46.8623 74.3714 47.2269 76.3994 47.9561C78.4274 48.6624 80.1592 49.6536 81.5947 50.9297C83.0303 52.2057 84.1354 53.7438 84.9102 55.5439C85.7077 57.3213 86.1064 59.2695 86.1064 61.3887C86.1064 62.7786 85.9469 64.1914 85.6279 65.627C85.3089 67.0625 84.7848 68.4411 84.0557 69.7627C83.3493 71.0843 82.4036 72.3262 81.2188 73.4883C80.0339 74.6504 78.5755 75.6644 76.8438 76.5303C75.1348 77.3734 73.1182 78.0456 70.7939 78.5469C68.4697 79.0482 65.8037 79.2988 62.7959 79.2988C59.3551 79.2988 56.2904 79.0368 53.6016 78.5127C50.9355 77.9886 48.5999 77.2367 46.5947 76.2568C44.5895 75.277 42.8919 74.0807 41.502 72.668C40.1348 71.2552 39.0182 69.6602 38.1523 67.8828C37.2865 66.0827 36.6598 64.1117 36.2725 61.9697C35.9079 59.8278 35.7256 57.5492 35.7256 55.1338ZM62.1123 76.6328C62.7731 76.6328 63.4339 76.4847 64.0947 76.1885C64.7555 75.8923 65.3366 75.3454 65.8379 74.5479C66.362 73.7275 66.7835 72.6224 67.1025 71.2324C67.4215 69.8197 67.5811 67.9967 67.5811 65.7637C67.5811 63.599 67.4557 61.7191 67.2051 60.124C66.9772 58.529 66.5898 57.2074 66.043 56.1592C65.4961 55.0882 64.7783 54.2907 63.8896 53.7666C63.001 53.2425 61.9072 52.9805 60.6084 52.9805C59.583 52.9805 58.4779 53.1286 57.293 53.4248V54.1084C57.293 57.7998 57.3271 61.0469 57.3955 63.8496C57.4639 66.6523 57.6576 68.9993 57.9766 70.8906C58.2956 72.7819 58.7741 74.2174 59.4121 75.1973C60.0729 76.1543 60.973 76.6328 62.1123 76.6328Z" fill="white" fill-opacity="0.02"/>
</g>
<defs>
<clipPath id="clip0_28_32">
<rect width="100" height="100" fill="white"/>
</clipPath>
</defs>
</svg>
