<svg width="100" height="100" viewBox="0 0 100 100" fill="none" xmlns="http://www.w3.org/2000/svg">
<g clip-path="url(#clip0_28_32)">
<path d="M-14.8066 -0.599609C-14.8066 -2.68945 -14.6699 -4.71094 -14.3965 -6.66406C-14.1035 -8.61719 -13.625 -10.4434 -12.9609 -12.1426C-12.2773 -13.8613 -11.3691 -15.4238 -10.2363 -16.8301C-9.10352 -18.2363 -7.6875 -19.4375 -5.98828 -20.4336C-4.28906 -21.4492 -2.26758 -22.2305 0.0761719 -22.7773C2.41992 -23.3438 5.13477 -23.627 8.2207 -23.627C11.1504 -23.627 13.7383 -23.4219 15.9844 -23.0117C18.2305 -22.6211 20.1152 -22.0645 21.6387 -21.3418C23.1621 -20.6191 24.3145 -19.75 25.0957 -18.7344C25.877 -17.7383 26.2676 -16.6348 26.2676 -15.4238C26.2676 -14.4668 26.0625 -13.6172 25.6523 -12.875C25.2422 -12.1328 24.666 -11.498 23.9238 -10.9707C23.1816 -10.4629 22.293 -10.0723 21.2578 -9.79883C20.2227 -9.54492 19.0801 -9.41797 17.8301 -9.41797C16.5801 -9.41797 15.418 -9.54492 14.3438 -9.79883C13.2891 -10.0723 12.3711 -10.4629 11.5898 -10.9707C10.8086 -11.498 10.1934 -12.1328 9.74414 -12.875C9.31445 -13.6172 9.09961 -14.4668 9.09961 -15.4238C9.09961 -16.9863 9.64648 -18.2266 10.7402 -19.1445C11.8535 -20.082 13.416 -20.6973 15.4277 -20.9902C14.9395 -21.0879 14.4023 -21.1563 13.8164 -21.1953C13.2305 -21.2539 12.6836 -21.2832 12.1758 -21.2832C10.3789 -21.2832 8.93359 -21.0293 7.83984 -20.5215C6.74609 -20.0137 5.89648 -19.1445 5.29102 -17.9141C4.68555 -16.6836 4.27539 -15.043 4.06055 -12.9922C3.86523 -10.9609 3.74805 -8.41211 3.70898 -5.3457C4.41211 -5.63867 5.17383 -5.92188 5.99414 -6.19531C6.83398 -6.48828 7.71289 -6.74219 8.63086 -6.95703C9.54883 -7.19141 10.4766 -7.36719 11.4141 -7.48438C12.3711 -7.62109 13.3184 -7.68945 14.2559 -7.68945C16.3848 -7.68945 18.3184 -7.37695 20.0566 -6.75195C21.7949 -6.14648 23.2793 -5.29688 24.5098 -4.20312C25.7402 -3.10938 26.6875 -1.79102 27.3516 -0.248047C28.0352 1.27539 28.377 2.94531 28.377 4.76172C28.377 5.95312 28.2402 7.16406 27.9668 8.39453C27.6934 9.625 27.2441 10.8066 26.6191 11.9395C26.0137 13.0723 25.2031 14.1367 24.1875 15.1328C23.1719 16.1289 21.9219 16.998 20.4375 17.7402C18.9727 18.4629 17.2441 19.0391 15.252 19.4688C13.2598 19.8984 10.9746 20.1133 8.39648 20.1133C5.44727 20.1133 2.82031 19.8887 0.515625 19.4395C-1.76953 18.9902 -3.77148 18.3457 -5.49023 17.5059C-7.20898 16.666 -8.66406 15.6406 -9.85547 14.4297C-11.0273 13.2188 -11.9844 11.8516 -12.7266 10.3281C-13.4688 8.78516 -14.0059 7.0957 -14.3379 5.25977C-14.6504 3.42383 -14.8066 1.4707 -14.8066 -0.599609ZM7.81055 17.8281C8.37695 17.8281 8.94336 17.7012 9.50977 17.4473C10.0762 17.1934 10.5742 16.7246 11.0039 16.041C11.4531 15.3379 11.8145 14.3906 12.0879 13.1992C12.3613 11.9883 12.498 10.4258 12.498 8.51172C12.498 6.65625 12.3906 5.04492 12.1758 3.67773C11.9805 2.31055 11.6484 1.17773 11.1797 0.279297C10.7109 -0.638672 10.0957 -1.32227 9.33398 -1.77148C8.57227 -2.2207 7.63477 -2.44531 6.52148 -2.44531C5.64258 -2.44531 4.69531 -2.31836 3.67969 -2.06445V-1.47852C3.67969 1.68555 3.70898 4.46875 3.76758 6.87109C3.82617 9.27344 3.99219 11.2852 4.26562 12.9062C4.53906 14.5273 4.94922 15.7578 5.49609 16.5977C6.0625 17.418 6.83398 17.8281 7.81055 17.8281Z" fill="white" fill-opacity="0.05"/>
<path d="M85.1934 -0.599609C85.1934 -2.68945 85.3301 -4.71094 85.6035 -6.66406C85.8965 -8.61719 86.375 -10.4434 87.0391 -12.1426C87.7227 -13.8613 88.6309 -15.4238 89.7637 -16.8301C90.8965 -18.2363 92.3125 -19.4375 94.0117 -20.4336C95.7109 -21.4492 97.7324 -22.2305 100.076 -22.7773C102.42 -23.3438 105.135 -23.627 108.221 -23.627C111.15 -23.627 113.738 -23.4219 115.984 -23.0117C118.23 -22.6211 120.115 -22.0645 121.639 -21.3418C123.162 -20.6191 124.314 -19.75 125.096 -18.7344C125.877 -17.7383 126.268 -16.6348 126.268 -15.4238C126.268 -14.4668 126.062 -13.6172 125.652 -12.875C125.242 -12.1328 124.666 -11.498 123.924 -10.9707C123.182 -10.4629 122.293 -10.0723 121.258 -9.79883C120.223 -9.54492 119.08 -9.41797 117.83 -9.41797C116.58 -9.41797 115.418 -9.54492 114.344 -9.79883C113.289 -10.0723 112.371 -10.4629 111.59 -10.9707C110.809 -11.498 110.193 -12.1328 109.744 -12.875C109.314 -13.6172 109.1 -14.4668 109.1 -15.4238C109.1 -16.9863 109.646 -18.2266 110.74 -19.1445C111.854 -20.082 113.416 -20.6973 115.428 -20.9902C114.939 -21.0879 114.402 -21.1563 113.816 -21.1953C113.23 -21.2539 112.684 -21.2832 112.176 -21.2832C110.379 -21.2832 108.934 -21.0293 107.84 -20.5215C106.746 -20.0137 105.896 -19.1445 105.291 -17.9141C104.686 -16.6836 104.275 -15.043 104.061 -12.9922C103.865 -10.9609 103.748 -8.41211 103.709 -5.3457C104.412 -5.63867 105.174 -5.92188 105.994 -6.19531C106.834 -6.48828 107.713 -6.74219 108.631 -6.95703C109.549 -7.19141 110.477 -7.36719 111.414 -7.48438C112.371 -7.62109 113.318 -7.68945 114.256 -7.68945C116.385 -7.68945 118.318 -7.37695 120.057 -6.75195C121.795 -6.14648 123.279 -5.29688 124.51 -4.20312C125.74 -3.10938 126.688 -1.79102 127.352 -0.248047C128.035 1.27539 128.377 2.94531 128.377 4.76172C128.377 5.95312 128.24 7.16406 127.967 8.39453C127.693 9.625 127.244 10.8066 126.619 11.9395C126.014 13.0723 125.203 14.1367 124.188 15.1328C123.172 16.1289 121.922 16.998 120.438 17.7402C118.973 18.4629 117.244 19.0391 115.252 19.4688C113.26 19.8984 110.975 20.1133 108.396 20.1133C105.447 20.1133 102.82 19.8887 100.516 19.4395C98.2305 18.9902 96.2285 18.3457 94.5098 17.5059C92.791 16.666 91.3359 15.6406 90.1445 14.4297C88.9727 13.2188 88.0156 11.8516 87.2734 10.3281C86.5312 8.78516 85.9941 7.0957 85.6621 5.25977C85.3496 3.42383 85.1934 1.4707 85.1934 -0.599609ZM107.811 17.8281C108.377 17.8281 108.943 17.7012 109.51 17.4473C110.076 17.1934 110.574 16.7246 111.004 16.041C111.453 15.3379 111.814 14.3906 112.088 13.1992C112.361 11.9883 112.498 10.4258 112.498 8.51172C112.498 6.65625 112.391 5.04492 112.176 3.67773C111.98 2.31055 111.648 1.17773 111.18 0.279297C110.711 -0.638672 110.096 -1.32227 109.334 -1.77148C108.572 -2.2207 107.635 -2.44531 106.521 -2.44531C105.643 -2.44531 104.695 -2.31836 103.68 -2.06445V-1.47852C103.68 1.68555 103.709 4.46875 103.768 6.87109C103.826 9.27344 103.992 11.2852 104.266 12.9062C104.539 14.5273 104.949 15.7578 105.496 16.5977C106.062 17.418 106.834 17.8281 107.811 17.8281Z" fill="white" fill-opacity="0.05"/>
<path d="M85.1934 99.4004C85.1934 97.3105 85.3301 95.2891 85.6035 93.3359C85.8965 91.3828 86.375 89.5566 87.0391 87.8574C87.7227 86.1387 88.6309 84.5762 89.7637 83.1699C90.8965 81.7637 92.3125 80.5625 94.0117 79.5664C95.7109 78.5508 97.7324 77.7695 100.076 77.2227C102.42 76.6562 105.135 76.373 108.221 76.373C111.15 76.373 113.738 76.5781 115.984 76.9883C118.23 77.3789 120.115 77.9355 121.639 78.6582C123.162 79.3809 124.314 80.25 125.096 81.2656C125.877 82.2617 126.268 83.3652 126.268 84.5762C126.268 85.5332 126.062 86.3828 125.652 87.125C125.242 87.8672 124.666 88.502 123.924 89.0293C123.182 89.5371 122.293 89.9277 121.258 90.2012C120.223 90.4551 119.08 90.582 117.83 90.582C116.58 90.582 115.418 90.4551 114.344 90.2012C113.289 89.9277 112.371 89.5371 111.59 89.0293C110.809 88.502 110.193 87.8672 109.744 87.125C109.314 86.3828 109.1 85.5332 109.1 84.5762C109.1 83.0137 109.646 81.7734 110.74 80.8555C111.854 79.918 113.416 79.3027 115.428 79.0098C114.939 78.9121 114.402 78.8438 113.816 78.8047C113.23 78.7461 112.684 78.7168 112.176 78.7168C110.379 78.7168 108.934 78.9707 107.84 79.4785C106.746 79.9863 105.896 80.8555 105.291 82.0859C104.686 83.3164 104.275 84.957 104.061 87.0078C103.865 89.0391 103.748 91.5879 103.709 94.6543C104.412 94.3613 105.174 94.0781 105.994 93.8047C106.834 93.5117 107.713 93.2578 108.631 93.043C109.549 92.8086 110.477 92.6328 111.414 92.5156C112.371 92.3789 113.318 92.3105 114.256 92.3105C116.385 92.3105 118.318 92.623 120.057 93.248C121.795 93.8535 123.279 94.7031 124.51 95.7969C125.74 96.8906 126.688 98.209 127.352 99.752C128.035 101.275 128.377 102.945 128.377 104.762C128.377 105.953 128.24 107.164 127.967 108.395C127.693 109.625 127.244 110.807 126.619 111.939C126.014 113.072 125.203 114.137 124.188 115.133C123.172 116.129 121.922 116.998 120.438 117.74C118.973 118.463 117.244 119.039 115.252 119.469C113.26 119.898 110.975 120.113 108.396 120.113C105.447 120.113 102.82 119.889 100.516 119.439C98.2305 118.99 96.2285 118.346 94.5098 117.506C92.791 116.666 91.3359 115.641 90.1445 114.43C88.9727 113.219 88.0156 111.852 87.2734 110.328C86.5312 108.785 85.9941 107.096 85.6621 105.26C85.3496 103.424 85.1934 101.471 85.1934 99.4004ZM107.811 117.828C108.377 117.828 108.943 117.701 109.51 117.447C110.076 117.193 110.574 116.725 111.004 116.041C111.453 115.338 111.814 114.391 112.088 113.199C112.361 111.988 112.498 110.426 112.498 108.512C112.498 106.656 112.391 105.045 112.176 103.678C111.98 102.311 111.648 101.178 111.18 100.279C110.711 99.3613 110.096 98.6777 109.334 98.2285C108.572 97.7793 107.635 97.5547 106.521 97.5547C105.643 97.5547 104.695 97.6816 103.68 97.9355V98.5215C103.68 101.686 103.709 104.469 103.768 106.871C103.826 109.273 103.992 111.285 104.266 112.906C104.539 114.527 104.949 115.758 105.496 116.598C106.062 117.418 106.834 117.828 107.811 117.828Z" fill="white" fill-opacity="0.05"/>
<path d="M-14.8066 99.4004C-14.8066 97.3105 -14.6699 95.2891 -14.3965 93.3359C-14.1035 91.3828 -13.625 89.5566 -12.9609 87.8574C-12.2773 86.1387 -11.3691 84.5762 -10.2363 83.1699C-9.10352 81.7637 -7.6875 80.5625 -5.98828 79.5664C-4.28906 78.5508 -2.26758 77.7695 0.0761719 77.2227C2.41992 76.6562 5.13477 76.373 8.2207 76.373C11.1504 76.373 13.7383 76.5781 15.9844 76.9883C18.2305 77.3789 20.1152 77.9355 21.6387 78.6582C23.1621 79.3809 24.3145 80.25 25.0957 81.2656C25.877 82.2617 26.2676 83.3652 26.2676 84.5762C26.2676 85.5332 26.0625 86.3828 25.6523 87.125C25.2422 87.8672 24.666 88.502 23.9238 89.0293C23.1816 89.5371 22.293 89.9277 21.2578 90.2012C20.2227 90.4551 19.0801 90.582 17.8301 90.582C16.5801 90.582 15.418 90.4551 14.3438 90.2012C13.2891 89.9277 12.3711 89.5371 11.5898 89.0293C10.8086 88.502 10.1934 87.8672 9.74414 87.125C9.31445 86.3828 9.09961 85.5332 9.09961 84.5762C9.09961 83.0137 9.64648 81.7734 10.7402 80.8555C11.8535 79.918 13.416 79.3027 15.4277 79.0098C14.9395 78.9121 14.4023 78.8438 13.8164 78.8047C13.2305 78.7461 12.6836 78.7168 12.1758 78.7168C10.3789 78.7168 8.93359 78.9707 7.83984 79.4785C6.74609 79.9863 5.89648 80.8555 5.29102 82.0859C4.68555 83.3164 4.27539 84.957 4.06055 87.0078C3.86523 89.0391 3.74805 91.5879 3.70898 94.6543C4.41211 94.3613 5.17383 94.0781 5.99414 93.8047C6.83398 93.5117 7.71289 93.2578 8.63086 93.043C9.54883 92.8086 10.4766 92.6328 11.4141 92.5156C12.3711 92.3789 13.3184 92.3105 14.2559 92.3105C16.3848 92.3105 18.3184 92.623 20.0566 93.248C21.7949 93.8535 23.2793 94.7031 24.5098 95.7969C25.7402 96.8906 26.6875 98.209 27.3516 99.752C28.0352 101.275 28.377 102.945 28.377 104.762C28.377 105.953 28.2402 107.164 27.9668 108.395C27.6934 109.625 27.2441 110.807 26.6191 111.939C26.0137 113.072 25.2031 114.137 24.1875 115.133C23.1719 116.129 21.9219 116.998 20.4375 117.74C18.9727 118.463 17.2441 119.039 15.252 119.469C13.2598 119.898 10.9746 120.113 8.39648 120.113C5.44727 120.113 2.82031 119.889 0.515625 119.439C-1.76953 118.99 -3.77148 118.346 -5.49023 117.506C-7.20898 116.666 -8.66406 115.641 -9.85547 114.43C-11.0273 113.219 -11.9844 111.852 -12.7266 110.328C-13.4688 108.785 -14.0059 107.096 -14.3379 105.26C-14.6504 103.424 -14.8066 101.471 -14.8066 99.4004ZM7.81055 117.828C8.37695 117.828 8.94336 117.701 9.50977 117.447C10.0762 117.193 10.5742 116.725 11.0039 116.041C11.4531 115.338 11.8145 114.391 12.0879 113.199C12.3613 111.988 12.498 110.426 12.498 108.512C12.498 106.656 12.3906 105.045 12.1758 103.678C11.9805 102.311 11.6484 101.178 11.1797 100.279C10.7109 99.3613 10.0957 98.6777 9.33398 98.2285C8.57227 97.7793 7.63477 97.5547 6.52148 97.5547C5.64258 97.5547 4.69531 97.6816 3.67969 97.9355V98.5215C3.67969 101.686 3.70898 104.469 3.76758 106.871C3.82617 109.273 3.99219 111.285 4.26562 112.906C4.53906 114.527 4.94922 115.758 5.49609 116.598C6.0625 117.418 6.83398 117.828 7.81055 117.828Z" fill="white" fill-opacity="0.05"/>
<path d="M35.1934 49.4004C35.1934 47.3105 35.3301 45.2891 35.6035 43.3359C35.8965 41.3828 36.375 39.5566 37.0391 37.8574C37.7227 36.1387 38.6309 34.5762 39.7637 33.1699C40.8965 31.7637 42.3125 30.5625 44.0117 29.5664C45.7109 28.5508 47.7324 27.7695 50.0762 27.2227C52.4199 26.6562 55.1348 26.373 58.2207 26.373C61.1504 26.373 63.7383 26.5781 65.9844 26.9883C68.2305 27.3789 70.1152 27.9355 71.6387 28.6582C73.1621 29.3809 74.3145 30.25 75.0957 31.2656C75.877 32.2617 76.2676 33.3652 76.2676 34.5762C76.2676 35.5332 76.0625 36.3828 75.6523 37.125C75.2422 37.8672 74.666 38.502 73.9238 39.0293C73.1816 39.5371 72.293 39.9277 71.2578 40.2012C70.2227 40.4551 69.0801 40.582 67.8301 40.582C66.5801 40.582 65.418 40.4551 64.3438 40.2012C63.2891 39.9277 62.3711 39.5371 61.5898 39.0293C60.8086 38.502 60.1934 37.8672 59.7441 37.125C59.3145 36.3828 59.0996 35.5332 59.0996 34.5762C59.0996 33.0137 59.6465 31.7734 60.7402 30.8555C61.8535 29.918 63.416 29.3027 65.4277 29.0098C64.9395 28.9121 64.4023 28.8437 63.8164 28.8047C63.2305 28.7461 62.6836 28.7168 62.1758 28.7168C60.3789 28.7168 58.9336 28.9707 57.8398 29.4785C56.7461 29.9863 55.8965 30.8555 55.291 32.0859C54.6855 33.3164 54.2754 34.957 54.0605 37.0078C53.8652 39.0391 53.748 41.5879 53.709 44.6543C54.4121 44.3613 55.1738 44.0781 55.9941 43.8047C56.834 43.5117 57.7129 43.2578 58.6309 43.043C59.5488 42.8086 60.4766 42.6328 61.4141 42.5156C62.3711 42.3789 63.3184 42.3105 64.2559 42.3105C66.3848 42.3105 68.3184 42.623 70.0566 43.248C71.7949 43.8535 73.2793 44.7031 74.5098 45.7969C75.7402 46.8906 76.6875 48.209 77.3516 49.752C78.0352 51.2754 78.377 52.9453 78.377 54.7617C78.377 55.9531 78.2402 57.1641 77.9668 58.3945C77.6934 59.625 77.2441 60.8066 76.6191 61.9395C76.0137 63.0723 75.2031 64.1367 74.1875 65.1328C73.1719 66.1289 71.9219 66.998 70.4375 67.7402C68.9727 68.4629 67.2441 69.0391 65.252 69.4688C63.2598 69.8984 60.9746 70.1133 58.3965 70.1133C55.4473 70.1133 52.8203 69.8887 50.5156 69.4395C48.2305 68.9902 46.2285 68.3457 44.5098 67.5059C42.791 66.666 41.3359 65.6406 40.1445 64.4297C38.9727 63.2188 38.0156 61.8516 37.2734 60.3281C36.5312 58.7852 35.9941 57.0957 35.6621 55.2598C35.3496 53.4238 35.1934 51.4707 35.1934 49.4004ZM57.8105 67.8281C58.377 67.8281 58.9434 67.7012 59.5098 67.4473C60.0762 67.1934 60.5742 66.7246 61.0039 66.041C61.4531 65.3379 61.8145 64.3906 62.0879 63.1992C62.3613 61.9883 62.498 60.4258 62.498 58.5117C62.498 56.6562 62.3906 55.0449 62.1758 53.6777C61.9805 52.3105 61.6484 51.1777 61.1797 50.2793C60.7109 49.3613 60.0957 48.6777 59.334 48.2285C58.5723 47.7793 57.6348 47.5547 56.5215 47.5547C55.6426 47.5547 54.6953 47.6816 53.6797 47.9355V48.5215C53.6797 51.6855 53.709 54.4688 53.7676 56.8711C53.8262 59.2734 53.9922 61.2852 54.2656 62.9062C54.5391 64.5273 54.9492 65.7578 55.4961 66.5977C56.0625 67.418 56.834 67.8281 57.8105 67.8281Z" fill="white" fill-opacity="0.05"/>
</g>
<defs>
<clipPath id="clip0_28_32">
<rect width="100" height="100" fill="white"/>
</clipPath>
</defs>
</svg>
