<svg width="172" height="171" viewBox="0 0 172 171" fill="none" xmlns="http://www.w3.org/2000/svg">
<path d="M11.3079 68.4039C10.8825 67.9785 10.598 67.5338 10.4544 67.0698C10.3052 66.6002 10.2721 66.1141 10.3549 65.6114C10.4323 65.1031 10.6118 64.5811 10.8936 64.0452C11.1698 63.5038 11.5206 62.9487 11.9459 62.3797C12.3768 61.8051 12.8685 61.2196 13.4209 60.6229C13.9678 60.0208 14.5506 59.4104 15.1693 58.7916L14.7053 58.3276C13.9982 57.6205 13.3822 57.104 12.8574 56.778C12.3382 56.4466 11.8658 56.267 11.4405 56.2394C11.0206 56.2063 10.6339 56.3002 10.2804 56.5212C9.92129 56.7366 9.55116 57.0349 9.16999 57.4161C8.96559 57.6205 8.76395 57.8553 8.56508 58.1204C8.37173 58.3801 8.20876 58.6204 8.07618 58.8414C8.35792 58.6149 8.65623 58.4436 8.97111 58.3276C9.286 58.2116 9.59536 58.1508 9.89919 58.1453C10.203 58.1398 10.4875 58.1867 10.7527 58.2862C11.0234 58.3801 11.2526 58.5209 11.4405 58.7088C11.6725 58.9408 11.8327 59.217 11.9211 59.5374C12.0095 59.8578 12.0288 60.1976 11.9791 60.5566C11.9238 60.9102 11.8051 61.2665 11.6228 61.6256C11.4405 61.9847 11.1946 62.3189 10.8853 62.6282C10.5759 62.9376 10.2417 63.1834 9.88262 63.3657C9.52906 63.5425 9.17551 63.6585 8.82196 63.7138C8.4684 63.758 8.13142 63.7359 7.81102 63.6475C7.49061 63.5591 7.21439 63.3989 6.98238 63.1669C6.67302 62.8575 6.4769 62.4957 6.39404 62.0813C6.3167 61.6615 6.32775 61.214 6.42719 60.7389C6.52662 60.2528 6.7034 59.7446 6.95752 59.2142C7.21716 58.6784 7.52928 58.1398 7.89388 57.5984C8.25848 57.057 8.66452 56.5239 9.11198 55.9991C9.55945 55.4633 10.0262 54.9523 10.5124 54.4661C11.3742 53.6043 12.1835 52.9166 12.9403 52.4028C13.6971 51.878 14.4374 51.5576 15.1611 51.4416C15.8847 51.3145 16.6139 51.4084 17.3487 51.7233C18.0779 52.0327 18.843 52.5879 19.644 53.3889L23.116 56.8609C23.5303 57.2752 23.8922 57.5542 24.2015 57.6978C24.5109 57.8304 24.7816 57.7807 25.0136 57.5487C25.1296 57.4327 25.1876 57.3028 25.1876 57.1592C25.1876 57.0045 25.1462 56.8471 25.0633 56.6869C24.986 56.5212 24.8755 56.3499 24.7319 56.1731C24.5882 55.9964 24.4335 55.8251 24.2678 55.6594L23.4475 54.839L24.185 54.1015L25.0053 54.9219C25.4473 55.3638 25.7621 55.7947 25.95 56.2146C26.1433 56.6289 26.193 57.0708 26.0991 57.5404C26.0107 58.0044 25.7704 58.5099 25.3782 59.0568C24.997 59.6037 24.4529 60.2307 23.7458 60.9378C23.3867 61.2969 23.0304 61.6145 22.6768 61.8908C22.3288 62.1614 21.978 62.3797 21.6245 62.5454C21.2764 62.7056 20.9312 62.8023 20.5887 62.8354C20.2462 62.8686 19.9036 62.8244 19.5611 62.7028C19.6495 63.1227 19.6357 63.5508 19.5197 63.9872C19.3982 64.4181 19.2214 64.838 18.9894 65.2467C18.7574 65.6555 18.4922 66.0367 18.1939 66.3903C17.9011 66.7494 17.6194 67.0642 17.3487 67.3349C16.7023 67.9813 16.0836 68.4619 15.4925 68.7768C14.9069 69.0972 14.36 69.285 13.8518 69.3402C13.3436 69.3955 12.8768 69.3375 12.4514 69.1662C12.0205 68.9894 11.6393 68.7353 11.3079 68.4039ZM15.998 63.5315C16.4068 63.9403 16.8128 64.1971 17.2161 64.3021C17.6138 64.4015 17.984 64.28 18.3265 63.9375C18.6137 63.6502 18.7491 63.3105 18.7325 62.9183C18.7104 62.5205 18.5253 62.1476 18.1773 61.7996L15.9317 59.554C15.5339 59.9517 15.2439 60.3136 15.0616 60.6395C14.8793 60.9654 14.7937 61.2831 14.8047 61.5924C14.8158 61.8908 14.9235 62.1974 15.1279 62.5122C15.3378 62.8216 15.6279 63.1613 15.998 63.5315ZM27.7233 55.1373L29.1734 53.6872L17.8376 42.3514L16.3874 43.8015L15.7908 43.2049L22.1714 36.8244L34.1038 48.7568L35.5539 47.3067L36.1505 47.9033L28.3199 55.734L27.7233 55.1373ZM36.656 46.2046L38.1061 44.7545L26.7703 33.4187L25.3202 34.8688L24.7236 34.2722L31.1041 27.8916L43.0365 39.8241L44.4867 38.3739L45.0833 38.9706L37.2526 46.8012L36.656 46.2046ZM41.5616 33.0955C40.8213 32.3552 40.3048 31.5349 40.012 30.6344C39.7192 29.734 39.6308 28.8059 39.7468 27.8502C39.8684 26.889 40.1832 25.9277 40.6915 24.9665C41.2052 23.9998 41.893 23.0855 42.7548 22.2237C43.4177 21.5608 44.0834 21.0277 44.7518 20.6244C45.4258 20.2156 46.0859 19.9201 46.7323 19.7378C47.3786 19.5444 48.0084 19.4561 48.6216 19.4726C49.2403 19.4837 49.8286 19.5748 50.3866 19.7461C50.9501 19.9118 51.4804 20.1494 51.9776 20.4587C52.4692 20.7626 52.9167 21.1161 53.32 21.5194L46.6743 28.1651C47.5195 29.0103 48.2432 29.6622 48.8453 30.1207C49.453 30.5737 49.9888 30.872 50.4529 31.0156C50.9169 31.1482 51.3312 31.1427 51.6958 30.999C52.066 30.8499 52.4333 30.593 52.7979 30.2284C53.262 29.7644 53.6404 29.2699 53.9332 28.7451C54.2259 28.2203 54.4276 27.6928 54.5381 27.1624C54.6486 26.621 54.6624 26.0935 54.5795 25.5797C54.4911 25.0604 54.2978 24.5743 53.9995 24.1213L54.7784 23.3424C55.2369 23.9114 55.5407 24.5301 55.6899 25.1985C55.8335 25.8615 55.8307 26.5492 55.6816 27.2619C55.538 27.969 55.2507 28.6871 54.8198 29.4163C54.3944 30.14 53.8392 30.8443 53.1542 31.5294C52.077 32.6066 51.0163 33.4463 49.9723 34.0484C48.9282 34.6395 47.9172 34.9986 46.9394 35.1257C45.9561 35.2472 45.0142 35.1395 44.1138 34.8025C43.2078 34.46 42.357 33.891 41.5616 33.0955ZM48.1658 24.9997C47.4587 24.3257 46.851 23.7843 46.3428 23.3755C45.8346 22.9667 45.3954 22.6712 45.0253 22.4889C44.6551 22.3066 44.3458 22.2292 44.0972 22.2569C43.8431 22.279 43.6193 22.3867 43.426 22.58C43.2326 22.7734 43.1222 22.9999 43.0945 23.2595C43.0669 23.5081 43.1443 23.8175 43.3266 24.1876C43.5089 24.5577 43.8044 24.9969 44.2132 25.5051C44.622 26.0134 45.1661 26.6183 45.8456 27.3199L48.1658 24.9997ZM56.0876 20.7405L56.7008 20.1273C57.3582 20.3096 58.0902 20.3841 58.8967 20.351C59.6977 20.3123 60.5098 20.1797 61.3329 19.9532C62.156 19.7157 62.9515 19.3898 63.7194 18.9754C64.4873 18.5611 65.164 18.0612 65.7496 17.4756C65.9926 17.2325 66.2164 16.9867 66.4208 16.7381C66.6196 16.484 66.7716 16.2382 66.8765 16.0006C66.976 15.7576 67.0174 15.5283 67.0008 15.3129C66.9898 15.0919 66.8931 14.8903 66.7108 14.7079C66.523 14.5201 66.2827 14.4511 65.9899 14.5008C65.6971 14.5395 65.3656 14.661 64.9955 14.8654C64.6254 15.0698 64.2249 15.3322 63.794 15.6526C63.3686 15.9675 62.9267 16.2989 62.4682 16.647C61.645 17.2823 60.8385 17.8402 60.0485 18.3208C59.2586 18.8014 58.4934 19.1412 57.7532 19.3401C57.0129 19.5389 56.3003 19.5665 55.6153 19.4229C54.9358 19.2738 54.2895 18.8926 53.6763 18.2794C53.1128 17.7159 52.7399 17.0944 52.5576 16.4149C52.3753 15.7244 52.3615 15.009 52.5162 14.2688C52.6653 13.523 52.9719 12.7689 53.436 12.0066C53.8945 11.2387 54.4856 10.4929 55.2093 9.76925C55.5518 9.42675 55.9302 9.11462 56.3445 8.83289C56.7643 8.54562 57.1925 8.29427 57.6289 8.07882C58.0653 7.85233 58.5017 7.6645 58.9382 7.51535C59.3746 7.35514 59.7834 7.22809 60.1645 7.13417L60.2143 4.96313L60.902 4.27536L64.1669 7.54021L63.5785 8.12854C62.9709 7.97386 62.3301 7.90757 61.6561 7.92967C60.9877 7.94624 60.3165 8.05396 59.6425 8.25284C58.9685 8.45171 58.3111 8.73897 57.6703 9.11462C57.024 9.48475 56.4246 9.94603 55.8722 10.4985C55.6015 10.7691 55.3667 11.0315 55.1678 11.2857C54.969 11.5398 54.817 11.7801 54.7121 12.0066C54.6071 12.2331 54.5574 12.443 54.5629 12.6363C54.574 12.8242 54.6486 12.9871 54.7867 13.1252C54.9745 13.3131 55.1982 13.3987 55.4579 13.3821C55.7175 13.3656 56.0296 13.2689 56.3942 13.0921C56.7588 12.9043 57.1787 12.6446 57.6538 12.3132C58.1288 11.9817 58.6757 11.5895 59.2945 11.1365C60.0844 10.5675 60.8523 10.0703 61.5981 9.64495C62.3439 9.21959 63.0675 8.93232 63.7691 8.78317C64.4762 8.62849 65.164 8.6423 65.8324 8.8246C66.5064 9.00138 67.1666 9.41294 67.8129 10.0593C68.3377 10.5841 68.7106 11.1614 68.9316 11.7911C69.1525 12.4099 69.2105 13.0645 69.1056 13.755C69.0061 14.44 68.7437 15.1499 68.3184 15.8846C67.8985 16.6249 67.3129 17.3706 66.5616 18.1219C66.2081 18.4755 65.791 18.8208 65.3104 19.1578C64.8353 19.5003 64.3326 19.8096 63.8023 20.0858C63.2719 20.351 62.7361 20.572 62.1947 20.7487C61.6478 20.92 61.134 21.0139 60.6534 21.0305L60.5789 23.8561L59.8911 24.5439L56.0876 20.7405Z" fill="white" fill-opacity="0.1"/>
<path d="M11.3079 118.404C10.8825 117.979 10.598 117.534 10.4544 117.07C10.3052 116.6 10.2721 116.114 10.3549 115.611C10.4323 115.103 10.6118 114.581 10.8936 114.045C11.1698 113.504 11.5206 112.949 11.9459 112.38C12.3768 111.805 12.8685 111.22 13.4209 110.623C13.9678 110.021 14.5506 109.41 15.1693 108.792L14.7053 108.328C13.9982 107.62 13.3822 107.104 12.8574 106.778C12.3382 106.447 11.8658 106.267 11.4405 106.239C11.0206 106.206 10.6339 106.3 10.2804 106.521C9.92129 106.737 9.55116 107.035 9.16999 107.416C8.96559 107.62 8.76395 107.855 8.56508 108.12C8.37173 108.38 8.20876 108.62 8.07618 108.841C8.35792 108.615 8.65623 108.444 8.97111 108.328C9.286 108.212 9.59536 108.151 9.89919 108.145C10.203 108.14 10.4875 108.187 10.7527 108.286C11.0234 108.38 11.2526 108.521 11.4405 108.709C11.6725 108.941 11.8327 109.217 11.9211 109.537C12.0095 109.858 12.0288 110.198 11.9791 110.557C11.9238 110.91 11.8051 111.267 11.6228 111.626C11.4405 111.985 11.1946 112.319 10.8853 112.628C10.5759 112.938 10.2417 113.183 9.88262 113.366C9.52906 113.543 9.17551 113.659 8.82196 113.714C8.4684 113.758 8.13142 113.736 7.81102 113.647C7.49061 113.559 7.21439 113.399 6.98238 113.167C6.67302 112.858 6.4769 112.496 6.39404 112.081C6.3167 111.661 6.32775 111.214 6.42719 110.739C6.52662 110.253 6.7034 109.745 6.95752 109.214C7.21716 108.678 7.52928 108.14 7.89388 107.598C8.25848 107.057 8.66452 106.524 9.11198 105.999C9.55945 105.463 10.0262 104.952 10.5124 104.466C11.3742 103.604 12.1835 102.917 12.9403 102.403C13.6971 101.878 14.4374 101.558 15.1611 101.442C15.8847 101.315 16.6139 101.408 17.3487 101.723C18.0779 102.033 18.843 102.588 19.644 103.389L23.116 106.861C23.5303 107.275 23.8922 107.554 24.2015 107.698C24.5109 107.83 24.7816 107.781 25.0136 107.549C25.1296 107.433 25.1876 107.303 25.1876 107.159C25.1876 107.005 25.1462 106.847 25.0633 106.687C24.986 106.521 24.8755 106.35 24.7319 106.173C24.5882 105.996 24.4335 105.825 24.2678 105.659L23.4475 104.839L24.185 104.102L25.0053 104.922C25.4473 105.364 25.7621 105.795 25.95 106.215C26.1433 106.629 26.193 107.071 26.0991 107.54C26.0107 108.004 25.7704 108.51 25.3782 109.057C24.997 109.604 24.4529 110.231 23.7458 110.938C23.3867 111.297 23.0304 111.615 22.6768 111.891C22.3288 112.161 21.978 112.38 21.6245 112.545C21.2764 112.706 20.9312 112.802 20.5887 112.835C20.2462 112.869 19.9036 112.824 19.5611 112.703C19.6495 113.123 19.6357 113.551 19.5197 113.987C19.3982 114.418 19.2214 114.838 18.9894 115.247C18.7574 115.656 18.4922 116.037 18.1939 116.39C17.9011 116.749 17.6194 117.064 17.3487 117.335C16.7023 117.981 16.0836 118.462 15.4925 118.777C14.9069 119.097 14.36 119.285 13.8518 119.34C13.3436 119.395 12.8768 119.337 12.4514 119.166C12.0205 118.989 11.6393 118.735 11.3079 118.404ZM15.998 113.531C16.4068 113.94 16.8128 114.197 17.2161 114.302C17.6138 114.402 17.984 114.28 18.3265 113.937C18.6137 113.65 18.7491 113.31 18.7325 112.918C18.7104 112.521 18.5253 112.148 18.1773 111.8L15.9317 109.554C15.5339 109.952 15.2439 110.314 15.0616 110.64C14.8793 110.965 14.7937 111.283 14.8047 111.592C14.8158 111.891 14.9235 112.197 15.1279 112.512C15.3378 112.822 15.6279 113.161 15.998 113.531ZM27.7233 105.137L29.1734 103.687L17.8376 92.3514L16.3874 93.8015L15.7908 93.2049L22.1714 86.8244L34.1038 98.7568L35.5539 97.3067L36.1505 97.9033L28.3199 105.734L27.7233 105.137ZM36.656 96.2046L38.1061 94.7545L26.7703 83.4187L25.3202 84.8688L24.7236 84.2722L31.1041 77.8916L43.0365 89.8241L44.4867 88.3739L45.0833 88.9706L37.2526 96.8012L36.656 96.2046ZM41.5616 83.0955C40.8213 82.3552 40.3048 81.5349 40.012 80.6344C39.7192 79.734 39.6308 78.8059 39.7468 77.8502C39.8684 76.889 40.1832 75.9277 40.6915 74.9665C41.2052 73.9998 41.893 73.0855 42.7548 72.2237C43.4177 71.5608 44.0834 71.0277 44.7518 70.6244C45.4258 70.2156 46.0859 69.9201 46.7323 69.7378C47.3786 69.5444 48.0084 69.4561 48.6216 69.4726C49.2403 69.4837 49.8286 69.5748 50.3866 69.7461C50.9501 69.9118 51.4804 70.1494 51.9776 70.4587C52.4692 70.7626 52.9167 71.1161 53.32 71.5194L46.6743 78.1651C47.5195 79.0103 48.2432 79.6622 48.8453 80.1207C49.453 80.5737 49.9888 80.872 50.4529 81.0156C50.9169 81.1482 51.3312 81.1427 51.6958 80.999C52.066 80.8499 52.4333 80.593 52.7979 80.2284C53.262 79.7644 53.6404 79.2699 53.9332 78.7451C54.2259 78.2203 54.4276 77.6928 54.5381 77.1624C54.6486 76.621 54.6624 76.0935 54.5795 75.5797C54.4911 75.0604 54.2978 74.5743 53.9995 74.1213L54.7784 73.3424C55.2369 73.9114 55.5407 74.5301 55.6899 75.1985C55.8335 75.8615 55.8307 76.5492 55.6816 77.2619C55.538 77.969 55.2507 78.6871 54.8198 79.4163C54.3944 80.14 53.8392 80.8443 53.1542 81.5294C52.077 82.6066 51.0163 83.4463 49.9723 84.0484C48.9282 84.6395 47.9172 84.9986 46.9394 85.1257C45.9561 85.2472 45.0142 85.1395 44.1138 84.8025C43.2078 84.46 42.357 83.891 41.5616 83.0955ZM48.1658 74.9997C47.4587 74.3257 46.851 73.7843 46.3428 73.3755C45.8346 72.9667 45.3954 72.6712 45.0253 72.4889C44.6551 72.3066 44.3458 72.2292 44.0972 72.2569C43.8431 72.279 43.6193 72.3867 43.426 72.58C43.2326 72.7734 43.1222 72.9999 43.0945 73.2595C43.0669 73.5081 43.1443 73.8175 43.3266 74.1876C43.5089 74.5577 43.8044 74.9969 44.2132 75.5051C44.622 76.0134 45.1661 76.6183 45.8456 77.3199L48.1658 74.9997ZM56.0876 70.7405L56.7008 70.1273C57.3582 70.3096 58.0902 70.3841 58.8967 70.351C59.6977 70.3123 60.5098 70.1797 61.3329 69.9532C62.156 69.7157 62.9515 69.3898 63.7194 68.9754C64.4873 68.5611 65.164 68.0612 65.7496 67.4756C65.9926 67.2325 66.2164 66.9867 66.4208 66.7381C66.6196 66.484 66.7716 66.2382 66.8765 66.0006C66.976 65.7576 67.0174 65.5283 67.0008 65.3129C66.9898 65.0919 66.8931 64.8903 66.7108 64.7079C66.523 64.5201 66.2827 64.4511 65.9899 64.5008C65.6971 64.5395 65.3656 64.661 64.9955 64.8654C64.6254 65.0698 64.2249 65.3322 63.794 65.6526C63.3686 65.9675 62.9267 66.2989 62.4682 66.647C61.645 67.2823 60.8385 67.8402 60.0485 68.3208C59.2586 68.8014 58.4934 69.1412 57.7532 69.3401C57.0129 69.5389 56.3003 69.5665 55.6153 69.4229C54.9358 69.2738 54.2895 68.8926 53.6763 68.2794C53.1128 67.7159 52.7399 67.0944 52.5576 66.4149C52.3753 65.7244 52.3615 65.009 52.5162 64.2688C52.6653 63.523 52.9719 62.7689 53.436 62.0066C53.8945 61.2387 54.4856 60.4929 55.2093 59.7693C55.5518 59.4267 55.9302 59.1146 56.3445 58.8329C56.7643 58.5456 57.1925 58.2943 57.6289 58.0788C58.0653 57.8523 58.5017 57.6645 58.9382 57.5153C59.3746 57.3551 59.7834 57.2281 60.1645 57.1342L60.2143 54.9631L60.902 54.2754L64.1669 57.5402L63.5785 58.1285C62.9709 57.9739 62.3301 57.9076 61.6561 57.9297C60.9877 57.9462 60.3165 58.054 59.6425 58.2528C58.9685 58.4517 58.3111 58.739 57.6703 59.1146C57.024 59.4848 56.4246 59.946 55.8722 60.4985C55.6015 60.7691 55.3667 61.0315 55.1678 61.2857C54.969 61.5398 54.817 61.7801 54.7121 62.0066C54.6071 62.2331 54.5574 62.443 54.5629 62.6363C54.574 62.8242 54.6486 62.9871 54.7867 63.1252C54.9745 63.3131 55.1982 63.3987 55.4579 63.3821C55.7175 63.3656 56.0296 63.2689 56.3942 63.0921C56.7588 62.9043 57.1787 62.6446 57.6538 62.3132C58.1288 61.9817 58.6757 61.5895 59.2945 61.1365C60.0844 60.5675 60.8523 60.0703 61.5981 59.645C62.3439 59.2196 63.0675 58.9323 63.7691 58.7832C64.4762 58.6285 65.164 58.6423 65.8324 58.8246C66.5064 59.0014 67.1666 59.4129 67.8129 60.0593C68.3377 60.5841 68.7106 61.1614 68.9316 61.7911C69.1525 62.4099 69.2105 63.0645 69.1056 63.755C69.0061 64.44 68.7437 65.1499 68.3184 65.8846C67.8985 66.6249 67.3129 67.3706 66.5616 68.1219C66.2081 68.4755 65.791 68.8208 65.3104 69.1578C64.8353 69.5003 64.3326 69.8096 63.8023 70.0858C63.2719 70.351 62.7361 70.572 62.1947 70.7487C61.6478 70.92 61.134 71.0139 60.6534 71.0305L60.5789 73.8561L59.8911 74.5439L56.0876 70.7405Z" fill="white" fill-opacity="0.1"/>
<path d="M111.308 68.4039C110.883 67.9785 110.598 67.5338 110.454 67.0698C110.305 66.6002 110.272 66.1141 110.355 65.6114C110.432 65.1031 110.612 64.5811 110.894 64.0452C111.17 63.5038 111.521 62.9487 111.946 62.3797C112.377 61.8051 112.868 61.2196 113.421 60.6229C113.968 60.0208 114.551 59.4104 115.169 58.7916L114.705 58.3276C113.998 57.6205 113.382 57.104 112.857 56.778C112.338 56.4466 111.866 56.267 111.44 56.2394C111.021 56.2063 110.634 56.3002 110.28 56.5212C109.921 56.7366 109.551 57.0349 109.17 57.4161C108.966 57.6205 108.764 57.8553 108.565 58.1204C108.372 58.3801 108.209 58.6204 108.076 58.8414C108.358 58.6149 108.656 58.4436 108.971 58.3276C109.286 58.2116 109.595 58.1508 109.899 58.1453C110.203 58.1398 110.488 58.1867 110.753 58.2862C111.023 58.3801 111.253 58.5209 111.44 58.7088C111.672 58.9408 111.833 59.217 111.921 59.5374C112.009 59.8578 112.029 60.1976 111.979 60.5566C111.924 60.9102 111.805 61.2665 111.623 61.6256C111.44 61.9847 111.195 62.3189 110.885 62.6282C110.576 62.9376 110.242 63.1834 109.883 63.3657C109.529 63.5425 109.176 63.6585 108.822 63.7138C108.468 63.758 108.131 63.7359 107.811 63.6475C107.491 63.5591 107.214 63.3989 106.982 63.1669C106.673 62.8575 106.477 62.4957 106.394 62.0813C106.317 61.6615 106.328 61.214 106.427 60.7389C106.527 60.2528 106.703 59.7446 106.958 59.2142C107.217 58.6784 107.529 58.1398 107.894 57.5984C108.258 57.057 108.665 56.5239 109.112 55.9991C109.559 55.4633 110.026 54.9523 110.512 54.4661C111.374 53.6043 112.183 52.9166 112.94 52.4028C113.697 51.878 114.437 51.5576 115.161 51.4416C115.885 51.3145 116.614 51.4084 117.349 51.7233C118.078 52.0327 118.843 52.5879 119.644 53.3889L123.116 56.8609C123.53 57.2752 123.892 57.5542 124.202 57.6978C124.511 57.8304 124.782 57.7807 125.014 57.5487C125.13 57.4327 125.188 57.3028 125.188 57.1592C125.188 57.0045 125.146 56.8471 125.063 56.6869C124.986 56.5212 124.875 56.3499 124.732 56.1731C124.588 55.9964 124.434 55.8251 124.268 55.6594L123.447 54.839L124.185 54.1015L125.005 54.9219C125.447 55.3638 125.762 55.7947 125.95 56.2146C126.143 56.6289 126.193 57.0708 126.099 57.5404C126.011 58.0044 125.77 58.5099 125.378 59.0568C124.997 59.6037 124.453 60.2307 123.746 60.9378C123.387 61.2969 123.03 61.6145 122.677 61.8908C122.329 62.1614 121.978 62.3797 121.624 62.5454C121.276 62.7056 120.931 62.8023 120.589 62.8354C120.246 62.8686 119.904 62.8244 119.561 62.7028C119.65 63.1227 119.636 63.5508 119.52 63.9872C119.398 64.4181 119.221 64.838 118.989 65.2467C118.757 65.6555 118.492 66.0367 118.194 66.3903C117.901 66.7494 117.619 67.0642 117.349 67.3349C116.702 67.9813 116.084 68.4619 115.493 68.7768C114.907 69.0972 114.36 69.285 113.852 69.3402C113.344 69.3955 112.877 69.3375 112.451 69.1662C112.021 68.9894 111.639 68.7353 111.308 68.4039ZM115.998 63.5315C116.407 63.9403 116.813 64.1971 117.216 64.3021C117.614 64.4015 117.984 64.28 118.326 63.9375C118.614 63.6502 118.749 63.3105 118.733 62.9183C118.71 62.5205 118.525 62.1476 118.177 61.7996L115.932 59.554C115.534 59.9517 115.244 60.3136 115.062 60.6395C114.879 60.9654 114.794 61.2831 114.805 61.5924C114.816 61.8908 114.924 62.1974 115.128 62.5122C115.338 62.8216 115.628 63.1613 115.998 63.5315ZM127.723 55.1373L129.173 53.6872L117.838 42.3514L116.387 43.8015L115.791 43.2049L122.171 36.8244L134.104 48.7568L135.554 47.3067L136.151 47.9033L128.32 55.734L127.723 55.1373ZM136.656 46.2046L138.106 44.7545L126.77 33.4187L125.32 34.8688L124.724 34.2722L131.104 27.8916L143.037 39.8241L144.487 38.3739L145.083 38.9706L137.253 46.8012L136.656 46.2046ZM141.562 33.0955C140.821 32.3552 140.305 31.5349 140.012 30.6344C139.719 29.734 139.631 28.8059 139.747 27.8502C139.868 26.889 140.183 25.9277 140.691 24.9665C141.205 23.9998 141.893 23.0855 142.755 22.2237C143.418 21.5608 144.083 21.0277 144.752 20.6244C145.426 20.2156 146.086 19.9201 146.732 19.7378C147.379 19.5444 148.008 19.4561 148.622 19.4726C149.24 19.4837 149.829 19.5748 150.387 19.7461C150.95 19.9118 151.48 20.1494 151.978 20.4587C152.469 20.7626 152.917 21.1161 153.32 21.5194L146.674 28.1651C147.519 29.0103 148.243 29.6622 148.845 30.1207C149.453 30.5737 149.989 30.872 150.453 31.0156C150.917 31.1482 151.331 31.1427 151.696 30.999C152.066 30.8499 152.433 30.593 152.798 30.2284C153.262 29.7644 153.64 29.2699 153.933 28.7451C154.226 28.2203 154.428 27.6928 154.538 27.1624C154.649 26.621 154.662 26.0935 154.579 25.5797C154.491 25.0604 154.298 24.5743 153.999 24.1213L154.778 23.3424C155.237 23.9114 155.541 24.5301 155.69 25.1985C155.834 25.8615 155.831 26.5492 155.682 27.2619C155.538 27.969 155.251 28.6871 154.82 29.4163C154.394 30.14 153.839 30.8443 153.154 31.5294C152.077 32.6066 151.016 33.4463 149.972 34.0484C148.928 34.6395 147.917 34.9986 146.939 35.1257C145.956 35.2472 145.014 35.1395 144.114 34.8025C143.208 34.46 142.357 33.891 141.562 33.0955ZM148.166 24.9997C147.459 24.3257 146.851 23.7843 146.343 23.3755C145.835 22.9667 145.395 22.6712 145.025 22.4889C144.655 22.3066 144.346 22.2292 144.097 22.2569C143.843 22.279 143.619 22.3867 143.426 22.58C143.233 22.7734 143.122 22.9999 143.095 23.2595C143.067 23.5081 143.144 23.8175 143.327 24.1876C143.509 24.5577 143.804 24.9969 144.213 25.5051C144.622 26.0134 145.166 26.6183 145.846 27.3199L148.166 24.9997ZM156.088 20.7405L156.701 20.1273C157.358 20.3096 158.09 20.3841 158.897 20.351C159.698 20.3123 160.51 20.1797 161.333 19.9532C162.156 19.7157 162.952 19.3898 163.719 18.9754C164.487 18.5611 165.164 18.0612 165.75 17.4756C165.993 17.2325 166.216 16.9867 166.421 16.7381C166.62 16.484 166.772 16.2382 166.877 16.0006C166.976 15.7576 167.017 15.5283 167.001 15.3129C166.99 15.0919 166.893 14.8903 166.711 14.7079C166.523 14.5201 166.283 14.4511 165.99 14.5008C165.697 14.5395 165.366 14.661 164.996 14.8654C164.625 15.0698 164.225 15.3322 163.794 15.6526C163.369 15.9675 162.927 16.2989 162.468 16.647C161.645 17.2823 160.838 17.8402 160.049 18.3208C159.259 18.8014 158.493 19.1412 157.753 19.3401C157.013 19.5389 156.3 19.5665 155.615 19.4229C154.936 19.2738 154.289 18.8926 153.676 18.2794C153.113 17.7159 152.74 17.0944 152.558 16.4149C152.375 15.7244 152.362 15.009 152.516 14.2688C152.665 13.523 152.972 12.7689 153.436 12.0066C153.894 11.2387 154.486 10.4929 155.209 9.76925C155.552 9.42675 155.93 9.11462 156.345 8.83289C156.764 8.54562 157.192 8.29427 157.629 8.07882C158.065 7.85233 158.502 7.6645 158.938 7.51535C159.375 7.35514 159.783 7.22809 160.165 7.13417L160.214 4.96313L160.902 4.27536L164.167 7.54021L163.579 8.12854C162.971 7.97386 162.33 7.90757 161.656 7.92967C160.988 7.94624 160.316 8.05396 159.642 8.25284C158.969 8.45171 158.311 8.73897 157.67 9.11462C157.024 9.48475 156.425 9.94603 155.872 10.4985C155.601 10.7691 155.367 11.0315 155.168 11.2857C154.969 11.5398 154.817 11.7801 154.712 12.0066C154.607 12.2331 154.557 12.443 154.563 12.6363C154.574 12.8242 154.649 12.9871 154.787 13.1252C154.974 13.3131 155.198 13.3987 155.458 13.3821C155.717 13.3656 156.03 13.2689 156.394 13.0921C156.759 12.9043 157.179 12.6446 157.654 12.3132C158.129 11.9817 158.676 11.5895 159.294 11.1365C160.084 10.5675 160.852 10.0703 161.598 9.64495C162.344 9.21959 163.068 8.93232 163.769 8.78317C164.476 8.62849 165.164 8.6423 165.832 8.8246C166.506 9.00138 167.167 9.41294 167.813 10.0593C168.338 10.5841 168.711 11.1614 168.932 11.7911C169.153 12.4099 169.211 13.0645 169.106 13.755C169.006 14.44 168.744 15.1499 168.318 15.8846C167.899 16.6249 167.313 17.3706 166.562 18.1219C166.208 18.4755 165.791 18.8208 165.31 19.1578C164.835 19.5003 164.333 19.8096 163.802 20.0858C163.272 20.351 162.736 20.572 162.195 20.7487C161.648 20.92 161.134 21.0139 160.653 21.0305L160.579 23.8561L159.891 24.5439L156.088 20.7405Z" fill="white" fill-opacity="0.1"/>
<path d="M111.308 118.404C110.883 117.979 110.598 117.534 110.454 117.07C110.305 116.6 110.272 116.114 110.355 115.611C110.432 115.103 110.612 114.581 110.894 114.045C111.17 113.504 111.521 112.949 111.946 112.38C112.377 111.805 112.868 111.22 113.421 110.623C113.968 110.021 114.551 109.41 115.169 108.792L114.705 108.328C113.998 107.62 113.382 107.104 112.857 106.778C112.338 106.447 111.866 106.267 111.44 106.239C111.021 106.206 110.634 106.3 110.28 106.521C109.921 106.737 109.551 107.035 109.17 107.416C108.966 107.62 108.764 107.855 108.565 108.12C108.372 108.38 108.209 108.62 108.076 108.841C108.358 108.615 108.656 108.444 108.971 108.328C109.286 108.212 109.595 108.151 109.899 108.145C110.203 108.14 110.488 108.187 110.753 108.286C111.023 108.38 111.253 108.521 111.44 108.709C111.672 108.941 111.833 109.217 111.921 109.537C112.009 109.858 112.029 110.198 111.979 110.557C111.924 110.91 111.805 111.267 111.623 111.626C111.44 111.985 111.195 112.319 110.885 112.628C110.576 112.938 110.242 113.183 109.883 113.366C109.529 113.543 109.176 113.659 108.822 113.714C108.468 113.758 108.131 113.736 107.811 113.647C107.491 113.559 107.214 113.399 106.982 113.167C106.673 112.858 106.477 112.496 106.394 112.081C106.317 111.661 106.328 111.214 106.427 110.739C106.527 110.253 106.703 109.745 106.958 109.214C107.217 108.678 107.529 108.14 107.894 107.598C108.258 107.057 108.665 106.524 109.112 105.999C109.559 105.463 110.026 104.952 110.512 104.466C111.374 103.604 112.183 102.917 112.94 102.403C113.697 101.878 114.437 101.558 115.161 101.442C115.885 101.315 116.614 101.408 117.349 101.723C118.078 102.033 118.843 102.588 119.644 103.389L123.116 106.861C123.53 107.275 123.892 107.554 124.202 107.698C124.511 107.83 124.782 107.781 125.014 107.549C125.13 107.433 125.188 107.303 125.188 107.159C125.188 107.005 125.146 106.847 125.063 106.687C124.986 106.521 124.875 106.35 124.732 106.173C124.588 105.996 124.434 105.825 124.268 105.659L123.447 104.839L124.185 104.102L125.005 104.922C125.447 105.364 125.762 105.795 125.95 106.215C126.143 106.629 126.193 107.071 126.099 107.54C126.011 108.004 125.77 108.51 125.378 109.057C124.997 109.604 124.453 110.231 123.746 110.938C123.387 111.297 123.03 111.615 122.677 111.891C122.329 112.161 121.978 112.38 121.624 112.545C121.276 112.706 120.931 112.802 120.589 112.835C120.246 112.869 119.904 112.824 119.561 112.703C119.65 113.123 119.636 113.551 119.52 113.987C119.398 114.418 119.221 114.838 118.989 115.247C118.757 115.656 118.492 116.037 118.194 116.39C117.901 116.749 117.619 117.064 117.349 117.335C116.702 117.981 116.084 118.462 115.493 118.777C114.907 119.097 114.36 119.285 113.852 119.34C113.344 119.395 112.877 119.337 112.451 119.166C112.021 118.989 111.639 118.735 111.308 118.404ZM115.998 113.531C116.407 113.94 116.813 114.197 117.216 114.302C117.614 114.402 117.984 114.28 118.326 113.937C118.614 113.65 118.749 113.31 118.733 112.918C118.71 112.521 118.525 112.148 118.177 111.8L115.932 109.554C115.534 109.952 115.244 110.314 115.062 110.64C114.879 110.965 114.794 111.283 114.805 111.592C114.816 111.891 114.924 112.197 115.128 112.512C115.338 112.822 115.628 113.161 115.998 113.531ZM127.723 105.137L129.173 103.687L117.838 92.3514L116.387 93.8015L115.791 93.2049L122.171 86.8244L134.104 98.7568L135.554 97.3067L136.151 97.9033L128.32 105.734L127.723 105.137ZM136.656 96.2046L138.106 94.7545L126.77 83.4187L125.32 84.8688L124.724 84.2722L131.104 77.8916L143.037 89.8241L144.487 88.3739L145.083 88.9706L137.253 96.8012L136.656 96.2046ZM141.562 83.0955C140.821 82.3552 140.305 81.5349 140.012 80.6344C139.719 79.734 139.631 78.8059 139.747 77.8502C139.868 76.889 140.183 75.9277 140.691 74.9665C141.205 73.9998 141.893 73.0855 142.755 72.2237C143.418 71.5608 144.083 71.0277 144.752 70.6244C145.426 70.2156 146.086 69.9201 146.732 69.7378C147.379 69.5444 148.008 69.4561 148.622 69.4726C149.24 69.4837 149.829 69.5748 150.387 69.7461C150.95 69.9118 151.48 70.1494 151.978 70.4587C152.469 70.7626 152.917 71.1161 153.32 71.5194L146.674 78.1651C147.519 79.0103 148.243 79.6622 148.845 80.1207C149.453 80.5737 149.989 80.872 150.453 81.0156C150.917 81.1482 151.331 81.1427 151.696 80.999C152.066 80.8499 152.433 80.593 152.798 80.2284C153.262 79.7644 153.64 79.2699 153.933 78.7451C154.226 78.2203 154.428 77.6928 154.538 77.1624C154.649 76.621 154.662 76.0935 154.579 75.5797C154.491 75.0604 154.298 74.5743 153.999 74.1213L154.778 73.3424C155.237 73.9114 155.541 74.5301 155.69 75.1985C155.834 75.8615 155.831 76.5492 155.682 77.2619C155.538 77.969 155.251 78.6871 154.82 79.4163C154.394 80.14 153.839 80.8443 153.154 81.5294C152.077 82.6066 151.016 83.4463 149.972 84.0484C148.928 84.6395 147.917 84.9986 146.939 85.1257C145.956 85.2472 145.014 85.1395 144.114 84.8025C143.208 84.46 142.357 83.891 141.562 83.0955ZM148.166 74.9997C147.459 74.3257 146.851 73.7843 146.343 73.3755C145.835 72.9667 145.395 72.6712 145.025 72.4889C144.655 72.3066 144.346 72.2292 144.097 72.2569C143.843 72.279 143.619 72.3867 143.426 72.58C143.233 72.7734 143.122 72.9999 143.095 73.2595C143.067 73.5081 143.144 73.8175 143.327 74.1876C143.509 74.5577 143.804 74.9969 144.213 75.5051C144.622 76.0134 145.166 76.6183 145.846 77.3199L148.166 74.9997ZM156.088 70.7405L156.701 70.1273C157.358 70.3096 158.09 70.3841 158.897 70.351C159.698 70.3123 160.51 70.1797 161.333 69.9532C162.156 69.7157 162.952 69.3898 163.719 68.9754C164.487 68.5611 165.164 68.0612 165.75 67.4756C165.993 67.2325 166.216 66.9867 166.421 66.7381C166.62 66.484 166.772 66.2382 166.877 66.0006C166.976 65.7576 167.017 65.5283 167.001 65.3129C166.99 65.0919 166.893 64.8903 166.711 64.7079C166.523 64.5201 166.283 64.4511 165.99 64.5008C165.697 64.5395 165.366 64.661 164.996 64.8654C164.625 65.0698 164.225 65.3322 163.794 65.6526C163.369 65.9675 162.927 66.2989 162.468 66.647C161.645 67.2823 160.838 67.8402 160.049 68.3208C159.259 68.8014 158.493 69.1412 157.753 69.3401C157.013 69.5389 156.3 69.5665 155.615 69.4229C154.936 69.2738 154.289 68.8926 153.676 68.2794C153.113 67.7159 152.74 67.0944 152.558 66.4149C152.375 65.7244 152.362 65.009 152.516 64.2688C152.665 63.523 152.972 62.7689 153.436 62.0066C153.894 61.2387 154.486 60.4929 155.209 59.7693C155.552 59.4267 155.93 59.1146 156.345 58.8329C156.764 58.5456 157.192 58.2943 157.629 58.0788C158.065 57.8523 158.502 57.6645 158.938 57.5153C159.375 57.3551 159.783 57.2281 160.165 57.1342L160.214 54.9631L160.902 54.2754L164.167 57.5402L163.579 58.1285C162.971 57.9739 162.33 57.9076 161.656 57.9297C160.988 57.9462 160.316 58.054 159.642 58.2528C158.969 58.4517 158.311 58.739 157.67 59.1146C157.024 59.4848 156.425 59.946 155.872 60.4985C155.601 60.7691 155.367 61.0315 155.168 61.2857C154.969 61.5398 154.817 61.7801 154.712 62.0066C154.607 62.2331 154.557 62.443 154.563 62.6363C154.574 62.8242 154.649 62.9871 154.787 63.1252C154.974 63.3131 155.198 63.3987 155.458 63.3821C155.717 63.3656 156.03 63.2689 156.394 63.0921C156.759 62.9043 157.179 62.6446 157.654 62.3132C158.129 61.9817 158.676 61.5895 159.294 61.1365C160.084 60.5675 160.852 60.0703 161.598 59.645C162.344 59.2196 163.068 58.9323 163.769 58.7832C164.476 58.6285 165.164 58.6423 165.832 58.8246C166.506 59.0014 167.167 59.4129 167.813 60.0593C168.338 60.5841 168.711 61.1614 168.932 61.7911C169.153 62.4099 169.211 63.0645 169.106 63.755C169.006 64.44 168.744 65.1499 168.318 65.8846C167.899 66.6249 167.313 67.3706 166.562 68.1219C166.208 68.4755 165.791 68.8208 165.31 69.1578C164.835 69.5003 164.333 69.8096 163.802 70.0858C163.272 70.351 162.736 70.572 162.195 70.7487C161.648 70.92 161.134 71.0139 160.653 71.0305L160.579 73.8561L159.891 74.5439L156.088 70.7405Z" fill="white" fill-opacity="0.1"/>
<path d="M111.308 168.404C110.883 167.979 110.598 167.534 110.454 167.07C110.305 166.6 110.272 166.114 110.355 165.611C110.432 165.103 110.612 164.581 110.894 164.045C111.17 163.504 111.521 162.949 111.946 162.38C112.377 161.805 112.868 161.22 113.421 160.623C113.968 160.021 114.551 159.41 115.169 158.792L114.705 158.328C113.998 157.62 113.382 157.104 112.857 156.778C112.338 156.447 111.866 156.267 111.44 156.239C111.021 156.206 110.634 156.3 110.28 156.521C109.921 156.737 109.551 157.035 109.17 157.416C108.966 157.62 108.764 157.855 108.565 158.12C108.372 158.38 108.209 158.62 108.076 158.841C108.358 158.615 108.656 158.444 108.971 158.328C109.286 158.212 109.595 158.151 109.899 158.145C110.203 158.14 110.488 158.187 110.753 158.286C111.023 158.38 111.253 158.521 111.44 158.709C111.672 158.941 111.833 159.217 111.921 159.537C112.009 159.858 112.029 160.198 111.979 160.557C111.924 160.91 111.805 161.267 111.623 161.626C111.44 161.985 111.195 162.319 110.885 162.628C110.576 162.938 110.242 163.183 109.883 163.366C109.529 163.543 109.176 163.659 108.822 163.714C108.468 163.758 108.131 163.736 107.811 163.647C107.491 163.559 107.214 163.399 106.982 163.167C106.673 162.858 106.477 162.496 106.394 162.081C106.317 161.661 106.328 161.214 106.427 160.739C106.527 160.253 106.703 159.745 106.958 159.214C107.217 158.678 107.529 158.14 107.894 157.598C108.258 157.057 108.665 156.524 109.112 155.999C109.559 155.463 110.026 154.952 110.512 154.466C111.374 153.604 112.183 152.917 112.94 152.403C113.697 151.878 114.437 151.558 115.161 151.442C115.885 151.315 116.614 151.408 117.349 151.723C118.078 152.033 118.843 152.588 119.644 153.389L123.116 156.861C123.53 157.275 123.892 157.554 124.202 157.698C124.511 157.83 124.782 157.781 125.014 157.549C125.13 157.433 125.188 157.303 125.188 157.159C125.188 157.005 125.146 156.847 125.063 156.687C124.986 156.521 124.875 156.35 124.732 156.173C124.588 155.996 124.434 155.825 124.268 155.659L123.447 154.839L124.185 154.102L125.005 154.922C125.447 155.364 125.762 155.795 125.95 156.215C126.143 156.629 126.193 157.071 126.099 157.54C126.011 158.004 125.77 158.51 125.378 159.057C124.997 159.604 124.453 160.231 123.746 160.938C123.387 161.297 123.03 161.615 122.677 161.891C122.329 162.161 121.978 162.38 121.624 162.545C121.276 162.706 120.931 162.802 120.589 162.835C120.246 162.869 119.904 162.824 119.561 162.703C119.65 163.123 119.636 163.551 119.52 163.987C119.398 164.418 119.221 164.838 118.989 165.247C118.757 165.656 118.492 166.037 118.194 166.39C117.901 166.749 117.619 167.064 117.349 167.335C116.702 167.981 116.084 168.462 115.493 168.777C114.907 169.097 114.36 169.285 113.852 169.34C113.344 169.395 112.877 169.337 112.451 169.166C112.021 168.989 111.639 168.735 111.308 168.404ZM115.998 163.531C116.407 163.94 116.813 164.197 117.216 164.302C117.614 164.402 117.984 164.28 118.326 163.937C118.614 163.65 118.749 163.31 118.733 162.918C118.71 162.521 118.525 162.148 118.177 161.8L115.932 159.554C115.534 159.952 115.244 160.314 115.062 160.64C114.879 160.965 114.794 161.283 114.805 161.592C114.816 161.891 114.924 162.197 115.128 162.512C115.338 162.822 115.628 163.161 115.998 163.531ZM127.723 155.137L129.173 153.687L117.838 142.351L116.387 143.802L115.791 143.205L122.171 136.824L134.104 148.757L135.554 147.307L136.151 147.903L128.32 155.734L127.723 155.137ZM136.656 146.205L138.106 144.754L126.77 133.419L125.32 134.869L124.724 134.272L131.104 127.892L143.037 139.824L144.487 138.374L145.083 138.971L137.253 146.801L136.656 146.205ZM141.562 133.095C140.821 132.355 140.305 131.535 140.012 130.634C139.719 129.734 139.631 128.806 139.747 127.85C139.868 126.889 140.183 125.928 140.691 124.967C141.205 124 141.893 123.086 142.755 122.224C143.418 121.561 144.083 121.028 144.752 120.624C145.426 120.216 146.086 119.92 146.732 119.738C147.379 119.544 148.008 119.456 148.622 119.473C149.24 119.484 149.829 119.575 150.387 119.746C150.95 119.912 151.48 120.149 151.978 120.459C152.469 120.763 152.917 121.116 153.32 121.519L146.674 128.165C147.519 129.01 148.243 129.662 148.845 130.121C149.453 130.574 149.989 130.872 150.453 131.016C150.917 131.148 151.331 131.143 151.696 130.999C152.066 130.85 152.433 130.593 152.798 130.228C153.262 129.764 153.64 129.27 153.933 128.745C154.226 128.22 154.428 127.693 154.538 127.162C154.649 126.621 154.662 126.093 154.579 125.58C154.491 125.06 154.298 124.574 153.999 124.121L154.778 123.342C155.237 123.911 155.541 124.53 155.69 125.199C155.834 125.861 155.831 126.549 155.682 127.262C155.538 127.969 155.251 128.687 154.82 129.416C154.394 130.14 153.839 130.844 153.154 131.529C152.077 132.607 151.016 133.446 149.972 134.048C148.928 134.64 147.917 134.999 146.939 135.126C145.956 135.247 145.014 135.139 144.114 134.802C143.208 134.46 142.357 133.891 141.562 133.095ZM148.166 125C147.459 124.326 146.851 123.784 146.343 123.376C145.835 122.967 145.395 122.671 145.025 122.489C144.655 122.307 144.346 122.229 144.097 122.257C143.843 122.279 143.619 122.387 143.426 122.58C143.233 122.773 143.122 123 143.095 123.26C143.067 123.508 143.144 123.817 143.327 124.188C143.509 124.558 143.804 124.997 144.213 125.505C144.622 126.013 145.166 126.618 145.846 127.32L148.166 125ZM156.088 120.74L156.701 120.127C157.358 120.31 158.09 120.384 158.897 120.351C159.698 120.312 160.51 120.18 161.333 119.953C162.156 119.716 162.952 119.39 163.719 118.975C164.487 118.561 165.164 118.061 165.75 117.476C165.993 117.233 166.216 116.987 166.421 116.738C166.62 116.484 166.772 116.238 166.877 116.001C166.976 115.758 167.017 115.528 167.001 115.313C166.99 115.092 166.893 114.89 166.711 114.708C166.523 114.52 166.283 114.451 165.99 114.501C165.697 114.539 165.366 114.661 164.996 114.865C164.625 115.07 164.225 115.332 163.794 115.653C163.369 115.967 162.927 116.299 162.468 116.647C161.645 117.282 160.838 117.84 160.049 118.321C159.259 118.801 158.493 119.141 157.753 119.34C157.013 119.539 156.3 119.567 155.615 119.423C154.936 119.274 154.289 118.893 153.676 118.279C153.113 117.716 152.74 117.094 152.558 116.415C152.375 115.724 152.362 115.009 152.516 114.269C152.665 113.523 152.972 112.769 153.436 112.007C153.894 111.239 154.486 110.493 155.209 109.769C155.552 109.427 155.93 109.115 156.345 108.833C156.764 108.546 157.192 108.294 157.629 108.079C158.065 107.852 158.502 107.665 158.938 107.515C159.375 107.355 159.783 107.228 160.165 107.134L160.214 104.963L160.902 104.275L164.167 107.54L163.579 108.129C162.971 107.974 162.33 107.908 161.656 107.93C160.988 107.946 160.316 108.054 159.642 108.253C158.969 108.452 158.311 108.739 157.67 109.115C157.024 109.485 156.425 109.946 155.872 110.498C155.601 110.769 155.367 111.032 155.168 111.286C154.969 111.54 154.817 111.78 154.712 112.007C154.607 112.233 154.557 112.443 154.563 112.636C154.574 112.824 154.649 112.987 154.787 113.125C154.974 113.313 155.198 113.399 155.458 113.382C155.717 113.366 156.03 113.269 156.394 113.092C156.759 112.904 157.179 112.645 157.654 112.313C158.129 111.982 158.676 111.589 159.294 111.137C160.084 110.568 160.852 110.07 161.598 109.645C162.344 109.22 163.068 108.932 163.769 108.783C164.476 108.628 165.164 108.642 165.832 108.825C166.506 109.001 167.167 109.413 167.813 110.059C168.338 110.584 168.711 111.161 168.932 111.791C169.153 112.41 169.211 113.064 169.106 113.755C169.006 114.44 168.744 115.15 168.318 115.885C167.899 116.625 167.313 117.371 166.562 118.122C166.208 118.476 165.791 118.821 165.31 119.158C164.835 119.5 164.333 119.81 163.802 120.086C163.272 120.351 162.736 120.572 162.195 120.749C161.648 120.92 161.134 121.014 160.653 121.03L160.579 123.856L159.891 124.544L156.088 120.74Z" fill="white" fill-opacity="0.1"/>
<path d="M11.3079 168.404C10.8825 167.979 10.598 167.534 10.4544 167.07C10.3052 166.6 10.2721 166.114 10.3549 165.611C10.4323 165.103 10.6118 164.581 10.8936 164.045C11.1698 163.504 11.5206 162.949 11.9459 162.38C12.3768 161.805 12.8685 161.22 13.4209 160.623C13.9678 160.021 14.5506 159.41 15.1693 158.792L14.7053 158.328C13.9982 157.62 13.3822 157.104 12.8574 156.778C12.3382 156.447 11.8658 156.267 11.4405 156.239C11.0206 156.206 10.6339 156.3 10.2804 156.521C9.92129 156.737 9.55116 157.035 9.16999 157.416C8.96559 157.62 8.76395 157.855 8.56508 158.12C8.37173 158.38 8.20876 158.62 8.07618 158.841C8.35792 158.615 8.65623 158.444 8.97111 158.328C9.286 158.212 9.59536 158.151 9.89919 158.145C10.203 158.14 10.4875 158.187 10.7527 158.286C11.0234 158.38 11.2526 158.521 11.4405 158.709C11.6725 158.941 11.8327 159.217 11.9211 159.537C12.0095 159.858 12.0288 160.198 11.9791 160.557C11.9238 160.91 11.8051 161.267 11.6228 161.626C11.4405 161.985 11.1946 162.319 10.8853 162.628C10.5759 162.938 10.2417 163.183 9.88262 163.366C9.52906 163.543 9.17551 163.659 8.82196 163.714C8.4684 163.758 8.13142 163.736 7.81102 163.647C7.49061 163.559 7.21439 163.399 6.98238 163.167C6.67302 162.858 6.4769 162.496 6.39404 162.081C6.3167 161.661 6.32775 161.214 6.42719 160.739C6.52662 160.253 6.7034 159.745 6.95752 159.214C7.21716 158.678 7.52928 158.14 7.89388 157.598C8.25848 157.057 8.66452 156.524 9.11198 155.999C9.55945 155.463 10.0262 154.952 10.5124 154.466C11.3742 153.604 12.1835 152.917 12.9403 152.403C13.6971 151.878 14.4374 151.558 15.1611 151.442C15.8847 151.315 16.6139 151.408 17.3487 151.723C18.0779 152.033 18.843 152.588 19.644 153.389L23.116 156.861C23.5303 157.275 23.8922 157.554 24.2015 157.698C24.5109 157.83 24.7816 157.781 25.0136 157.549C25.1296 157.433 25.1876 157.303 25.1876 157.159C25.1876 157.005 25.1462 156.847 25.0633 156.687C24.986 156.521 24.8755 156.35 24.7319 156.173C24.5882 155.996 24.4335 155.825 24.2678 155.659L23.4475 154.839L24.185 154.102L25.0053 154.922C25.4473 155.364 25.7621 155.795 25.95 156.215C26.1433 156.629 26.193 157.071 26.0991 157.54C26.0107 158.004 25.7704 158.51 25.3782 159.057C24.997 159.604 24.4529 160.231 23.7458 160.938C23.3867 161.297 23.0304 161.615 22.6768 161.891C22.3288 162.161 21.978 162.38 21.6245 162.545C21.2764 162.706 20.9312 162.802 20.5887 162.835C20.2462 162.869 19.9036 162.824 19.5611 162.703C19.6495 163.123 19.6357 163.551 19.5197 163.987C19.3982 164.418 19.2214 164.838 18.9894 165.247C18.7574 165.656 18.4922 166.037 18.1939 166.39C17.9011 166.749 17.6194 167.064 17.3487 167.335C16.7023 167.981 16.0836 168.462 15.4925 168.777C14.9069 169.097 14.36 169.285 13.8518 169.34C13.3436 169.395 12.8768 169.337 12.4514 169.166C12.0205 168.989 11.6393 168.735 11.3079 168.404ZM15.998 163.531C16.4068 163.94 16.8128 164.197 17.2161 164.302C17.6138 164.402 17.984 164.28 18.3265 163.937C18.6137 163.65 18.7491 163.31 18.7325 162.918C18.7104 162.521 18.5253 162.148 18.1773 161.8L15.9317 159.554C15.5339 159.952 15.2439 160.314 15.0616 160.64C14.8793 160.965 14.7937 161.283 14.8047 161.592C14.8158 161.891 14.9235 162.197 15.1279 162.512C15.3378 162.822 15.6279 163.161 15.998 163.531ZM27.7233 155.137L29.1734 153.687L17.8376 142.351L16.3874 143.802L15.7908 143.205L22.1714 136.824L34.1038 148.757L35.5539 147.307L36.1505 147.903L28.3199 155.734L27.7233 155.137ZM36.656 146.205L38.1061 144.754L26.7703 133.419L25.3202 134.869L24.7236 134.272L31.1041 127.892L43.0365 139.824L44.4867 138.374L45.0833 138.971L37.2526 146.801L36.656 146.205ZM41.5616 133.095C40.8213 132.355 40.3048 131.535 40.012 130.634C39.7192 129.734 39.6308 128.806 39.7468 127.85C39.8684 126.889 40.1832 125.928 40.6915 124.967C41.2052 124 41.893 123.086 42.7548 122.224C43.4177 121.561 44.0834 121.028 44.7518 120.624C45.4258 120.216 46.0859 119.92 46.7323 119.738C47.3786 119.544 48.0084 119.456 48.6216 119.473C49.2403 119.484 49.8286 119.575 50.3866 119.746C50.9501 119.912 51.4804 120.149 51.9776 120.459C52.4692 120.763 52.9167 121.116 53.32 121.519L46.6743 128.165C47.5195 129.01 48.2432 129.662 48.8453 130.121C49.453 130.574 49.9888 130.872 50.4529 131.016C50.9169 131.148 51.3312 131.143 51.6958 130.999C52.066 130.85 52.4333 130.593 52.7979 130.228C53.262 129.764 53.6404 129.27 53.9332 128.745C54.2259 128.22 54.4276 127.693 54.5381 127.162C54.6486 126.621 54.6624 126.093 54.5795 125.58C54.4911 125.06 54.2978 124.574 53.9995 124.121L54.7784 123.342C55.2369 123.911 55.5407 124.53 55.6899 125.199C55.8335 125.861 55.8307 126.549 55.6816 127.262C55.538 127.969 55.2507 128.687 54.8198 129.416C54.3944 130.14 53.8392 130.844 53.1542 131.529C52.077 132.607 51.0163 133.446 49.9723 134.048C48.9282 134.64 47.9172 134.999 46.9394 135.126C45.9561 135.247 45.0142 135.139 44.1138 134.802C43.2078 134.46 42.357 133.891 41.5616 133.095ZM48.1658 125C47.4587 124.326 46.851 123.784 46.3428 123.376C45.8346 122.967 45.3954 122.671 45.0253 122.489C44.6551 122.307 44.3458 122.229 44.0972 122.257C43.8431 122.279 43.6193 122.387 43.426 122.58C43.2326 122.773 43.1222 123 43.0945 123.26C43.0669 123.508 43.1443 123.817 43.3266 124.188C43.5089 124.558 43.8044 124.997 44.2132 125.505C44.622 126.013 45.1661 126.618 45.8456 127.32L48.1658 125ZM56.0876 120.74L56.7008 120.127C57.3582 120.31 58.0902 120.384 58.8967 120.351C59.6977 120.312 60.5098 120.18 61.3329 119.953C62.156 119.716 62.9515 119.39 63.7194 118.975C64.4873 118.561 65.164 118.061 65.7496 117.476C65.9926 117.233 66.2164 116.987 66.4208 116.738C66.6196 116.484 66.7716 116.238 66.8765 116.001C66.976 115.758 67.0174 115.528 67.0008 115.313C66.9898 115.092 66.8931 114.89 66.7108 114.708C66.523 114.52 66.2827 114.451 65.9899 114.501C65.6971 114.539 65.3656 114.661 64.9955 114.865C64.6254 115.07 64.2249 115.332 63.794 115.653C63.3686 115.967 62.9267 116.299 62.4682 116.647C61.645 117.282 60.8385 117.84 60.0485 118.321C59.2586 118.801 58.4934 119.141 57.7532 119.34C57.0129 119.539 56.3003 119.567 55.6153 119.423C54.9358 119.274 54.2895 118.893 53.6763 118.279C53.1128 117.716 52.7399 117.094 52.5576 116.415C52.3753 115.724 52.3615 115.009 52.5162 114.269C52.6653 113.523 52.9719 112.769 53.436 112.007C53.8945 111.239 54.4856 110.493 55.2093 109.769C55.5518 109.427 55.9302 109.115 56.3445 108.833C56.7643 108.546 57.1925 108.294 57.6289 108.079C58.0653 107.852 58.5017 107.665 58.9382 107.515C59.3746 107.355 59.7834 107.228 60.1645 107.134L60.2143 104.963L60.902 104.275L64.1669 107.54L63.5785 108.129C62.9709 107.974 62.3301 107.908 61.6561 107.93C60.9877 107.946 60.3165 108.054 59.6425 108.253C58.9685 108.452 58.3111 108.739 57.6703 109.115C57.024 109.485 56.4246 109.946 55.8722 110.498C55.6015 110.769 55.3667 111.032 55.1678 111.286C54.969 111.54 54.817 111.78 54.7121 112.007C54.6071 112.233 54.5574 112.443 54.5629 112.636C54.574 112.824 54.6486 112.987 54.7867 113.125C54.9745 113.313 55.1982 113.399 55.4579 113.382C55.7175 113.366 56.0296 113.269 56.3942 113.092C56.7588 112.904 57.1787 112.645 57.6538 112.313C58.1288 111.982 58.6757 111.589 59.2945 111.137C60.0844 110.568 60.8523 110.07 61.5981 109.645C62.3439 109.22 63.0675 108.932 63.7691 108.783C64.4762 108.628 65.164 108.642 65.8324 108.825C66.5064 109.001 67.1666 109.413 67.8129 110.059C68.3377 110.584 68.7106 111.161 68.9316 111.791C69.1525 112.41 69.2105 113.064 69.1056 113.755C69.0061 114.44 68.7437 115.15 68.3184 115.885C67.8985 116.625 67.3129 117.371 66.5616 118.122C66.2081 118.476 65.791 118.821 65.3104 119.158C64.8353 119.5 64.3326 119.81 63.8023 120.086C63.2719 120.351 62.7361 120.572 62.1947 120.749C61.6478 120.92 61.134 121.014 60.6534 121.03L60.5789 123.856L59.8911 124.544L56.0876 120.74Z" fill="white" fill-opacity="0.1"/>
</svg>
