<svg width="100" height="100" viewBox="0 0 100 100" fill="none" xmlns="http://www.w3.org/2000/svg">
<g clip-path="url(#clip0_29_2)">
<path d="M10.292 27.0552C8.55762 27.0552 7.1665 26.5312 6.11865 25.4834C5.0708 24.3994 4.54688 23.1348 4.54688 21.6895C4.54688 20.2441 4.81787 18.6724 5.35986 16.9741C5.90186 15.2759 6.53418 13.5054 7.25684 11.6626C7.61816 10.7954 7.94336 9.92822 8.23242 9.06104C8.52148 8.15771 8.77441 7.23633 8.99121 6.29688C8.34082 6.9834 7.7085 7.66992 7.09424 8.35645C6.47998 9.00684 5.88379 9.72949 5.30566 10.5244C4.76367 11.2832 4.11328 12.1323 3.35449 13.0718C2.63184 13.9751 1.83691 14.8423 0.969727 15.6733C0.102539 16.5044 -0.818848 17.209 -1.79443 17.7871C-2.73389 18.3291 -3.69141 18.6001 -4.66699 18.6001C-5.49805 18.6001 -6.25684 18.4194 -6.94336 18.0581C-7.62988 17.6968 -8.24414 17.2271 -8.78613 16.6489C-9.29199 16.0708 -9.68945 15.4204 -9.97852 14.6978C-10.2676 13.9751 -10.4121 13.2344 -10.4121 12.4756C-10.4121 11.0303 -9.94238 9.87402 -9.00293 9.00684C-8.06348 8.10352 -6.92529 7.39893 -5.58838 6.89307C-4.25146 6.38721 -2.86035 6.02588 -1.41504 5.80908C0.0664062 5.59229 1.31299 5.42969 2.32471 5.32129C3.22803 5.21289 4.13135 5.06836 5.03467 4.8877C5.93799 4.6709 6.84131 4.41797 7.74463 4.12891C6.04639 3.62305 4.23975 3.22559 2.32471 2.93652C1.13232 2.79199 -0.20459 2.59326 -1.68604 2.34033C-3.16748 2.0874 -4.55859 1.70801 -5.85938 1.20215C-7.12402 0.696289 -8.20801 0.00976562 -9.11133 -0.857422C-9.97852 -1.72461 -10.4121 -2.86279 -10.4121 -4.27197C-10.4121 -5.06689 -10.2676 -5.82568 -9.97852 -6.54834C-9.65332 -7.271 -9.21973 -7.90332 -8.67773 -8.44531C-8.13574 -9.02344 -7.52148 -9.4751 -6.83496 -9.80029C-6.14844 -10.1616 -5.42578 -10.3423 -4.66699 -10.3423C-3.7998 -10.3423 -2.89648 -10.0352 -1.95703 -9.4209C-0.981445 -8.84277 -0.0419922 -8.12012 0.861328 -7.25293C1.76465 -6.42188 2.5957 -5.53662 3.35449 -4.59717C4.14941 -3.69385 4.7998 -2.91699 5.30566 -2.2666C5.91992 -1.50781 6.51611 -0.76709 7.09424 -0.0444336C7.7085 0.64209 8.34082 1.31055 8.99121 1.96094C8.73828 1.05762 8.46729 0.172363 8.17822 -0.694824C7.92529 -1.59814 7.61816 -2.50146 7.25684 -3.40479C6.53418 -5.24756 5.90186 -7.01807 5.35986 -8.71631C4.81787 -10.4146 4.54688 -11.9863 4.54688 -13.4316C4.54688 -14.877 5.0708 -16.1235 6.11865 -17.1714C7.1665 -18.2554 8.55762 -18.7974 10.292 -18.7974C12.0264 -18.7974 13.4175 -18.2554 14.4653 -17.1714C15.5132 -16.1235 16.0371 -14.877 16.0371 -13.4316C16.0371 -11.9502 15.748 -10.3604 15.1699 -8.66211C14.5918 -6.96387 13.9414 -5.19336 13.2188 -3.35059C12.5322 -1.65234 11.9722 0.13623 11.5386 2.01514C12.2251 1.36475 12.8755 0.696289 13.4897 0.00976562C14.1401 -0.676758 14.7544 -1.39941 15.3325 -2.1582C16.0552 -3.13379 16.7778 -4.10938 17.5005 -5.08496C18.2593 -6.06055 19.0361 -6.92773 19.8311 -7.68652C20.6621 -8.48145 21.5293 -9.11377 22.4326 -9.5835C23.3359 -10.0894 24.2754 -10.3423 25.251 -10.3423C26.0459 -10.3423 26.7866 -10.1616 27.4731 -9.80029C28.1958 -9.43896 28.8101 -8.96924 29.3159 -8.39111C29.8579 -7.81299 30.2734 -7.1626 30.5625 -6.43994C30.8516 -5.71729 30.9961 -4.97656 30.9961 -4.21777C30.9961 -2.84473 30.5083 -1.72461 29.5327 -0.857422C28.5933 0.00976562 27.4551 0.714355 26.1182 1.25635C24.7812 1.76221 23.3901 2.1416 21.9448 2.39453C20.4995 2.64746 19.2891 2.84619 18.3135 2.99072C17.374 3.13525 16.4346 3.29785 15.4951 3.47852C14.5918 3.65918 13.6885 3.89404 12.7852 4.18311C13.7246 4.43604 14.646 4.65283 15.5493 4.8335C16.4526 4.97803 17.374 5.12256 18.3135 5.26709C19.4336 5.44775 20.7163 5.68262 22.1616 5.97168C23.6431 6.22461 25.0342 6.62207 26.335 7.16406C27.6357 7.66992 28.7378 8.35645 29.6411 9.22363C30.5444 10.0908 30.9961 11.1929 30.9961 12.5298C30.9961 13.3247 30.8335 14.0835 30.5083 14.8062C30.2192 15.5288 29.8037 16.1792 29.2617 16.7573C28.7197 17.2993 28.1055 17.751 27.4189 18.1123C26.7324 18.4375 26.0098 18.6001 25.251 18.6001C24.2393 18.6001 23.2275 18.311 22.2158 17.7329C21.2402 17.1187 20.3188 16.3779 19.4517 15.5107C18.5845 14.6436 17.7896 13.7402 17.0669 12.8008C16.3804 11.8613 15.8022 11.0664 15.3325 10.416C14.7905 9.65723 14.1943 8.93457 13.5439 8.24805C12.8936 7.56152 12.2432 6.91113 11.5928 6.29688C11.9902 8.17578 12.5322 9.94629 13.2188 11.6084C13.9414 13.4512 14.5918 15.2217 15.1699 16.9199C15.748 18.6182 16.0371 20.208 16.0371 21.6895C16.0371 23.1348 15.5132 24.3994 14.4653 25.4834C13.4175 26.5312 12.0264 27.0552 10.292 27.0552Z" fill="white" fill-opacity="0.05"/>
<path d="M110.292 27.0552C108.558 27.0552 107.167 26.5312 106.119 25.4834C105.071 24.3994 104.547 23.1348 104.547 21.6895C104.547 20.2441 104.818 18.6724 105.36 16.9741C105.902 15.2759 106.534 13.5054 107.257 11.6626C107.618 10.7954 107.943 9.92822 108.232 9.06104C108.521 8.15771 108.774 7.23633 108.991 6.29688C108.341 6.9834 107.708 7.66992 107.094 8.35645C106.48 9.00684 105.884 9.72949 105.306 10.5244C104.764 11.2832 104.113 12.1323 103.354 13.0718C102.632 13.9751 101.837 14.8423 100.97 15.6733C100.103 16.5044 99.1812 17.209 98.2056 17.7871C97.2661 18.3291 96.3086 18.6001 95.333 18.6001C94.502 18.6001 93.7432 18.4194 93.0566 18.0581C92.3701 17.6968 91.7559 17.2271 91.2139 16.6489C90.708 16.0708 90.3105 15.4204 90.0215 14.6978C89.7324 13.9751 89.5879 13.2344 89.5879 12.4756C89.5879 11.0303 90.0576 9.87402 90.9971 9.00684C91.9365 8.10352 93.0747 7.39893 94.4116 6.89307C95.7485 6.38721 97.1396 6.02588 98.585 5.80908C100.066 5.59229 101.313 5.42969 102.325 5.32129C103.228 5.21289 104.131 5.06836 105.035 4.8877C105.938 4.6709 106.841 4.41797 107.745 4.12891C106.046 3.62305 104.24 3.22559 102.325 2.93652C101.132 2.79199 99.7954 2.59326 98.314 2.34033C96.8325 2.0874 95.4414 1.70801 94.1406 1.20215C92.876 0.696289 91.792 0.00976562 90.8887 -0.857422C90.0215 -1.72461 89.5879 -2.86279 89.5879 -4.27197C89.5879 -5.06689 89.7324 -5.82568 90.0215 -6.54834C90.3467 -7.271 90.7803 -7.90332 91.3223 -8.44531C91.8643 -9.02344 92.4785 -9.4751 93.165 -9.80029C93.8516 -10.1616 94.5742 -10.3423 95.333 -10.3423C96.2002 -10.3423 97.1035 -10.0352 98.043 -9.4209C99.0186 -8.84277 99.958 -8.12012 100.861 -7.25293C101.765 -6.42188 102.596 -5.53662 103.354 -4.59717C104.149 -3.69385 104.8 -2.91699 105.306 -2.2666C105.92 -1.50781 106.516 -0.76709 107.094 -0.0444336C107.708 0.64209 108.341 1.31055 108.991 1.96094C108.738 1.05762 108.467 0.172363 108.178 -0.694824C107.925 -1.59814 107.618 -2.50146 107.257 -3.40479C106.534 -5.24756 105.902 -7.01807 105.36 -8.71631C104.818 -10.4146 104.547 -11.9863 104.547 -13.4316C104.547 -14.877 105.071 -16.1235 106.119 -17.1714C107.167 -18.2554 108.558 -18.7974 110.292 -18.7974C112.026 -18.7974 113.417 -18.2554 114.465 -17.1714C115.513 -16.1235 116.037 -14.877 116.037 -13.4316C116.037 -11.9502 115.748 -10.3604 115.17 -8.66211C114.592 -6.96387 113.941 -5.19336 113.219 -3.35059C112.532 -1.65234 111.972 0.13623 111.539 2.01514C112.225 1.36475 112.875 0.696289 113.49 0.00976562C114.14 -0.676758 114.754 -1.39941 115.333 -2.1582C116.055 -3.13379 116.778 -4.10938 117.5 -5.08496C118.259 -6.06055 119.036 -6.92773 119.831 -7.68652C120.662 -8.48145 121.529 -9.11377 122.433 -9.5835C123.336 -10.0894 124.275 -10.3423 125.251 -10.3423C126.046 -10.3423 126.787 -10.1616 127.473 -9.80029C128.196 -9.43896 128.81 -8.96924 129.316 -8.39111C129.858 -7.81299 130.273 -7.1626 130.562 -6.43994C130.852 -5.71729 130.996 -4.97656 130.996 -4.21777C130.996 -2.84473 130.508 -1.72461 129.533 -0.857422C128.593 0.00976562 127.455 0.714355 126.118 1.25635C124.781 1.76221 123.39 2.1416 121.945 2.39453C120.5 2.64746 119.289 2.84619 118.313 2.99072C117.374 3.13525 116.435 3.29785 115.495 3.47852C114.592 3.65918 113.688 3.89404 112.785 4.18311C113.725 4.43604 114.646 4.65283 115.549 4.8335C116.453 4.97803 117.374 5.12256 118.313 5.26709C119.434 5.44775 120.716 5.68262 122.162 5.97168C123.643 6.22461 125.034 6.62207 126.335 7.16406C127.636 7.66992 128.738 8.35645 129.641 9.22363C130.544 10.0908 130.996 11.1929 130.996 12.5298C130.996 13.3247 130.833 14.0835 130.508 14.8062C130.219 15.5288 129.804 16.1792 129.262 16.7573C128.72 17.2993 128.105 17.751 127.419 18.1123C126.732 18.4375 126.01 18.6001 125.251 18.6001C124.239 18.6001 123.228 18.311 122.216 17.7329C121.24 17.1187 120.319 16.3779 119.452 15.5107C118.584 14.6436 117.79 13.7402 117.067 12.8008C116.38 11.8613 115.802 11.0664 115.333 10.416C114.791 9.65723 114.194 8.93457 113.544 8.24805C112.894 7.56152 112.243 6.91113 111.593 6.29688C111.99 8.17578 112.532 9.94629 113.219 11.6084C113.941 13.4512 114.592 15.2217 115.17 16.9199C115.748 18.6182 116.037 20.208 116.037 21.6895C116.037 23.1348 115.513 24.3994 114.465 25.4834C113.417 26.5312 112.026 27.0552 110.292 27.0552Z" fill="white" fill-opacity="0.05"/>
<path d="M110.292 127.055C108.558 127.055 107.167 126.531 106.119 125.483C105.071 124.399 104.547 123.135 104.547 121.689C104.547 120.244 104.818 118.672 105.36 116.974C105.902 115.276 106.534 113.505 107.257 111.663C107.618 110.795 107.943 109.928 108.232 109.061C108.521 108.158 108.774 107.236 108.991 106.297C108.341 106.983 107.708 107.67 107.094 108.356C106.48 109.007 105.884 109.729 105.306 110.524C104.764 111.283 104.113 112.132 103.354 113.072C102.632 113.975 101.837 114.842 100.97 115.673C100.103 116.504 99.1812 117.209 98.2056 117.787C97.2661 118.329 96.3086 118.6 95.333 118.6C94.502 118.6 93.7432 118.419 93.0566 118.058C92.3701 117.697 91.7559 117.227 91.2139 116.649C90.708 116.071 90.3105 115.42 90.0215 114.698C89.7324 113.975 89.5879 113.234 89.5879 112.476C89.5879 111.03 90.0576 109.874 90.9971 109.007C91.9365 108.104 93.0747 107.399 94.4116 106.893C95.7485 106.387 97.1396 106.026 98.585 105.809C100.066 105.592 101.313 105.43 102.325 105.321C103.228 105.213 104.131 105.068 105.035 104.888C105.938 104.671 106.841 104.418 107.745 104.129C106.046 103.623 104.24 103.226 102.325 102.937C101.132 102.792 99.7954 102.593 98.314 102.34C96.8325 102.087 95.4414 101.708 94.1406 101.202C92.876 100.696 91.792 100.01 90.8887 99.1426C90.0215 98.2754 89.5879 97.1372 89.5879 95.728C89.5879 94.9331 89.7324 94.1743 90.0215 93.4517C90.3467 92.729 90.7803 92.0967 91.3223 91.5547C91.8643 90.9766 92.4785 90.5249 93.165 90.1997C93.8516 89.8384 94.5742 89.6577 95.333 89.6577C96.2002 89.6577 97.1035 89.9648 98.043 90.5791C99.0186 91.1572 99.958 91.8799 100.861 92.7471C101.765 93.5781 102.596 94.4634 103.354 95.4028C104.149 96.3062 104.8 97.083 105.306 97.7334C105.92 98.4922 106.516 99.2329 107.094 99.9556C107.708 100.642 108.341 101.311 108.991 101.961C108.738 101.058 108.467 100.172 108.178 99.3052C107.925 98.4019 107.618 97.4985 107.257 96.5952C106.534 94.7524 105.902 92.9819 105.36 91.2837C104.818 89.5854 104.547 88.0137 104.547 86.5684C104.547 85.123 105.071 83.8765 106.119 82.8286C107.167 81.7446 108.558 81.2026 110.292 81.2026C112.026 81.2026 113.417 81.7446 114.465 82.8286C115.513 83.8765 116.037 85.123 116.037 86.5684C116.037 88.0498 115.748 89.6396 115.17 91.3379C114.592 93.0361 113.941 94.8066 113.219 96.6494C112.532 98.3477 111.972 100.136 111.539 102.015C112.225 101.365 112.875 100.696 113.49 100.01C114.14 99.3232 114.754 98.6006 115.333 97.8418C116.055 96.8662 116.778 95.8906 117.5 94.915C118.259 93.9395 119.036 93.0723 119.831 92.3135C120.662 91.5186 121.529 90.8862 122.433 90.4165C123.336 89.9106 124.275 89.6577 125.251 89.6577C126.046 89.6577 126.787 89.8384 127.473 90.1997C128.196 90.561 128.81 91.0308 129.316 91.6089C129.858 92.187 130.273 92.8374 130.562 93.5601C130.852 94.2827 130.996 95.0234 130.996 95.7822C130.996 97.1553 130.508 98.2754 129.533 99.1426C128.593 100.01 127.455 100.714 126.118 101.256C124.781 101.762 123.39 102.142 121.945 102.395C120.5 102.647 119.289 102.846 118.313 102.991C117.374 103.135 116.435 103.298 115.495 103.479C114.592 103.659 113.688 103.894 112.785 104.183C113.725 104.436 114.646 104.653 115.549 104.833C116.453 104.978 117.374 105.123 118.313 105.267C119.434 105.448 120.716 105.683 122.162 105.972C123.643 106.225 125.034 106.622 126.335 107.164C127.636 107.67 128.738 108.356 129.641 109.224C130.544 110.091 130.996 111.193 130.996 112.53C130.996 113.325 130.833 114.083 130.508 114.806C130.219 115.529 129.804 116.179 129.262 116.757C128.72 117.299 128.105 117.751 127.419 118.112C126.732 118.438 126.01 118.6 125.251 118.6C124.239 118.6 123.228 118.311 122.216 117.733C121.24 117.119 120.319 116.378 119.452 115.511C118.584 114.644 117.79 113.74 117.067 112.801C116.38 111.861 115.802 111.066 115.333 110.416C114.791 109.657 114.194 108.935 113.544 108.248C112.894 107.562 112.243 106.911 111.593 106.297C111.99 108.176 112.532 109.946 113.219 111.608C113.941 113.451 114.592 115.222 115.17 116.92C115.748 118.618 116.037 120.208 116.037 121.689C116.037 123.135 115.513 124.399 114.465 125.483C113.417 126.531 112.026 127.055 110.292 127.055Z" fill="white" fill-opacity="0.05"/>
<path d="M10.292 127.055C8.55762 127.055 7.1665 126.531 6.11865 125.483C5.0708 124.399 4.54688 123.135 4.54688 121.689C4.54688 120.244 4.81787 118.672 5.35986 116.974C5.90186 115.276 6.53418 113.505 7.25684 111.663C7.61816 110.795 7.94336 109.928 8.23242 109.061C8.52148 108.158 8.77441 107.236 8.99121 106.297C8.34082 106.983 7.7085 107.67 7.09424 108.356C6.47998 109.007 5.88379 109.729 5.30566 110.524C4.76367 111.283 4.11328 112.132 3.35449 113.072C2.63184 113.975 1.83691 114.842 0.969727 115.673C0.102539 116.504 -0.818848 117.209 -1.79443 117.787C-2.73389 118.329 -3.69141 118.6 -4.66699 118.6C-5.49805 118.6 -6.25684 118.419 -6.94336 118.058C-7.62988 117.697 -8.24414 117.227 -8.78613 116.649C-9.29199 116.071 -9.68945 115.42 -9.97852 114.698C-10.2676 113.975 -10.4121 113.234 -10.4121 112.476C-10.4121 111.03 -9.94238 109.874 -9.00293 109.007C-8.06348 108.104 -6.92529 107.399 -5.58838 106.893C-4.25146 106.387 -2.86035 106.026 -1.41504 105.809C0.0664062 105.592 1.31299 105.43 2.32471 105.321C3.22803 105.213 4.13135 105.068 5.03467 104.888C5.93799 104.671 6.84131 104.418 7.74463 104.129C6.04639 103.623 4.23975 103.226 2.32471 102.937C1.13232 102.792 -0.20459 102.593 -1.68604 102.34C-3.16748 102.087 -4.55859 101.708 -5.85938 101.202C-7.12402 100.696 -8.20801 100.01 -9.11133 99.1426C-9.97852 98.2754 -10.4121 97.1372 -10.4121 95.728C-10.4121 94.9331 -10.2676 94.1743 -9.97852 93.4517C-9.65332 92.729 -9.21973 92.0967 -8.67773 91.5547C-8.13574 90.9766 -7.52148 90.5249 -6.83496 90.1997C-6.14844 89.8384 -5.42578 89.6577 -4.66699 89.6577C-3.7998 89.6577 -2.89648 89.9648 -1.95703 90.5791C-0.981445 91.1572 -0.0419922 91.8799 0.861328 92.7471C1.76465 93.5781 2.5957 94.4634 3.35449 95.4028C4.14941 96.3062 4.7998 97.083 5.30566 97.7334C5.91992 98.4922 6.51611 99.2329 7.09424 99.9556C7.7085 100.642 8.34082 101.311 8.99121 101.961C8.73828 101.058 8.46729 100.172 8.17822 99.3052C7.92529 98.4019 7.61816 97.4985 7.25684 96.5952C6.53418 94.7524 5.90186 92.9819 5.35986 91.2837C4.81787 89.5854 4.54688 88.0137 4.54688 86.5684C4.54688 85.123 5.0708 83.8765 6.11865 82.8286C7.1665 81.7446 8.55762 81.2026 10.292 81.2026C12.0264 81.2026 13.4175 81.7446 14.4653 82.8286C15.5132 83.8765 16.0371 85.123 16.0371 86.5684C16.0371 88.0498 15.748 89.6396 15.1699 91.3379C14.5918 93.0361 13.9414 94.8066 13.2188 96.6494C12.5322 98.3477 11.9722 100.136 11.5386 102.015C12.2251 101.365 12.8755 100.696 13.4897 100.01C14.1401 99.3232 14.7544 98.6006 15.3325 97.8418C16.0552 96.8662 16.7778 95.8906 17.5005 94.915C18.2593 93.9395 19.0361 93.0723 19.8311 92.3135C20.6621 91.5186 21.5293 90.8862 22.4326 90.4165C23.3359 89.9106 24.2754 89.6577 25.251 89.6577C26.0459 89.6577 26.7866 89.8384 27.4731 90.1997C28.1958 90.561 28.8101 91.0308 29.3159 91.6089C29.8579 92.187 30.2734 92.8374 30.5625 93.5601C30.8516 94.2827 30.9961 95.0234 30.9961 95.7822C30.9961 97.1553 30.5083 98.2754 29.5327 99.1426C28.5933 100.01 27.4551 100.714 26.1182 101.256C24.7812 101.762 23.3901 102.142 21.9448 102.395C20.4995 102.647 19.2891 102.846 18.3135 102.991C17.374 103.135 16.4346 103.298 15.4951 103.479C14.5918 103.659 13.6885 103.894 12.7852 104.183C13.7246 104.436 14.646 104.653 15.5493 104.833C16.4526 104.978 17.374 105.123 18.3135 105.267C19.4336 105.448 20.7163 105.683 22.1616 105.972C23.6431 106.225 25.0342 106.622 26.335 107.164C27.6357 107.67 28.7378 108.356 29.6411 109.224C30.5444 110.091 30.9961 111.193 30.9961 112.53C30.9961 113.325 30.8335 114.083 30.5083 114.806C30.2192 115.529 29.8037 116.179 29.2617 116.757C28.7197 117.299 28.1055 117.751 27.4189 118.112C26.7324 118.438 26.0098 118.6 25.251 118.6C24.2393 118.6 23.2275 118.311 22.2158 117.733C21.2402 117.119 20.3188 116.378 19.4517 115.511C18.5845 114.644 17.7896 113.74 17.0669 112.801C16.3804 111.861 15.8022 111.066 15.3325 110.416C14.7905 109.657 14.1943 108.935 13.5439 108.248C12.8936 107.562 12.2432 106.911 11.5928 106.297C11.9902 108.176 12.5322 109.946 13.2188 111.608C13.9414 113.451 14.5918 115.222 15.1699 116.92C15.748 118.618 16.0371 120.208 16.0371 121.689C16.0371 123.135 15.5132 124.399 14.4653 125.483C13.4175 126.531 12.0264 127.055 10.292 127.055Z" fill="white" fill-opacity="0.05"/>
<path d="M60.292 77.0552C58.5576 77.0552 57.1665 76.5312 56.1187 75.4834C55.0708 74.3994 54.5469 73.1348 54.5469 71.6895C54.5469 70.2441 54.8179 68.6724 55.3599 66.9741C55.9019 65.2759 56.5342 63.5054 57.2568 61.6626C57.6182 60.7954 57.9434 59.9282 58.2324 59.061C58.5215 58.1577 58.7744 57.2363 58.9912 56.2969C58.3408 56.9834 57.7085 57.6699 57.0942 58.3564C56.48 59.0068 55.8838 59.7295 55.3057 60.5244C54.7637 61.2832 54.1133 62.1323 53.3545 63.0718C52.6318 63.9751 51.8369 64.8423 50.9697 65.6733C50.1025 66.5044 49.1812 67.209 48.2056 67.7871C47.2661 68.3291 46.3086 68.6001 45.333 68.6001C44.502 68.6001 43.7432 68.4194 43.0566 68.0581C42.3701 67.6968 41.7559 67.2271 41.2139 66.6489C40.708 66.0708 40.3105 65.4204 40.0215 64.6978C39.7324 63.9751 39.5879 63.2344 39.5879 62.4756C39.5879 61.0303 40.0576 59.874 40.9971 59.0068C41.9365 58.1035 43.0747 57.3989 44.4116 56.8931C45.7485 56.3872 47.1396 56.0259 48.585 55.8091C50.0664 55.5923 51.313 55.4297 52.3247 55.3213C53.228 55.2129 54.1313 55.0684 55.0347 54.8877C55.938 54.6709 56.8413 54.418 57.7446 54.1289C56.0464 53.623 54.2397 53.2256 52.3247 52.9365C51.1323 52.792 49.7954 52.5933 48.314 52.3403C46.8325 52.0874 45.4414 51.708 44.1406 51.2021C42.876 50.6963 41.792 50.0098 40.8887 49.1426C40.0215 48.2754 39.5879 47.1372 39.5879 45.728C39.5879 44.9331 39.7324 44.1743 40.0215 43.4517C40.3467 42.729 40.7803 42.0967 41.3223 41.5547C41.8643 40.9766 42.4785 40.5249 43.165 40.1997C43.8516 39.8384 44.5742 39.6577 45.333 39.6577C46.2002 39.6577 47.1035 39.9648 48.043 40.5791C49.0186 41.1572 49.958 41.8799 50.8613 42.7471C51.7646 43.5781 52.5957 44.4634 53.3545 45.4028C54.1494 46.3062 54.7998 47.083 55.3057 47.7334C55.9199 48.4922 56.5161 49.2329 57.0942 49.9556C57.7085 50.6421 58.3408 51.3105 58.9912 51.9609C58.7383 51.0576 58.4673 50.1724 58.1782 49.3052C57.9253 48.4019 57.6182 47.4985 57.2568 46.5952C56.5342 44.7524 55.9019 42.9819 55.3599 41.2837C54.8179 39.5854 54.5469 38.0137 54.5469 36.5684C54.5469 35.123 55.0708 33.8765 56.1187 32.8286C57.1665 31.7446 58.5576 31.2026 60.292 31.2026C62.0264 31.2026 63.4175 31.7446 64.4653 32.8286C65.5132 33.8765 66.0371 35.123 66.0371 36.5684C66.0371 38.0498 65.748 39.6396 65.1699 41.3379C64.5918 43.0361 63.9414 44.8066 63.2188 46.6494C62.5322 48.3477 61.9722 50.1362 61.5386 52.0151C62.2251 51.3647 62.8755 50.6963 63.4897 50.0098C64.1401 49.3232 64.7544 48.6006 65.3325 47.8418C66.0552 46.8662 66.7778 45.8906 67.5005 44.915C68.2593 43.9395 69.0361 43.0723 69.8311 42.3135C70.6621 41.5186 71.5293 40.8862 72.4326 40.4165C73.3359 39.9106 74.2754 39.6577 75.251 39.6577C76.0459 39.6577 76.7866 39.8384 77.4731 40.1997C78.1958 40.561 78.8101 41.0308 79.3159 41.6089C79.8579 42.187 80.2734 42.8374 80.5625 43.5601C80.8516 44.2827 80.9961 45.0234 80.9961 45.7822C80.9961 47.1553 80.5083 48.2754 79.5327 49.1426C78.5933 50.0098 77.4551 50.7144 76.1182 51.2563C74.7812 51.7622 73.3901 52.1416 71.9448 52.3945C70.4995 52.6475 69.2891 52.8462 68.3135 52.9907C67.374 53.1353 66.4346 53.2979 65.4951 53.4785C64.5918 53.6592 63.6885 53.894 62.7852 54.1831C63.7246 54.436 64.646 54.6528 65.5493 54.8335C66.4526 54.978 67.374 55.1226 68.3135 55.2671C69.4336 55.4478 70.7163 55.6826 72.1616 55.9717C73.6431 56.2246 75.0342 56.6221 76.335 57.1641C77.6357 57.6699 78.7378 58.3564 79.6411 59.2236C80.5444 60.0908 80.9961 61.1929 80.9961 62.5298C80.9961 63.3247 80.8335 64.0835 80.5083 64.8062C80.2192 65.5288 79.8037 66.1792 79.2617 66.7573C78.7197 67.2993 78.1055 67.751 77.4189 68.1123C76.7324 68.4375 76.0098 68.6001 75.251 68.6001C74.2393 68.6001 73.2275 68.311 72.2158 67.7329C71.2402 67.1187 70.3188 66.3779 69.4517 65.5107C68.5845 64.6436 67.7896 63.7402 67.0669 62.8008C66.3804 61.8613 65.8022 61.0664 65.3325 60.416C64.7905 59.6572 64.1943 58.9346 63.5439 58.248C62.8936 57.5615 62.2432 56.9111 61.5928 56.2969C61.9902 58.1758 62.5322 59.9463 63.2188 61.6084C63.9414 63.4512 64.5918 65.2217 65.1699 66.9199C65.748 68.6182 66.0371 70.208 66.0371 71.6895C66.0371 73.1348 65.5132 74.3994 64.4653 75.4834C63.4175 76.5312 62.0264 77.0552 60.292 77.0552Z" fill="white" fill-opacity="0.05"/>
</g>
<defs>
<clipPath id="clip0_29_2">
<rect width="100" height="100" fill="white"/>
</clipPath>
</defs>
</svg>
