<svg width="100" height="100" viewBox="0 0 100 100" fill="none" xmlns="http://www.w3.org/2000/svg">
<g clip-path="url(#clip0_29_2)">
<path d="M15.1348 38.2178C13.1035 38.2178 11.4743 37.6042 10.2471 36.377C9.01986 35.1074 8.40625 33.6263 8.40625 31.9336C8.40625 30.2409 8.72363 28.4001 9.3584 26.4111C9.99316 24.4222 10.7337 22.3486 11.5801 20.1904C12.0033 19.1748 12.3841 18.1592 12.7227 17.1436C13.0612 16.0856 13.3574 15.0065 13.6113 13.9062C12.8496 14.7103 12.109 15.5143 11.3896 16.3184C10.6702 17.0801 9.97201 17.9264 9.29492 18.8574C8.66016 19.7461 7.89844 20.7406 7.00977 21.8408C6.16341 22.8988 5.23242 23.9144 4.2168 24.8877C3.20117 25.861 2.12207 26.6862 0.979492 27.3633C-0.120768 27.998 -1.24219 28.3154 -2.38477 28.3154C-3.35807 28.3154 -4.24674 28.1038 -5.05078 27.6807C-5.85482 27.2575 -6.57422 26.7074 -7.20898 26.0303C-7.80143 25.3532 -8.26693 24.5915 -8.60547 23.7451C-8.94401 22.8988 -9.11328 22.0312 -9.11328 21.1426C-9.11328 19.4499 -8.56315 18.0957 -7.46289 17.0801C-6.36263 16.0221 -5.02962 15.1969 -3.46387 14.6045C-1.89811 14.012 -0.26888 13.5889 1.42383 13.335C3.15885 13.0811 4.61882 12.8906 5.80371 12.7637C6.86165 12.6367 7.9196 12.4674 8.97754 12.2559C10.0355 12.002 11.0934 11.7057 12.1514 11.3672C10.1624 10.7747 8.04655 10.3092 5.80371 9.9707C4.40723 9.80143 2.84147 9.56868 1.10645 9.27246C-0.628581 8.97624 -2.25781 8.5319 -3.78125 7.93945C-5.26237 7.34701 -6.5319 6.54297 -7.58984 5.52734C-8.60547 4.51172 -9.11328 3.17871 -9.11328 1.52832C-9.11328 0.597331 -8.94401 -0.291341 -8.60547 -1.1377C-8.22461 -1.98405 -7.7168 -2.72461 -7.08203 -3.35938C-6.44727 -4.03646 -5.72786 -4.56543 -4.92383 -4.94629C-4.11979 -5.36947 -3.27344 -5.58105 -2.38477 -5.58105C-1.36914 -5.58105 -0.311198 -5.22135 0.789062 -4.50195C1.93164 -3.82487 3.0319 -2.97852 4.08984 -1.96289C5.14779 -0.989583 6.12109 0.0472005 7.00977 1.14746C7.94076 2.2054 8.70247 3.11523 9.29492 3.87695C10.0143 4.76562 10.7126 5.63314 11.3896 6.47949C12.109 7.28353 12.8496 8.06641 13.6113 8.82812C13.3151 7.77018 12.9977 6.7334 12.6592 5.71777C12.363 4.65983 12.0033 3.60189 11.5801 2.54395C10.7337 0.385742 9.99316 -1.68783 9.3584 -3.67676C8.72363 -5.66569 8.40625 -7.50651 8.40625 -9.19922C8.40625 -10.8919 9.01986 -12.3519 10.2471 -13.5791C11.4743 -14.8486 13.1035 -15.4834 15.1348 -15.4834C17.166 -15.4834 18.7952 -14.8486 20.0225 -13.5791C21.2497 -12.3519 21.8633 -10.8919 21.8633 -9.19922C21.8633 -7.46419 21.5247 -5.60221 20.8477 -3.61328C20.1706 -1.62435 19.4089 0.449219 18.5625 2.60742C17.7585 4.59635 17.1025 6.69108 16.5947 8.8916C17.3988 8.12988 18.1605 7.34701 18.8799 6.54297C19.6416 5.73893 20.361 4.89258 21.0381 4.00391C21.8844 2.86133 22.7308 1.71875 23.5771 0.576172C24.4658 -0.566406 25.3757 -1.58203 26.3066 -2.4707C27.2799 -3.40169 28.2956 -4.14225 29.3535 -4.69238C30.4115 -5.28483 31.5117 -5.58105 32.6543 -5.58105C33.5853 -5.58105 34.4528 -5.36947 35.2568 -4.94629C36.1032 -4.52311 36.8226 -3.97298 37.415 -3.2959C38.0498 -2.61882 38.5365 -1.8571 38.875 -1.01074C39.2135 -0.164388 39.3828 0.703125 39.3828 1.5918C39.3828 3.19987 38.8115 4.51172 37.6689 5.52734C36.5687 6.54297 35.2357 7.36816 33.6699 8.00293C32.1042 8.59538 30.4749 9.03971 28.7822 9.33594C27.0895 9.63216 25.6719 9.86491 24.5293 10.0342C23.429 10.2035 22.3288 10.3939 21.2285 10.6055C20.1706 10.8171 19.1126 11.0921 18.0547 11.4307C19.1549 11.7269 20.234 11.9808 21.292 12.1924C22.3499 12.3617 23.429 12.5309 24.5293 12.7002C25.8411 12.9118 27.3434 13.1868 29.0361 13.5254C30.7712 13.8216 32.4004 14.2871 33.9238 14.9219C35.4473 15.5143 36.738 16.3184 37.7959 17.334C38.8538 18.3496 39.3828 19.6403 39.3828 21.2061C39.3828 22.137 39.1924 23.0257 38.8115 23.8721C38.473 24.7184 37.9863 25.4801 37.3516 26.1572C36.7168 26.792 35.9974 27.321 35.1934 27.7441C34.3893 28.125 33.543 28.3154 32.6543 28.3154C31.4694 28.3154 30.2845 27.9769 29.0996 27.2998C27.957 26.5804 26.8779 25.7129 25.8623 24.6973C24.8467 23.6816 23.9157 22.6237 23.0693 21.5234C22.2653 20.4232 21.5882 19.4922 21.0381 18.7305C20.4033 17.8418 19.7051 16.9954 18.9434 16.1914C18.1816 15.3874 17.4199 14.6257 16.6582 13.9062C17.1237 16.1068 17.7585 18.1803 18.5625 20.127C19.4089 22.2852 20.1706 24.3587 20.8477 26.3477C21.5247 28.3366 21.8633 30.1986 21.8633 31.9336C21.8633 33.6263 21.2497 35.1074 20.0225 36.377C18.7952 37.6042 17.166 38.2178 15.1348 38.2178Z" fill="white" fill-opacity="0.02"/>
<path d="M115.135 38.2178C113.104 38.2178 111.474 37.6042 110.247 36.377C109.02 35.1074 108.406 33.6263 108.406 31.9336C108.406 30.2409 108.724 28.4001 109.358 26.4111C109.993 24.4222 110.734 22.3486 111.58 20.1904C112.003 19.1748 112.384 18.1592 112.723 17.1436C113.061 16.0856 113.357 15.0065 113.611 13.9062C112.85 14.7103 112.109 15.5143 111.39 16.3184C110.67 17.0801 109.972 17.9264 109.295 18.8574C108.66 19.7461 107.898 20.7406 107.01 21.8408C106.163 22.8988 105.232 23.9144 104.217 24.8877C103.201 25.861 102.122 26.6862 100.979 27.3633C99.8792 27.998 98.7578 28.3154 97.6152 28.3154C96.6419 28.3154 95.7533 28.1038 94.9492 27.6807C94.1452 27.2575 93.4258 26.7074 92.791 26.0303C92.1986 25.3532 91.7331 24.5915 91.3945 23.7451C91.056 22.8988 90.8867 22.0312 90.8867 21.1426C90.8867 19.4499 91.4368 18.0957 92.5371 17.0801C93.6374 16.0221 94.9704 15.1969 96.5361 14.6045C98.1019 14.012 99.7311 13.5889 101.424 13.335C103.159 13.0811 104.619 12.8906 105.804 12.7637C106.862 12.6367 107.92 12.4674 108.978 12.2559C110.035 12.002 111.093 11.7057 112.151 11.3672C110.162 10.7747 108.047 10.3092 105.804 9.9707C104.407 9.80143 102.841 9.56868 101.106 9.27246C99.3714 8.97624 97.7422 8.5319 96.2188 7.93945C94.7376 7.34701 93.4681 6.54297 92.4102 5.52734C91.3945 4.51172 90.8867 3.17871 90.8867 1.52832C90.8867 0.597331 91.056 -0.291341 91.3945 -1.1377C91.7754 -1.98405 92.2832 -2.72461 92.918 -3.35938C93.5527 -4.03646 94.2721 -4.56543 95.0762 -4.94629C95.8802 -5.36947 96.7266 -5.58105 97.6152 -5.58105C98.6309 -5.58105 99.6888 -5.22135 100.789 -4.50195C101.932 -3.82487 103.032 -2.97852 104.09 -1.96289C105.148 -0.989583 106.121 0.0472005 107.01 1.14746C107.941 2.2054 108.702 3.11523 109.295 3.87695C110.014 4.76562 110.713 5.63314 111.39 6.47949C112.109 7.28353 112.85 8.06641 113.611 8.82812C113.315 7.77018 112.998 6.7334 112.659 5.71777C112.363 4.65983 112.003 3.60189 111.58 2.54395C110.734 0.385742 109.993 -1.68783 109.358 -3.67676C108.724 -5.66569 108.406 -7.50651 108.406 -9.19922C108.406 -10.8919 109.02 -12.3519 110.247 -13.5791C111.474 -14.8486 113.104 -15.4834 115.135 -15.4834C117.166 -15.4834 118.795 -14.8486 120.022 -13.5791C121.25 -12.3519 121.863 -10.8919 121.863 -9.19922C121.863 -7.46419 121.525 -5.60221 120.848 -3.61328C120.171 -1.62435 119.409 0.449219 118.562 2.60742C117.758 4.59635 117.103 6.69108 116.595 8.8916C117.399 8.12988 118.16 7.34701 118.88 6.54297C119.642 5.73893 120.361 4.89258 121.038 4.00391C121.884 2.86133 122.731 1.71875 123.577 0.576172C124.466 -0.566406 125.376 -1.58203 126.307 -2.4707C127.28 -3.40169 128.296 -4.14225 129.354 -4.69238C130.411 -5.28483 131.512 -5.58105 132.654 -5.58105C133.585 -5.58105 134.453 -5.36947 135.257 -4.94629C136.103 -4.52311 136.823 -3.97298 137.415 -3.2959C138.05 -2.61882 138.536 -1.8571 138.875 -1.01074C139.214 -0.164388 139.383 0.703125 139.383 1.5918C139.383 3.19987 138.812 4.51172 137.669 5.52734C136.569 6.54297 135.236 7.36816 133.67 8.00293C132.104 8.59538 130.475 9.03971 128.782 9.33594C127.09 9.63216 125.672 9.86491 124.529 10.0342C123.429 10.2035 122.329 10.3939 121.229 10.6055C120.171 10.8171 119.113 11.0921 118.055 11.4307C119.155 11.7269 120.234 11.9808 121.292 12.1924C122.35 12.3617 123.429 12.5309 124.529 12.7002C125.841 12.9118 127.343 13.1868 129.036 13.5254C130.771 13.8216 132.4 14.2871 133.924 14.9219C135.447 15.5143 136.738 16.3184 137.796 17.334C138.854 18.3496 139.383 19.6403 139.383 21.2061C139.383 22.137 139.192 23.0257 138.812 23.8721C138.473 24.7184 137.986 25.4801 137.352 26.1572C136.717 26.792 135.997 27.321 135.193 27.7441C134.389 28.125 133.543 28.3154 132.654 28.3154C131.469 28.3154 130.285 27.9769 129.1 27.2998C127.957 26.5804 126.878 25.7129 125.862 24.6973C124.847 23.6816 123.916 22.6237 123.069 21.5234C122.265 20.4232 121.588 19.4922 121.038 18.7305C120.403 17.8418 119.705 16.9954 118.943 16.1914C118.182 15.3874 117.42 14.6257 116.658 13.9062C117.124 16.1068 117.758 18.1803 118.562 20.127C119.409 22.2852 120.171 24.3587 120.848 26.3477C121.525 28.3366 121.863 30.1986 121.863 31.9336C121.863 33.6263 121.25 35.1074 120.022 36.377C118.795 37.6042 117.166 38.2178 115.135 38.2178Z" fill="white" fill-opacity="0.02"/>
<path d="M115.135 138.218C113.104 138.218 111.474 137.604 110.247 136.377C109.02 135.107 108.406 133.626 108.406 131.934C108.406 130.241 108.724 128.4 109.358 126.411C109.993 124.422 110.734 122.349 111.58 120.19C112.003 119.175 112.384 118.159 112.723 117.144C113.061 116.086 113.357 115.007 113.611 113.906C112.85 114.71 112.109 115.514 111.39 116.318C110.67 117.08 109.972 117.926 109.295 118.857C108.66 119.746 107.898 120.741 107.01 121.841C106.163 122.899 105.232 123.914 104.217 124.888C103.201 125.861 102.122 126.686 100.979 127.363C99.8792 127.998 98.7578 128.315 97.6152 128.315C96.6419 128.315 95.7533 128.104 94.9492 127.681C94.1452 127.257 93.4258 126.707 92.791 126.03C92.1986 125.353 91.7331 124.591 91.3945 123.745C91.056 122.899 90.8867 122.031 90.8867 121.143C90.8867 119.45 91.4368 118.096 92.5371 117.08C93.6374 116.022 94.9704 115.197 96.5361 114.604C98.1019 114.012 99.7311 113.589 101.424 113.335C103.159 113.081 104.619 112.891 105.804 112.764C106.862 112.637 107.92 112.467 108.978 112.256C110.035 112.002 111.093 111.706 112.151 111.367C110.162 110.775 108.047 110.309 105.804 109.971C104.407 109.801 102.841 109.569 101.106 109.272C99.3714 108.976 97.7422 108.532 96.2188 107.939C94.7376 107.347 93.4681 106.543 92.4102 105.527C91.3945 104.512 90.8867 103.179 90.8867 101.528C90.8867 100.597 91.056 99.7087 91.3945 98.8623C91.7754 98.016 92.2832 97.2754 92.918 96.6406C93.5527 95.9635 94.2721 95.4346 95.0762 95.0537C95.8802 94.6305 96.7266 94.4189 97.6152 94.4189C98.6309 94.4189 99.6888 94.7786 100.789 95.498C101.932 96.1751 103.032 97.0215 104.09 98.0371C105.148 99.0104 106.121 100.047 107.01 101.147C107.941 102.205 108.702 103.115 109.295 103.877C110.014 104.766 110.713 105.633 111.39 106.479C112.109 107.284 112.85 108.066 113.611 108.828C113.315 107.77 112.998 106.733 112.659 105.718C112.363 104.66 112.003 103.602 111.58 102.544C110.734 100.386 109.993 98.3122 109.358 96.3232C108.724 94.3343 108.406 92.4935 108.406 90.8008C108.406 89.1081 109.02 87.6481 110.247 86.4209C111.474 85.1514 113.104 84.5166 115.135 84.5166C117.166 84.5166 118.795 85.1514 120.022 86.4209C121.25 87.6481 121.863 89.1081 121.863 90.8008C121.863 92.5358 121.525 94.3978 120.848 96.3867C120.171 98.3757 119.409 100.449 118.562 102.607C117.758 104.596 117.103 106.691 116.595 108.892C117.399 108.13 118.16 107.347 118.88 106.543C119.642 105.739 120.361 104.893 121.038 104.004C121.884 102.861 122.731 101.719 123.577 100.576C124.466 99.4336 125.376 98.418 126.307 97.5293C127.28 96.5983 128.296 95.8577 129.354 95.3076C130.411 94.7152 131.512 94.4189 132.654 94.4189C133.585 94.4189 134.453 94.6305 135.257 95.0537C136.103 95.4769 136.823 96.027 137.415 96.7041C138.05 97.3812 138.536 98.1429 138.875 98.9893C139.214 99.8356 139.383 100.703 139.383 101.592C139.383 103.2 138.812 104.512 137.669 105.527C136.569 106.543 135.236 107.368 133.67 108.003C132.104 108.595 130.475 109.04 128.782 109.336C127.09 109.632 125.672 109.865 124.529 110.034C123.429 110.203 122.329 110.394 121.229 110.605C120.171 110.817 119.113 111.092 118.055 111.431C119.155 111.727 120.234 111.981 121.292 112.192C122.35 112.362 123.429 112.531 124.529 112.7C125.841 112.912 127.343 113.187 129.036 113.525C130.771 113.822 132.4 114.287 133.924 114.922C135.447 115.514 136.738 116.318 137.796 117.334C138.854 118.35 139.383 119.64 139.383 121.206C139.383 122.137 139.192 123.026 138.812 123.872C138.473 124.718 137.986 125.48 137.352 126.157C136.717 126.792 135.997 127.321 135.193 127.744C134.389 128.125 133.543 128.315 132.654 128.315C131.469 128.315 130.285 127.977 129.1 127.3C127.957 126.58 126.878 125.713 125.862 124.697C124.847 123.682 123.916 122.624 123.069 121.523C122.265 120.423 121.588 119.492 121.038 118.73C120.403 117.842 119.705 116.995 118.943 116.191C118.182 115.387 117.42 114.626 116.658 113.906C117.124 116.107 117.758 118.18 118.562 120.127C119.409 122.285 120.171 124.359 120.848 126.348C121.525 128.337 121.863 130.199 121.863 131.934C121.863 133.626 121.25 135.107 120.022 136.377C118.795 137.604 117.166 138.218 115.135 138.218Z" fill="white" fill-opacity="0.02"/>
<path d="M15.1348 138.218C13.1035 138.218 11.4743 137.604 10.2471 136.377C9.01986 135.107 8.40625 133.626 8.40625 131.934C8.40625 130.241 8.72363 128.4 9.3584 126.411C9.99316 124.422 10.7337 122.349 11.5801 120.19C12.0033 119.175 12.3841 118.159 12.7227 117.144C13.0612 116.086 13.3574 115.007 13.6113 113.906C12.8496 114.71 12.109 115.514 11.3896 116.318C10.6702 117.08 9.97201 117.926 9.29492 118.857C8.66016 119.746 7.89844 120.741 7.00977 121.841C6.16341 122.899 5.23242 123.914 4.2168 124.888C3.20117 125.861 2.12207 126.686 0.979492 127.363C-0.120768 127.998 -1.24219 128.315 -2.38477 128.315C-3.35807 128.315 -4.24674 128.104 -5.05078 127.681C-5.85482 127.257 -6.57422 126.707 -7.20898 126.03C-7.80143 125.353 -8.26693 124.591 -8.60547 123.745C-8.94401 122.899 -9.11328 122.031 -9.11328 121.143C-9.11328 119.45 -8.56315 118.096 -7.46289 117.08C-6.36263 116.022 -5.02962 115.197 -3.46387 114.604C-1.89811 114.012 -0.26888 113.589 1.42383 113.335C3.15885 113.081 4.61882 112.891 5.80371 112.764C6.86165 112.637 7.9196 112.467 8.97754 112.256C10.0355 112.002 11.0934 111.706 12.1514 111.367C10.1624 110.775 8.04655 110.309 5.80371 109.971C4.40723 109.801 2.84147 109.569 1.10645 109.272C-0.628581 108.976 -2.25781 108.532 -3.78125 107.939C-5.26237 107.347 -6.5319 106.543 -7.58984 105.527C-8.60547 104.512 -9.11328 103.179 -9.11328 101.528C-9.11328 100.597 -8.94401 99.7087 -8.60547 98.8623C-8.22461 98.016 -7.7168 97.2754 -7.08203 96.6406C-6.44727 95.9635 -5.72786 95.4346 -4.92383 95.0537C-4.11979 94.6305 -3.27344 94.4189 -2.38477 94.4189C-1.36914 94.4189 -0.311198 94.7786 0.789062 95.498C1.93164 96.1751 3.0319 97.0215 4.08984 98.0371C5.14779 99.0104 6.12109 100.047 7.00977 101.147C7.94076 102.205 8.70247 103.115 9.29492 103.877C10.0143 104.766 10.7126 105.633 11.3896 106.479C12.109 107.284 12.8496 108.066 13.6113 108.828C13.3151 107.77 12.9977 106.733 12.6592 105.718C12.363 104.66 12.0033 103.602 11.5801 102.544C10.7337 100.386 9.99316 98.3122 9.3584 96.3232C8.72363 94.3343 8.40625 92.4935 8.40625 90.8008C8.40625 89.1081 9.01986 87.6481 10.2471 86.4209C11.4743 85.1514 13.1035 84.5166 15.1348 84.5166C17.166 84.5166 18.7952 85.1514 20.0225 86.4209C21.2497 87.6481 21.8633 89.1081 21.8633 90.8008C21.8633 92.5358 21.5247 94.3978 20.8477 96.3867C20.1706 98.3757 19.4089 100.449 18.5625 102.607C17.7585 104.596 17.1025 106.691 16.5947 108.892C17.3988 108.13 18.1605 107.347 18.8799 106.543C19.6416 105.739 20.361 104.893 21.0381 104.004C21.8844 102.861 22.7308 101.719 23.5771 100.576C24.4658 99.4336 25.3757 98.418 26.3066 97.5293C27.2799 96.5983 28.2956 95.8577 29.3535 95.3076C30.4115 94.7152 31.5117 94.4189 32.6543 94.4189C33.5853 94.4189 34.4528 94.6305 35.2568 95.0537C36.1032 95.4769 36.8226 96.027 37.415 96.7041C38.0498 97.3812 38.5365 98.1429 38.875 98.9893C39.2135 99.8356 39.3828 100.703 39.3828 101.592C39.3828 103.2 38.8115 104.512 37.6689 105.527C36.5687 106.543 35.2357 107.368 33.6699 108.003C32.1042 108.595 30.4749 109.04 28.7822 109.336C27.0895 109.632 25.6719 109.865 24.5293 110.034C23.429 110.203 22.3288 110.394 21.2285 110.605C20.1706 110.817 19.1126 111.092 18.0547 111.431C19.1549 111.727 20.234 111.981 21.292 112.192C22.3499 112.362 23.429 112.531 24.5293 112.7C25.8411 112.912 27.3434 113.187 29.0361 113.525C30.7712 113.822 32.4004 114.287 33.9238 114.922C35.4473 115.514 36.738 116.318 37.7959 117.334C38.8538 118.35 39.3828 119.64 39.3828 121.206C39.3828 122.137 39.1924 123.026 38.8115 123.872C38.473 124.718 37.9863 125.48 37.3516 126.157C36.7168 126.792 35.9974 127.321 35.1934 127.744C34.3893 128.125 33.543 128.315 32.6543 128.315C31.4694 128.315 30.2845 127.977 29.0996 127.3C27.957 126.58 26.8779 125.713 25.8623 124.697C24.8467 123.682 23.9157 122.624 23.0693 121.523C22.2653 120.423 21.5882 119.492 21.0381 118.73C20.4033 117.842 19.7051 116.995 18.9434 116.191C18.1816 115.387 17.4199 114.626 16.6582 113.906C17.1237 116.107 17.7585 118.18 18.5625 120.127C19.4089 122.285 20.1706 124.359 20.8477 126.348C21.5247 128.337 21.8633 130.199 21.8633 131.934C21.8633 133.626 21.2497 135.107 20.0225 136.377C18.7952 137.604 17.166 138.218 15.1348 138.218Z" fill="white" fill-opacity="0.02"/>
<path d="M65.1348 88.2178C63.1035 88.2178 61.4743 87.6042 60.2471 86.377C59.0199 85.1074 58.4062 83.6263 58.4062 81.9336C58.4062 80.2409 58.7236 78.4001 59.3584 76.4111C59.9932 74.4222 60.7337 72.3486 61.5801 70.1904C62.0033 69.1748 62.3841 68.1592 62.7227 67.1436C63.0612 66.0856 63.3574 65.0065 63.6113 63.9062C62.8496 64.7103 62.109 65.5143 61.3896 66.3184C60.6702 67.0801 59.972 67.9264 59.2949 68.8574C58.6602 69.7461 57.8984 70.7406 57.0098 71.8408C56.1634 72.8988 55.2324 73.9144 54.2168 74.8877C53.2012 75.861 52.1221 76.6862 50.9795 77.3633C49.8792 77.998 48.7578 78.3154 47.6152 78.3154C46.6419 78.3154 45.7533 78.1038 44.9492 77.6807C44.1452 77.2575 43.4258 76.7074 42.791 76.0303C42.1986 75.3532 41.7331 74.5915 41.3945 73.7451C41.056 72.8988 40.8867 72.0312 40.8867 71.1426C40.8867 69.4499 41.4368 68.0957 42.5371 67.0801C43.6374 66.0221 44.9704 65.1969 46.5361 64.6045C48.1019 64.012 49.7311 63.5889 51.4238 63.335C53.1589 63.0811 54.6188 62.8906 55.8037 62.7637C56.8617 62.6367 57.9196 62.4674 58.9775 62.2559C60.0355 62.002 61.0934 61.7057 62.1514 61.3672C60.1624 60.7747 58.0465 60.3092 55.8037 59.9707C54.4072 59.8014 52.8415 59.5687 51.1064 59.2725C49.3714 58.9762 47.7422 58.5319 46.2188 57.9395C44.7376 57.347 43.4681 56.543 42.4102 55.5273C41.3945 54.5117 40.8867 53.1787 40.8867 51.5283C40.8867 50.5973 41.056 49.7087 41.3945 48.8623C41.7754 48.016 42.2832 47.2754 42.918 46.6406C43.5527 45.9635 44.2721 45.4346 45.0762 45.0537C45.8802 44.6305 46.7266 44.4189 47.6152 44.4189C48.6309 44.4189 49.6888 44.7786 50.7891 45.498C51.9316 46.1751 53.0319 47.0215 54.0898 48.0371C55.1478 49.0104 56.1211 50.0472 57.0098 51.1475C57.9408 52.2054 58.7025 53.1152 59.2949 53.877C60.0143 54.7656 60.7126 55.6331 61.3896 56.4795C62.109 57.2835 62.8496 58.0664 63.6113 58.8281C63.3151 57.7702 62.9977 56.7334 62.6592 55.7178C62.363 54.6598 62.0033 53.6019 61.5801 52.5439C60.7337 50.3857 59.9932 48.3122 59.3584 46.3232C58.7236 44.3343 58.4062 42.4935 58.4062 40.8008C58.4062 39.1081 59.0199 37.6481 60.2471 36.4209C61.4743 35.1514 63.1035 34.5166 65.1348 34.5166C67.166 34.5166 68.7952 35.1514 70.0225 36.4209C71.2497 37.6481 71.8633 39.1081 71.8633 40.8008C71.8633 42.5358 71.5247 44.3978 70.8477 46.3867C70.1706 48.3757 69.4089 50.4492 68.5625 52.6074C67.7585 54.5964 67.1025 56.6911 66.5947 58.8916C67.3988 58.1299 68.1605 57.347 68.8799 56.543C69.6416 55.7389 70.361 54.8926 71.0381 54.0039C71.8844 52.8613 72.7308 51.7188 73.5771 50.5762C74.4658 49.4336 75.3757 48.418 76.3066 47.5293C77.2799 46.5983 78.2956 45.8577 79.3535 45.3076C80.4115 44.7152 81.5117 44.4189 82.6543 44.4189C83.5853 44.4189 84.4528 44.6305 85.2568 45.0537C86.1032 45.4769 86.8226 46.027 87.415 46.7041C88.0498 47.3812 88.5365 48.1429 88.875 48.9893C89.2135 49.8356 89.3828 50.7031 89.3828 51.5918C89.3828 53.1999 88.8115 54.5117 87.6689 55.5273C86.5687 56.543 85.2357 57.3682 83.6699 58.0029C82.1042 58.5954 80.4749 59.0397 78.7822 59.3359C77.0895 59.6322 75.6719 59.8649 74.5293 60.0342C73.429 60.2035 72.3288 60.3939 71.2285 60.6055C70.1706 60.8171 69.1126 61.0921 68.0547 61.4307C69.1549 61.7269 70.234 61.9808 71.292 62.1924C72.3499 62.3617 73.429 62.5309 74.5293 62.7002C75.8411 62.9118 77.3434 63.1868 79.0361 63.5254C80.7712 63.8216 82.4004 64.2871 83.9238 64.9219C85.4473 65.5143 86.738 66.3184 87.7959 67.334C88.8538 68.3496 89.3828 69.6403 89.3828 71.2061C89.3828 72.137 89.1924 73.0257 88.8115 73.8721C88.473 74.7184 87.9863 75.4801 87.3516 76.1572C86.7168 76.792 85.9974 77.321 85.1934 77.7441C84.3893 78.125 83.543 78.3154 82.6543 78.3154C81.4694 78.3154 80.2845 77.9769 79.0996 77.2998C77.957 76.5804 76.8779 75.7129 75.8623 74.6973C74.8467 73.6816 73.9157 72.6237 73.0693 71.5234C72.2653 70.4232 71.5882 69.4922 71.0381 68.7305C70.4033 67.8418 69.7051 66.9954 68.9434 66.1914C68.1816 65.3874 67.4199 64.6257 66.6582 63.9062C67.1237 66.1068 67.7585 68.1803 68.5625 70.127C69.4089 72.2852 70.1706 74.3587 70.8477 76.3477C71.5247 78.3366 71.8633 80.1986 71.8633 81.9336C71.8633 83.6263 71.2497 85.1074 70.0225 86.377C68.7952 87.6042 67.166 88.2178 65.1348 88.2178Z" fill="white" fill-opacity="0.02"/>
</g>
<defs>
<clipPath id="clip0_29_2">
<rect width="100" height="100" fill="white"/>
</clipPath>
</defs>
</svg>
