<svg width="240" height="480" viewBox="0 0 240 480" fill="none" xmlns="http://www.w3.org/2000/svg">
<g clip-path="url(#clip0_1_2)">
<g opacity="0.3">
<path d="M56.2129 478.326C56.2129 488.2 48.2078 491.735 38.3338 491.735C28.4597 491.735 20.4547 488.2 20.4547 478.326L24.9244 438.098C24.9244 428.229 28.4597 429.159 38.3338 429.159C48.2078 429.159 51.7431 428.229 51.7431 438.098L56.2129 478.326Z" fill="#662113"/>
<path d="M98.2506 452.838C67.1302 426.177 54.5268 388.006 38.3338 388.006C22.1407 388.006 9.53734 426.182 -21.583 452.838C-34.6611 464.042 -28.4311 470.524 -10.5025 469.223C5.47795 468.071 20.425 464.447 38.3338 464.447C56.2426 464.447 71.1946 468.071 87.1651 469.223C105.099 470.524 111.324 464.037 98.2506 452.838Z" fill="#5C913B"/>
<path d="M88.1441 442.271C64.2278 420.343 50.7888 388.936 38.3338 388.936C25.8886 388.936 12.4447 420.343 -11.4716 442.271C-30.4781 459.695 13.4336 463.606 38.3338 442.271C63.2241 463.611 107.146 459.695 88.1441 442.271Z" fill="#3E721D"/>
<path d="M88.1441 424.506C64.2278 404.021 50.7888 374.681 38.3338 374.681C25.8886 374.681 12.4447 404.021 -11.4716 424.506C-30.4781 440.783 13.4336 444.437 38.3338 424.506C63.2241 444.442 107.146 440.783 88.1441 424.506Z" fill="#5C913B"/>
<path d="M77.2169 409.959C58.5516 393.964 48.0595 371.056 38.3338 371.056C28.6179 371.056 18.1209 393.959 -0.549333 409.959C-15.3827 422.667 18.8922 425.519 38.3338 409.959C57.7654 425.515 92.0552 422.667 77.2169 409.959Z" fill="#3E721D"/>
<path d="M77.2169 396.649C58.5516 380.654 48.0595 357.751 38.3338 357.751C28.6179 357.751 18.1209 380.654 -0.549333 396.649C-15.3827 409.361 18.8922 412.209 38.3338 396.649C57.7654 412.209 92.0552 409.361 77.2169 396.649Z" fill="#5C913B"/>
<path d="M69.7112 384.827C54.6455 371.922 46.1757 353.434 38.3288 353.434C30.4869 353.434 22.0171 371.922 6.94644 384.827C-5.029 395.086 22.6401 397.386 38.3288 384.827C54.0225 397.386 81.6916 395.086 69.7112 384.827Z" fill="#3E721D"/>
<path d="M69.7112 374.809C54.6455 361.904 46.1757 343.417 38.3288 343.417C30.4869 343.417 22.0171 361.904 6.94644 374.809C-5.029 385.069 22.6401 387.368 38.3288 374.809C54.0225 387.368 81.6916 385.069 69.7112 374.809Z" fill="#5C913B"/>
<path d="M62.2105 360.06C50.7493 350.24 44.3067 336.173 38.3338 336.173C32.3658 336.173 25.9183 350.24 14.4521 360.06C5.3395 367.867 26.3929 369.618 38.3338 360.06C50.2697 369.618 71.3281 367.867 62.2105 360.06Z" fill="#3E721D"/>
<path d="M62.2105 354.725C50.7493 344.9 44.3067 330.833 38.3338 330.833C32.3658 330.833 25.9183 344.9 14.4521 354.725C5.3395 362.532 26.3929 364.282 38.3338 354.725C50.2697 364.278 71.3281 362.527 62.2105 354.725Z" fill="#5C913B"/>
<path d="M28.5833 382.958C32.6794 382.958 36 379.637 36 375.541C36 371.445 32.6794 368.124 28.5833 368.124C24.4872 368.124 21.1667 371.445 21.1667 375.541C21.1667 379.637 24.4872 382.958 28.5833 382.958Z" fill="#FFCC4D"/>
<path d="M45.8889 449.5C51.3504 449.5 55.7778 445.073 55.7778 439.611C55.7778 434.15 51.3504 429.722 45.8889 429.722C40.4274 429.722 36 434.15 36 439.611C36 445.073 40.4274 449.5 45.8889 449.5Z" fill="#FFCC4D"/>
<path d="M58.25 405C65.0768 405 70.6111 399.466 70.6111 392.639C70.6111 385.812 65.0768 380.278 58.25 380.278C51.4231 380.278 45.8889 385.812 45.8889 392.639C45.8889 399.466 51.4231 405 58.25 405Z" fill="#DD2E44"/>
<path d="M-3.55555 454.444C1.90593 454.444 6.33334 450.017 6.33334 444.556C6.33334 439.094 1.90593 434.667 -3.55555 434.667C-9.01704 434.667 -13.4444 439.094 -13.4444 444.556C-13.4444 450.017 -9.01704 454.444 -3.55555 454.444Z" fill="#DD2E44"/>
<path d="M16.2222 419.833C21.6837 419.833 26.1111 415.406 26.1111 409.944C26.1111 404.483 21.6837 400.056 16.2222 400.056C10.7607 400.056 6.33333 404.483 6.33333 409.944C6.33333 415.406 10.7607 419.833 16.2222 419.833Z" fill="#A6D388"/>
<path d="M75.5556 439.611C81.017 439.611 85.4444 435.184 85.4444 429.722C85.4444 424.261 81.017 419.833 75.5556 419.833C70.0941 419.833 65.6667 424.261 65.6667 429.722C65.6667 435.184 70.0941 439.611 75.5556 439.611Z" fill="#A6D388"/>
<path d="M42.8184 324.302C43.5254 325.661 45.3499 327.016 46.858 327.313L53.6764 328.643C55.1844 328.94 55.5404 330.077 54.4625 331.175L49.6022 336.139C48.5292 337.236 47.7974 339.387 47.9903 340.91L48.8308 347.803C49.0187 349.331 48.0447 350.018 46.6652 349.335L40.45 346.245C39.0705 345.563 36.801 345.533 35.4067 346.181L29.1074 349.118C27.7131 349.761 26.7539 349.049 26.9813 347.526L27.9949 340.653C28.2174 339.135 27.545 336.969 26.5017 335.842L21.76 330.764C20.7118 329.642 21.0925 328.505 22.6104 328.252L29.4585 327.095C30.9764 326.843 32.8257 325.533 33.5723 324.188L36.9394 318.111C37.6861 316.766 38.8875 316.781 39.5946 318.141L42.8184 324.302Z" fill="#FFAC33"/>
</g>
<g opacity="0.2">
<g opacity="0.5">
<path d="M247.583 491.639C247.583 501.478 239.533 509.528 229.694 509.528H131.306C121.467 509.528 113.417 501.478 113.417 491.639V415.611C113.417 405.772 121.467 397.722 131.306 397.722H229.694C239.533 397.722 247.583 405.772 247.583 415.611V491.639Z" fill="#FDD888"/>
<path d="M261 402.194C261 412.033 252.95 420.083 243.111 420.083H117.889C108.05 420.083 100 412.033 100 402.194C100 392.356 108.05 384.306 117.889 384.306H243.111C252.95 384.306 261 392.356 261 402.194Z" fill="#FDD888"/>
<path d="M113.417 420.083H247.583V429.028H113.417V420.083Z" fill="#FCAB40"/>
<path d="M184.972 366.417H176.028C168.617 366.417 162.611 372.423 162.611 379.833V509.528H198.389V379.833C198.389 372.427 192.383 366.417 184.972 366.417Z" fill="#DA2F47"/>
<path d="M171.556 384.306C176.475 384.306 177.204 381.998 173.17 379.176L143.108 358.13C139.074 355.308 133.783 356.493 131.341 360.764L122.325 376.542C119.884 380.813 121.914 384.306 126.833 384.306H171.556ZM189.444 384.306C184.525 384.306 183.796 381.998 187.83 379.176L217.897 358.13C221.926 355.308 227.221 356.493 229.663 360.764L238.679 376.537C241.117 380.813 239.086 384.306 234.167 384.306H189.444Z" fill="#DA2F47"/>
</g>
<g clip-path="url(#clip1_1_2)">
<path d="M256.881 475.396C258.987 480.542 256.499 486.477 251.352 488.583L199.884 509.645C194.737 511.751 188.803 509.263 186.697 504.117L170.421 464.346C168.315 459.199 170.803 453.264 175.95 451.158L227.418 430.096C232.565 427.99 238.499 430.478 240.606 435.625L256.881 475.396Z" fill="#FDD888"/>
<path d="M244.752 425.734C246.858 430.881 244.37 436.815 239.223 438.921L173.718 465.728C168.571 467.834 162.637 465.346 160.531 460.199C158.425 455.052 160.913 449.118 166.059 447.012L231.565 420.206C236.711 418.1 242.646 420.587 244.752 425.734Z" fill="#FDD888"/>
<path d="M171.379 466.685L241.563 437.964L243.478 442.643L173.294 471.364L171.379 466.685Z" fill="#FCAB40"/>
<path d="M197.322 423.294L192.643 425.208C188.767 426.795 186.91 431.222 188.497 435.099L216.26 502.943L234.976 495.285L207.213 427.44C205.627 423.566 201.199 421.707 197.322 423.294Z" fill="#DA2F47"/>
<path d="M194.133 435.524C196.706 434.47 196.594 433.107 193.88 432.495L173.648 427.92C170.934 427.308 168.42 429.06 168.057 431.817L166.718 442.001C166.355 444.758 168.165 446.15 170.738 445.097L194.133 435.524ZM203.491 431.694C200.918 432.747 200.042 431.696 201.548 429.356L212.771 411.91C214.275 409.572 217.299 409.058 219.49 410.77L227.583 417.091C229.773 418.806 229.459 421.067 226.886 422.12L203.491 431.694Z" fill="#DA2F47"/>
</g>
<path d="M186.75 491.917C186.75 495.033 184.2 497.583 181.083 497.583H149.917C146.8 497.583 144.25 495.033 144.25 491.917V467.833C144.25 464.717 146.8 462.167 149.917 462.167H181.083C184.2 462.167 186.75 464.717 186.75 467.833V491.917Z" fill="#FDD888"/>
<path d="M191 463.583C191 466.7 188.45 469.25 185.333 469.25H145.667C142.55 469.25 140 466.7 140 463.583C140 460.467 142.55 457.917 145.667 457.917H185.333C188.45 457.917 191 460.467 191 463.583Z" fill="#FDD888"/>
<path d="M144.25 469.25H186.75V472.083H144.25V469.25Z" fill="#FCAB40"/>
<path d="M166.917 452.25H164.083C161.736 452.25 159.833 454.153 159.833 456.5V497.583H171.167V456.5C171.167 454.154 169.264 452.25 166.917 452.25Z" fill="#DA2F47"/>
<path d="M162.667 457.917C164.225 457.917 164.456 457.186 163.178 456.292L153.655 449.625C152.377 448.731 150.702 449.106 149.928 450.459L147.072 455.457C146.299 456.81 146.942 457.917 148.5 457.917H162.667ZM168.333 457.917C166.775 457.917 166.544 457.186 167.822 456.292L177.346 449.625C178.623 448.731 180.3 449.106 181.073 450.459L183.929 455.456C184.702 456.81 184.058 457.917 182.5 457.917H168.333Z" fill="#DA2F47"/>
</g>
<g opacity="0.2">
<g clip-path="url(#clip2_1_2)">
<path d="M45 49.586V30.415L49.828 25.586C49.828 25.586 50.535 24.879 49.828 24.171C49.121 23.464 48.414 24.171 48.414 24.171L45 27.586V23C45 23 45 22 44 22C43 22 43 23 43 23V27.586L39.586 24.171C39.586 24.171 38.879 23.464 38.172 24.171C37.465 24.879 38.172 25.586 38.172 25.586L43 30.415V49.586L38.172 54.414C38.172 54.414 37.465 55.121 38.172 55.828C38.879 56.535 39.586 55.828 39.586 55.828L43 52.414V57C43 57 43 58 44 58C45 58 45 57 45 57V52.414L48.414 55.828C48.414 55.828 49.121 56.535 49.828 55.828C50.535 55.121 49.828 54.414 49.828 54.414L45 49.586Z" fill="#88C9F9"/>
<path d="M60.622 42.866C60.363 41.9 59.397 42.159 59.397 42.159L52.802 43.926L36.199 34.34L34.432 27.745C34.432 27.745 34.173 26.779 33.207 27.038C32.24 27.297 32.5 28.263 32.5 28.263L33.75 32.927L29.778 30.633C29.778 30.633 28.912 30.133 28.412 30.999C27.912 31.865 28.778 32.365 28.778 32.365L32.749 34.658L28.085 35.907C28.085 35.907 27.118 36.166 27.378 37.132C27.637 38.099 28.603 37.84 28.603 37.84L35.199 36.073L51.802 45.659L53.569 52.255C53.569 52.255 53.828 53.221 54.794 52.962C55.76 52.702 55.501 51.737 55.501 51.737L54.251 47.073L58.223 49.366C58.223 49.366 59.09 49.866 59.59 49.001C60.09 48.134 59.223 47.634 59.223 47.634L55.252 45.341L59.915 44.092C59.915 44.091 60.881 43.832 60.622 42.866Z" fill="#88C9F9"/>
<path d="M59.915 35.907L55.251 34.657L59.223 32.364C59.223 32.364 60.09 31.863 59.59 30.997C59.089 30.13 58.223 30.631 58.223 30.631L54.252 32.923L55.501 28.26C55.501 28.26 55.76 27.294 54.794 27.035C53.828 26.776 53.569 27.742 53.569 27.742L51.802 34.337L35.198 43.926L28.604 42.158C28.604 42.158 27.638 41.899 27.379 42.865C27.119 43.832 28.086 44.09 28.086 44.09L32.749 45.339L28.778 47.632C28.778 47.632 27.913 48.133 28.413 48.999C28.913 49.864 29.778 49.364 29.778 49.364L33.75 47.071L32.5 51.734C32.5 51.734 32.241 52.701 33.207 52.959C34.174 53.219 34.433 52.253 34.433 52.253L36.201 45.656L52.805 36.071L59.4 37.839C59.4 37.839 60.366 38.098 60.625 37.132C60.88 36.165 59.915 35.907 59.915 35.907Z" fill="#88C9F9"/>
</g>
<g clip-path="url(#clip3_1_2)">
<path d="M202.444 131.26V122.74L204.59 120.594C204.59 120.594 204.904 120.28 204.59 119.965C204.276 119.651 203.962 119.965 203.962 119.965L202.444 121.483V119.444C202.444 119.444 202.444 119 202 119C201.556 119 201.556 119.444 201.556 119.444V121.483L200.038 119.965C200.038 119.965 199.724 119.651 199.41 119.965C199.096 120.28 199.41 120.594 199.41 120.594L201.556 122.74V131.26L199.41 133.406C199.41 133.406 199.096 133.72 199.41 134.035C199.724 134.349 200.038 134.035 200.038 134.035L201.556 132.517V134.556C201.556 134.556 201.556 135 202 135C202.444 135 202.444 134.556 202.444 134.556V132.517L203.962 134.035C203.962 134.035 204.276 134.349 204.59 134.035C204.904 133.72 204.59 133.406 204.59 133.406L202.444 131.26Z" fill="#88C9F9"/>
<path d="M209.388 128.274C209.272 127.844 208.843 127.96 208.843 127.96L205.912 128.745L198.533 124.484L197.748 121.553C197.748 121.553 197.632 121.124 197.203 121.239C196.773 121.354 196.889 121.784 196.889 121.784L197.444 123.856L195.679 122.837C195.679 122.837 195.294 122.615 195.072 123C194.85 123.384 195.235 123.607 195.235 123.607L197 124.626L194.927 125.181C194.927 125.181 194.497 125.296 194.612 125.725C194.728 126.155 195.157 126.04 195.157 126.04L198.088 125.255L205.468 129.515L206.253 132.447C206.253 132.447 206.368 132.876 206.797 132.761C207.227 132.645 207.112 132.216 207.112 132.216L206.556 130.144L208.321 131.163C208.321 131.163 208.707 131.385 208.929 131C209.151 130.615 208.766 130.393 208.766 130.393L207.001 129.374L209.073 128.819C209.073 128.818 209.503 128.703 209.388 128.274Z" fill="#88C9F9"/>
<path d="M209.073 125.181L207 124.625L208.766 123.606C208.766 123.606 209.151 123.384 208.929 122.999C208.706 122.613 208.321 122.836 208.321 122.836L206.556 123.855L207.112 121.782C207.112 121.782 207.227 121.353 206.797 121.238C206.368 121.123 206.253 121.552 206.253 121.552L205.468 124.483L198.088 128.745L195.157 127.959C195.157 127.959 194.728 127.844 194.613 128.273C194.497 128.703 194.927 128.818 194.927 128.818L197 129.373L195.235 130.392C195.235 130.392 194.85 130.615 195.072 131C195.295 131.384 195.679 131.162 195.679 131.162L197.444 130.143L196.889 132.215C196.889 132.215 196.774 132.645 197.203 132.76C197.633 132.875 197.748 132.446 197.748 132.446L198.534 129.514L205.913 125.254L208.844 126.04C208.844 126.04 209.274 126.155 209.389 125.725C209.502 125.296 209.073 125.181 209.073 125.181Z" fill="#88C9F9"/>
</g>
<g clip-path="url(#clip4_1_2)">
<path d="M42.25 168.69V154.311L45.871 150.689C45.871 150.689 46.4012 150.159 45.871 149.628C45.3407 149.098 44.8105 149.628 44.8105 149.628L42.25 152.189V148.75C42.25 148.75 42.25 148 41.5 148C40.75 148 40.75 148.75 40.75 148.75V152.189L38.1895 149.628C38.1895 149.628 37.6593 149.098 37.129 149.628C36.5988 150.159 37.129 150.689 37.129 150.689L40.75 154.311V168.69L37.129 172.311C37.129 172.311 36.5988 172.841 37.129 173.371C37.6593 173.901 38.1895 173.371 38.1895 173.371L40.75 170.81V174.25C40.75 174.25 40.75 175 41.5 175C42.25 175 42.25 174.25 42.25 174.25V170.81L44.8105 173.371C44.8105 173.371 45.3407 173.901 45.871 173.371C46.4012 172.841 45.871 172.311 45.871 172.311L42.25 168.69Z" fill="#88C9F9"/>
<path d="M53.9665 163.65C53.7722 162.925 53.0477 163.119 53.0477 163.119L48.1015 164.445L35.6492 157.255L34.324 152.309C34.324 152.309 34.1297 151.584 33.4052 151.779C32.68 151.973 32.875 152.697 32.875 152.697L33.8125 156.195L30.8335 154.475C30.8335 154.475 30.184 154.1 29.809 154.749C29.434 155.399 30.0835 155.774 30.0835 155.774L33.0617 157.494L29.5637 158.43C29.5637 158.43 28.8385 158.625 29.0335 159.349C29.2277 160.074 29.9522 159.88 29.9522 159.88L34.8992 158.555L47.3515 165.744L48.6767 170.691C48.6767 170.691 48.871 171.416 49.5955 171.222C50.32 171.027 50.1257 170.303 50.1257 170.303L49.1882 166.805L52.1672 168.525C52.1672 168.525 52.8175 168.9 53.1925 168.251C53.5675 167.601 52.9172 167.226 52.9172 167.226L49.939 165.506L53.4362 164.569C53.4362 164.568 54.1607 164.374 53.9665 163.65Z" fill="#88C9F9"/>
<path d="M53.4362 158.43L49.9382 157.493L52.9172 155.773C52.9172 155.773 53.5675 155.397 53.1925 154.748C52.8167 154.098 52.1672 154.473 52.1672 154.473L49.189 156.192L50.1257 152.695C50.1257 152.695 50.32 151.971 49.5955 151.776C48.871 151.582 48.6767 152.307 48.6767 152.307L47.3515 157.253L34.8985 164.444L29.953 163.119C29.953 163.119 29.2285 162.924 29.0342 163.649C28.8392 164.374 29.5645 164.567 29.5645 164.567L33.0617 165.504L30.0835 167.224C30.0835 167.224 29.4347 167.6 29.8097 168.249C30.1847 168.898 30.8335 168.523 30.8335 168.523L33.8125 166.803L32.875 170.3C32.875 170.3 32.6807 171.026 33.4052 171.219C34.1305 171.414 34.3247 170.69 34.3247 170.69L35.6507 165.742L48.1037 158.553L53.05 159.879C53.05 159.879 53.7745 160.073 53.9687 159.349C54.16 158.624 53.4362 158.43 53.4362 158.43Z" fill="#88C9F9"/>
</g>
<g clip-path="url(#clip5_1_2)">
<path d="M132.389 306.728V299.273L134.266 297.395C134.266 297.395 134.541 297.12 134.266 296.844C133.991 296.569 133.717 296.844 133.717 296.844L132.389 298.172V296.389C132.389 296.389 132.389 296 132 296C131.611 296 131.611 296.389 131.611 296.389V298.172L130.283 296.844C130.283 296.844 130.008 296.569 129.734 296.844C129.459 297.12 129.734 297.395 129.734 297.395L131.611 299.273V306.728L129.734 308.605C129.734 308.605 129.459 308.88 129.734 309.155C130.008 309.43 130.283 309.155 130.283 309.155L131.611 307.828V309.611C131.611 309.611 131.611 310 132 310C132.389 310 132.389 309.611 132.389 309.611V307.828L133.717 309.155C133.717 309.155 133.991 309.43 134.266 309.155C134.541 308.88 134.266 308.605 134.266 308.605L132.389 306.728Z" fill="#88C9F9"/>
<path d="M138.464 304.115C138.363 303.739 137.988 303.84 137.988 303.84L135.423 304.527L128.966 300.799L128.279 298.234C128.279 298.234 128.178 297.859 127.803 297.959C127.427 298.06 127.528 298.436 127.528 298.436L128.014 300.249L126.469 299.357C126.469 299.357 126.132 299.163 125.938 299.5C125.744 299.836 126.08 300.031 126.08 300.031L127.625 300.923L125.811 301.408C125.811 301.408 125.435 301.509 125.536 301.885C125.637 302.261 126.012 302.16 126.012 302.16L128.577 301.473L135.034 305.201L135.721 307.766C135.721 307.766 135.822 308.142 136.198 308.041C136.573 307.94 136.473 307.564 136.473 307.564L135.986 305.751L137.531 306.642C137.531 306.642 137.868 306.837 138.063 306.5C138.257 306.163 137.92 305.969 137.92 305.969L136.376 305.077L138.189 304.591C138.189 304.591 138.565 304.49 138.464 304.115Z" fill="#88C9F9"/>
<path d="M138.189 301.408L136.375 300.922L137.92 300.03C137.92 300.03 138.257 299.836 138.063 299.499C137.868 299.162 137.531 299.357 137.531 299.357L135.987 300.248L136.473 298.434C136.473 298.434 136.573 298.059 136.198 297.958C135.822 297.857 135.721 298.233 135.721 298.233L135.034 300.798L128.577 304.527L126.013 303.839C126.013 303.839 125.637 303.739 125.536 304.114C125.435 304.49 125.811 304.591 125.811 304.591L127.625 305.076L126.08 305.968C126.08 305.968 125.744 306.163 125.938 306.5C126.133 306.836 126.469 306.642 126.469 306.642L128.014 305.75L127.528 307.563C127.528 307.563 127.427 307.939 127.803 308.04C128.179 308.141 128.279 307.765 128.279 307.765L128.967 305.2L135.424 301.472L137.989 302.16C137.989 302.16 138.365 302.26 138.465 301.885C138.564 301.509 138.189 301.408 138.189 301.408Z" fill="#88C9F9"/>
</g>
</g>
</g>
<defs>
<clipPath id="clip0_1_2">
<rect width="240" height="480" fill="white"/>
</clipPath>
<clipPath id="clip1_1_2">
<rect width="91" height="91" fill="white" transform="translate(150 434.465) rotate(-22.2555)"/>
</clipPath>
<clipPath id="clip2_1_2">
<rect width="36" height="36" fill="white" transform="translate(26 22)"/>
</clipPath>
<clipPath id="clip3_1_2">
<rect width="16" height="16" fill="white" transform="translate(194 119)"/>
</clipPath>
<clipPath id="clip4_1_2">
<rect width="27" height="27" fill="white" transform="translate(28 148)"/>
</clipPath>
<clipPath id="clip5_1_2">
<rect width="14" height="14" fill="white" transform="translate(125 296)"/>
</clipPath>
</defs>
</svg>
