<svg xmlns="http://www.w3.org/2000/svg" width="128" height="128" fill="#1995f9" viewBox="0 0 24 24">
  <style>
    .dot-1 {
      transform-origin: 4px 50%;
      animation: dot-pulse .8s linear infinite, dot-disappear 4s -3s linear infinite;
    }

    .dot-2 {
      transform-origin: 12px 50%;
      animation: dot-pulse .8s -.65s linear infinite, dot-disappear 4s -3s linear infinite;
    }

    .dot-3 {
      transform-origin: 20px 50%;
      animation: dot-pulse .8s -.5s linear infinite, dot-move 4s -3s linear infinite;
    }

    .letter-1 {
      transform-origin: 4px 50%;
      animation: letter-appear 4s -3.05s linear infinite both;
    }

    .letter-2 {
      transform-origin: 12px 50%;
      animation: letter-appear 4s -3s linear infinite both;
    }

    @keyframes dot-pulse {

      93.75%,
      100% {
        r: 3px
      }

      46.875% {
        r: .2px
      }
    }

    @keyframes dot-disappear {

      70%,
      100% {
        transform: none;
      }

      75%,
      95% {
        transform: scale(0);
      }
    }

    @keyframes dot-move {

      70%,
      100% {
        transform: none;
      }

      75%,
      95% {
        transform: scale(0.5) translateX(-2px);
      }
    }

    @keyframes letter-appear {

      0%, 70%,
      100% {
        transform: scale(0.5);
        opacity: 0;
      }

      75%,
      95% {
        transform: none;
        opacity: 1;
      }

      85% {
        transform: scale(1.3);
      }
    }
  </style>
  <circle class="dot dot-1" cx="4" cy="12" r="3" />
  <circle class="dot dot-2" cx="12" cy="12" r="3" />
  <circle class="dot dot-3" cx="20" cy="12" r="3" style="fill: #FF8205;" />

  <g class="letter letter-1">
    <svg xmlns="http://www.w3.org/2000/svg" width="10" height="10" x="1" y="4" viewBox="0 0 51 71" fill="none">
      <g clip-path="url(#clip0_32_8)">
        <path
          d="M0 62.05L5.123 51.368C11.0817 55.3647 16.786 57.363 22.236 57.363C24.4887 57.363 26.596 56.927 28.558 56.055C30.52 55.183 31.501 53.8387 31.501 52.022C31.501 49.9147 28.2673 48.1343 21.8 46.681C15.6233 45.2277 10.9 43.302 7.63 40.904C4.36 38.506 2.725 34.8363 2.725 29.895C2.725 24.663 4.86867 20.5573 9.156 17.578C13.516 14.526 18.421 13 23.871 13C30.411 13 37.0963 14.744 43.927 18.232L38.804 28.914C34.0807 26.516 29.103 25.317 23.871 25.317C22.1997 25.317 20.6737 25.7167 19.293 26.516C17.985 27.3153 17.331 28.369 17.331 29.677C17.331 31.639 19.8743 33.1287 24.961 34.146C27.8677 34.7273 30.4473 35.4177 32.7 36.217C34.9527 37.0163 37.169 38.1063 39.349 39.487C41.529 40.795 43.2003 42.5027 44.363 44.61C45.5257 46.6447 46.107 49.0427 46.107 51.804C46.107 55.0013 45.344 57.8353 43.818 60.306C42.292 62.704 40.2937 64.557 37.823 65.865C35.3523 67.173 32.809 68.1177 30.193 68.699C27.577 69.353 24.9247 69.68 22.236 69.68C18.6027 69.68 15.0783 69.1713 11.663 68.154C8.24767 67.064 5.70433 66.0103 4.033 64.993C2.36167 63.9757 1.01733 62.9947 0 62.05Z"
          fill="#1F97F9" />
      </g>
      <defs>
        <clipPath id="clip0_32_8">
          <rect width="50" height="70" fill="white" transform="translate(0.0122681 0.410004)" />
        </clipPath>
      </defs>
    </svg>
  </g>

  <g class="letter letter-2">
    <svg xmlns="http://www.w3.org/2000/svg" width="10" height="10" x="9" y="4" viewBox="0 0 51 70" fill="none">
      <g clip-path="url(#clip0_32_9)">
        <path
          d="M8.066 50.72V25.65H0V13.878H7.957V3.959L22.563 0.688995V13.878H37.605V25.65H22.672V51.156C22.672 54.9347 24.198 56.824 27.25 56.824C28.4127 56.824 29.5753 56.6423 30.738 56.279C31.9733 55.843 32.918 55.4433 33.572 55.08L34.444 54.426L38.586 65.435C34.3713 68.1237 29.9023 69.468 25.179 69.468C19.2203 69.468 14.8603 67.9057 12.099 64.781C9.41034 61.5837 8.066 56.8967 8.066 50.72Z"
          fill="#1F97F9" />
      </g>
      <defs>
        <clipPath id="clip0_32_9">
          <rect width="50" height="70" fill="white" transform="translate(0.0421448)" />
        </clipPath>
      </defs>
    </svg>
  </g>
</svg>
