<svg version="1.2" xmlns="http://www.w3.org/2000/svg" viewBox="0 0 421 93" width="421" height="93"><style>.a{fill:#ff8205}.b{fill:#fff}</style><path class="a" d="m404 65.7c-0.7-3.6 1-7.3 4.3-9.1 3.3-1.7 7.3-1.1 9.9 1.5 2.6 2.6 3.2 6.7 1.5 9.9-1.8 3.3-5.5 5-9.1 4.3q-1.2-0.2-2.3-0.8-1.1-0.6-2-1.5-0.9-0.9-1.5-2-0.6-1.1-0.8-2.3z"/><path fill-rule="evenodd" class="b" d="m198 21.7v47.1c0 16.2-12.8 23.6-25.8 23.6-10.6 0-19.2-4.1-23.5-12.1l10.9-6.2c2.1 3.8 5.3 6.9 13 6.9 8 0 13-4.4 13-12.2v-5.3c-3.5 4.6-8.8 7.5-15.9 7.5-14 0-24.6-11.4-24.6-25.4 0-13.9 10.6-25.3 24.6-25.3 7 0 12.4 2.9 15.9 7.5v-6.1zm-12.5 24c0-7.8-5.8-13.5-13.9-13.5-8 0-13.8 5.7-13.8 13.5 0 7.8 5.8 13.5 13.8 13.5 8.1 0 13.9-5.6 13.9-13.6zm24.2-40.6q0.3-0.9 0.9-1.7 0.5-0.8 1.2-1.4 0.7-0.6 1.6-1.1 0.8-0.4 1.8-0.6c1.1-0.3 2.3-0.3 3.5 0 1.1 0.3 2.2 0.8 3.1 1.5 1 0.8 1.7 1.7 2.3 2.8 0.5 1 0.8 2.2 0.8 3.4 0 2.3-1.1 4.5-2.9 6-1.8 1.5-4.2 2.1-6.4 1.6-2.3-0.4-4.3-1.8-5.5-3.8-1.1-2.1-1.3-4.5-0.4-6.7zm0.9 16.6h12.8v49.5h-12.8zm62.4 35.1c0 10.7-9.3 15.8-19.9 15.8-9.9 0-17.2-4.1-20.8-11.7l11.1-6.3c1.4 4 4.7 6.5 9.7 6.5 4 0 6.8-1.4 6.8-4.3 0-7.2-25.5-3.3-25.5-20.7 0-10.1 8.6-15.7 18.8-15.7 8 0 15 3.6 18.8 10.5l-10.9 5.9q-0.5-1.1-1.3-2.1-0.8-0.9-1.9-1.6-1-0.7-2.2-1-1.2-0.3-2.5-0.3c-3.2 0-5.7 1.4-5.7 4.1-0.1 7.2 25.5 2.7 25.5 20.9zm24.8-22.7v20.6c0 5.3 3.9 5.4 11.2 5v11.6c-17.9 2-24-3.3-24-16.7v-20.5h-8.6v-12.4h8.6v-10l12.8-3.8v13.8h11.2v12.4zm44.5 27c4.9 0 8.9-2.1 11-5l10.4 6c-4.7 6.7-12.1 10.6-21.6 10.6-16.7-0.1-27.1-11.4-27.1-26.2 0-14.7 10.5-26.1 26.1-26.1 14.6 0 25 11.5 25 26.1q0 0.7-0.1 1.3 0 0.7-0.1 1.3 0 0.7-0.1 1.3-0.1 0.7-0.2 1.3h-37.3c1.8 6.6 7.2 9.4 14 9.4zm11-19.2c-1.5-7.2-6.9-10-12.2-10-6.9 0-11.5 3.6-13 10zm50.5-21.1v14.3c-6.7-0.8-15.1 2.1-15.1 12.5v23.7h-12.7v-49.6h12.7v8.6c2.6-6.8 8.8-9.5 15.1-9.5zm-344.2-16.7h5.2l0.4 0.4 11.3 67.2h-14.8l-5.6-35.3h-0.2l-15.1 23.3h-5.1l-15.3-23.3h-0.2l-5.6 35.3h-14.7l2.4-14.2 9-53.4h5.5l21.3 33.2h0.2z"/><path fill-rule="evenodd" class="b" d="m108.5 73c-14.7 0-26.5-11.8-26.5-26.5 0-14.7 11.8-26.5 26.5-26.5 14.7 0 26.5 11.8 26.5 26.5 0 14.7-11.8 26.5-26.5 26.5zm14.5-26c0-7.7-6.3-14-14-14-7.7 0-14 6.3-14 14 0 7.7 6.3 14 14 14 7.7 0 14-6.3 14-14z"/></svg>