<svg width="240" height="480" viewBox="0 0 240 480" fill="none" xmlns="http://www.w3.org/2000/svg">
<g clip-path="url(#clip0_3_2)">
<g opacity="0.2">
<g opacity="0.5">
<path d="M247.583 491.639C247.583 501.478 239.533 509.528 229.694 509.528H131.306C121.467 509.528 113.417 501.478 113.417 491.639V415.611C113.417 405.772 121.467 397.722 131.306 397.722H229.694C239.533 397.722 247.583 405.772 247.583 415.611V491.639Z" fill="#FDD888"/>
<path d="M261 402.194C261 412.033 252.95 420.083 243.111 420.083H117.889C108.05 420.083 100 412.033 100 402.194C100 392.356 108.05 384.306 117.889 384.306H243.111C252.95 384.306 261 392.356 261 402.194Z" fill="#FDD888"/>
<path d="M113.417 420.083H247.583V429.028H113.417V420.083Z" fill="#FCAB40"/>
<path d="M184.972 366.417H176.028C168.617 366.417 162.611 372.423 162.611 379.833V509.528H198.389V379.833C198.389 372.427 192.383 366.417 184.972 366.417Z" fill="#DA2F47"/>
<path d="M171.556 384.306C176.475 384.306 177.204 381.998 173.17 379.176L143.108 358.13C139.074 355.308 133.783 356.493 131.341 360.764L122.325 376.542C119.883 380.813 121.914 384.306 126.833 384.306H171.556ZM189.444 384.306C184.525 384.306 183.796 381.998 187.83 379.176L217.897 358.13C221.926 355.308 227.221 356.493 229.663 360.764L238.679 376.537C241.116 380.813 239.086 384.306 234.167 384.306H189.444Z" fill="#DA2F47"/>
</g>
<g clip-path="url(#clip1_3_2)">
<path d="M256.881 475.396C258.987 480.542 256.499 486.477 251.352 488.583L199.884 509.645C194.737 511.751 188.803 509.263 186.697 504.117L170.421 464.346C168.315 459.199 170.803 453.264 175.95 451.158L227.418 430.096C232.565 427.99 238.499 430.478 240.606 435.625L256.881 475.396Z" fill="#FDD888"/>
<path d="M244.752 425.734C246.858 430.881 244.37 436.815 239.223 438.921L173.718 465.728C168.571 467.834 162.637 465.346 160.531 460.199C158.425 455.052 160.913 449.118 166.059 447.012L231.565 420.206C236.711 418.1 242.646 420.587 244.752 425.734Z" fill="#FDD888"/>
<path d="M171.379 466.685L241.563 437.964L243.478 442.643L173.294 471.364L171.379 466.685Z" fill="#FCAB40"/>
<path d="M197.322 423.294L192.643 425.208C188.767 426.795 186.91 431.222 188.497 435.099L216.26 502.943L234.976 495.285L207.213 427.44C205.627 423.566 201.199 421.707 197.322 423.294Z" fill="#DA2F47"/>
<path d="M194.133 435.524C196.706 434.47 196.594 433.107 193.88 432.495L173.648 427.92C170.934 427.308 168.42 429.06 168.057 431.817L166.718 442.001C166.355 444.758 168.165 446.15 170.738 445.097L194.133 435.524ZM203.491 431.694C200.918 432.747 200.042 431.696 201.548 429.356L212.771 411.91C214.275 409.572 217.299 409.058 219.49 410.77L227.583 417.091C229.773 418.806 229.459 421.067 226.886 422.12L203.491 431.694Z" fill="#DA2F47"/>
</g>
<path d="M186.75 491.917C186.75 495.033 184.2 497.583 181.083 497.583H149.917C146.8 497.583 144.25 495.033 144.25 491.917V467.833C144.25 464.717 146.8 462.167 149.917 462.167H181.083C184.2 462.167 186.75 464.717 186.75 467.833V491.917Z" fill="#FDD888"/>
<path d="M191 463.583C191 466.7 188.45 469.25 185.333 469.25H145.667C142.55 469.25 140 466.7 140 463.583C140 460.467 142.55 457.917 145.667 457.917H185.333C188.45 457.917 191 460.467 191 463.583Z" fill="#FDD888"/>
<path d="M144.25 469.25H186.75V472.083H144.25V469.25Z" fill="#FCAB40"/>
<path d="M166.917 452.25H164.083C161.736 452.25 159.833 454.153 159.833 456.5V497.583H171.167V456.5C171.167 454.154 169.264 452.25 166.917 452.25Z" fill="#DA2F47"/>
<path d="M162.667 457.917C164.225 457.917 164.456 457.186 163.178 456.292L153.655 449.625C152.377 448.731 150.702 449.106 149.928 450.459L147.072 455.457C146.299 456.81 146.942 457.917 148.5 457.917H162.667ZM168.333 457.917C166.775 457.917 166.544 457.186 167.822 456.292L177.346 449.625C178.623 448.731 180.3 449.106 181.073 450.459L183.929 455.456C184.702 456.81 184.058 457.917 182.5 457.917H168.333Z" fill="#DA2F47"/>
</g>
<g opacity="0.13">
<path d="M46.9081 270.145C46.5814 270.471 46.3335 270.865 46.1264 271.297L46.1031 271.273L13.3908 344.964L13.4229 344.996C12.8163 346.171 13.8312 348.563 15.9107 350.645C17.9903 352.725 20.3818 353.74 21.5572 353.133L21.5864 353.162L95.2765 320.447L95.2532 320.421C95.6819 320.216 96.0757 319.969 96.4052 319.636C100.961 315.08 93.5733 300.308 79.9091 286.641C66.2391 272.974 51.4667 265.589 46.9081 270.145Z" fill="#DD2E44"/>
<path d="M50.9154 283.304L14.2133 343.112L13.3908 344.964L13.4229 344.996C12.8163 346.171 13.8312 348.563 15.9107 350.645C16.5874 351.322 17.2903 351.835 17.9786 352.27L62.5817 297.887L50.9154 283.304Z" fill="#EA596E"/>
<path d="M80.1162 286.413C93.7366 300.04 101.299 314.564 97.0002 318.857C92.7041 323.156 78.1796 315.597 64.5504 301.976C50.9271 288.35 43.3674 273.82 47.6635 269.524C51.9625 265.227 66.4871 272.787 80.1162 286.413Z" fill="#A0041E"/>
<path d="M67.2191 287.997C66.6387 288.467 65.8804 288.712 65.0783 288.624C62.5468 288.35 60.4177 287.469 58.9273 286.078C57.3494 284.605 56.5707 282.628 56.7836 280.647C57.1569 277.171 60.6452 273.98 66.592 274.622C68.9049 274.87 69.9374 274.126 69.9724 273.77C70.0132 273.417 69.1645 272.469 66.8516 272.218C64.32 271.944 62.1909 271.063 60.6977 269.672C59.1198 268.199 58.3381 266.222 58.554 264.242C58.9331 260.765 62.4184 257.574 68.3595 258.219C70.0453 258.4 70.9348 258.053 71.3111 257.828C71.6115 257.644 71.7311 257.469 71.7427 257.367C71.7777 257.014 70.9407 256.066 68.622 255.816C67.0208 255.641 65.86 254.206 66.0379 252.602C66.21 251 67.642 249.842 69.249 250.017C75.1901 250.656 77.92 254.515 77.5438 257.994C77.1646 261.477 73.6793 264.662 67.7324 264.023C66.0467 263.839 65.1658 264.189 64.7867 264.414C64.4863 264.595 64.3638 264.772 64.3521 264.872C64.3142 265.227 65.1571 266.172 67.4758 266.423C73.4168 267.065 76.1467 270.921 75.7705 274.4C75.3943 277.877 71.909 281.067 65.965 280.423C64.2792 280.242 63.3926 280.592 63.0134 280.814C62.7101 281 62.5934 281.175 62.5818 281.274C62.5438 281.627 63.3867 282.575 65.7025 282.826C67.3008 283.001 68.4645 284.439 68.2866 286.04C68.2049 286.839 67.7995 287.53 67.2191 287.997Z" fill="#AA8DD8"/>
<path d="M102.425 314.97C108.179 313.345 112.149 315.912 113.094 319.28C114.039 322.646 111.991 326.907 106.24 328.526C103.994 329.156 103.32 330.229 103.411 330.57C103.51 330.914 104.65 331.48 106.89 330.847C112.642 329.229 116.611 331.795 117.556 335.161C118.507 338.53 116.454 342.785 110.699 344.407C108.457 345.037 107.78 346.113 107.879 346.454C107.975 346.795 109.113 347.361 111.356 346.731C112.901 346.297 114.517 347.198 114.952 348.746C115.383 350.298 114.482 351.908 112.931 352.345C107.182 353.964 103.21 351.403 102.259 348.032C101.314 344.666 103.364 340.411 109.122 338.789C111.367 338.156 112.041 337.086 111.942 336.742C111.849 336.401 110.711 335.832 108.471 336.462C102.714 338.083 98.7473 335.523 97.7994 332.148C96.8515 328.782 98.9018 324.527 104.656 322.903C106.896 322.276 107.57 321.196 107.477 320.858C107.377 320.514 106.243 319.948 104 320.578C102.448 321.016 100.841 320.112 100.404 318.563C99.9693 317.017 100.873 315.407 102.425 314.97Z" fill="#77B255"/>
<path d="M80.0841 307.104C79.2266 307.104 78.3808 306.727 77.8034 306.01C76.7971 304.75 77.0042 302.915 78.2583 301.909C78.8942 301.399 94.0603 289.487 115.494 292.553C117.09 292.78 118.198 294.256 117.97 295.851C117.743 297.444 116.279 298.564 114.669 298.325C95.7315 295.636 82.0411 306.357 81.907 306.465C81.3645 306.897 80.7228 307.104 80.0841 307.104Z" fill="#AA8DD8"/>
<path d="M29.782 294.971C29.5049 294.971 29.222 294.93 28.942 294.848C27.3991 294.384 26.5242 292.76 26.9879 291.217C30.2924 280.213 33.2877 262.652 29.607 258.073C29.1957 257.554 28.5745 257.043 27.1512 257.151C24.4155 257.361 24.675 263.133 24.678 263.192C24.8005 264.799 23.593 266.199 21.9889 266.318C20.3585 266.417 18.9819 265.233 18.8623 263.626C18.5619 259.604 19.8131 251.858 26.7137 251.336C29.7936 251.102 32.3515 252.173 34.1568 254.419C41.072 263.025 34.0518 287.977 32.576 292.894C32.1969 294.157 31.0361 294.971 29.782 294.971Z" fill="#77B255"/>
<path d="M87.3726 280.388C89.7888 280.388 91.7475 278.429 91.7475 276.013C91.7475 273.597 89.7888 271.638 87.3726 271.638C84.9564 271.638 82.9978 273.597 82.9978 276.013C82.9978 278.429 84.9564 280.388 87.3726 280.388Z" fill="#5C913B"/>
<path d="M18.8331 306.637C22.0547 306.637 24.6663 304.025 24.6663 300.804C24.6663 297.582 22.0547 294.971 18.8331 294.971C15.6116 294.971 13 297.582 13 300.804C13 304.025 15.6116 306.637 18.8331 306.637Z" fill="#9266CC"/>
<path d="M107.789 309.553C110.205 309.553 112.163 307.595 112.163 305.179C112.163 302.762 110.205 300.804 107.789 300.804C105.372 300.804 103.414 302.762 103.414 305.179C103.414 307.595 105.372 309.553 107.789 309.553Z" fill="#5C913B"/>
<path d="M81.5395 344.552C83.9556 344.552 85.9143 342.594 85.9143 340.178C85.9143 337.761 83.9556 335.803 81.5395 335.803C79.1233 335.803 77.1646 337.761 77.1646 340.178C77.1646 342.594 79.1233 344.552 81.5395 344.552Z" fill="#5C913B"/>
<path d="M94.664 265.805C97.8856 265.805 100.497 263.193 100.497 259.972C100.497 256.75 97.8856 254.139 94.664 254.139C91.4425 254.139 88.8309 256.75 88.8309 259.972C88.8309 263.193 91.4425 265.805 94.664 265.805Z" fill="#FFCC4D"/>
<path d="M107.789 277.471C110.205 277.471 112.163 275.512 112.163 273.096C112.163 270.68 110.205 268.721 107.789 268.721C105.372 268.721 103.414 270.68 103.414 273.096C103.414 275.512 105.372 277.471 107.789 277.471Z" fill="#FFCC4D"/>
<path d="M99.0389 289.137C101.455 289.137 103.414 287.179 103.414 284.763C103.414 282.346 101.455 280.388 99.0389 280.388C96.6228 280.388 94.6641 282.346 94.6641 284.763C94.6641 287.179 96.6228 289.137 99.0389 289.137Z" fill="#FFCC4D"/>
<path d="M34.8743 321.22C37.2905 321.22 39.2492 319.261 39.2492 316.845C39.2492 314.429 37.2905 312.47 34.8743 312.47C32.4581 312.47 30.4994 314.429 30.4994 316.845C30.4994 319.261 32.4581 321.22 34.8743 321.22Z" fill="#FFCC4D"/>
</g>
<g opacity="0.15">
<path d="M224.37 192.037L200.159 177.212L196.717 143.32C196.585 142.013 195.61 140.942 194.322 140.688C193.033 140.434 191.724 141.054 191.105 142.212L175.044 172.253L147.012 176.764C145.774 176.964 144.795 177.909 144.552 179.138C144.31 180.365 144.856 181.617 145.925 182.27L170.125 197.09L173.377 231.957C173.501 233.274 174.477 234.354 175.777 234.611C177.075 234.867 178.391 234.24 179.007 233.065L195.267 202.051L223.286 197.541C224.517 197.345 225.5 196.398 225.743 195.169C225.985 193.942 225.436 192.693 224.37 192.037Z" fill="#FFAC33"/>
<path d="M159.293 212.736L152.997 208.883L152.268 198.675C152.174 197.327 151.19 196.212 149.866 195.95C148.542 195.689 147.208 196.347 146.607 197.554L142.053 206.719L134.768 207.891C133.53 208.088 132.55 209.038 132.307 210.265C132.065 211.492 132.611 212.744 133.68 213.397L139.94 217.234L140.503 228.39C140.574 229.759 141.565 230.906 142.912 231.172C144.259 231.438 145.611 230.753 146.198 229.512L150.959 219.407L158.207 218.236C159.444 218.041 160.424 217.091 160.666 215.865C160.909 214.638 160.363 213.386 159.293 212.736ZM159.114 146.639L152.683 142.701L151.482 135.252C151.284 134.014 150.337 133.034 149.107 132.792C147.88 132.549 146.632 133.096 145.976 134.165L142.037 140.599L134.589 141.797C133.35 141.998 132.371 142.945 132.128 144.171C131.886 145.398 132.432 146.65 133.501 147.303L139.936 151.242L141.133 158.69C141.334 159.928 142.281 160.908 143.508 161.151C144.735 161.393 145.983 160.846 146.64 159.777L150.578 153.343L158.027 152.145C159.265 151.945 160.245 150.998 160.487 149.771C160.729 148.544 160.183 147.295 159.114 146.639Z" fill="#FFCC4D"/>
</g>
<g opacity="0.15">
<path d="M72.662 167.184C70.9037 166.732 69.6126 165.131 69.6252 163.23C69.6213 162.66 69.4641 148.809 57.1733 142.145C39.9044 132.775 46.2799 107.144 46.5599 106.057C47.1179 103.89 49.323 102.592 51.4865 103.145C53.6264 103.838 54.9614 105.902 54.4113 108.07C54.3577 108.278 49.3326 128.667 61.0378 135.021C77.6722 144.043 77.7377 162.507 77.7243 163.291C77.7133 165.527 75.885 167.328 73.646 167.312C73.3079 167.309 72.9759 167.265 72.662 167.184Z" fill="#FCAB40"/>
<path d="M44.5383 113.906C40.2212 112.794 39.0804 109.131 42.0099 105.768L49.2109 97.4864C52.1365 94.1218 55.2958 94.9355 56.2321 99.2947L58.5367 110.024C59.4729 114.384 56.7048 117.04 52.3876 115.928L44.5383 113.906Z" fill="#BB1A34"/>
<path d="M99.958 61.2196C93.8931 84.7676 60.3555 101.24 52.5062 99.2182C44.6569 97.1965 23.2492 66.5728 29.3141 43.0249C35.1759 20.2658 56.3943 12.3345 73.7334 16.8003C91.0726 21.2661 105.82 38.4605 99.958 61.2196Z" fill="#BB1A34"/>
<path d="M55.4201 104.154L47.5707 102.132C45.4043 101.574 44.0979 99.3669 44.6569 97.1965C45.2159 95.0262 47.426 93.7247 49.5924 94.2827L57.4417 96.3043C59.612 96.8633 60.9145 99.0695 60.3555 101.24C59.7966 103.41 57.5904 104.713 55.4201 104.154Z" fill="#FCAB40"/>
</g>
</g>
<defs>
<clipPath id="clip0_3_2">
<rect width="240" height="480" fill="white"/>
</clipPath>
<clipPath id="clip1_3_2">
<rect width="91" height="91" fill="white" transform="translate(150 434.465) rotate(-22.2555)"/>
</clipPath>
</defs>
</svg>
