<svg width="240" height="480" viewBox="0 0 240 480" fill="none" xmlns="http://www.w3.org/2000/svg">
<g opacity="0.2">
<path d="M230.575 382.457C230.575 362.322 214.253 346 194.122 346C181.901 346 171.117 352.033 164.5 361.254C157.883 352.033 147.099 346 134.882 346C114.747 346 98.4248 362.318 98.4248 382.457C98.4248 385.309 98.7869 388.072 99.4075 390.736C104.469 422.187 139.437 455.367 164.5 464.477C189.559 455.367 224.531 422.187 229.585 390.74C230.213 388.076 230.575 385.313 230.575 382.457Z" fill="#DD2E44"/>
<path d="M231 394.157C227.306 412.629 216.222 423.713 216.222 423.713H112.778C112.778 423.713 101.694 412.629 98 394.157H231Z" fill="#FDD888"/>
<path d="M149.722 405.24V471.74L131.25 453.268L112.778 471.74V405.24H149.722Z" fill="#FDD888"/>
<path d="M160.074 372.707L130.966 393.082L101.861 372.707C99.7364 371.222 98 372.123 98 374.717V428.87C98 431.467 99.7733 432.435 101.949 431.02L130.966 412.156L159.982 431.02C162.154 432.435 163.931 431.467 163.931 428.87V374.717C163.935 372.123 162.195 371.222 160.074 372.707Z" fill="#FDCB58"/>
<path d="M131.25 416.324C139.412 416.324 146.028 409.708 146.028 401.546C146.028 393.384 139.412 386.768 131.25 386.768C123.088 386.768 116.472 393.384 116.472 401.546C116.472 409.708 123.088 416.324 131.25 416.324Z" fill="#FDD888"/>
</g>
<g opacity="0.1">
<path d="M187.385 243.846C187.385 247.245 184.629 250 181.231 250H138.154C134.755 250 132 247.245 132 243.846V216.154C132 212.755 134.755 210 138.154 210H181.231C184.629 210 187.385 212.755 187.385 216.154V243.846Z" fill="#CCD6DD"/>
<path d="M150.383 229.44L132.98 246.843C132.939 246.888 132.923 246.942 132.888 246.985C133.411 247.862 134.14 248.589 135.017 249.114C135.062 249.078 135.114 249.063 135.155 249.022L152.562 231.615C153.162 231.014 153.162 230.042 152.562 229.44C151.959 228.838 150.986 228.838 150.383 229.44ZM186.497 246.985C186.465 246.942 186.446 246.888 186.405 246.846L169.002 229.44C168.399 228.838 167.426 228.838 166.825 229.44C166.223 230.043 166.223 231.015 166.825 231.615L184.229 249.022C184.269 249.062 184.325 249.078 184.368 249.114C185.246 248.591 185.974 247.862 186.497 246.985Z" fill="#99AAB5"/>
<path d="M181.231 210H138.154C134.755 210 132 212.755 132 216.154V217.738L154.349 240.04C157.265 242.952 162.023 242.952 164.942 240.04L187.385 217.706V216.154C187.385 212.755 184.629 210 181.231 210Z" fill="#99AAB5"/>
<path d="M181.231 210H138.154C135.711 210 133.617 211.437 132.623 213.5L155.34 236.218C157.743 238.622 161.642 238.622 164.043 236.218L186.762 213.5C185.768 211.437 183.675 210 181.231 210Z" fill="#E1E8ED"/>
<path d="M173.538 228.123C173.538 223.886 170.105 220.451 165.868 220.451C163.295 220.451 161.025 221.722 159.632 223.662C158.238 221.722 155.969 220.451 153.4 220.451C149.163 220.451 145.728 223.886 145.728 228.123C145.728 228.725 145.805 229.306 145.934 229.866C147 236.485 154.358 243.468 159.632 245.385C164.906 243.468 172.266 236.485 173.331 229.868C173.462 229.306 173.538 228.723 173.538 228.123Z" fill="#DD2E44"/>
</g>
<g opacity="0.15">
<path d="M71.4616 325.342C68.9899 324.942 63.0469 320.936 58.7739 322.271C54.5009 323.607 54.8356 324.675 52.6986 325.344C50.5615 326.012 50.228 324.943 45.955 326.279C41.6831 327.614 39.0791 334.291 37.2767 336.028C37.2767 336.028 35.4944 337.83 36.1415 339.9C36.7897 341.97 38.9468 341.368 38.9468 341.368C46.4253 339.031 48.9615 335.892 48.9615 335.892C48.9615 335.892 52.8331 337.027 56.0376 336.025C59.242 335.024 61.7793 331.885 61.7793 331.885C61.7793 331.885 65.6531 333.02 73.1305 330.683C73.1305 330.683 75.2453 329.948 74.5982 327.879C73.95 325.808 71.4616 325.342 71.4616 325.342ZM70.2585 332.754C63.8496 334.757 65.1861 339.03 57.7076 341.368C50.2291 343.705 48.8937 339.433 42.4848 341.436C40.3489 342.104 39.6139 343.505 39.9486 344.576C40.9493 347.779 49.2962 355.722 61.0477 352.051C72.7981 348.378 75.1353 337.094 74.1335 333.891C73.7988 332.82 72.3945 332.086 70.2585 332.754Z" fill="#DD2E44"/>
</g>
<g opacity="0.15">
<path d="M107.064 300.985C105.596 300.748 102.066 298.368 99.5274 299.161C96.9893 299.954 97.1881 300.589 95.9187 300.986C94.6494 301.383 94.4512 300.748 91.9131 301.541C89.3757 302.335 87.8289 306.301 86.7584 307.332C86.7584 307.332 85.6997 308.403 86.084 309.633C86.4691 310.862 87.7504 310.504 87.7504 310.504C92.1925 309.116 93.699 307.252 93.699 307.252C93.699 307.252 95.9987 307.926 97.9021 307.331C99.8055 306.736 101.313 304.871 101.313 304.871C101.313 304.871 103.614 305.546 108.055 304.157C108.055 304.157 109.311 303.721 108.927 302.492C108.542 301.262 107.064 300.985 107.064 300.985ZM106.349 305.388C102.542 306.577 103.336 309.115 98.894 310.504C94.4519 311.893 93.6587 309.355 89.8519 310.545C88.5832 310.942 88.1466 311.774 88.3454 312.41C88.9398 314.312 93.8978 319.031 100.878 316.85C107.858 314.668 109.246 307.966 108.651 306.063C108.452 305.427 107.618 304.991 106.349 305.388Z" fill="#DD2E44"/>
</g>
<g opacity="0.1">
<path d="M51.5337 170.696L29.1467 148.312C28.5216 147.689 30.7825 145.428 31.4077 146.05L53.7946 168.435C54.4198 169.06 51.8455 171.009 51.5337 170.696Z" fill="#FFAC33"/>
<path d="M80.422 165.969C80.422 158.229 74.1477 151.956 66.4088 151.956C61.7111 151.956 57.5666 154.275 55.0226 157.82C52.4803 154.275 48.3326 151.956 43.6365 151.956C35.8975 151.956 29.6232 158.229 29.6232 165.969C29.6232 167.066 29.7623 168.13 30.0006 169.151C31.9465 181.243 45.3889 193.996 55.0226 197.499C64.6547 193.998 78.0987 181.243 80.0415 169.153C80.2829 168.13 80.422 167.066 80.422 165.969Z" fill="#DD2E44"/>
<path d="M81.1432 183.999C81.1432 183.999 73.9335 176.884 70.8939 176.884L61.8486 176.87L59.9378 178.78L59.9522 187.826C59.9522 190.865 67.0676 198.075 67.0676 198.075C68.4395 199.333 70.1456 200 71.3768 200C72.3905 200 73.1996 199.559 73.7832 198.761C74.2789 198.078 74.4643 197.175 74.4643 196.071C74.4643 194.066 73.5753 191.492 72.2418 189.175C74.5587 190.507 77.133 191.398 79.1381 191.398C80.2398 191.398 81.1448 191.212 81.8275 190.716C82.6254 190.133 83.0667 189.324 83.0667 188.31C83.0683 187.077 82.4016 185.373 81.1432 183.999Z" fill="#FFCC4D"/>
<path d="M76.22 194.837C75.8107 194.837 75.4413 194.642 75.1279 194.33L53.7195 172.907C53.0943 172.282 55.3552 170.021 55.9804 170.645L77.3904 192.069C78.0156 192.694 77.9948 193.726 77.3696 194.351C77.0594 194.661 76.6309 194.837 76.22 194.837Z" fill="#FFAC33"/>
<path d="M26 144.599C26 144.185 26.1615 143.782 26.4573 143.479C26.8538 143.076 27.4343 142.911 27.9843 143.047L38.4431 145.645C39.1658 145.826 39.6103 146.478 39.6567 147.227C39.6423 147.97 39.1178 148.608 38.3887 148.763C38.1585 148.813 32.5749 150.095 31.9849 155.24C31.8969 156.003 31.2813 156.596 30.5138 156.652C29.7495 156.71 29.0508 156.214 28.8525 155.472L26.0544 145.012C26.0176 144.876 26 144.739 26 144.599Z" fill="#FFCC4D"/>
<path d="M61.2138 168.411C61.1642 169.19 60.5502 169.834 59.7491 169.9C54.5237 170.33 53.753 173.289 53.0063 176.152L52.8336 176.809C52.5986 177.661 51.7192 178.161 50.8685 177.928C50.0179 177.693 49.5206 176.818 49.7493 175.963L49.914 175.346C50.6958 172.348 52.0022 167.33 59.4885 166.713C60.3695 166.641 61.1418 167.295 61.2138 168.174C61.2186 168.256 61.2186 168.334 61.2138 168.411Z" fill="#A0041E"/>
</g>
<g opacity="0.15">
<path d="M87.655 15.0779C87.655 6.75051 80.9045 0 72.5786 0C67.5241 0 63.064 2.49515 60.3275 6.30893C57.5909 2.49515 53.1308 0 48.0779 0C39.7505 0 33 6.74898 33 15.0779C33 16.2574 33.1497 17.4004 33.4064 18.502C35.4997 31.5095 49.9618 45.2321 60.3275 49C70.6916 45.2321 85.1552 31.5095 87.2455 18.5035C87.5052 17.4019 87.655 16.259 87.655 15.0779Z" fill="#F4ABBA"/>
<path d="M80.8372 17.4294C80.8372 11.1785 75.7721 6.11336 69.5227 6.11336C65.7303 6.11336 62.3826 7.9851 60.3275 10.8485C58.2739 7.9851 54.9262 6.11336 51.1338 6.11336C44.8844 6.11336 39.8177 11.1785 39.8177 17.4294C39.8177 18.3141 39.9308 19.1728 40.1218 19.9979C41.6941 29.76 52.5471 40.0615 60.3275 42.8882C68.1063 40.0599 78.9609 29.76 80.5316 19.9994C80.7257 19.1728 80.8372 18.3141 80.8372 17.4294Z" fill="#EA596E"/>
<path d="M74.3709 19.6587C74.3709 15.3789 70.9024 11.9089 66.6242 11.9089C64.0266 11.9089 61.7347 13.1908 60.3275 15.1527C58.9218 13.1908 56.6283 11.9089 54.0308 11.9089C49.751 11.9089 46.281 15.3789 46.281 19.6587C46.281 20.2653 46.3574 20.852 46.4888 21.4174C47.566 28.1037 54.998 35.1567 60.3259 37.0926C65.6509 35.1552 73.0874 28.1022 74.1616 21.4174C74.296 20.852 74.3709 20.2638 74.3709 19.6587Z" fill="#DD2E44"/>
</g>
<g opacity="0.2">
<path d="M218.804 31.9147C218.694 33.9306 215.193 35.5497 210.882 35.5497C209.434 35.5497 208.082 35.3637 206.915 35.0451V36.6264C208.083 37.0772 209.435 37.3399 210.882 37.3399C215.263 37.3399 218.814 34.972 218.814 32.0514C218.814 32.0055 218.806 31.9601 218.804 31.9147ZM214.848 27.4759C213.682 27.0246 212.328 26.7633 210.882 26.7633C206.907 26.7633 203.625 28.7139 203.048 31.2559C203.625 29.4618 206.907 28.085 210.882 28.085C212.328 28.085 213.682 28.2692 214.848 28.5883V27.4759Z" fill="#F4ABBA"/>
<path d="M213.865 33.2558C213.865 31.6001 212.523 30.2585 210.868 30.2585C209.863 30.2585 208.976 30.7543 208.433 31.5124C207.889 30.7543 207.002 30.2585 205.997 30.2585C204.342 30.2585 203 31.6001 203 33.2558C203 33.4898 203.03 33.7181 203.081 33.9367C203.497 36.5224 206.372 39.2512 208.433 40C210.493 39.2512 213.369 36.5224 213.784 33.9376C213.835 33.7181 213.865 33.4898 213.865 33.2558ZM218.764 27.0762C218.764 25.9295 217.834 25 216.688 25C215.992 25 215.377 25.3438 215.001 25.8691C214.624 25.3442 214.009 25 213.314 25C212.167 25 211.238 25.9295 211.238 27.0762C211.238 27.2388 211.258 27.3966 211.294 27.5477C211.582 29.3388 213.574 31.229 215.001 31.7473C216.428 31.2286 218.42 29.3388 218.708 27.5482C218.743 27.3966 218.764 27.2388 218.764 27.0762Z" fill="#DD2E44"/>
</g>
<g opacity="0.1">
<path d="M203 143C212.941 143 221 134.941 221 125C221 115.059 212.941 107 203 107C193.059 107 185 115.059 185 125C185 134.941 193.059 143 203 143Z" fill="#FFCC4D"/>
<path d="M201 123.958C200.581 123.958 200.191 123.693 200.051 123.274C199.848 122.675 199.033 120.958 198 120.958C196.938 120.958 196.112 122.785 195.949 123.274C195.774 123.797 195.211 124.082 194.684 123.906C194.16 123.732 193.877 123.165 194.052 122.641C194.177 122.264 195.356 118.957 198.001 118.957C200.646 118.957 201.824 122.264 201.95 122.641C202.125 123.165 201.842 123.732 201.318 123.906C201.212 123.942 201.105 123.958 201 123.958ZM211 123.958C210.581 123.958 210.191 123.693 210.052 123.274C209.849 122.675 209.033 120.958 208 120.958C206.938 120.958 206.111 122.785 205.948 123.274C205.773 123.797 205.212 124.082 204.683 123.906C204.16 123.732 203.876 123.165 204.051 122.641C204.176 122.264 205.355 118.957 207.999 118.957C210.643 118.957 211.822 122.264 211.947 122.641C212.122 123.165 211.839 123.732 211.315 123.906C211.211 123.942 211.105 123.958 211 123.958ZM212.335 127.691C212.157 127.53 211.891 127.52 211.7 127.662C211.661 127.691 207.778 130.562 203 130.562C198.234 130.562 194.338 127.691 194.3 127.662C194.109 127.52 193.843 127.532 193.665 127.691C193.488 127.851 193.448 128.115 193.571 128.319C193.7 128.534 196.788 133.562 203 133.562C209.212 133.562 212.301 128.534 212.429 128.319C212.552 128.114 212.513 127.852 212.335 127.691Z" fill="#664500"/>
<path d="M206.229 110.947C206.229 111.187 206.259 111.419 206.311 111.643C206.736 114.286 209.675 117.074 211.781 117.84C213.446 117.235 215.627 115.364 216.679 113.301C214.59 110.861 211.86 108.987 208.75 107.939C207.318 108.196 206.229 109.441 206.229 110.947ZM198.743 136.078C198.8 135.836 198.833 135.584 198.833 135.324C198.833 133.491 197.347 132.005 195.514 132.005C194.401 132.005 193.42 132.554 192.817 133.394C192.215 132.555 191.233 132.005 190.12 132.005C188.879 132.005 187.809 132.694 187.24 133.703C189.064 136.998 191.89 139.66 195.308 141.277C196.945 139.926 198.439 137.97 198.743 136.078ZM219.301 132.642C219.019 131.692 218.149 130.995 217.107 130.995C216.336 130.995 215.656 131.375 215.239 131.957C214.822 131.375 214.142 130.995 213.371 130.995C212.101 130.995 211.072 132.024 211.072 133.294C211.072 133.474 211.095 133.648 211.134 133.816C211.441 135.721 213.482 137.712 215.043 138.377C216.819 136.777 218.274 134.83 219.301 132.642Z" fill="#FFAC33"/>
<path d="M218.625 110.269C218.625 108.577 217.253 107.206 215.562 107.206C214.535 107.206 213.629 107.713 213.073 108.488C212.517 107.713 211.611 107.206 210.584 107.206C208.892 107.206 207.521 108.577 207.521 110.269C207.521 110.509 207.551 110.741 207.603 110.965C208.029 113.608 210.967 116.396 213.073 117.162C215.179 116.396 218.117 113.608 218.542 110.966C218.595 110.741 218.625 110.509 218.625 110.269ZM197.208 135.408C197.208 133.575 195.722 132.089 193.889 132.089C192.776 132.089 191.795 132.638 191.192 133.478C190.59 132.638 189.608 132.089 188.495 132.089C186.662 132.089 185.176 133.575 185.176 135.408C185.176 135.668 185.209 135.919 185.265 136.162C185.726 139.025 188.909 142.046 191.191 142.876C193.473 142.047 196.656 139.026 197.117 136.163C197.175 135.919 197.208 135.667 197.208 135.408ZM220.948 133.127C220.948 131.857 219.919 130.828 218.649 130.828C217.878 130.828 217.198 131.208 216.781 131.79C216.364 131.208 215.684 130.828 214.913 130.828C213.643 130.828 212.614 131.857 212.614 133.127C212.614 133.307 212.637 133.481 212.676 133.649C212.995 135.632 215.2 137.725 216.781 138.299C218.361 137.725 220.567 135.632 220.885 133.649C220.925 133.481 220.948 133.307 220.948 133.127Z" fill="#DD2E44"/>
</g>
<path d="M120.92 37V30.4545H121.926V37H120.92ZM121.432 29.3636C121.236 29.3636 121.067 29.2969 120.925 29.1634C120.786 29.0298 120.716 28.8693 120.716 28.6818C120.716 28.4943 120.786 28.3338 120.925 28.2003C121.067 28.0668 121.236 28 121.432 28C121.628 28 121.795 28.0668 121.935 28.2003C122.077 28.3338 122.148 28.4943 122.148 28.6818C122.148 28.8693 122.077 29.0298 121.935 29.1634C121.795 29.2969 121.628 29.3636 121.432 29.3636ZM124.706 34.6136L124.689 33.3693H124.893L127.757 30.4545H129.001L125.95 33.5398H125.865L124.706 34.6136ZM123.768 37V28.2727H124.774V37H123.768ZM127.927 37L125.37 33.7614L126.086 33.0625L129.206 37H127.927ZM134.676 33.0625V37H133.67V28.2727H134.676V31.4773H134.761C134.915 31.1392 135.145 30.8707 135.452 30.6719C135.761 30.4702 136.173 30.3693 136.688 30.3693C137.134 30.3693 137.524 30.4588 137.859 30.6378C138.195 30.8139 138.455 31.0852 138.639 31.4517C138.827 31.8153 138.92 32.2784 138.92 32.8409V37H137.915V32.9091C137.915 32.3892 137.78 31.9872 137.51 31.7031C137.243 31.4162 136.872 31.2727 136.398 31.2727C136.068 31.2727 135.773 31.3423 135.511 31.4815C135.253 31.6207 135.048 31.8239 134.898 32.0909C134.75 32.358 134.676 32.6818 134.676 33.0625ZM143.419 37.1364C142.828 37.1364 142.31 36.9957 141.864 36.7145C141.421 36.4332 141.074 36.0398 140.824 35.5341C140.577 35.0284 140.453 34.4375 140.453 33.7614C140.453 33.0795 140.577 32.4844 140.824 31.9759C141.074 31.4673 141.421 31.0724 141.864 30.7912C142.31 30.5099 142.828 30.3693 143.419 30.3693C144.01 30.3693 144.527 30.5099 144.971 30.7912C145.417 31.0724 145.763 31.4673 146.01 31.9759C146.26 32.4844 146.385 33.0795 146.385 33.7614C146.385 34.4375 146.26 35.0284 146.01 35.5341C145.763 36.0398 145.417 36.4332 144.971 36.7145C144.527 36.9957 144.01 37.1364 143.419 37.1364ZM143.419 36.233C143.868 36.233 144.238 36.1179 144.527 35.8878C144.817 35.6577 145.032 35.3551 145.171 34.9801C145.31 34.6051 145.38 34.1989 145.38 33.7614C145.38 33.3239 145.31 32.9162 145.171 32.5384C145.032 32.1605 144.817 31.8551 144.527 31.6222C144.238 31.3892 143.868 31.2727 143.419 31.2727C142.971 31.2727 142.601 31.3892 142.311 31.6222C142.022 31.8551 141.807 32.1605 141.668 32.5384C141.529 32.9162 141.459 33.3239 141.459 33.7614C141.459 34.1989 141.529 34.6051 141.668 34.9801C141.807 35.3551 142.022 35.6577 142.311 35.8878C142.601 36.1179 142.971 36.233 143.419 36.233ZM152.045 34.3239V30.4545H153.051V37H152.045V35.892H151.977C151.824 36.2244 151.585 36.5071 151.261 36.7401C150.938 36.9702 150.528 37.0852 150.034 37.0852C149.625 37.0852 149.261 36.9957 148.943 36.8168C148.625 36.6349 148.375 36.3622 148.193 35.9986C148.011 35.6321 147.92 35.1705 147.92 34.6136V30.4545H148.926V34.5455C148.926 35.0227 149.06 35.4034 149.327 35.6875C149.597 35.9716 149.94 36.1136 150.358 36.1136C150.608 36.1136 150.862 36.0497 151.121 35.9219C151.382 35.794 151.601 35.598 151.777 35.3338C151.956 35.0696 152.045 34.733 152.045 34.3239ZM163.62 30.4545L161.2 37H160.177L157.757 30.4545H158.848L160.654 35.6705H160.723L162.529 30.4545H163.62ZM166.675 37.1534C166.26 37.1534 165.884 37.0753 165.545 36.919C165.207 36.7599 164.939 36.5312 164.74 36.233C164.541 35.9318 164.442 35.5682 164.442 35.142C164.442 34.767 164.516 34.4631 164.663 34.2301C164.811 33.9943 165.009 33.8097 165.256 33.6761C165.503 33.5426 165.776 33.4432 166.074 33.3778C166.375 33.3097 166.678 33.2557 166.982 33.2159C167.379 33.1648 167.702 33.1264 167.949 33.1009C168.199 33.0724 168.381 33.0256 168.494 32.9602C168.611 32.8949 168.669 32.7812 168.669 32.6193V32.5852C168.669 32.1648 168.554 31.8381 168.324 31.6051C168.097 31.3722 167.751 31.2557 167.288 31.2557C166.808 31.2557 166.432 31.3608 166.159 31.571C165.886 31.7812 165.695 32.0057 165.584 32.2443L164.629 31.9034C164.8 31.5057 165.027 31.196 165.311 30.9744C165.598 30.75 165.911 30.5937 166.249 30.5057C166.589 30.4148 166.925 30.3693 167.254 30.3693C167.464 30.3693 167.706 30.3949 167.979 30.446C168.254 30.4943 168.52 30.5952 168.776 30.7486C169.034 30.902 169.249 31.1335 169.419 31.4432C169.589 31.7528 169.675 32.1676 169.675 32.6875V37H168.669V36.1136H168.618C168.55 36.2557 168.436 36.4077 168.277 36.5696C168.118 36.7315 167.906 36.8693 167.642 36.983C167.378 37.0966 167.055 37.1534 166.675 37.1534ZM166.828 36.25C167.226 36.25 167.561 36.1719 167.834 36.0156C168.109 35.8594 168.317 35.6577 168.456 35.4105C168.598 35.1634 168.669 34.9034 168.669 34.6307V33.7102C168.626 33.7614 168.533 33.8082 168.388 33.8509C168.246 33.8906 168.081 33.9261 167.893 33.9574C167.709 33.9858 167.528 34.0114 167.352 34.0341C167.179 34.054 167.038 34.071 166.93 34.0852C166.669 34.1193 166.425 34.1747 166.197 34.2514C165.973 34.3253 165.791 34.4375 165.652 34.5881C165.516 34.7358 165.447 34.9375 165.447 35.1932C165.447 35.5426 165.577 35.8068 165.835 35.9858C166.097 36.1619 166.428 36.25 166.828 36.25ZM172.516 33.0625V37H171.51V30.4545H172.482V31.4773H172.567C172.721 31.1449 172.953 30.8778 173.266 30.6761C173.578 30.4716 173.982 30.3693 174.476 30.3693C174.919 30.3693 175.307 30.4602 175.64 30.642C175.972 30.821 176.23 31.0938 176.415 31.4602C176.6 31.8239 176.692 32.2841 176.692 32.8409V37H175.686V32.9091C175.686 32.3949 175.553 31.9943 175.286 31.7074C175.019 31.4176 174.652 31.2727 174.186 31.2727C173.865 31.2727 173.578 31.3423 173.326 31.4815C173.076 31.6207 172.878 31.8239 172.733 32.0909C172.588 32.358 172.516 32.6818 172.516 33.0625ZM181.905 30.4545H182.911V37.4773C182.911 37.8807 182.841 38.2301 182.702 38.5256C182.565 38.821 182.358 39.0497 182.08 39.2116C181.804 39.3736 181.456 39.4545 181.036 39.4545C181.001 39.4545 180.967 39.4545 180.933 39.4545C180.899 39.4545 180.865 39.4545 180.831 39.4545V38.517C180.865 38.517 180.896 38.517 180.925 38.517C180.953 38.517 180.984 38.517 181.018 38.517C181.325 38.517 181.55 38.4261 181.692 38.2443C181.834 38.0653 181.905 37.8097 181.905 37.4773V30.4545ZM182.399 29.3636C182.203 29.3636 182.034 29.2969 181.892 29.1634C181.753 29.0298 181.683 28.8693 181.683 28.6818C181.683 28.4943 181.753 28.3338 181.892 28.2003C182.034 28.0668 182.203 28 182.399 28C182.595 28 182.763 28.0668 182.902 28.2003C183.044 28.3338 183.115 28.4943 183.115 28.6818C183.115 28.8693 183.044 29.0298 182.902 29.1634C182.763 29.2969 182.595 29.3636 182.399 29.3636ZM187.412 37.1364C186.821 37.1364 186.302 36.9957 185.856 36.7145C185.413 36.4332 185.066 36.0398 184.816 35.5341C184.569 35.0284 184.446 34.4375 184.446 33.7614C184.446 33.0795 184.569 32.4844 184.816 31.9759C185.066 31.4673 185.413 31.0724 185.856 30.7912C186.302 30.5099 186.821 30.3693 187.412 30.3693C188.002 30.3693 188.52 30.5099 188.963 30.7912C189.409 31.0724 189.755 31.4673 190.002 31.9759C190.252 32.4844 190.377 33.0795 190.377 33.7614C190.377 34.4375 190.252 35.0284 190.002 35.5341C189.755 36.0398 189.409 36.4332 188.963 36.7145C188.52 36.9957 188.002 37.1364 187.412 37.1364ZM187.412 36.233C187.86 36.233 188.23 36.1179 188.52 35.8878C188.809 35.6577 189.024 35.3551 189.163 34.9801C189.302 34.6051 189.372 34.1989 189.372 33.7614C189.372 33.3239 189.302 32.9162 189.163 32.5384C189.024 32.1605 188.809 31.8551 188.52 31.6222C188.23 31.3892 187.86 31.2727 187.412 31.2727C186.963 31.2727 186.593 31.3892 186.304 31.6222C186.014 31.8551 185.799 32.1605 185.66 32.5384C185.521 32.9162 185.451 33.3239 185.451 33.7614C185.451 34.1989 185.521 34.6051 185.66 34.9801C185.799 35.3551 186.014 35.6577 186.304 35.8878C186.593 36.1179 186.963 36.233 187.412 36.233ZM196.038 34.3239V30.4545H197.043V37H196.038V35.892H195.969C195.816 36.2244 195.577 36.5071 195.254 36.7401C194.93 36.9702 194.521 37.0852 194.026 37.0852C193.617 37.0852 193.254 36.9957 192.935 36.8168C192.617 36.6349 192.367 36.3622 192.185 35.9986C192.004 35.6321 191.913 35.1705 191.913 34.6136V30.4545H192.918V34.5455C192.918 35.0227 193.052 35.4034 193.319 35.6875C193.589 35.9716 193.933 36.1136 194.35 36.1136C194.6 36.1136 194.854 36.0497 195.113 35.9219C195.374 35.794 195.593 35.598 195.769 35.3338C195.948 35.0696 196.038 34.733 196.038 34.3239Z" fill="white" fill-opacity="0.1"/>
</svg>
