<svg width="240" height="480" viewBox="0 0 240 480" fill="none" xmlns="http://www.w3.org/2000/svg">
<g opacity="0.2">
<path d="M230.575 382.457C230.575 362.322 214.253 346 194.122 346C181.901 346 171.117 352.033 164.5 361.254C157.883 352.033 147.099 346 134.882 346C114.747 346 98.4248 362.318 98.4248 382.457C98.4248 385.309 98.7869 388.072 99.4075 390.736C104.469 422.187 139.437 455.367 164.5 464.477C189.559 455.367 224.531 422.187 229.585 390.74C230.213 388.076 230.575 385.313 230.575 382.457Z" fill="#DD2E44"/>
<path d="M231 394.157C227.306 412.629 216.222 423.713 216.222 423.713H112.778C112.778 423.713 101.694 412.629 98 394.157H231Z" fill="#FDD888"/>
<path d="M149.722 405.24V471.74L131.25 453.268L112.778 471.74V405.24H149.722Z" fill="#FDD888"/>
<path d="M160.074 372.707L130.966 393.082L101.861 372.707C99.7364 371.222 98 372.123 98 374.717V428.87C98 431.467 99.7733 432.435 101.949 431.02L130.966 412.156L159.982 431.02C162.154 432.435 163.931 431.467 163.931 428.87V374.717C163.935 372.123 162.195 371.222 160.074 372.707Z" fill="#FDCB58"/>
<path d="M131.25 416.324C139.412 416.324 146.028 409.708 146.028 401.546C146.028 393.384 139.412 386.768 131.25 386.768C123.088 386.768 116.472 393.384 116.472 401.546C116.472 409.708 123.088 416.324 131.25 416.324Z" fill="#FDD888"/>
</g>
<g opacity="0.1">
<path d="M75.3846 79.8462C75.3846 83.2446 72.6292 86 69.2308 86H26.1538C22.7554 86 20 83.2446 20 79.8462V52.1538C20 48.7554 22.7554 46 26.1538 46H69.2308C72.6292 46 75.3846 48.7554 75.3846 52.1538V79.8462Z" fill="#CCD6DD"/>
<path d="M38.3831 65.44L20.98 82.8431C20.9385 82.8877 20.9231 82.9415 20.8877 82.9846C21.4108 83.8615 22.14 84.5892 23.017 85.1138C23.0616 85.0784 23.1139 85.0631 23.1554 85.0215L40.5616 67.6154C41.1616 67.0138 41.1616 66.0415 40.5616 65.44C39.9585 64.8384 38.9862 64.8384 38.3831 65.44ZM74.497 82.9846C74.4647 82.9415 74.4462 82.8877 74.4046 82.8461L57.0016 65.44C56.3985 64.8384 55.4262 64.8384 54.8246 65.44C54.2231 66.0431 54.2231 67.0154 54.8246 67.6154L72.2293 85.0215C72.2693 85.0615 72.3247 85.0784 72.3677 85.1138C73.2462 84.5908 73.9739 83.8615 74.497 82.9846Z" fill="#99AAB5"/>
<path d="M69.2308 46H26.1538C22.7554 46 20 48.7554 20 52.1538V53.7385L42.3492 76.04C45.2646 78.9523 50.0231 78.9523 52.9415 76.04L75.3846 53.7062V52.1538C75.3846 48.7554 72.6292 46 69.2308 46Z" fill="#99AAB5"/>
<path d="M69.2308 46H26.1539C23.7108 46 21.617 47.4369 20.6231 49.5L43.34 72.2185C45.7431 74.6215 49.6416 74.6215 52.0431 72.2185L74.7616 49.5C73.7677 47.4369 71.6754 46 69.2308 46Z" fill="#E1E8ED"/>
<path d="M61.5384 64.1231C61.5384 59.8861 58.1046 56.4508 53.8676 56.4508C51.2953 56.4508 49.0246 57.7215 47.6322 59.6615C46.2384 57.7215 43.9692 56.4508 41.3999 56.4508C37.163 56.4508 33.7276 59.8861 33.7276 64.1231C33.7276 64.7246 33.8046 65.3061 33.9338 65.8661C34.9999 72.4846 42.3584 79.4677 47.6322 81.3846C52.9061 79.4677 60.2661 72.4846 61.3307 65.8677C61.4615 65.3061 61.5384 64.7231 61.5384 64.1231Z" fill="#DD2E44"/>
</g>
<g opacity="0.15">
<path d="M69.4616 308.342C66.9899 307.942 61.0469 303.936 56.7739 305.271C52.5009 306.607 52.8356 307.675 50.6986 308.344C48.5615 309.012 48.228 307.943 43.955 309.279C39.6831 310.614 37.0791 317.291 35.2767 319.028C35.2767 319.028 33.4944 320.83 34.1415 322.9C34.7897 324.97 36.9468 324.368 36.9468 324.368C44.4253 322.031 46.9615 318.892 46.9615 318.892C46.9615 318.892 50.8331 320.027 54.0376 319.025C57.242 318.024 59.7793 314.885 59.7793 314.885C59.7793 314.885 63.6531 316.02 71.1305 313.683C71.1305 313.683 73.2453 312.948 72.5982 310.879C71.95 308.808 69.4616 308.342 69.4616 308.342ZM68.2585 315.754C61.8496 317.757 63.1861 322.03 55.7076 324.368C48.2291 326.705 46.8937 322.433 40.4848 324.436C38.3489 325.104 37.6139 326.505 37.9486 327.576C38.9493 330.779 47.2962 338.722 59.0477 335.051C70.7981 331.378 73.1353 320.094 72.1335 316.891C71.7988 315.82 70.3945 315.086 68.2585 315.754Z" fill="#DD2E44"/>
</g>
<g opacity="0.15">
<path d="M107.064 288.985C105.596 288.748 102.066 286.368 99.5274 287.161C96.9893 287.954 97.1881 288.589 95.9187 288.986C94.6494 289.383 94.4512 288.748 91.9131 289.541C89.3757 290.335 87.8289 294.301 86.7584 295.332C86.7584 295.332 85.6997 296.403 86.084 297.633C86.4691 298.862 87.7504 298.504 87.7504 298.504C92.1925 297.116 93.699 295.252 93.699 295.252C93.699 295.252 95.9987 295.926 97.9021 295.331C99.8055 294.736 101.313 292.871 101.313 292.871C101.313 292.871 103.614 293.546 108.055 292.157C108.055 292.157 109.311 291.721 108.927 290.492C108.542 289.262 107.064 288.985 107.064 288.985ZM106.349 293.388C102.542 294.577 103.336 297.115 98.894 298.504C94.4519 299.893 93.6587 297.355 89.8519 298.545C88.5832 298.942 88.1466 299.774 88.3454 300.41C88.9398 302.312 93.8978 307.031 100.878 304.85C107.858 302.668 109.246 295.966 108.651 294.063C108.452 293.427 107.618 292.991 106.349 293.388Z" fill="#DD2E44"/>
</g>
<g opacity="0.2">
<path d="M218.804 31.9147C218.694 33.9306 215.193 35.5497 210.882 35.5497C209.434 35.5497 208.082 35.3637 206.915 35.0451V36.6264C208.083 37.0772 209.435 37.3399 210.882 37.3399C215.263 37.3399 218.814 34.972 218.814 32.0514C218.814 32.0055 218.806 31.9601 218.804 31.9147ZM214.848 27.4759C213.682 27.0246 212.328 26.7633 210.882 26.7633C206.907 26.7633 203.625 28.7139 203.048 31.2559C203.625 29.4618 206.907 28.085 210.882 28.085C212.328 28.085 213.682 28.2692 214.848 28.5883V27.4759Z" fill="#F4ABBA"/>
<path d="M213.865 33.2558C213.865 31.6001 212.523 30.2585 210.868 30.2585C209.863 30.2585 208.976 30.7543 208.433 31.5124C207.889 30.7543 207.002 30.2585 205.997 30.2585C204.342 30.2585 203 31.6001 203 33.2558C203 33.4898 203.03 33.7181 203.081 33.9367C203.497 36.5224 206.372 39.2512 208.433 40C210.493 39.2512 213.369 36.5224 213.784 33.9376C213.835 33.7181 213.865 33.4898 213.865 33.2558ZM218.764 27.0762C218.764 25.9295 217.834 25 216.688 25C215.992 25 215.377 25.3438 215.001 25.8691C214.624 25.3442 214.009 25 213.314 25C212.167 25 211.238 25.9295 211.238 27.0762C211.238 27.2388 211.258 27.3966 211.294 27.5477C211.582 29.3388 213.574 31.229 215.001 31.7473C216.428 31.2286 218.42 29.3388 218.708 27.5482C218.743 27.3966 218.764 27.2388 218.764 27.0762Z" fill="#DD2E44"/>
</g>
<g opacity="0.1">
<path d="M201 183C210.941 183 219 174.941 219 165C219 155.059 210.941 147 201 147C191.059 147 183 155.059 183 165C183 174.941 191.059 183 201 183Z" fill="#FFCC4D"/>
<path d="M199 163.958C198.581 163.958 198.191 163.693 198.051 163.274C197.848 162.675 197.033 160.958 196 160.958C194.938 160.958 194.112 162.785 193.949 163.274C193.774 163.797 193.211 164.082 192.684 163.906C192.16 163.732 191.877 163.165 192.052 162.641C192.177 162.264 193.356 158.957 196.001 158.957C198.646 158.957 199.824 162.264 199.95 162.641C200.125 163.165 199.842 163.732 199.318 163.906C199.212 163.942 199.105 163.958 199 163.958ZM209 163.958C208.581 163.958 208.191 163.693 208.052 163.274C207.849 162.675 207.033 160.958 206 160.958C204.938 160.958 204.111 162.785 203.948 163.274C203.773 163.797 203.212 164.082 202.683 163.906C202.16 163.732 201.876 163.165 202.051 162.641C202.176 162.264 203.355 158.957 205.999 158.957C208.643 158.957 209.822 162.264 209.947 162.641C210.122 163.165 209.839 163.732 209.315 163.906C209.211 163.942 209.105 163.958 209 163.958ZM210.335 167.691C210.157 167.53 209.891 167.52 209.7 167.662C209.661 167.691 205.778 170.562 201 170.562C196.234 170.562 192.338 167.691 192.3 167.662C192.109 167.52 191.843 167.532 191.665 167.691C191.488 167.851 191.448 168.115 191.571 168.319C191.7 168.534 194.788 173.562 201 173.562C207.212 173.562 210.301 168.534 210.429 168.319C210.552 168.114 210.513 167.852 210.335 167.691Z" fill="#664500"/>
<path d="M204.229 150.947C204.229 151.187 204.259 151.419 204.311 151.643C204.736 154.286 207.675 157.074 209.781 157.84C211.446 157.235 213.627 155.364 214.679 153.301C212.59 150.861 209.86 148.987 206.75 147.939C205.318 148.196 204.229 149.441 204.229 150.947ZM196.743 176.078C196.8 175.836 196.833 175.584 196.833 175.324C196.833 173.491 195.347 172.005 193.514 172.005C192.401 172.005 191.42 172.554 190.817 173.394C190.215 172.555 189.233 172.005 188.12 172.005C186.879 172.005 185.809 172.694 185.24 173.703C187.064 176.998 189.89 179.66 193.308 181.277C194.945 179.926 196.439 177.97 196.743 176.078ZM217.301 172.642C217.019 171.692 216.149 170.995 215.107 170.995C214.336 170.995 213.656 171.375 213.239 171.957C212.822 171.375 212.142 170.995 211.371 170.995C210.101 170.995 209.072 172.024 209.072 173.294C209.072 173.474 209.095 173.648 209.134 173.816C209.441 175.721 211.482 177.712 213.043 178.377C214.819 176.777 216.274 174.83 217.301 172.642Z" fill="#FFAC33"/>
<path d="M216.625 150.269C216.625 148.577 215.253 147.206 213.562 147.206C212.535 147.206 211.629 147.713 211.073 148.488C210.517 147.713 209.611 147.206 208.584 147.206C206.892 147.206 205.521 148.577 205.521 150.269C205.521 150.509 205.551 150.741 205.603 150.965C206.029 153.608 208.967 156.396 211.073 157.162C213.179 156.396 216.117 153.608 216.542 150.966C216.595 150.741 216.625 150.509 216.625 150.269ZM195.208 175.408C195.208 173.575 193.722 172.089 191.889 172.089C190.776 172.089 189.795 172.638 189.192 173.478C188.59 172.638 187.608 172.089 186.495 172.089C184.662 172.089 183.176 173.575 183.176 175.408C183.176 175.668 183.209 175.919 183.265 176.162C183.726 179.025 186.909 182.046 189.191 182.876C191.473 182.047 194.656 179.026 195.117 176.163C195.175 175.919 195.208 175.667 195.208 175.408ZM218.948 173.127C218.948 171.857 217.919 170.828 216.649 170.828C215.878 170.828 215.198 171.208 214.781 171.79C214.364 171.208 213.684 170.828 212.913 170.828C211.643 170.828 210.614 171.857 210.614 173.127C210.614 173.307 210.637 173.481 210.676 173.649C210.995 175.632 213.2 177.725 214.781 178.299C216.361 177.725 218.567 175.632 218.885 173.649C218.925 173.481 218.948 173.307 218.948 173.127Z" fill="#DD2E44"/>
</g>
<path d="M120.92 37V30.4545H121.926V37H120.92ZM121.432 29.3636C121.236 29.3636 121.067 29.2969 120.925 29.1634C120.786 29.0298 120.716 28.8693 120.716 28.6818C120.716 28.4943 120.786 28.3338 120.925 28.2003C121.067 28.0668 121.236 28 121.432 28C121.628 28 121.795 28.0668 121.935 28.2003C122.077 28.3338 122.148 28.4943 122.148 28.6818C122.148 28.8693 122.077 29.0298 121.935 29.1634C121.795 29.2969 121.628 29.3636 121.432 29.3636ZM124.706 34.6136L124.689 33.3693H124.893L127.757 30.4545H129.001L125.95 33.5398H125.865L124.706 34.6136ZM123.768 37V28.2727H124.774V37H123.768ZM127.927 37L125.37 33.7614L126.086 33.0625L129.206 37H127.927ZM134.676 33.0625V37H133.67V28.2727H134.676V31.4773H134.761C134.915 31.1392 135.145 30.8707 135.452 30.6719C135.761 30.4702 136.173 30.3693 136.688 30.3693C137.134 30.3693 137.524 30.4588 137.859 30.6378C138.195 30.8139 138.455 31.0852 138.639 31.4517C138.827 31.8153 138.92 32.2784 138.92 32.8409V37H137.915V32.9091C137.915 32.3892 137.78 31.9872 137.51 31.7031C137.243 31.4162 136.872 31.2727 136.398 31.2727C136.068 31.2727 135.773 31.3423 135.511 31.4815C135.253 31.6207 135.048 31.8239 134.898 32.0909C134.75 32.358 134.676 32.6818 134.676 33.0625ZM143.419 37.1364C142.828 37.1364 142.31 36.9957 141.864 36.7145C141.421 36.4332 141.074 36.0398 140.824 35.5341C140.577 35.0284 140.453 34.4375 140.453 33.7614C140.453 33.0795 140.577 32.4844 140.824 31.9759C141.074 31.4673 141.421 31.0724 141.864 30.7912C142.31 30.5099 142.828 30.3693 143.419 30.3693C144.01 30.3693 144.527 30.5099 144.971 30.7912C145.417 31.0724 145.763 31.4673 146.01 31.9759C146.26 32.4844 146.385 33.0795 146.385 33.7614C146.385 34.4375 146.26 35.0284 146.01 35.5341C145.763 36.0398 145.417 36.4332 144.971 36.7145C144.527 36.9957 144.01 37.1364 143.419 37.1364ZM143.419 36.233C143.868 36.233 144.238 36.1179 144.527 35.8878C144.817 35.6577 145.032 35.3551 145.171 34.9801C145.31 34.6051 145.38 34.1989 145.38 33.7614C145.38 33.3239 145.31 32.9162 145.171 32.5384C145.032 32.1605 144.817 31.8551 144.527 31.6222C144.238 31.3892 143.868 31.2727 143.419 31.2727C142.971 31.2727 142.601 31.3892 142.311 31.6222C142.022 31.8551 141.807 32.1605 141.668 32.5384C141.529 32.9162 141.459 33.3239 141.459 33.7614C141.459 34.1989 141.529 34.6051 141.668 34.9801C141.807 35.3551 142.022 35.6577 142.311 35.8878C142.601 36.1179 142.971 36.233 143.419 36.233ZM152.045 34.3239V30.4545H153.051V37H152.045V35.892H151.977C151.824 36.2244 151.585 36.5071 151.261 36.7401C150.938 36.9702 150.528 37.0852 150.034 37.0852C149.625 37.0852 149.261 36.9957 148.943 36.8168C148.625 36.6349 148.375 36.3622 148.193 35.9986C148.011 35.6321 147.92 35.1705 147.92 34.6136V30.4545H148.926V34.5455C148.926 35.0227 149.06 35.4034 149.327 35.6875C149.597 35.9716 149.94 36.1136 150.358 36.1136C150.608 36.1136 150.862 36.0497 151.121 35.9219C151.382 35.794 151.601 35.598 151.777 35.3338C151.956 35.0696 152.045 34.733 152.045 34.3239ZM163.62 30.4545L161.2 37H160.177L157.757 30.4545H158.848L160.654 35.6705H160.723L162.529 30.4545H163.62ZM166.675 37.1534C166.26 37.1534 165.884 37.0753 165.545 36.919C165.207 36.7599 164.939 36.5312 164.74 36.233C164.541 35.9318 164.442 35.5682 164.442 35.142C164.442 34.767 164.516 34.4631 164.663 34.2301C164.811 33.9943 165.009 33.8097 165.256 33.6761C165.503 33.5426 165.776 33.4432 166.074 33.3778C166.375 33.3097 166.678 33.2557 166.982 33.2159C167.379 33.1648 167.702 33.1264 167.949 33.1009C168.199 33.0724 168.381 33.0256 168.494 32.9602C168.611 32.8949 168.669 32.7812 168.669 32.6193V32.5852C168.669 32.1648 168.554 31.8381 168.324 31.6051C168.097 31.3722 167.751 31.2557 167.288 31.2557C166.808 31.2557 166.432 31.3608 166.159 31.571C165.886 31.7812 165.695 32.0057 165.584 32.2443L164.629 31.9034C164.8 31.5057 165.027 31.196 165.311 30.9744C165.598 30.75 165.911 30.5937 166.249 30.5057C166.589 30.4148 166.925 30.3693 167.254 30.3693C167.464 30.3693 167.706 30.3949 167.979 30.446C168.254 30.4943 168.52 30.5952 168.776 30.7486C169.034 30.902 169.249 31.1335 169.419 31.4432C169.589 31.7528 169.675 32.1676 169.675 32.6875V37H168.669V36.1136H168.618C168.55 36.2557 168.436 36.4077 168.277 36.5696C168.118 36.7315 167.906 36.8693 167.642 36.983C167.378 37.0966 167.055 37.1534 166.675 37.1534ZM166.828 36.25C167.226 36.25 167.561 36.1719 167.834 36.0156C168.109 35.8594 168.317 35.6577 168.456 35.4105C168.598 35.1634 168.669 34.9034 168.669 34.6307V33.7102C168.626 33.7614 168.533 33.8082 168.388 33.8509C168.246 33.8906 168.081 33.9261 167.893 33.9574C167.709 33.9858 167.528 34.0114 167.352 34.0341C167.179 34.054 167.038 34.071 166.93 34.0852C166.669 34.1193 166.425 34.1747 166.197 34.2514C165.973 34.3253 165.791 34.4375 165.652 34.5881C165.516 34.7358 165.447 34.9375 165.447 35.1932C165.447 35.5426 165.577 35.8068 165.835 35.9858C166.097 36.1619 166.428 36.25 166.828 36.25ZM172.516 33.0625V37H171.51V30.4545H172.482V31.4773H172.567C172.721 31.1449 172.953 30.8778 173.266 30.6761C173.578 30.4716 173.982 30.3693 174.476 30.3693C174.919 30.3693 175.307 30.4602 175.64 30.642C175.972 30.821 176.23 31.0938 176.415 31.4602C176.6 31.8239 176.692 32.2841 176.692 32.8409V37H175.686V32.9091C175.686 32.3949 175.553 31.9943 175.286 31.7074C175.019 31.4176 174.652 31.2727 174.186 31.2727C173.865 31.2727 173.578 31.3423 173.326 31.4815C173.076 31.6207 172.878 31.8239 172.733 32.0909C172.588 32.358 172.516 32.6818 172.516 33.0625ZM181.905 30.4545H182.911V37.4773C182.911 37.8807 182.841 38.2301 182.702 38.5256C182.565 38.821 182.358 39.0497 182.08 39.2116C181.804 39.3736 181.456 39.4545 181.036 39.4545C181.001 39.4545 180.967 39.4545 180.933 39.4545C180.899 39.4545 180.865 39.4545 180.831 39.4545V38.517C180.865 38.517 180.896 38.517 180.925 38.517C180.953 38.517 180.984 38.517 181.018 38.517C181.325 38.517 181.55 38.4261 181.692 38.2443C181.834 38.0653 181.905 37.8097 181.905 37.4773V30.4545ZM182.399 29.3636C182.203 29.3636 182.034 29.2969 181.892 29.1634C181.753 29.0298 181.683 28.8693 181.683 28.6818C181.683 28.4943 181.753 28.3338 181.892 28.2003C182.034 28.0668 182.203 28 182.399 28C182.595 28 182.763 28.0668 182.902 28.2003C183.044 28.3338 183.115 28.4943 183.115 28.6818C183.115 28.8693 183.044 29.0298 182.902 29.1634C182.763 29.2969 182.595 29.3636 182.399 29.3636ZM187.412 37.1364C186.821 37.1364 186.302 36.9957 185.856 36.7145C185.413 36.4332 185.066 36.0398 184.816 35.5341C184.569 35.0284 184.446 34.4375 184.446 33.7614C184.446 33.0795 184.569 32.4844 184.816 31.9759C185.066 31.4673 185.413 31.0724 185.856 30.7912C186.302 30.5099 186.821 30.3693 187.412 30.3693C188.002 30.3693 188.52 30.5099 188.963 30.7912C189.409 31.0724 189.755 31.4673 190.002 31.9759C190.252 32.4844 190.377 33.0795 190.377 33.7614C190.377 34.4375 190.252 35.0284 190.002 35.5341C189.755 36.0398 189.409 36.4332 188.963 36.7145C188.52 36.9957 188.002 37.1364 187.412 37.1364ZM187.412 36.233C187.86 36.233 188.23 36.1179 188.52 35.8878C188.809 35.6577 189.024 35.3551 189.163 34.9801C189.302 34.6051 189.372 34.1989 189.372 33.7614C189.372 33.3239 189.302 32.9162 189.163 32.5384C189.024 32.1605 188.809 31.8551 188.52 31.6222C188.23 31.3892 187.86 31.2727 187.412 31.2727C186.963 31.2727 186.593 31.3892 186.304 31.6222C186.014 31.8551 185.799 32.1605 185.66 32.5384C185.521 32.9162 185.451 33.3239 185.451 33.7614C185.451 34.1989 185.521 34.6051 185.66 34.9801C185.799 35.3551 186.014 35.6577 186.304 35.8878C186.593 36.1179 186.963 36.233 187.412 36.233ZM196.038 34.3239V30.4545H197.043V37H196.038V35.892H195.969C195.816 36.2244 195.577 36.5071 195.254 36.7401C194.93 36.9702 194.521 37.0852 194.026 37.0852C193.617 37.0852 193.254 36.9957 192.935 36.8168C192.617 36.6349 192.367 36.3622 192.185 35.9986C192.004 35.6321 191.913 35.1705 191.913 34.6136V30.4545H192.918V34.5455C192.918 35.0227 193.052 35.4034 193.319 35.6875C193.589 35.9716 193.933 36.1136 194.35 36.1136C194.6 36.1136 194.854 36.0497 195.113 35.9219C195.374 35.794 195.593 35.598 195.769 35.3338C195.948 35.0696 196.038 34.733 196.038 34.3239Z" fill="white" fill-opacity="0.1"/>
</svg>
